M48
;FILE_FORMAT=2:4
INCH
;TYPE=PLATED
T01C0.020
T02C0.031
T03C0.032
T04C0.036
T05C0.038
T06C0.040
T07C0.043
T08C0.047
T09C0.060
T10C0.079
T11C0.080
T12C0.087
T13C0.092
T14C0.126
T15C0.150
%
T01
X+102550Y+181500
X+103350Y+208200
X+105450Y+167000
X+107300Y+200500
X+105700Y+199250
X+106200Y+209500
X+106850Y+208700
X+107250Y+209200
X+108500Y+164000
X+109900Y+163700
X+108500Y+198850
Y+200050
X+108600Y+211800
X+111900Y+174450
X+111600Y+195400
X+112050Y+211800
X+114500Y+164500
X+116450Y+199600
X+116500Y+206050
X+114450Y+208900
X+115650Y+213500
X+115750Y+215400
X+115450Y+214900
X+115750Y+216950
X+115500Y+216450
X+118800Y+170100
X+118100Y+170500
X+119350Y+171300
X+118100Y+172700
X+118400Y+171600
X+118650Y+184100
X+118950Y+184850
X+119100Y+198800
X+119450Y+201800
X+118600Y+209000
X+118000Y+207400
X+117600Y+208100
X+119550Y+215200
X+120950Y+155000
X+122000Y+156800
X+121000Y+172300
X+120650Y+179450
X+122450Y+180450
X+122500Y+185100
X+120500Y+189500
X+121500Y+195450
X+120500Y+203050
X+122700Y+201400
X+122550Y+206050
X+122450Y+205400
X+124550Y+170250
X+123800Y+170000
X+123400Y+173300
X+123950Y+179500
X+125000Y+184000
X+124500Y+189900
X+123450Y+196100
X+124300Y+196650
X+123600Y+198400
X+124700Y+199900
X+124300Y+201800
X+123450Y+204350
X+125100Y+207500
X+124100Y+209500
X+123700Y+212050
X+125300Y+213700
X+127450Y+189350
X+126950Y+194450
X+126700Y+199850
X+128550Y+199100
X+127100Y+199050
X+127700Y+198800
X+127400Y+201500
X+128400Y+201900
X+128500Y+206000
X+126500Y+206700
X+127650Y+209500
X+127800Y+213850
X+126950Y+215200
X+126550Y+213650
X+127250Y+213550
X+127700Y+215700
X+127650Y+217100
Y+216350
X+129500Y+166000
X+130600Y+193600
X+131500Y+193300
X+130500Y+202000
Y+203050
X+129600Y+204700
X+131150Y+204250
X+129250Y+209200
X+130200Y+208800
X+134500Y+182500
X+134550Y+188550
X+133400Y+190900
X+132900Y+190500
X+134200Y+190900
X+132900Y+189700
X+132800Y+191250
X+133700Y+191550
X+133400Y+194400
X+134300Y+192500
X+132450Y+193100
X+132400Y+194500
X+132300Y+201950
X+134700Y+205000
X+134450Y+206000
X+133750Y+208200
X+134650Y+209500
X+133800Y+210500
X+137000Y+161500
X+135450Y+190900
X+137300Y+191300
X+135450Y+196050
X+137000Y+200500
X+137500Y+199500
X+136900Y+203600
X+136950Y+202900
X+137400Y+201650
X+135350Y+205350
X+137700Y+205400
X+136850Y+215000
X+138500Y+164250
X+140500Y+162400
X+139650Y+166250
X+140600Y+176500
X+139500Y+184550
X+140500
X+140250Y+190300
X+139900Y+190950
X+140400Y+193600
X+138550Y+197500
X+139700Y+195500
X+140100Y+202000
X+138800Y+206650
X+140400Y+204500
X+138800Y+209500
X+138350Y+208500
X+138800Y+211550
X+142000Y+173400
X+141300Y+175700
X+143500Y+174500
X+142900Y+187450
X+142950Y+186500
X+142400Y+190500
X+142300Y+194500
Y+199500
X+141650Y+202600
X+142300Y+206500
X+141250Y+210400
X+146200Y+175150
X+144500Y+174500
X+144700Y+175150
X+144300Y+176050
X+145000
X+145750
X+144500Y+181900
X+145100Y+181100
X+145900Y+182400
X+144450Y+188350
X+146000Y+186550
X+146250Y+187650
X+146700Y+189400
X+145050Y+200250
X+145650Y+198600
X+144750Y+199500
X+146250
X+145500
X+145900Y+200250
X+144600Y+206500
X+145550
X+145100Y+206000
X+148650Y+167000
X+149700Y+173450
X+149400Y+175100
X+149200Y+185400
X+149000Y+183550
X+147600Y+184100
X+148250Y+186850
X+148500Y+187400
X+147600Y+188550
X+148900Y+190500
X+149200Y+196450
X+147900Y+197500
X+147500Y+201250
Y+202200
X+148900Y+201500
X+148500Y+202750
X+149550Y+205500
X+152300Y+171750
X+151700Y+172350
X+150400Y+174900
X+151700Y+191000
X+153500Y+170250
Y+172250
X+154150Y+178500
Y+179500
X+154700Y+182000
X+154500Y+180400
X+155750Y+184500
X+155250Y+183500
X+154000Y+202400
X+157050Y+171750
X+159550Y+171500
X+160550Y+190000
X+110050Y+212800
X+111400Y+201200
X+114250Y+192000
X+115650Y+212850
X+115750Y+215950
X+117650Y+201200
X+121500Y+156000
X+122000Y+165000
X+122550Y+203950
X+121850Y+206900
X+124200Y+170800
X+125500Y+195000
X+124500Y+194800
X+124400Y+210000
X+127500Y+198100
X+127250Y+212950
X+130500Y+209900
X+133700Y+189100
X+132900Y+189050
X+133200Y+192000
X+132300Y+203950
X+133550
X+133500Y+201000
X+132450Y+198000
X+136900Y+213000
X+139700Y+192000
X+138500Y+207150
X+141500Y+162050
X+142000Y+203900
X+141850Y+198000
X+146750Y+165000
X+146250Y+197850
X+148200Y+189000
X+148900Y+192000
X+154750Y+174000
X+155350Y+186000
X+154000Y+195000
X+107950Y+200500
X+113900Y+191300
X+114100Y+194500
X+114050Y+197000
X+123000Y+180750
X+128900Y+185000
X+131900Y+194000
X+132150Y+199900
X+132200Y+198600
X+132100Y+199200
X+129000Y+201800
X+123100Y+210500
X+126000Y+213950
X+135000Y+164500
X+141000Y+172850
X+135200Y+201800
X+135050Y+204400
X+135000Y+205950
X+153200Y+171450
X+149900Y+180650
X+146800Y+188550
X+147000Y+190050
X+117000Y+203950
Y+195000
X+137950Y+164900
X+135000Y+186050
X+141050Y+216000
X+153000Y+183000
Y+186000
T02
X+110000Y+175000
Y+176000
X+108500Y+188500
Y+186500
X+118000Y+198500
Y+200500
X+129500Y+182000
X+131500
X+131000Y+209500
Y+207500
X+145000Y+172250
X+151000
X+151500Y+192500
Y+194500
Y+197500
Y+195500
X+110000Y+171500
Y+170500
Y+177000
Y+178000
X+109000Y+180500
X+110000
Y+188500
Y+185500
X+109500Y+216500
Y+213500
X+108500Y+216500
Y+213500
X+112500Y+162000
Y+163000
Y+164000
Y+165000
X+111500Y+216500
Y+213500
X+115000Y+167500
Y+168500
Y+174000
Y+175000
Y+210500
Y+207500
X+119000Y+193000
Y+191000
X+118000Y+193000
Y+191000
X+119000Y+200500
Y+197500
X+121000Y+170500
Y+173500
X+122000Y+187500
Y+190500
Y+192250
Y+200500
Y+197500
X+121000
Y+200500
Y+194000
Y+196000
X+122000Y+194000
Y+196000
X+127000Y+158500
Y+160500
X+128000Y+158500
Y+160500
X+127000Y+177000
Y+176000
X+130000Y+158500
Y+159500
X+130500Y+186000
Y+184000
X+134000Y+158500
Y+160500
X+133000Y+167500
Y+166500
Y+179000
Y+180000
X+134000Y+173000
Y+174000
X+137000Y+164500
Y+166500
X+136000
Y+167500
X+137000Y+163500
Y+162500
X+139000Y+163500
Y+162500
X+142000Y+178000
Y+181000
X+143000Y+172000
Y+175000
X+142000Y+184000
Y+187000
X+152000Y+171000
Y+173000
X+157500Y+196500
Y+198500
X+106500Y+190000
Y+191000
Y+193000
Y+194000
Y+196000
Y+197000
Y+189000
Y+192000
Y+195000
X+107000Y+180500
Y+183500
X+106500Y+203000
Y+202000
Y+205000
Y+206000
Y+201000
Y+204000
X+110000Y+168500
Y+169500
Y+181500
Y+184500
X+115000Y+169500
Y+170500
X+131000Y+166500
Y+169500
Y+215500
Y+217500
X+109000Y+169500
X+107000
X+117500Y+160000
X+118500
X+117500Y+164000
X+118500
X+117500Y+166000
X+118500
X+114500
X+113500
X+111000Y+171500
X+113000
X+116000Y+176000
Y+175000
X+114000Y+178000
X+115000
X+113000
X+111000
X+112000Y+181500
X+113000
X+112000Y+184500
X+113000
X+112000Y+187500
X+113000
X+120000Y+194000
X+117000
Y+196500
X+120000
X+111000Y+199500
X+113000
X+117000Y+201500
X+120000
X+113000Y+211500
X+114000
X+118000Y+215500
Y+214500
X+113000
X+114000
X+133000Y+160500
X+130000
X+123500Y+161500
Y+159500
X+125000Y+169500
X+123000
X+125000Y+176000
X+126000
X+124000Y+175000
Y+176000
X+130000
X+129000
X+127000Y+182000
X+125000
X+142000Y+157500
X+144000
X+140000Y+159500
X+142000
X+143000Y+160500
X+140000
X+136000
X+137000
X+143000Y+165500
X+140000
X+142000Y+168500
X+144000
X+143000Y+170000
X+140000
X+139000
X+136000
X+142000Y+176000
X+139000
X+138000
X+135000
X+142000Y+182000
X+139000
X+138000
X+135000
X+141000Y+196000
X+139000
Y+205000
X+141000
X+138000Y+217500
X+140000
X+148000Y+170000
X+151000
X+148000Y+175000
X+151000
X+147500Y+176000
X+150500
X+156000Y+175000
X+154000
X+147500Y+182000
X+150500
X+147500Y+181000
X+150500
X+147500Y+187000
X+150500
X+163500Y+172000
X+161500
X+109000Y+167500
X+107000
X+109000Y+174000
X+107000
X+109000Y+176000
X+107000
X+117500Y+162000
X+118500
X+117500Y+165000
X+118500
X+115500
X+113500
X+116500Y+163000
Y+164000
Y+161000
X+113500Y+163000
Y+164000
Y+161000
X+116500Y+162000
X+113500
X+116000Y+178000
Y+177000
Y+174000
Y+173000
Y+172000
Y+171000
X+114000Y+171500
X+115000
Y+176000
Y+177000
X+112000Y+179000
X+111000
X+113000Y+180500
X+112000
X+119000Y+178000
X+117000
X+119000Y+176000
X+117000
X+119000Y+174000
X+117000
X+119000Y+172000
X+117000
X+114000Y+176000
Y+177000
Y+174000
X+111000Y+176000
Y+177000
Y+174000
X+114000Y+175000
X+111000
X+114500Y+185500
Y+183500
X+115500Y+184500
X+114500Y+188500
Y+186500
X+115500Y+187500
X+113000Y+183500
X+112000
Y+185500
X+113000
Y+186500
X+112000
Y+188500
X+113000
X+111000
Y+185500
X+116500Y+182500
X+117500
X+116500Y+185500
X+117500
X+116500Y+189000
X+117500
X+110000Y+189500
X+113000
X+117000Y+197500
Y+200500
X+120000Y+197500
Y+200500
X+110500Y+216500
Y+213500
X+120000Y+206500
X+117000
X+116000
X+114000
X+113000Y+212500
X+114000
X+113000Y+213500
X+114000
X+113000Y+215500
X+114000
X+132000Y+158500
X+133000Y+159500
X+131000
X+126000Y+158500
Y+160500
X+128000Y+167500
X+130000
X+132000Y+168500
Y+166500
X+126250Y+168500
Y+166500
X+123750Y+167750
Y+165750
X+129000Y+159500
Y+160500
X+128000Y+166500
X+129000
X+128000Y+174000
Y+173000
Y+175500
Y+176500
X+127000Y+174000
Y+173000
X+126000Y+177000
X+124000
Y+174000
Y+172000
X+129000Y+177000
X+131000
Y+174000
Y+172000
X+128000Y+170500
X+130000
X+123500Y+179000
Y+180000
X+126000Y+170250
X+127000
X+132000Y+175000
Y+178000
X+131000Y+175000
Y+176000
X+128500Y+178000
X+129500
X+126500
X+125500
X+129500Y+181000
X+128500
X+125500
X+126500
X+127500Y+178000
X+130500
X+124500
X+130500Y+181000
X+127500
X+124500
X+126000Y+186500
Y+184500
X+128500Y+186000
Y+184000
X+131000Y+187500
X+132000
X+128000
X+129000
X+125000
X+126000
X+123000
X+131000Y+190500
X+132000
X+128000
X+129000
X+125000
X+126000
X+123000
X+130000Y+187500
X+127000
X+124000
X+130000Y+190500
X+127000
X+124000
X+128000Y+197500
X+129000
X+126000
X+125000
X+129000Y+200500
X+128000
X+125000
X+126000
X+127000Y+197500
X+130000
X+124000
X+130000Y+200500
X+127000
X+124000
X+123000Y+213500
X+124000
X+125000Y+212500
X+123000
X+126500
Y+214500
X+138000Y+159000
X+139000Y+158000
Y+160000
X+141000Y+169000
Y+167000
X+136000Y+159500
X+137000
X+138000Y+160500
Y+161500
Y+162500
Y+163500
X+143000Y+171000
X+140000
X+139000
X+136000
X+142000Y+177000
X+139000
X+138000
X+135000
Y+173000
Y+174000
X+139000Y+178000
X+140000
X+137000
X+136000
X+140000Y+181000
X+139000
X+136000
X+137000
X+138000Y+178000
X+141000
X+135000
X+141000Y+181000
X+138000
X+135000
X+140000Y+172000
X+141000
X+138000
X+137000
X+141000Y+175000
X+140000
X+137000
X+138000
X+139000Y+172000
X+142000
X+136000
X+142000Y+175000
X+139000
X+136000
X+142000Y+183000
X+139000
X+138000
X+135000
X+139000Y+184000
X+140000
X+137000
X+136000
X+140000Y+187000
X+139000
X+136000
X+137000
X+138000Y+184000
X+141000
X+135000
X+141000Y+187000
X+138000
X+135000
X+134000Y+203500
X+136000
X+138000Y+197000
Y+200000
Y+199000
Y+202000
Y+203000
X+141000Y+197000
Y+199000
Y+200000
Y+203000
Y+202000
X+138000Y+201000
Y+198000
Y+204000
X+141000Y+198000
Y+201000
Y+204000
X+137500Y+208500
Y+207500
Y+211500
Y+210500
Y+214500
Y+213500
Y+216500
X+140500Y+208500
Y+207500
Y+211500
Y+210500
Y+214500
Y+213500
Y+216500
X+137500Y+209500
Y+212500
Y+215500
X+140500Y+209500
Y+212500
Y+215500
X+150000Y+163000
Y+162000
Y+165000
Y+166000
X+153000Y+162000
Y+163000
Y+166000
Y+165000
X+150000Y+164000
Y+161000
Y+167000
X+153000Y+161000
Y+164000
Y+167000
X+152500Y+196500
Y+198500
X+114500Y+182500
Y+180500
X+115500Y+181500
X+112000Y+182500
X+113000
X+111000Y+184500
Y+181500
X+119500Y+183500
Y+181500
X+118500Y+169000
X+116500
X+113000Y+191000
Y+194000
Y+193000
Y+196000
Y+197000
X+116000Y+191000
Y+193000
Y+194000
Y+197000
Y+196000
X+113000Y+195000
Y+192000
Y+198000
X+116000Y+192000
Y+195000
Y+198000
X+114000Y+169500
Y+170500
Y+167500
X+111000Y+169500
Y+170500
Y+167500
X+114000Y+168500
X+111000
X+113000Y+209500
Y+210500
Y+206500
Y+207500
Y+203500
Y+204500
Y+201500
X+110000Y+209500
Y+210500
Y+206500
Y+207500
Y+203500
Y+204500
Y+201500
X+113000Y+208500
Y+205500
Y+202500
X+110000Y+208500
Y+205500
Y+202500
X+126000Y+169250
X+127000
X+131500Y+179000
Y+180000
X+130000Y+169000
X+128000
X+131000Y+192500
X+132000
X+128000
X+129000
X+125000
X+126000
X+123000
X+131000Y+195500
X+132000
X+128000
X+129000
X+125000
X+126000
X+123000
X+130000Y+192500
X+127000
X+124000
X+130000Y+195500
X+127000
X+124000
X+123000Y+203500
Y+205500
X+131000Y+202500
X+128000
X+129000
X+126000
X+125000
X+131000Y+205500
X+129000
X+128000
X+125000
X+126000
X+127000Y+202500
X+130000
X+124000
X+130000Y+205500
X+127000
X+124000
X+138500Y+169000
Y+167000
X+140500Y+158000
Y+156000
X+137000Y+158000
X+135000
X+141000Y+193000
Y+194000
Y+191000
Y+190000
X+138000Y+194000
Y+193000
Y+190000
Y+191000
X+141000Y+192000
Y+195000
Y+189000
X+138000Y+195000
Y+192000
Y+189000
X+152500Y+193500
Y+195500
X+153500Y+191500
Y+194500
Y+193500
Y+196500
Y+197500
X+156500Y+191500
Y+193500
Y+194500
Y+197500
Y+196500
X+153500Y+195500
Y+192500
Y+198500
X+156500Y+192500
Y+195500
Y+198500
X+165500Y+192000
Y+189000
Y+190000
Y+186000
Y+187000
Y+183000
Y+184000
Y+180000
Y+181000
Y+177000
Y+178000
Y+175000
Y+174000
X+159500Y+192000
Y+190000
Y+189000
Y+187000
Y+186000
Y+184000
Y+183000
Y+181000
Y+180000
Y+177000
Y+178000
Y+175000
Y+174000
X+165500Y+182000
Y+185000
Y+188000
Y+191000
Y+176000
Y+179000
Y+173000
X+159500Y+191000
Y+188000
Y+185000
Y+182000
Y+179000
Y+176000
Y+173000
X+147000Y+157500
X+145000
X+117500Y+161000
X+118500
X+145000Y+160500
X+144000
X+117500Y+163000
X+118500
X+133000Y+168500
X+134000Y+169500
X+132000
X+147000Y+168500
X+145000
X+144000Y+170000
X+147000
X+111000Y+172500
X+110000
X+144000Y+175000
X+147000
X+143500Y+176000
X+146500
X+143500Y+182000
X+146500
X+143500Y+181000
X+146500
X+108000Y+184500
X+109000
X+143500Y+187000
X+146500
X+108000Y+202500
X+109000
X+108000Y+205500
X+109000
X+108000Y+208500
X+109000
X+132500Y+217500
X+135500
X+121500Y+166000
X+119500
X+121500Y+160000
X+119500
X+121500Y+162000
X+119500
X+121500Y+164000
X+119500
X+111500Y+161000
X+109500
X+111500Y+163000
X+109500
X+134500Y+166500
Y+168500
X+146000Y+165500
X+145000
X+144000Y+161500
X+145000
X+142000
X+141000
X+145000Y+164500
X+144000
X+142000
X+141000
X+143000Y+161500
X+146000
X+140000
X+146000Y+164500
X+143000
X+140000
X+135000Y+161500
X+134000
X+132000
X+131000
X+129000
X+128000
X+126000
X+125000
X+135000Y+165500
X+134000
X+132000
X+131000
X+129000
X+128000
X+126000
X+125000
X+136000Y+161500
X+133000
X+130000
X+127000
X+136000Y+165500
X+133000
X+130000
X+127000
X+134000Y+170500
X+131000
X+134000Y+179000
Y+180000
X+150500Y+177000
X+148500
X+147500
X+145500
X+144500
X+150500Y+180000
X+148500
X+147500
X+144500
X+145500
X+149500Y+177000
X+146500
X+143500
X+149500Y+180000
X+143500
X+146500
X+133000Y+185000
Y+186000
X+134000Y+185000
Y+186000
X+150500Y+183000
X+148500
X+147500
X+145500
X+144500
X+150500Y+186000
X+148500
X+147500
X+144500
X+145500
X+149500Y+183000
X+146500
X+143500
X+149500Y+186000
X+143500
X+146500
X+121000Y+183500
Y+182500
Y+185500
X+124000Y+183500
Y+182500
Y+185500
X+121000Y+184500
X+124000
X+108000Y+203500
X+109000
X+108000Y+204500
X+109000
X+121000Y+201500
X+122000
X+133000Y+198500
Y+197500
Y+200500
Y+201500
X+136000Y+197500
Y+198500
Y+201500
Y+200500
X+133000Y+199500
Y+196500
Y+202500
X+136000Y+196500
Y+199500
Y+202500
X+108000Y+207500
X+109000
X+108000Y+209500
X+109000
X+108000Y+206500
X+109000
X+129000Y+208500
Y+211500
X+127000Y+208500
X+126000
X+127000Y+211500
X+126000
X+124000Y+208500
X+123000
X+124000Y+211500
X+123000
X+121000Y+208500
X+120000
Y+211500
X+121000
X+118000Y+208500
X+117000
X+118000Y+211500
X+117000
X+128000Y+208500
X+125000
X+122000
X+128000Y+211500
X+125000
X+122000
X+119000Y+208500
X+116000
X+119000Y+211500
X+116000
X+132500Y+208500
Y+207500
Y+211500
Y+210500
Y+214500
Y+213500
Y+216500
X+135500Y+208500
Y+207500
Y+211500
Y+210500
Y+214500
Y+213500
Y+216500
X+132500Y+209500
Y+212500
Y+215500
X+135500Y+209500
Y+212500
Y+215500
X+156500Y+210500
Y+208500
X+108000Y+183500
Y+181500
X+109000Y+182500
X+122000Y+168500
X+120000
X+108000Y+191000
Y+194000
Y+193000
Y+196000
Y+197000
X+111000Y+191000
Y+193000
Y+194000
Y+197000
Y+196000
X+108000Y+195000
Y+192000
Y+198000
X+111000Y+192000
Y+195000
Y+198000
X+122000Y+202500
Y+203500
X+123000Y+214500
X+124000
X+121000
X+120000
X+124000Y+217500
X+123000
X+120000
X+121000
X+122000Y+214500
X+125000
X+119000
X+125000Y+217500
X+122000
X+119000
Y+202500
X+120000
X+117000
X+116000
X+120000Y+205500
X+119000
X+116000
X+117000
X+118000Y+202500
X+121000
X+115000
X+121000Y+205500
X+118000
X+115000
X+158000Y+189000
Y+187000
Y+186000
Y+184000
Y+183000
Y+181000
Y+180000
Y+178000
Y+177000
X+152000Y+189000
Y+187000
Y+186000
Y+184000
Y+183000
Y+180000
Y+181000
Y+178000
Y+177000
X+158000Y+188000
Y+185000
Y+182000
Y+179000
Y+176000
X+152000Y+188000
Y+185000
Y+182000
Y+179000
Y+176000
X+151000Y+171000
X+149000
X+148000
X+146000
X+145000
X+151000Y+174000
X+149000
X+148000
X+145000
X+146000
X+150000Y+171000
X+147000
X+144000
X+150000Y+174000
X+144000
X+147000
T03
X+103638Y+166200
X+104588
X+103638Y+168800
X+104588
T04
X+107280Y+216339
X+104484
X+107280Y+213661
X+104484
X+103500Y+216339
Y+215512
X+106295Y+216339
Y+215512
X+103500Y+214488
Y+213661
X+106295Y+214488
Y+213661
T05
X+120000Y+192000
Y+193000
Y+190000
X+110000Y+165500
X+109000
X+107000
X+108000
X+120000Y+180000
Y+179000
Y+177000
Y+178000
Y+175500
Y+174500
Y+172500
Y+173500
X+144000Y+212000
Y+213000
Y+209000
Y+210000
Y+206000
Y+207000
Y+203000
Y+204000
Y+200000
Y+201000
Y+197000
Y+198000
Y+194000
Y+195000
Y+191000
Y+192000
Y+189000
Y+211000
Y+208000
Y+205000
Y+202000
Y+199000
Y+196000
Y+193000
Y+190000
X+143000Y+212000
Y+213000
Y+209000
Y+210000
Y+206000
Y+207000
Y+203000
Y+204000
Y+200000
Y+201000
Y+197000
Y+198000
Y+194000
Y+195000
Y+191000
Y+192000
Y+189000
Y+211000
Y+208000
Y+205000
Y+202000
Y+199000
Y+196000
Y+193000
Y+190000
T06
X+107000Y+186500
Y+184500
Y+185500
X+147000Y+162500
Y+163500
X+104500Y+178850
Y+179750
X+103500Y+179300
Y+178400
X+104500Y+177950
Y+176150
Y+177050
X+103500Y+176600
Y+175700
X+105500Y+179300
Y+178400
Y+176600
Y+175700
X+103500Y+177500
X+105500Y+177500
X+130000Y+155500
X+132000
X+131000Y+157500
X+126000Y+155500
X+128000
X+127000Y+157500
X+123000Y+155500
X+125000
X+124000Y+157500
X+129000
Y+158500
X+134000Y+176000
Y+178000
Y+177000
X+155500Y+201500
X+156500Y+200500
X+155500
X+156500Y+201500
X+153500
X+152500
X+153500Y+200500
X+154500Y+201500
Y+200500
X+133000Y+155500
X+135000
X+134000Y+157500
Y+182000
Y+184000
Y+183000
X+135000Y+170000
Y+172000
Y+171000
T07
X+103381Y+190545
Y+191635
Y+188365
Y+189455
X+104501Y+191090
Y+192180
Y+188910
Y+187820
Y+190000
X+103380Y+205090
Y+206180
Y+202910
Y+201820
X+104500Y+207815
Y+204545
Y+205635
X+104500Y+202365
X+104500Y+203455
X+104500Y+200185
X+103380Y+204000
Y+207270
Y+200730
X+104500Y+206725
X+104500Y+201275
T08
X+131000Y+211500
Y+213500
X+144000Y+167000
X+146000
X+144000Y+159000
X+146000
X+119000Y+213000
X+121000
T09
X+105000Y+161226
X+108150Y+157978
X+105000Y+158274
X+149500Y+214500
X+151500
X+147500
X+153500
T10
X+102538Y+170162
Y+164838
T11
X+102047Y+161226
X+106575Y+157112
T12
X+102004Y+215000
X+102319Y+217677
Y+212323
X+106295Y+217677
Y+212323
T13
X+101750Y+167500
T14
X+103944Y+194912
Y+185075
X+104500Y+182412
Y+172575
X+103943Y+210547
Y+197440
T15
X+113000Y+217500
X+165000
X+104000Y+155500
X+165000
T00
M30
