M48
;FILE_FORMAT=2:4
INCH
;TYPE=PLATED
T01C0.012
T02C0.031
T03C0.035
T04C0.038
T05C0.040
T06C0.044
T07C0.047
T08C0.055
T09C0.059
T10C0.087
T11C0.118
T12C0.150
%
T01
X+101160Y+131400
X+101760Y+163280
X+101480Y+169840
X+101400Y+172400
X+101600Y+201200
X+101360Y+201840
X+101680Y+203000
X+101160Y+205560
X+101680Y+205320
X+102880Y+129400
X+102200Y+140160
X+102840Y+157440
X+103240Y+158160
X+102600Y+158480
X+103240Y+157680
X+102360Y+157920
X+104480Y+157440
X+103720Y+160600
X+103960Y+161200
X+103080Y+167800
X+102680Y+168720
X+104360Y+170400
X+103440Y+171320
X+104320Y+172440
X+103400Y+176320
X+103920Y+175920
X+103400
X+104160Y+174360
Y+174840
X+103400Y+176640
X+102193Y+175634
X+102600Y+177280
X+102360Y+180880
X+102600Y+180640
X+103400Y+180800
X+103800Y+182160
X+102440Y+185800
X+103800Y+183280
X+103320
X+102440Y+187800
X+103240Y+186280
X+103720Y+187600
X+104160Y+192320
X+104560Y+197320
X+104640Y+196800
X+104800Y+199000
X+104320Y+202760
X+104800Y+203560
X+104160Y+203440
X+103880Y+201480
X+104040Y+206680
X+104680Y+206440
X+104440Y+204440
X+104680Y+207960
X+103040Y+207560
X+104440Y+207200
X+102960Y+218640
X+106120Y+127720
X+107080Y+131200
X+105600Y+131000
X+106400Y+136400
X+106640Y+147400
X+107640Y+147880
X+105680Y+157000
X+105640Y+167520
Y+169520
X+106000Y+169040
X+106240Y+173680
X+107000Y+172160
X+106640Y+172480
X+107360
X+105360Y+174360
X+105800Y+182160
X+107000
X+107800Y+183920
X+106360Y+183520
X+107320
X+106120Y+183280
X+107240Y+188000
Y+189600
X+107600Y+189760
X+106400Y+193400
X+105400Y+194000
X+105200Y+193000
X+107600Y+195600
X+107360Y+196440
X+105560Y+198520
X+106480Y+199480
Y+198520
X+107360Y+202640
X+106800Y+204640
X+106960Y+206600
X+106000Y+205840
X+107360Y+205800
X+107600Y+207680
X+107680Y+209120
X+105400Y+213560
X+109000Y+127720
X+110720Y+129440
X+108320Y+132800
X+110120Y+139240
X+109560Y+139080
X+108640Y+146120
X+109560Y+145880
X+109320Y+145640
X+109400Y+147400
X+110320Y+148320
X+109840Y+167720
X+108640Y+167520
X+110640Y+170800
Y+169280
X+110600Y+176720
X+109080
X+108840Y+175080
X+109360Y+180480
X+110360
X+110080Y+182640
X+109440
X+109400Y+181000
X+108880Y+180600
X+110040Y+187320
X+108440Y+188560
X+109800Y+187000
X+110120Y+188320
X+108520Y+191600
Y+190000
X+108280Y+194000
X+109400Y+194240
X+108520Y+192400
X+109960Y+197560
X+108760Y+195200
X+110680Y+195680
X+110120Y+199960
X+108560Y+198520
X+109880Y+210560
X+109400Y+213560
X+112440Y+108400
X+113000Y+128040
X+113080Y+133080
X+112720Y+132760
X+113040Y+132240
X+112640Y+136240
X+112160Y+136600
X+113320Y+138280
X+113800Y+141480
X+111600Y+149600
X+113760Y+149160
Y+147880
X+112640Y+149520
X+111360Y+147880
X+112360Y+153640
X+113680Y+155080
X+112400Y+156600
X+111400Y+157240
X+113640Y+159520
X+112640Y+170800
X+111560Y+176720
X+113240Y+176080
X+113000Y+176720
X+113600Y+174880
X+112080Y+182640
X+113800Y+182160
X+113120
X+112800Y+181960
X+111840Y+182400
X+113800Y+184000
X+113120
X+112720Y+185680
X+111840Y+183880
X+111360Y+187640
X+112720Y+188240
Y+188720
X+113520Y+187000
X+112720Y+191640
X+113560
X+113080Y+189200
X+113320Y+193960
X+112840Y+193000
X+111800Y+194160
X+111880Y+193600
X+111480Y+192400
X+111960Y+192640
X+111560Y+193280
X+111600Y+194600
X+113480Y+196560
X+113600Y+195400
X+112960Y+197600
X+112040Y+195480
X+112840Y+200000
X+111600Y+199320
X+113400
X+111960Y+201960
X+113160Y+203320
X+111960Y+201400
X+111400Y+202560
X+111800Y+206320
X+112040Y+212560
X+111840Y+214920
X+116320Y+122080
X+116120Y+127400
X+115640Y+130400
X+114640Y+130640
X+115360Y+131480
X+116640Y+140680
X+114320Y+139600
X+115680
X+115640Y+143080
X+115000Y+143320
X+115400Y+141480
X+115640Y+149520
X+116760Y+148320
X+116640Y+154840
X+114680Y+154720
X+115640Y+158400
Y+160240
X+114640Y+159760
X+116640Y+159920
X+114360Y+168880
X+115840Y+170480
X+116640Y+169360
X+115360Y+168880
X+115520Y+170600
X+116640Y+170400
X+114400Y+171920
X+116000Y+171400
X+115280Y+172480
X+115520Y+172720
X+115360Y+173640
X+114560Y+173400
X+116640Y+171400
X+114600Y+175080
X+115400Y+175960
X+116600
X+115840Y+178440
X+116440Y+181040
X+114320Y+181000
X+114600Y+180400
X+115000Y+182160
X+114760Y+181000
X+116000Y+182120
X+116520Y+180520
X+115880Y+180960
X+115360Y+180560
X+115160Y+185680
X+116360Y+183560
X+116760Y+183800
X+115080Y+188400
X+114560Y+188560
X+114800Y+187280
X+114840Y+191320
X+116640Y+190800
X+114560Y+193600
X+115320Y+192400
X+116480Y+193480
X+115320Y+196560
X+116800Y+196760
Y+197640
X+115600Y+195640
X+114800Y+198280
Y+200000
X+115600Y+199400
X+116640Y+199640
Y+201800
Y+205640
X+115360Y+207400
X+114960Y+211760
X+115360Y+210400
X+116800Y+212000
X+117880Y+121280
X+119080Y+124440
X+118120Y+124200
X+117280Y+137400
X+119000Y+135960
X+118840Y+136920
X+119680
X+117400Y+139880
X+119120Y+140680
X+117520Y+142800
X+118480Y+145160
X+117520Y+144640
Y+145400
X+118960Y+147320
X+119520Y+150960
X+119280Y+151600
X+118160Y+155640
X+118880Y+153800
X+117360Y+153640
X+118840Y+157800
X+118640Y+156600
X+118840Y+158400
X+119800Y+161800
X+118600Y+162280
X+117840Y+167640
X+118240Y+169200
X+119560Y+170040
X+118720Y+171480
X+119800
Y+172440
X+118240Y+171720
X+119800Y+175080
X+119560Y+175960
X+119360Y+178440
X+119240Y+180640
X+118000Y+180600
X+117600Y+180880
X+117360Y+180480
X+119640Y+185680
X+117880Y+184480
X+117360Y+188040
Y+186640
X+119720Y+190000
Y+189400
X+117640Y+194000
X+118360Y+194360
X+118520Y+192640
X+118360Y+193680
X+117240Y+195640
X+118120Y+197320
X+118320Y+199400
Y+199880
X+118360Y+199000
X+118320Y+203000
X+117880Y+203440
X+119400Y+203640
X+118520Y+206000
X+119400Y+205400
Y+212640
X+117840
X+119800Y+215360
X+117840Y+215280
X+117520Y+216720
X+120320Y+133760
X+122160Y+135640
X+121120Y+137480
X+121080Y+135520
X+120680Y+140640
X+122560Y+141600
X+120280Y+142080
X+121520Y+141600
Y+145640
X+122160Y+144880
X+121680Y+149000
X+120880Y+148120
X+122120Y+150920
X+121880Y+150680
X+120480Y+154120
X+121640Y+154360
X+122000Y+156600
X+120480Y+158560
X+121000Y+160640
X+120200Y+160160
X+121640Y+161600
X+120840Y+159520
X+122160
X+121640Y+163400
Y+164240
X+121000Y+162240
X+121160Y+165480
X+121680Y+165600
X+122800Y+167320
X+121080Y+169720
X+122040Y+169400
X+120200Y+169960
X+121800Y+170040
X+120680Y+169400
X+122280Y+173480
X+120840Y+173640
X+122520Y+175320
X+121880Y+175040
X+122520Y+178160
X+121400Y+177400
X+120960Y+182400
X+121400Y+180520
X+122320Y+180680
X+121920Y+182160
X+122360Y+185680
X+121400
X+122600Y+183640
X+121200Y+183360
X+120400Y+184000
X+121600Y+183760
X+121640Y+186800
X+120200Y+188120
X+122280Y+194280
X+120520Y+192680
X+122440Y+193840
X+122120Y+196960
Y+199000
Y+200000
X+120520Y+203400
X+122320Y+206080
X+122360Y+205600
X+122320Y+207560
X+122160Y+214400
X+121920Y+214880
X+122600Y+214640
X+123480Y+118520
X+124280Y+120600
X+125680Y+129600
X+125360Y+130960
X+125600Y+136960
X+123680Y+135920
X+125360Y+137320
X+124240
X+125640Y+140800
X+123800Y+140040
X+124680Y+145800
X+125640Y+145640
X+124840Y+146720
X+123840Y+148120
X+125560Y+155640
X+125000Y+157080
X+125400Y+161200
X+124320
X+125640Y+161440
X+124720Y+162400
X+124800Y+164440
X+125640Y+166440
X+124000Y+166480
X+124400Y+170080
X+124640Y+168400
X+124560Y+172320
X+125360Y+171640
X+125200Y+172080
X+123320Y+176720
X+124480Y+180280
X+125160Y+182280
X+124600Y+182560
X+123840Y+182320
X+125160Y+183880
X+124840
X+124360Y+183360
X+123200Y+186800
X+125120Y+188160
X+125040Y+188640
X+125200Y+186240
X+124960Y+191360
X+125200Y+189600
X+124480Y+191120
X+124960Y+194360
X+124480Y+192600
X+125200Y+192480
X+124760Y+197360
X+125120Y+197240
X+124960Y+196600
Y+196120
X+124400Y+196360
X+123240Y+197200
X+124720Y+196360
X+124760Y+198760
X+124640Y+202760
X+124800Y+206800
X+124200
X+124720Y+208360
X+124480Y+208840
X+124960Y+208000
X+125200Y+207560
Y+215640
X+123480Y+214880
X+128760Y+119000
X+127750Y+128000
X+126760Y+127480
X+128320Y+132760
X+127400Y+134680
X+127960Y+135680
X+126760Y+140160
X+126920Y+143000
X+127080Y+142000
X+127480Y+151560
X+128200Y+151080
X+127960Y+150560
X+128200Y+151800
X+126560Y+155400
X+127000Y+155640
X+128080Y+161200
X+127640Y+161760
X+128440Y+159360
X+128560Y+164640
X+126320Y+164440
X+127400Y+170520
X+128560Y+171720
X+127680Y+172880
X+127400Y+171800
X+126280Y+171840
X+128320Y+173800
X+128400Y+175000
X+128160Y+174640
X+127480Y+176280
X+128200Y+179200
X+127960Y+179600
X+127720Y+179200
X+128160Y+178480
X+128000Y+181200
X+126200Y+182560
X+128240Y+181600
X+127480Y+182400
X+127400Y+181920
X+127240Y+182800
X+127000Y+183280
X+128680Y+183880
X+126360Y+184520
Y+183320
X+126680Y+183880
X+126600Y+187520
X+126280Y+188160
X+128040Y+188400
X+128680Y+187040
X+126280Y+189840
X+127640Y+189920
X+126360Y+194600
X+127400Y+193640
X+128040Y+194600
X+127400Y+194360
X+128040Y+194040
Y+192240
Y+196000
X+128160Y+196720
X+126360Y+196120
X+128160Y+197200
X+126600Y+197360
X+127760Y+199920
X+127640Y+200400
X+126600Y+202400
X+127640Y+203520
X+126360Y+204800
X+127720Y+205000
X+127480Y+205480
X+127400Y+208640
X+128400Y+209080
X+126440Y+208400
X+127440Y+209280
X+127400Y+211640
X+126440
X+127880Y+214000
X+126600Y+214640
X+131520Y+129800
X+131560Y+132240
X+130320Y+132760
X+130840Y+135680
X+131720
X+131560Y+140160
X+130480Y+139080
Y+138440
X+130560Y+145160
X+130600Y+150840
X+130840Y+151080
X+131360Y+155400
X+130400Y+158800
X+130000Y+156840
X+129600Y+157000
X+131360Y+158520
X+129400Y+157560
X+130400Y+160680
Y+159640
X+131240Y+160560
X+130400Y+162360
X+130000
X+129600Y+163720
Y+163400
X+131560Y+166080
X+129400Y+166560
X+129680Y+170600
X+131320Y+169560
X+129520Y+169680
X+131560Y+169080
X+129520Y+170120
X+131800Y+169320
X+131560Y+171960
X+130560Y+171720
X+131320Y+172200
X+130320Y+171480
X+131800Y+171720
X+130920Y+176040
X+131400Y+177400
X+130360
X+129880Y+179200
X+129400Y+178960
X+130160Y+179440
X+129960Y+180800
X+131800Y+182160
X+129400Y+181600
Y+182160
X+130040Y+182400
X+130840Y+185640
X+130360Y+185400
X+130680Y+183800
X+130200Y+184520
Y+183640
X+129840Y+183840
X+129360
X+130600Y+186800
X+130000Y+187280
X+130200Y+188480
X+131400Y+187560
X+129320Y+190640
X+130960Y+191000
X+130000Y+189240
X+129320Y+190160
X+129520Y+189640
X+131400Y+190840
X+129800Y+190960
X+130120Y+190560
X+129320Y+194520
X+129560Y+193640
X+131680Y+194040
X+129960Y+194280
X+131200Y+197360
Y+195680
X+129560Y+196200
X+131680Y+195720
X+130640Y+197200
X+130880Y+195960
X+130400Y+200480
X+129280Y+199280
X+131400
X+131120Y+198600
X+129520Y+198880
X+130800Y+200560
X+129200Y+201680
X+130000Y+202000
X+131400Y+201200
X+130800
X+129320Y+202520
X+130600Y+203560
X+129320Y+207320
X+129840Y+209240
X+131360Y+208480
X+129640Y+211880
X+130520Y+210360
X+130120Y+214400
X+130480Y+213560
X+130040Y+215320
X+134760Y+118520
X+133200Y+132600
X+133000Y+132280
X+134000Y+137240
Y+135880
X+133280Y+137560
X+132960Y+136960
Y+135560
X+134000Y+140400
X+132320Y+138600
X+133400Y+140400
X+133520Y+139960
X+134360Y+141440
X+134240Y+145160
X+134560Y+145400
X+134120Y+151400
X+134720Y+150360
X+133640Y+151800
X+132640Y+151320
X+132400Y+154560
X+133600Y+158360
X+134000Y+161440
X+132360Y+161520
X+134400Y+167360
X+134800Y+166320
X+132360Y+165840
X+132400Y+169360
X+133360Y+168440
X+133000Y+172320
X+133640Y+176280
X+133360Y+174400
X+134800Y+177480
X+133000Y+177240
X+132400Y+180960
X+133120Y+180560
X+132400Y+183800
X+132320Y+185800
X+133840Y+183480
X+133360Y+183880
X+133040Y+185480
X+134000Y+186760
X+132320Y+186960
X+133240Y+190600
X+134000Y+194400
Y+193920
X+133200Y+192360
X+133000Y+193640
X+133680Y+195720
X+132840
X+132360Y+195960
X+134680Y+195920
X+133160Y+195960
Y+197320
X+132320Y+200560
X+134640Y+202480
X+134120Y+201200
Y+202480
X+133600Y+202000
X+133560Y+202480
X+132560
X+134000Y+206800
X+133480Y+205400
X+133240Y+207480
X+132640Y+211000
X+132680Y+217360
X+132200Y+217120
X+133720Y+216840
X+136560Y+137560
X+137600Y+137200
X+135400Y+137560
X+136160Y+136960
X+137160Y+137800
X+137560Y+139920
X+135640Y+141680
X+136400Y+143560
X+135640Y+146680
Y+147880
X+137000Y+152000
X+136600Y+154640
X+137800Y+158160
X+137160Y+157520
X+136320Y+156360
X+136800Y+159360
X+137800Y+160400
Y+159600
X+137000Y+162360
X+135400Y+164600
X+136000Y+164120
Y+167040
X+137360Y+166080
X+137000Y+166800
Y+165600
X+136360Y+166320
X+137000Y+169360
X+137520Y+169280
X+135800Y+168720
X+137800Y+169520
X+137560Y+172320
X+136400Y+171720
X+136640Y+171480
X+137280
X+136400Y+173480
X+137560Y+176320
X+137000Y+175640
X+136400Y+176440
X+135800Y+177480
X+137200Y+179440
X+136640Y+178560
X+137120
X+136840Y+179200
X+135800Y+181800
X+135560Y+182080
X+136360Y+180680
X+136040Y+182200
Y+180920
X+135800Y+180560
X+137200
X+137000Y+185480
X+136360Y+187160
X+137160Y+191560
X+135840Y+193560
X+136080Y+192400
X+135800Y+196680
Y+195960
X+136800Y+197400
X+136600Y+196680
X+137360Y+196920
Y+200480
X+136800
X+135360Y+204600
X+137320Y+204400
X+136000Y+205640
X+136520Y+207520
X+135920Y+211680
X+135800Y+218560
X+135840Y+217080
X+139280Y+120200
X+140750Y+128280
X+139440Y+134680
X+138320Y+132960
X+138960Y+137800
X+139600Y+144320
X+139200Y+146520
X+139680Y+147880
X+138960Y+149360
X+140640Y+150840
X+138640Y+154600
X+139640Y+158160
X+139120Y+156440
X+139680Y+161200
X+139320Y+159600
X+140360Y+164360
X+139280Y+167680
X+138320Y+165840
Y+169560
X+140080Y+171360
X+140680
X+138200Y+173160
X+138440Y+173440
X+139200Y+176280
X+139680Y+176520
X+138960Y+175640
X+138720Y+176280
X+138400Y+178800
X+140360Y+182480
X+138400Y+184280
X+140000Y+183680
X+138600Y+186280
X+139160Y+190600
X+138840Y+190400
X+139640Y+194040
X+139400Y+194280
X+139360Y+192480
X+140360Y+197600
X+140200Y+196520
Y+195720
X+140600Y+197360
X+138360Y+199600
X+139840Y+201200
X+140160
Y+201840
X+138600Y+203240
X+139160Y+202000
X+138680Y+203720
X+140400Y+202560
X+139400Y+204560
X+138920Y+204600
X+139360Y+206440
X+138920
X+138400Y+209080
X+139200Y+207480
X+138400Y+207720
Y+208600
X+139320Y+214040
X+139080Y+213600
X+138480Y+213280
X+140560Y+214520
Y+213520
Y+217840
X+143000Y+134680
X+142200Y+132960
X+141480Y+137440
X+142600Y+138360
X+141360Y+143320
X+142000Y+143560
X+141480Y+144480
X+142560Y+150840
X+141640Y+151400
X+142640Y+157600
X+142000Y+156440
X+141360Y+157840
X+142000Y+159360
X+141600Y+159600
X+143640
X+141560Y+161200
X+143000Y+163280
X+141520Y+162320
X+142960Y+165840
X+141520Y+166080
X+142360Y+167800
X+143360
X+142680Y+170400
X+142000Y+168320
X+143520Y+169960
X+143560Y+170640
X+141760Y+171440
X+141400Y+171600
X+143000Y+173160
X+142560
X+143000Y+176280
X+143640Y+176440
X+142680Y+179440
X+142240Y+178960
X+141600Y+178680
X+143160
X+143560Y+178640
X+141760Y+182600
X+141400Y+182480
X+141640Y+181400
X+143640Y+182400
Y+183400
X+141560Y+183640
X+142440Y+183720
X+143400Y+187560
X+143640Y+188440
X+142000Y+191320
X+143000Y+191240
X+141560Y+189360
X+142600Y+190840
X+143240Y+193560
X+143560Y+193800
X+143600Y+192600
X+141600Y+193400
X+141560Y+197600
X+141400Y+200480
X+143520Y+206280
X+142560Y+206440
X+141200Y+207720
X+142400Y+211520
X+141240Y+215400
X+141720
X+144720Y+127240
X+145200Y+130040
X+144400Y+135640
X+146320Y+135400
X+145520Y+136520
X+145560Y+142480
X+146560Y+144320
X+144360Y+149160
X+146400
X+144600Y+152480
X+145520Y+151720
X+144560Y+153520
X+146000Y+153720
X+145000Y+153800
X+146400Y+155600
Y+153960
Y+153320
X+146560Y+157600
X+144440Y+161440
X+146560Y+160320
X+144480
X+144440Y+163320
X+146600Y+167680
X+146360Y+167440
X+144720Y+167680
X+146600Y+166320
Y+165240
X+146480Y+170080
X+145000Y+169240
X+146480Y+173440
X+146000Y+173680
X+146080Y+175640
X+146600Y+176280
X+144400Y+175640
X+145720Y+176400
X+146240Y+176040
X+145640Y+178920
X+144880Y+178000
X+144640Y+179440
X+146480Y+178280
X+145360Y+178640
X+144400Y+179200
X+145880Y+178600
X+145000Y+181160
X+145840Y+181520
X+146600Y+181120
X+146320Y+185640
X+145000Y+183440
X+146480Y+184920
X+146000Y+184240
Y+183400
X+146560Y+183800
X+146320Y+183560
X+145360Y+183720
X+144240
Y+183400
X+144600Y+187560
X+146480Y+187800
X+145000Y+188440
X+146360Y+190480
X+146400Y+191520
X+146240Y+189200
X+146600Y+191200
X+144360Y+190840
X+146400Y+193120
X+145160Y+193400
X+144800Y+192480
X+146400Y+194040
X+145200Y+195720
X+145160Y+198480
X+145400Y+200440
X+144680Y+201600
X+145000Y+202320
X+144440Y+202960
X+145480Y+202080
Y+201320
X+144360Y+206520
X+145560Y+209720
X+144400Y+212360
X+146560Y+216280
X+145560Y+216200
X+148280Y+134160
X+147560Y+135640
X+148400Y+137680
X+147560Y+139360
X+148400Y+139600
X+149480Y+140720
X+148000Y+141200
X+149640Y+142640
X+147440
X+148520
X+149120Y+142880
X+148640Y+145600
X+149000Y+144960
X+147600Y+149640
X+149400Y+151080
X+149640Y+150280
X+147600
X+149360Y+154600
X+147880Y+158400
X+147200Y+156960
X+147360Y+157600
X+148600Y+156640
X+147640Y+157840
X+147400Y+159440
X+148400Y+159960
X+149240Y+164480
X+149400Y+163800
X+149000Y+163640
X+149600Y+166400
X+147600
Y+167640
X+149480Y+167440
X+148840Y+167120
X+148640Y+166640
X+147600Y+165560
X+149640Y+166880
X+148360Y+167600
X+147400Y+169840
X+147560Y+168640
X+149760Y+170080
X+148600Y+169120
X+148640Y+170600
X+147520Y+173680
X+149360Y+172560
X+149120Y+173640
X+147760Y+175440
X+148640Y+174200
X+148880Y+175520
X+148240Y+176760
X+148000Y+174800
X+147400Y+178000
X+149040Y+178760
Y+179680
X+147640Y+177600
X+147520Y+178480
X+149360Y+177600
X+149640Y+178640
X+148800Y+178480
X+147680Y+182040
X+148200Y+180240
X+147760Y+182520
X+149400Y+181640
X+147920Y+184600
X+147440Y+184360
X+148680Y+183640
Y+185480
X+149160Y+184840
Y+184120
X+147680Y+187160
X+148640Y+186960
X+148160
X+148640Y+187360
X+147400Y+189200
X+147720Y+189920
X+149360Y+190120
X+149000Y+190360
X+148600Y+189680
X+149520Y+191480
X+148960Y+193640
Y+194720
X+147520Y+194280
X+147400Y+193400
X+148800Y+192440
X+148320Y+192400
X+147640Y+197200
X+149040Y+197440
X+148560
X+148040Y+198280
X+149400Y+200600
Y+199960
X+148000Y+199680
X+149000Y+202640
X+147680Y+203200
X+148360Y+202960
X+149000Y+203280
X+149360Y+206040
X+147440Y+205480
X+148080Y+206360
X+147560Y+209720
X+147960Y+211320
X+147560Y+211000
X+148240Y+210200
X+148600
X+149000Y+211240
X+148320Y+211000
X+152360Y+116400
X+152600Y+118560
X+152120Y+118800
Y+121760
Y+129400
X+152720Y+131800
X+151240Y+132600
X+152120Y+132640
X+151240Y+136800
X+150760Y+136520
X+152600Y+136280
X+152400Y+138400
X+152640Y+141600
X+151680Y+142880
X+151000Y+145480
X+152640Y+147400
X+150400Y+148360
X+150800Y+151080
X+150840Y+152480
X+151360Y+155640
X+152640Y+156400
X+150840Y+157000
X+151120Y+156640
X+150640Y+160000
X+150880Y+159400
X+151360Y+160560
X+152680Y+160520
X+150640Y+162600
X+150880Y+162360
X+150400Y+164760
X+151640Y+166480
X+151720Y+169600
X+151160Y+170320
Y+168480
X+150360Y+170560
Y+169120
X+151400Y+169520
X+152160Y+169440
X+151000Y+171640
X+152160Y+173640
X+151320Y+173480
X+152400Y+174960
X+151000Y+175520
X+151320Y+174600
X+150240Y+175280
X+151800Y+174800
X+151600Y+176800
X+150600Y+175280
X+152000Y+178480
X+150320Y+179440
X+151120Y+177520
X+150560Y+182520
X+152640Y+182560
X+151600Y+180240
X+152000Y+181640
X+151440Y+181520
X+150640Y+183400
Y+184600
X+152000Y+185480
X+152360Y+183560
Y+184080
X+152600Y+185280
X+152560Y+187520
X+151960Y+190360
X+152560Y+189600
X+151000
X+151520Y+190480
X+152560Y+193680
X+150360Y+192520
X+152080Y+193920
X+151120Y+193680
X+152480Y+192480
X+151560Y+193440
X+151000Y+196680
X+151760Y+197160
X+151360Y+203600
X+151000Y+201360
X+151680
X+150360Y+206520
X+152520Y+208520
X+152000Y+208280
X+150520
X+151560Y+211000
X+150560Y+217400
X+154000Y+110480
X+154440Y+126400
X+155400Y+131320
X+155320Y+133640
X+155480Y+136240
X+155120Y+139720
X+153560Y+139800
X+154240Y+139480
X+155640Y+138960
X+153600Y+143360
X+155120Y+141200
X+154960Y+142640
X+154720Y+142880
X+153640Y+146400
X+155520Y+146800
X+155200Y+146640
X+154400Y+148600
X+153400Y+147880
X+154920Y+148600
X+153720Y+147800
X+154720
X+155720Y+152480
X+154680Y+151080
X+154440Y+151440
X+154920Y+151800
X+153640Y+153600
X+153400Y+153320
X+153640Y+156640
X+155400Y+158160
X+155480Y+157640
X+153400Y+157120
X+154280Y+159880
X+155800Y+159640
X+153440Y+164480
Y+163840
X+153480Y+163280
X+154600Y+167600
X+153640Y+167440
X+154280
X+155720
X+154400Y+168640
X+154040Y+171480
X+154280Y+172120
X+153640Y+176800
X+153480Y+175680
X+155000Y+174400
X+154400Y+174280
X+154160Y+176560
X+155640Y+179600
X+154320Y+177520
X+155400Y+177280
X+155720Y+177520
X+155160Y+182600
X+153800Y+182440
X+154480Y+180200
Y+181920
X+154000Y+180240
X+155640Y+182320
Y+183800
X+154560Y+187160
X+155400Y+187400
X+154400Y+186640
X+153640Y+187200
X+153920Y+186760
X+153320Y+191600
X+155120Y+194480
X+153360Y+194160
X+154600Y+196400
X+155640Y+196720
X+154600Y+195840
X+153360Y+195360
X+153480Y+196960
X+155640Y+198560
X+155800Y+199640
X+155000Y+199960
Y+200600
X+154400Y+198360
X+154600Y+201360
Y+203360
X+155040Y+203800
X+153440Y+204560
X+154040Y+208520
X+155400Y+208600
X+153640Y+208280
X+153360Y+209480
X+155440Y+209520
X+154320Y+207640
X+153400Y+210840
X+155040Y+213640
X+154800Y+213960
X+158000Y+108640
X+157240Y+120200
X+157720
X+156400Y+125600
X+157200Y+125360
X+156560Y+130200
X+157000Y+130520
X+158600Y+132600
X+157000Y+136720
X+156320Y+136480
X+156480Y+135840
X+158400Y+140520
X+156600Y+139560
X+158000Y+141800
X+156800Y+143640
X+156680Y+146400
X+158360Y+145600
X+156800Y+145480
X+156480Y+148120
X+157760Y+148600
X+158280Y+152000
X+156320Y+151680
X+156560Y+155520
X+156320Y+154880
Y+153480
X+157000Y+154400
X+157320Y+156880
X+156560Y+157120
X+158480Y+161240
X+158000Y+161480
X+156400Y+160560
X+158400Y+160320
X+158440Y+161720
X+156640Y+163400
Y+164720
Y+167520
X+158000
X+156640Y+165600
X+158000Y+169600
X+156400Y+170360
X+156640Y+168480
Y+170120
X+158480Y+170040
X+156360Y+171880
X+157000Y+171640
X+157640Y+171400
X+157360Y+173400
Y+172600
X+158800Y+173480
X+156640Y+176480
X+156400Y+175280
X+157600Y+175000
X+157040
X+157360Y+175240
X+157120Y+179600
X+157000Y+177480
X+156800Y+178480
X+158400Y+180240
X+157560Y+182280
X+156880
X+158560Y+181960
X+156280Y+184680
X+156720Y+185480
X+157240Y+183560
X+157720
X+156960Y+187160
X+157800Y+187200
X+156440Y+188640
X+158040Y+186640
X+158000Y+188640
X+158640Y+188400
X+157000Y+188640
X+156440Y+190120
X+157160Y+195200
X+156920Y+195440
X+156560Y+196880
X+158000Y+199640
X+156640Y+201600
X+158360Y+203280
X+157000Y+203360
X+158400Y+205800
X+157440Y+205960
X+156520Y+204520
Y+206360
X+158400Y+208280
X+156560Y+209480
X+157440Y+208080
X+158520Y+209480
X+157000Y+210560
X+157560Y+212520
X+158520Y+212480
X+157400Y+215640
X+158000
X+156560Y+214600
Y+216360
X+159240Y+106600
X+160400Y+107560
X+160360Y+118400
X+159760Y+123720
X+160160Y+128680
X+159840
Y+130200
X+160440Y+136880
X+161640Y+140600
X+161560Y+142600
X+160640Y+141400
Y+142480
X+160400Y+141640
X+159360Y+148400
X+160080Y+148800
X+160640Y+151520
X+159360Y+155280
X+159600Y+153400
X+160560Y+155520
X+160640Y+153400
Y+154880
X+160000Y+155280
X+159600Y+157640
X+161360Y+157600
X+161000Y+158800
X+160640Y+161440
X+160000Y+161480
Y+163600
X+161280Y+164400
X+160000Y+162360
X+161600Y+164400
X+161040Y+165200
X+160520Y+170680
X+160560Y+168640
X+159400Y+168400
X+159240Y+172360
X+160000Y+172520
X+161000Y+171800
X+161680Y+172280
X+159880Y+175360
X+159640Y+175600
X+159400Y+174400
X+161160
X+160000Y+176640
X+159400Y+179600
X+160360Y+179720
X+161000Y+180480
X+160360Y+182000
X+161160Y+185280
Y+183760
X+160720
X+159400Y+188400
X+160440Y+186640
X+161120Y+188640
X+159960Y+186800
Y+187440
X+159840Y+188640
X+159400Y+187440
X+160800Y+188480
X+159400Y+189960
X+161760Y+190440
X+161120Y+190200
X+159760Y+190480
X+160000Y+194800
Y+194480
Y+195400
X+159600Y+196640
Y+197800
X+161200Y+196760
X+160840Y+196480
X+161440Y+197000
X+161600Y+197320
X+161400Y+200200
X+159200Y+198520
X+160400Y+203280
X+159600Y+203520
X+161640Y+201360
X+160400Y+208480
X+159400Y+212680
X+160760Y+211040
X+161520Y+213520
X+159520Y+215400
Y+213560
X+160520Y+217440
X+161480
X+163560Y+103960
X+162560Y+108880
X+163400Y+113720
X+162640Y+116400
X+164440Y+116240
X+163240Y+123400
X+164800Y+126920
X+164560Y+129960
X+163000Y+130600
X+162640Y+130360
X+162600Y+133400
X+163000Y+136880
X+164320Y+135840
X+163600Y+144960
X+162400Y+144320
X+164320Y+148920
X+163640Y+149160
X+162560Y+149040
X+164560Y+152000
X+163040Y+151520
X+164280Y+154040
X+163400Y+154400
X+163880Y+153400
Y+154560
X+163640Y+158400
X+162400Y+156400
X+164000Y+157600
X+163640Y+156880
X+162760Y+159400
X+163400Y+160320
X+162440
X+162240Y+164400
X+164040Y+165920
X+163560Y+165800
X+163600Y+166160
X+162240Y+165520
X+164400Y+166160
X+163640Y+168280
X+164600Y+168680
X+164520Y+169840
X+164000Y+168440
X+163400Y+168520
Y+170800
X+162400Y+169040
X+164120
X+163880Y+173440
X+162520Y+172520
X+163640Y+173200
X+163400Y+172960
X+162240Y+174880
Y+175520
X+163600Y+176160
X+162480
X+163880Y+178800
X+164360Y+178760
X+164600Y+177640
X+164120Y+177480
Y+179440
X+162600
X+163600Y+180640
X+164640Y+181360
Y+180640
X+163400Y+181120
X+164400Y+182560
X+162200Y+185200
Y+184560
X+163840Y+185640
X+162360Y+185520
X+163840Y+184360
X+163800Y+189320
X+164320Y+191200
X+163640Y+190520
X+164000Y+190880
X+162480Y+194120
X+162320Y+192280
X+162600Y+197400
Y+202320
X+164440Y+203640
X+162280Y+202000
X+163400Y+206440
X+163600Y+204440
X+164640
X+164440Y+208880
X+163400Y+207320
X+162400Y+209480
X+163440Y+209360
X+164280Y+208240
X+162600Y+211600
X+163440Y+210800
X+163400Y+215680
X+164440Y+213360
X+164000Y+213600
X+162600Y+215320
Y+216280
X+163400Y+218560
Y+216720
Y+217640
X+166360Y+107400
X+165600Y+119160
X+165840Y+124600
X+166080Y+126680
X+165360Y+127960
X+167480Y+126400
X+167400Y+129720
Y+130840
X+165360Y+137080
X+167080Y+140800
X+165640Y+138920
X+166800Y+142600
X+165360Y+145440
X+167040Y+146000
X+167080Y+146400
X+166640Y+148800
X+166160Y+149160
X+165360Y+152080
X+165600Y+152320
X+165920Y+154360
X+166560Y+154120
X+166960Y+155160
X+166800Y+155680
X+165200Y+157120
X+167280Y+158400
X+167000Y+162480
X+166320Y+164000
X+167640Y+164600
X+165200Y+164240
Y+163760
X+166000Y+162480
Y+163720
X+167120Y+165960
X+166320Y+167560
X+166800Y+166520
X+166000Y+166160
X+166600Y+168680
X+167800Y+169520
X+167640Y+172440
X+166920Y+173480
X+166000Y+171520
X+167320Y+175800
X+166000Y+176080
X+165200Y+176040
X+166600Y+177800
X+166840Y+179360
X+166000Y+178040
X+166440Y+180800
X+166160Y+181280
X+166720Y+183280
X+167640Y+183920
X+167160
X+166200Y+184120
X+166400Y+186360
X+165480Y+187440
X+166400
X+165840Y+188520
X+166080Y+187960
X+166880Y+189200
X+167000Y+190960
X+167520Y+191440
X+166240Y+193120
Y+194440
X+167400Y+193920
X+166560Y+193960
X+166960Y+192720
X+165640Y+197400
X+166400Y+200680
X+165360
Y+199600
X+167640Y+202880
X+166560
X+165640Y+204280
X+167640
X+167000Y+206040
X+167600
X+167000Y+208880
X+165520Y+210920
X+167000Y+214080
X+167440Y+213600
X+167040Y+216760
X+166400Y+218200
Y+216760
X+169600Y+117400
X+168560Y+127160
X+168240Y+130280
X+169560Y+131680
X+170600Y+132920
X+168560Y+133160
X+170720Y+140520
X+168480Y+140800
X+170720Y+142640
X+169400Y+143400
X+170480Y+142040
X+168200Y+141400
X+170000Y+145560
X+170480Y+145320
X+170320Y+146800
X+170240Y+146320
X+168600Y+147320
X+168920Y+147520
X+169960Y+147440
X+168360Y+149120
X+170080Y+148320
X+168200Y+148800
X+169680Y+152160
X+170640Y+154600
X+170120Y+154040
X+168360Y+155320
X+169880Y+156600
X+170120Y+159240
X+168880Y+161400
X+168280Y+164080
Y+162480
X+168840
X+168600Y+164040
X+169160Y+162600
X+169000Y+166200
X+169560Y+165960
X+169960Y+166360
X+169320Y+166520
X+169640Y+168680
X+170400Y+169360
X+168600
Y+171560
X+169000Y+173240
Y+171320
X+170000Y+174560
X+170480Y+176520
X+170080Y+175640
X+170320Y+175880
X+170120Y+178800
Y+177840
X+169120Y+177800
Y+179440
X+169840Y+178120
X+170240Y+179200
X+169800Y+177720
X+168520Y+177800
X+168400Y+178800
X+169520Y+182520
X+169360Y+180680
X+170040Y+181160
X+168280Y+184240
X+170520Y+185720
X+169000Y+188040
X+169320Y+188560
X+170360Y+188040
X+170520Y+186280
X+169800Y+188800
X+169840Y+187840
X+169640Y+186400
X+168600Y+188360
X+169560Y+189280
X+170080Y+190760
X+170120Y+189240
X+168360Y+192800
Y+193760
X+168200Y+193120
X+169320Y+192480
Y+193840
X+169800Y+196040
X+169160Y+197640
X+168640
X+170400Y+198920
X+169160Y+199400
X+168400Y+200640
X+169400Y+199160
X+170640Y+198440
Y+200640
X+170800Y+202360
X+168800Y+203000
X+169560Y+201400
Y+205800
X+168520Y+206520
X+170560Y+208480
X+170600Y+209360
X+170000Y+210960
X+168480Y+211560
X+168400Y+215440
X+172840Y+105920
X+172400Y+114400
X+172320Y+123480
X+172160Y+134520
X+173640Y+137000
X+173560Y+139160
X+172800Y+139640
Y+138560
X+171880Y+139000
X+172160Y+142400
X+172760Y+142640
X+173000Y+142120
X+171880
Y+143640
X+172120Y+149000
X+173400Y+148080
X+172760Y+149200
X+173800Y+148560
X+172560Y+152040
X+172800Y+152360
X+173400Y+152040
X+173800Y+152640
X+172400Y+151040
X+173280Y+153320
X+172120Y+155800
X+171280Y+154040
X+173800Y+154360
X+171920Y+153800
X+173120Y+156640
X+171680Y+158720
X+171880Y+159480
X+173680Y+160960
X+172040Y+164200
X+173120Y+163360
X+172880Y+162640
X+171760Y+163080
Y+164520
X+172160Y+165480
Y+166840
X+171400Y+166360
X+171920Y+167080
X+172400Y+168680
X+171880Y+170120
X+171640Y+168680
X+173320Y+171680
X+173080Y+172160
X+172360Y+173560
X+171880Y+171880
X+173080Y+174920
X+171800Y+176320
X+172840Y+175320
X+171400Y+175400
X+172000Y+179400
X+171520Y+177800
X+173120Y+178120
Y+179400
X+172840Y+177560
X+172760Y+179040
X+171960Y+181400
X+173000Y+182600
X+171400Y+181120
X+172360Y+180760
X+172000Y+187640
X+173000Y+186440
X+172240Y+186200
X+171680Y+186440
X+172560Y+188600
X+172240Y+188360
X+171600Y+191200
X+172400Y+190800
X+172960
X+172000Y+190560
X+171400Y+194080
X+172160Y+193880
X+173800
X+173240Y+197640
X+172240
X+171880Y+195480
X+172840Y+195640
X+173240Y+196040
X+171640Y+195720
X+172400Y+196440
X+172160Y+199160
X+173600Y+198680
X+173000Y+201880
Y+205160
X+171400Y+206680
X+171880Y+205160
X+171560Y+204280
X+173400Y+204680
X+171640Y+204920
X+171720Y+208960
X+172480Y+210560
X+173560Y+214400
X+176160Y+122640
X+174440Y+123480
X+175000Y+125760
X+175040Y+130360
X+174280Y+137360
X+176240Y+138560
X+176480Y+140400
X+176560Y+138400
X+175520Y+139000
X+176720Y+142800
X+176240Y+141880
X+175800Y+143800
X+174600Y+144560
X+175640Y+148240
X+175400Y+149640
X+174520Y+152040
X+174280Y+151640
X+176440Y+152360
X+175840Y+154920
X+175280Y+158720
Y+157640
X+176720Y+158040
X+175040Y+161200
X+175880Y+160960
X+174560
X+176560Y+160480
Y+162640
X+175600Y+162800
X+174680Y+163000
X+174440Y+163360
X+176240Y+163280
X+176800Y+164480
X+176640Y+165720
X+174960Y+165640
X+175840Y+165880
X+176080Y+166840
Y+165480
X+176720Y+168680
X+174720Y+170000
X+175840Y+169040
X+174320Y+171440
X+176320Y+176080
X+175120Y+176000
Y+176480
X+175840Y+176320
X+175200Y+175520
X+174320Y+178120
X+175720Y+177960
X+175640Y+181280
X+174520Y+180480
X+176000Y+184080
X+175000
X+175520Y+184480
X+175000Y+185680
X+176000Y+187960
X+175800Y+191040
X+176240Y+190560
X+174360
X+176320Y+191320
X+174880Y+194320
X+174400Y+194640
X+176400Y+195800
X+174400Y+195640
X+174360Y+197640
X+174600Y+198440
X+175560Y+199480
X+175000Y+200640
X+175560Y+198680
X+176400Y+201760
X+174400Y+203440
X+174600Y+201880
X+176440Y+206720
X+174560Y+204920
X+175560Y+209680
X+174800
X+176560Y+211640
X+175000Y+214400
X+176640Y+213400
X+175400Y+218560
X+177320Y+119480
X+178080Y+124000
X+179640Y+125440
X+178440Y+126760
X+177480Y+130040
X+178880Y+134280
X+178400
X+179240Y+134040
X+178400Y+136560
X+178160Y+138640
X+179640Y+141640
X+179400Y+145400
X+178400Y+144520
X+177600Y+149400
X+178080Y+149640
X+177600Y+151560
X+179560Y+150960
X+178960Y+155480
X+177800
X+177600Y+154000
X+179400Y+156840
X+178960Y+156360
X+178560Y+157320
Y+160520
X+179400Y+160440
X+179360Y+162880
Y+163560
X+178640Y+163600
X+178000Y+162640
X+179400Y+162400
X+179600Y+163800
X+178000Y+166360
X+178840Y+166200
X+177760Y+166120
X+179320Y+168960
X+177200Y+168440
X+178160Y+169760
X+179320Y+172440
X+178400Y+173760
X+179320Y+176360
X+178360Y+176000
X+177840Y+175760
X+177200Y+174680
X+178160Y+175280
X+179080Y+176120
X+178000Y+178440
X+178200Y+181280
X+178840Y+180800
X+177680Y+183560
X+179560Y+185480
X+179160Y+183400
X+178160Y+185720
X+178600Y+188520
X+178840Y+186600
X+178320Y+191600
X+179600Y+192320
Y+194120
X+179440Y+197280
X+179600Y+195600
X+179680Y+197000
X+179320Y+200240
X+177680Y+200800
X+179120Y+199360
X+177600Y+198640
X+177680Y+201600
X+179400Y+204680
X+178000Y+204440
X+179640Y+207600
X+177360Y+209440
X+178400Y+207600
X+179400Y+208240
X+179640Y+210600
X+178560Y+212440
X+179400Y+214200
X+178560Y+214800
X+180560Y+120440
X+181560Y+127080
X+182400Y+131680
X+181000Y+134040
X+181480Y+134320
X+181560Y+136880
X+180560Y+135640
X+180400Y+140640
X+180480Y+143000
X+182000Y+141640
X+180640Y+146800
X+181560Y+147200
X+182560Y+152640
X+181960Y+155720
X+182320Y+157400
X+181560Y+157320
X+182400Y+157080
X+181800Y+160640
X+181200Y+160480
X+182040Y+159840
X+180880Y+162880
X+181080Y+164320
X+182400Y+162800
X+182640Y+165440
X+181560Y+165480
X+180560Y+165720
X+180240Y+165960
X+181240Y+170000
X+180600Y+169760
X+182360Y+168960
X+181680Y+176400
X+182800Y+174440
X+181000Y+175480
X+182560Y+176760
X+180920
X+180520Y+177280
X+181240Y+177320
X+182360Y+178400
X+181080Y+178480
X+180680Y+179080
X+181400Y+181800
X+182380Y+182160
X+181400Y+187040
X+180800Y+186800
Y+187520
X+182600Y+189200
X+182360Y+190080
X+182000Y+191480
X+181400Y+189440
X+181040Y+193640
Y+197440
Y+196520
X+182120
X+181880Y+196760
X+181360Y+197600
X+181920Y+200480
Y+198480
X+182000Y+202240
X+181000Y+203640
X+181280Y+202480
Y+201760
X+181760Y+202000
X+182560Y+204920
X+182240Y+204280
X+180400Y+204440
X+182480Y+204600
X+181320Y+205400
X+182400Y+209680
X+180400Y+213720
X+182240Y+214560
X+182400Y+218480
X+181400Y+218720
X+183280Y+109920
X+184040Y+111800
X+184600Y+127880
X+185000Y+130840
X+184640Y+134600
X+185400Y+134360
Y+136320
X+184640Y+135400
X+183240Y+146800
X+184400Y+148480
Y+148000
X+183560
X+185120Y+155400
X+183200Y+155720
X+183400Y+153560
X+183680Y+155640
X+185400Y+155000
X+185120Y+156840
X+184320Y+156600
X+183200
X+184880Y+157120
X+183680Y+159520
X+184240Y+159920
X+185000Y+161400
X+184680Y+160600
Y+161400
X+184960Y+162800
X+184400Y+164040
X+185760Y+163560
X+183200Y+162560
X+183680Y+162800
X+185520Y+163800
X+185400Y+166880
X+184640Y+169320
X+184360Y+175600
X+185360Y+177400
Y+178880
X+184600Y+179640
X+185320Y+181800
X+184840Y+182440
X+184000Y+181800
X+183960Y+184480
Y+183640
X+185640Y+186640
X+184320
X+185160Y+189920
X+183400Y+192280
X+185000
X+183400Y+195200
X+183240Y+198600
X+184360
X+184600Y+198360
X+185400Y+199600
X+185000Y+203800
X+184000Y+201520
X+185320Y+205400
X+185560Y+211960
X+183640Y+215040
X+187600Y+126560
X+188400Y+131040
X+186760Y+130480
X+187880Y+130720
X+186400Y+130240
X+187560Y+133400
X+187160Y+136800
Y+135640
X+188400Y+136000
X+186640Y+137120
X+188160Y+139400
Y+138800
X+187360Y+143440
X+188000Y+142040
X+188560Y+144400
X+186400Y+145360
X+187520Y+146480
X+188000Y+149600
X+187000Y+150320
X+187600Y+150560
X+188720Y+155400
X+188480Y+154640
X+186600Y+154520
X+188720Y+156480
X+187560Y+156360
X+186440Y+157080
X+187320Y+161320
X+188480
X+188000Y+160360
X+188160Y+164520
X+186680
X+188640Y+165480
X+186440Y+165960
X+186320Y+168320
X+187640Y+169440
X+187480Y+168960
X+188160Y+169440
X+187880Y+170640
X+188640Y+170440
X+187640Y+172640
X+187000Y+171440
X+187400Y+175360
X+187640Y+176800
Y+175040
X+186320Y+178640
X+186880Y+178880
X+188640Y+177680
X+187120Y+180200
X+186640Y+181800
X+187720Y+186640
X+188200Y+187280
X+186320Y+186880
X+187960Y+187520
X+187000Y+189520
X+187240Y+190160
X+187560Y+193800
X+187400Y+194120
X+186640Y+196560
X+188000Y+197640
X+188640Y+198520
X+188000Y+199360
X+186280Y+205160
X+188000Y+209520
X+188760Y+213560
X+186200Y+214800
X+191560Y+125680
X+191240Y+125040
X+191600Y+134320
X+190800Y+137320
X+189600
X+191360Y+135640
X+189960Y+138800
X+190320Y+139040
X+191000Y+141560
Y+145000
X+189640Y+147200
X+189400Y+152600
X+190440Y+156720
X+189680Y+159520
Y+161240
X+190000
X+191000Y+162480
X+190840Y+165720
X+189360Y+166200
X+190600Y+169520
X+190360Y+168320
X+190600Y+168560
X+191000Y+170480
X+189880Y+179520
X+191360Y+177200
X+189400Y+180600
Y+181240
Y+183840
X+190360Y+183600
X+189400Y+187280
X+191800Y+187920
X+190960
X+191240Y+186480
X+189280Y+190440
X+189520Y+192400
X+190960Y+196440
X+190400Y+197640
X+190880
X+190400Y+196200
X+191240Y+195240
X+189960Y+200800
X+189640Y+198600
X+190880Y+199480
X+191720Y+199080
X+190400Y+203280
X+189360Y+203760
X+191560Y+204360
X+189640Y+205800
X+194160Y+125440
X+192920Y+124240
X+192400Y+126560
X+194000Y+126600
X+194600Y+133160
X+192640Y+132920
X+192880Y+142200
X+194360Y+143000
X+192640Y+143240
X+193880Y+151720
X+193400Y+153840
X+192200Y+157560
X+192680
X+194720Y+158600
X+193240Y+158040
X+192280Y+156640
X+192200Y+160000
X+193480Y+160240
X+194200Y+161560
X+193960Y+160840
X+193000Y+161400
X+193720Y+160480
X+194440Y+163080
X+192360Y+163360
X+194640Y+163880
Y+166360
X+194240Y+165560
X+192320Y+165480
X+193320Y+166880
X+192960
X+194400Y+169080
X+193400Y+169360
X+194040Y+173520
X+194200Y+172240
X+193040Y+176800
X+192240Y+176480
X+192800Y+177360
X+193360Y+180600
X+193600Y+183600
X+194400Y+186800
X+194040Y+187600
X+193360Y+186480
X+194400Y+187120
X+192600Y+189600
X+193400Y+190640
X+192280Y+193880
X+194040Y+196520
X+193800Y+196240
X+192320Y+198280
X+194400Y+199640
X+193400Y+205360
X+193640Y+210560
X+101160Y+170960
Y+218840
X+104640Y+158960
X+103760Y+167840
X+104200Y+185840
X+104560Y+198000
X+106000Y+174080
Y+176960
X+107600Y+189000
X+107280Y+206840
X+110040Y+168040
X+109360Y+177120
X+109640Y+186040
X+111680Y+156120
X+113800Y+167960
X+112200Y+186080
X+112600Y+192120
X+115240Y+108160
X+116160Y+173880
X+116360Y+176960
X+116760Y+185880
X+116640Y+201000
X+116240Y+216040
X+119120Y+137960
X+119000Y+135040
X+118640Y+156120
X+117680Y+176960
X+119400
X+117360Y+185840
X+117920Y+204000
X+121320Y+132000
X+120680Y+143960
X+122000Y+156120
X+120720Y+150040
X+122560Y+162000
X+120280Y+174120
X+122040Y+173840
X+120600Y+173880
X+122520Y+173960
X+121880Y+174160
X+122080Y+186160
X+120480Y+186000
X+123360Y+101920
Y+155880
X+124320Y+146960
X+125125Y+152920
X+123600Y+180040
X+124960Y+179960
X+125200Y+192000
Y+185840
X+124880Y+201120
X+127640Y+135160
X+127480Y+149960
X+128680Y+156120
X+127640
X+126520Y+150040
X+126480Y+168000
X+128560Y+170920
X+126440Y+179920
X+128040Y+191840
X+128400Y+215920
X+130400Y+155880
X+131640
X+130720
X+131400Y+156120
X+129600Y+159040
X+131360Y+174040
X+129680Y+177160
X+131640
X+130240Y+189000
Y+185880
X+129800Y+192160
X+130120Y+191840
X+131400Y+203880
X+130600Y+204040
X+130040Y+216000
X+132400Y+132040
X+133520Y+134920
X+132640Y+149880
X+133000Y+161880
X+132400Y+174040
X+134000Y+191840
X+134360Y+189120
X+134800Y+201120
X+132360Y+204120
X+136600Y+153160
X+136000Y+149960
X+137000Y+150120
X+137560Y+156120
X+135880Y+153120
X+137560Y+161840
X+135640
X+135400Y+162080
X+137000Y+176920
X+137360Y+170840
X+135400Y+189120
Y+191840
X+136160Y+204080
X+137280Y+203880
X+135360Y+204120
X+136800Y+204160
X+136480Y+215920
X+138640Y+134920
X+140000Y+168160
X+139440Y+171120
X+140360Y+186080
X+138920Y+200960
X+140000Y+198000
X+138400Y+204120
X+142280Y+104960
X+142320Y+137960
X+141240Y+137920
X+143560Y+174040
X+142600Y+185880
X+141560Y+188920
X+146560Y+135000
X+144600Y+143840
X+144920Y+134920
X+145520Y+156160
X+145920Y+155840
X+146480Y+168000
X+145400
X+145000Y+168080
X+146320Y+170880
X+145000Y+201080
X+149440Y+137920
X+147600Y+156160
Y+155840
X+147400Y+177000
X+149640Y+179920
X+148600Y+188880
X+149080
X+148320Y+197920
X+147640
X+148480Y+212960
X+152520Y+123040
X+151400Y+126080
X+150520Y+135080
X+151120Y+159160
X+150400Y+159000
X+152000Y+180000
X+151760Y+197880
X+150320Y+216040
X+155480Y+137840
X+153520Y+159000
X+154560Y+173960
X+154720Y+198160
X+155640Y+194960
X+153600Y+209960
X+157760Y+114000
X+156440Y+143880
X+157400Y+149880
X+157640Y+150120
X+157000Y+161960
X+157600Y+179960
X+157160Y+191960
X+158160
X+158640Y+195080
X+156920Y+194960
X+160560Y+128920
X+159360Y+132120
X+161560Y+143880
X+161440Y+135000
X+159360Y+191960
X+160680Y+200840
X+160880Y+198040
X+160360Y+195080
X+159200Y+197960
X+160600Y+194840
X+161520Y+212880
X+160080Y+215880
X+162600Y+144000
X+164560Y+150120
X+163640Y+156000
X+163400Y+149880
X+163600Y+167960
X+162600Y+176920
X+164400Y+171040
X+162400Y+195080
X+163880Y+216160
X+163400Y+213120
X+162280
X+166320Y+116880
X+166120Y+114000
X+166600Y+131880
X+165200Y+158880
X+166360Y+173960
X+167560
X+167640Y+182880
X+167600Y+189160
X+165360Y+188880
X+167480Y+201120
X+168240Y+131920
X+170720Y+144000
X+170240Y+138000
X+170640Y+156080
X+169480Y+150040
X+168360Y+153080
X+170560Y+153000
X+169320Y+158880
X+168440Y+188920
X+170400Y+215920
X+171600Y+132160
X+173800Y+141000
X+171680Y+152960
X+172520Y+158960
X+173400Y+185960
X+172000Y+189040
X+172640Y+200880
X+173120
X+172480Y+209920
X+174200Y+147120
X+175640Y+150000
X+176560Y+168120
X+175200Y+168040
X+174560Y+170960
X+175400Y+207040
X+178560Y+131920
X+179000
X+178400Y+140880
X+179200Y+144120
X+178000Y+141160
X+179120Y+153160
X+178640Y+147000
X+178040Y+158960
X+179320Y+170960
X+179240Y+185880
X+178600Y+209920
X+182560Y+141160
X+182400Y+153120
X+181080Y+168120
X+181480Y+170960
X+181080Y+180040
X+183400Y+176920
X+185240Y+179880
X+184640Y+191960
X+183640Y+188960
X+185160
X+183480Y+216160
X+186200Y+173880
X+188400Y+177120
X+188000Y+179880
X+188440Y+192000
X+187000Y+194960
X+190560Y+125920
X+189640Y+149880
X+190000Y+155960
X+189280Y+192080
X+191720Y+186160
Y+195000
X+189720Y+201120
X+193880Y+131960
X+194280Y+153000
X+194400Y+165080
X+193480Y+168080
X+193320Y+165160
X+192560Y+177120
X+107880Y+132200
X+102080Y+151480
X+101960Y+153960
X+104920Y+159360
X+105160Y+162800
X+104920Y+163240
X+107840Y+167640
X+102120Y+165560
X+104880Y+177200
X+105120Y+177680
X+104840Y+182280
X+108040Y+182440
X+101880Y+180400
X+105080Y+183280
X+104840Y+183960
X+108040Y+183680
Y+187000
X+102160Y+188440
X+104960Y+191000
X+105120Y+197000
X+107840Y+199000
X+101840Y+198440
X+105120Y+199520
Y+204360
X+102040Y+211600
X+114040Y+116000
X+116840Y+119800
X+110880Y+123960
X+114000Y+130160
X+120040Y+140160
Y+145960
X+114160Y+152360
X+119840Y+158400
X+119960Y+170280
X+110880Y+171360
X+120040Y+173640
X+111120Y+172400
X+114000Y+175960
X+120080Y+182160
X+117160Y+183600
X+120080Y+183360
X+111160Y+195680
X+116840Y+198560
X+120120Y+205400
X+117080Y+210640
X+126160Y+135640
X+122880Y+137240
Y+141880
X+123120Y+146480
X+123040Y+151760
X+125880Y+151800
X+129000Y+156360
Y+156840
X+131840Y+158520
X+123000Y+159520
X+125840Y+170120
X+122840Y+170520
X+126000Y+172080
X+132000Y+173800
X+122920Y+171480
X+131840Y+175800
X+126040Y+176000
X+123160Y+174800
X+131880Y+177400
X+123120Y+177680
X+122880Y+180920
X+123080Y+182120
X+129000Y+183640
Y+184520
X+129040Y+188480
X+129160Y+187040
X+132080Y+187280
X+129040Y+187600
X+126040Y+188400
Y+191120
X+132040Y+191240
Y+192400
X+122840Y+195720
X+126120Y+197240
X+123160Y+196560
X+132000Y+196440
X+126120Y+198600
Y+200800
X+129040Y+200680
X+131840Y+200560
Y+202000
X+126120Y+201280
X+129000Y+206800
X+122840Y+211000
X+132080
X+138080Y+136960
X+135160
X+135000Y+141680
X+140840Y+143280
X+135040Y+146280
Y+145480
X+144000Y+147880
X+138080Y+147400
X+141000Y+147640
X+144160Y+155800
X+134960Y+154440
X+144160Y+156400
X+135000Y+161200
X+141000
X+135000Y+164360
X+141000Y+163480
Y+166080
X+144000Y+176120
X+144160Y+178920
Y+177600
X+140920Y+178000
X+141000Y+178480
X+144000Y+180920
X+138160Y+187160
X+141000Y+188440
X+135120Y+191080
X+141000Y+192600
Y+193520
X+144000Y+195480
X+141160Y+195640
X+135120Y+195600
X+143960Y+199400
X+143920Y+201320
X+141000Y+210200
X+138000Y+217640
X+156000Y+111920
X+156160Y+119560
X+152920Y+131280
X+156000Y+130200
X+153120Y+136440
X+153000Y+143360
X+150000Y+145190
X+156040Y+152480
X+150000Y+150280
X+153000
X+150120Y+152480
X+156080Y+151440
X+149880Y+154400
X+156120Y+159640
X+150120Y+160320
X+150040Y+163840
X+149880Y+162360
X+156120Y+166640
X+150120Y+166800
X+156000Y+170080
X+153000Y+170520
X+153160Y+173480
X+153000Y+172000
X+152840Y+173640
X+150000Y+174600
Y+175520
X+156000Y+176480
X+153160Y+175440
X+152840
X+153000Y+179760
X+156160Y+180200
X+156000Y+181600
X+156120Y+185280
X+150000Y+186560
X+153000Y+187200
X+153040Y+189600
X+155960Y+190280
X+150000Y+193640
X+152960Y+199480
Y+201360
X+155880Y+206040
X+165120Y+102960
X+159000Y+107120
Y+121640
X+165120Y+127280
Y+136640
X+165000Y+138960
X+167920Y+138920
X+159160Y+145480
X+159000Y+152320
X+161880Y+151760
X+167920Y+154400
X+159000Y+157360
X+167880Y+158280
X+159080Y+161480
X+162000Y+164640
X+164880Y+162600
Y+164400
X+168000Y+165680
X+159000Y+167040
X+158840Y+169560
X+168000Y+173240
X+165000Y+173680
X+162120Y+176680
X+164960Y+175800
Y+176280
X+162000Y+174400
X+165040Y+179440
X+162040Y+178520
X+162120Y+180240
X+164960Y+183760
X+158960Y+185280
Y+183560
X+162120Y+188800
X+165000Y+188640
X+159160Y+190240
X+158840Y+189600
X+159000Y+191480
X+164960Y+191360
Y+190640
X+165000Y+197480
X+159000Y+195320
X+165000Y+203480
Y+215680
X+158960Y+215400
X+173960Y+112560
X+174080Y+114400
X+176840Y+122680
X+170840Y+126520
X+177080Y+127000
X+171000Y+131080
X+179960Y+134520
X+171000Y+135280
X+174040Y+136040
X+180160Y+138640
X+173960Y+143040
X+180000Y+141400
Y+144600
X+174040Y+150800
X+170960Y+151360
X+174080Y+158720
X+179840Y+157080
X+171120Y+156320
X+173920Y+161440
X+177080Y+161040
X+180000Y+160480
X+171120Y+160960
X+179920Y+162640
X+177040Y+165480
X+174080
X+180000Y+166640
X+174080Y+166920
X+173840Y+165720
X+180000Y+168200
X+180160Y+168960
X+170960Y+172200
X+176960Y+171200
X+173960Y+172680
X+177120Y+176480
Y+175280
X+173960Y+179360
X+174120Y+182480
Y+184200
X+177080
X+177120Y+191280
X+173960Y+190920
X+173920Y+193400
X+174120Y+193920
X+171080Y+192320
X+180000Y+193880
X+176880Y+196160
X+177000Y+199440
X+171040Y+199480
X+174000Y+201400
X+179960Y+201480
X+179840Y+205400
X+177120Y+208480
X+183000Y+136800
X+189000Y+148400
X+183040Y+152640
X+191880Y+154640
X+182880Y+156600
X+189120Y+156240
X+192000Y+161080
X+188960Y+162480
Y+164480
X+183160Y+165480
X+191840Y+165800
Y+169520
X+183040Y+172400
X+192160Y+171440
X+186160Y+172400
X+185840Y+178640
X+183000Y+193800
X+185840Y+194400
X+186080Y+195440
X+192000Y+195240
X+186120Y+200040
X+183000Y+199080
X+183080Y+209200
X+191840Y+208120
X+194840Y+133400
Y+142440
Y+211360
X+102120Y+176880
X+101880Y+174120
X+104960Y+189000
X+108080Y+200880
X+116880Y+137880
X+110840Y+141080
X+117000Y+176960
X+126120Y+144040
X+132000Y+155880
X+122880Y+152840
X+122840Y+188920
X+129160Y+188960
X+126040Y+189040
X+122840Y+201000
X+126120Y+210000
X+141000Y+134920
X+138040Y+162080
Y+168160
X+135160Y+159000
X+141000Y+168080
X+140920Y+171120
X+156080Y+138160
X+149920Y+137840
X+153000Y+177040
X+156000Y+191960
X+168080Y+117000
X+159160Y+144120
X+165000Y+168040
X+168000Y+189040
X+164960Y+182960
X+168000Y+186120
X+165040Y+200920
X+168000Y+213120
X+171120Y+131920
X+176960Y+174000
X+170840Y+192000
X+182960Y+114040
X+186160Y+146960
Y+170880
X+183000Y+204040
T02
X+101642Y+164000
X+107500Y+111875
X+122500
X+123750Y+105500
X+128250Y+106750
X+130375Y+106250
X+129375Y+105625
X+140250Y+106689
X+139250Y+105875
X+141625Y+112625
X+142000Y+193000
X+147375Y+112625
X+150875
X+151750Y+116250
Y+124250
X+154000Y+123500
Y+125500
X+155000Y+153500
Y+155500
Y+183500
Y+185500
Y+204500
Y+206500
X+175250Y+115625
X+176250Y+133409
X+177500Y+123625
X+181125Y+114500
X+182110Y+161500
X+184625Y+114500
X+185250Y+118625
X+185375Y+122125
X+187000Y+114500
X+101524Y+147000
X+104000Y+162000
Y+164000
X+107000Y+175500
Y+177500
X+109500Y+116500
Y+113500
X+108500Y+116500
Y+113500
X+111500Y+116500
Y+113500
X+119000Y+144000
Y+142000
X+118000Y+177500
Y+174500
X+119000Y+172000
Y+171000
Y+177500
Y+174500
X+118000Y+184000
Y+182000
X+121000Y+167000
Y+165000
X+127500Y+153500
X+126500
X+138500Y+141500
Y+139500
Y+152000
Y+150000
Y+162000
Y+160000
Y+188000
Y+190000
Y+215000
Y+217000
X+145000Y+183000
X+148000Y+155000
Y+157000
X+152625Y+110875
X+151750Y+132250
X+155000Y+163500
Y+165500
Y+173500
Y+175500
Y+214500
Y+216500
X+164000Y+134846
X+167000Y+125000
Y+127000
X+167125Y+134875
X+166500Y+158000
Y+160000
X+172500Y+105500
Y+106500
X+173000Y+118000
Y+119000
X+172000
Y+118000
X+173000Y+141000
Y+138000
X+171500Y+135000
X+172500Y+155000
Y+153000
X+175000Y+118000
Y+119000
X+176000Y+118000
Y+119000
X+178500Y+105500
Y+106500
X+180375Y+117250
X+184500Y+117000
Y+118000
X+185000Y+131500
Y+129500
Y+141000
Y+143000
Y+135000
Y+138000
Y+152000
Y+154000
X+187000Y+202500
Y+204500
Y+213000
Y+215000
X+190500Y+120500
Y+119500
X+190000Y+186000
Y+184000
X+193500Y+124000
Y+122000
X+193000Y+164500
Y+162500
X+110000Y+181500
Y+184500
X+138500Y+205000
Y+207000
X+155000Y+193500
Y+195500
X+180500Y+109500
Y+107500
X+188000Y+195000
Y+193000
X+189500Y+109000
Y+112000
X+101750Y+119625
Y+129375
X+104500Y+139500
X+106500
X+101750
X+101752Y+152000
X+119500Y+150500
Y+152500
X+117000Y+157000
X+116000
X+118000
X+115000
Y+172000
X+113000
X+118500Y+207500
X+116500
X+122750Y+106125
X+131000Y+148500
X+130000
X+124000Y+164000
X+127000
X+122000Y+166000
X+124000
X+122000Y+167000
X+125000
X+141000Y+106250
X+142000Y+203000
X+143000
X+140000
X+141000
X+135000Y+214000
X+138000
X+162000Y+208000
X+159000
X+167000Y+211000
X+164000
X+174500Y+108500
Y+110500
X+173000Y+114500
Y+116500
X+179000Y+119000
Y+118000
X+178000Y+145000
X+179000
X+176846Y+155625
X+171000Y+162500
Y+164500
X+172000Y+212000
X+175000
X+171000Y+213500
Y+215500
X+187500Y+107000
X+190500
X+182875Y+114500
X+182750Y+118625
X+186248Y+131500
X+190000Y+134000
X+192000
X+185000Y+139000
X+182000
X+192000Y+145000
X+190000
X+185000
X+182000
X+190000Y+155000
X+187000
Y+169000
X+190000
X+187000Y+172000
X+189000
Y+173000
X+187000
X+182000
X+185000
Y+172000
X+182000
X+107500Y+118500
Y+120500
X+102000Y+151000
Y+153000
X+105000Y+171000
X+103000
X+108000Y+172000
Y+171000
X+104500Y+187000
X+101500
X+108500Y+186000
X+106500
X+108500Y+206500
X+106500
X+110000Y+105000
X+112000
X+113500Y+116500
Y+113500
X+116500Y+138500
X+115500
X+118500
X+119500
X+115500Y+135500
X+116500
X+119500
X+118500
X+117500Y+138500
X+114500
X+120500
X+114500Y+135500
X+117500
X+120500
X+115000Y+165000
X+114000
X+117000
X+118000
X+116000
X+119000
X+120000Y+161000
Y+163000
X+119000Y+180000
X+118000
X+114000Y+215000
Y+212000
Y+213000
Y+210000
Y+209000
X+111000Y+215000
Y+213000
Y+212000
Y+209000
Y+210000
X+114000Y+211000
Y+214000
Y+208000
X+111000Y+214000
Y+211000
Y+208000
X+119000Y+213000
Y+214000
Y+211000
Y+210000
X+116000Y+214000
Y+213000
Y+210000
Y+211000
X+119000Y+212000
Y+215000
Y+209000
X+116000Y+215000
Y+212000
Y+209000
X+130000Y+105000
X+127000
Y+135500
Y+137500
X+130000Y+143500
X+129000
X+123500Y+153500
X+122500
X+125500
X+124500
X+130000Y+154000
X+129000
X+124000Y+162000
X+127000
X+122000Y+165000
X+125000
X+127000Y+177000
Y+178000
Y+175000
Y+174000
X+124000Y+178000
Y+177000
Y+174000
Y+175000
X+127000Y+176000
Y+179000
Y+173000
X+124000Y+179000
Y+176000
Y+173000
X+129000Y+183000
Y+185000
Y+209000
Y+212000
Y+216000
Y+214000
X+141000Y+105000
X+139000
X+138000Y+178000
Y+180000
Y+172000
Y+170000
Y+183000
Y+185000
Y+198000
Y+200000
X+153000Y+113500
Y+115500
X+148000Y+142000
X+151000
X+150000
X+153000
X+154000
X+148000Y+139000
X+150000
X+151000
X+153000
X+154000
X+152000Y+142000
X+149000
X+155000
X+149000Y+139000
X+152000
X+155000
X+150000Y+152000
X+149000
X+152000
X+153000
X+149000Y+149000
X+150000
X+153000
X+152000
X+151000Y+152000
X+148000
X+154000
X+148000Y+149000
X+151000
X+154000
X+153000Y+155000
Y+156000
X+153500Y+158000
Y+160000
X+150000Y+166000
X+149000
X+152000
X+153000
X+149000Y+163000
X+150000
X+153000
X+152000
X+151000Y+166000
X+148000
X+154000
X+148000Y+163000
X+151000
X+154000
Y+161000
X+153000
X+150000Y+176000
X+149000
X+152000
X+153000
X+149000Y+173000
X+150000
X+153000
X+152000
X+151000Y+176000
X+148000
X+154000
X+148000Y+173000
X+151000
X+154000
X+152000Y+192000
X+155000
X+150000Y+186000
X+149000
X+152000
X+153000
X+149000Y+183000
X+150000
X+153000
X+152000
X+151000Y+186000
X+148000
X+154000
X+148000Y+183000
X+151000
X+154000
X+150000Y+191000
X+149000
X+152000
X+153000
X+149000Y+188000
X+150000
X+153000
X+152000
X+151000Y+191000
X+148000
X+154000
X+148000Y+188000
X+151000
X+154000
X+149000Y+202000
X+148000
X+151000
X+152000
X+148000Y+199000
X+149000
X+152000
X+151000
X+150000Y+202000
X+147000
X+153000
X+147000Y+199000
X+150000
X+153000
X+150000Y+212000
X+149000
X+152000
X+153000
X+149000Y+209000
X+150000
X+153000
X+152000
X+151000Y+212000
X+148000
X+154000
X+148000Y+209000
X+151000
X+154000
X+164000Y+201000
X+167000
X+176000Y+108000
X+178000
X+170500Y+105500
X+171500
X+173500
Y+106500
X+179500Y+105500
Y+106500
X+177000Y+118000
Y+119000
X+174000
Y+118000
X+173000Y+135000
X+175000
X+177000Y+144125
X+171500Y+155000
Y+152000
X+171000Y+173000
Y+175000
X+179000Y+177000
X+176000
X+177000
X+174000
X+173000
X+179000Y+180000
X+177000
X+176000
X+173000
X+174000
X+175000Y+177000
X+178000
X+172000
X+178000Y+180000
X+175000
X+172000
X+179000Y+182000
X+176000
X+177000
X+174000
X+173000
X+179000Y+185000
X+177000
X+176000
X+173000
X+174000
X+175000Y+182000
X+178000
X+172000
X+178000Y+185000
X+175000
X+172000
X+176000Y+187000
X+177000
X+174000
X+173000
X+177000Y+190000
X+176000
X+173000
X+174000
X+175000Y+187000
X+178000
X+172000
X+178000Y+190000
X+175000
X+172000
X+171000Y+182500
Y+184500
Y+203000
Y+205000
X+175000Y+197000
X+176000
X+173000
X+172000
X+176000Y+200000
X+175000
X+172000
X+173000
X+174000Y+197000
X+177000
X+171000
X+177000Y+200000
X+174000
X+171000
X+176000Y+208000
X+177000
X+174000
X+173000
X+177000Y+211000
X+176000
X+173000
X+174000
X+175000Y+208000
X+178000
X+172000
X+178000Y+211000
X+175000
X+172000
X+176000Y+213000
X+177000
X+174000
X+173000
X+177000Y+216000
X+176000
X+173000
X+174000
X+175000Y+213000
X+178000
X+172000
X+178000Y+216000
X+175000
X+172000
X+171000Y+207000
X+174000
X+191500Y+108000
X+189500
X+187000Y+120000
Y+118000
X+189500Y+117000
Y+118000
X+191000Y+117000
Y+118000
X+190000Y+129500
X+191000
X+188000
X+187000
X+191000Y+132500
X+190000
X+187000
X+188000
X+189000Y+129500
X+192000
X+186000
X+192000Y+132500
X+189000
X+186000
X+190000Y+124500
X+191000
X+188000
X+187000
X+191000Y+127500
X+190000
X+187000
X+188000
X+189000Y+124500
X+192000
X+186000
X+192000Y+127500
X+189000
X+186000
Y+123500
X+187000
X+188000
X+189000
X+191000Y+128500
X+188000
X+187000
X+186000
X+190000Y+140000
X+191000
X+188000
X+187000
X+191000Y+143000
X+190000
X+187000
X+188000
X+189000Y+140000
X+192000
X+186000
X+192000Y+143000
X+189000
X+186000
X+190000Y+135000
X+191000
X+188000
X+187000
X+191000Y+138000
X+190000
X+187000
X+188000
X+189000Y+135000
X+192000
X+186000
X+192000Y+138000
X+189000
X+186000
X+192000Y+144000
X+189000
X+185000
X+182000
X+190000Y+151000
X+191000
X+188000
X+187000
X+191000Y+154000
X+190000
X+187000
X+188000
X+189000Y+151000
X+192000
X+186000
X+192000Y+154000
X+189000
X+186000
X+190000Y+146000
X+191000
X+188000
X+187000
X+191000Y+149000
X+190000
X+187000
X+188000
X+189000Y+146000
X+192000
X+186000
X+192000Y+149000
X+189000
X+186000
X+184000Y+165000
X+183000
X+187000
X+186000
X+190000
X+189000
X+192000
X+184000Y+162000
X+183000
X+187000
X+186000
X+190000
X+189000
X+192000
X+185000Y+165000
X+188000
X+191000
X+185000Y+162000
X+188000
X+191000
X+182000Y+167500
X+185000
X+189000Y+174000
X+187000
X+185000
X+182000
X+183000Y+192000
X+186000
X+189000Y+185000
Y+183000
X+188000Y+201000
X+191000
X+194500Y+125000
Y+128000
X+103500Y+217500
Y+215500
X+111000Y+145000
X+114000
X+113000
X+116000
X+117000
X+111000Y+142000
X+113000
X+114000
X+116000
X+117000
X+115000Y+145000
X+112000
X+118000
X+112000Y+142000
X+115000
X+118000
X+114000Y+194000
Y+195000
Y+191000
Y+192000
Y+188000
Y+189000
Y+186000
X+111000Y+194000
Y+195000
Y+191000
Y+192000
Y+188000
Y+189000
Y+186000
X+114000Y+193000
Y+190000
Y+187000
X+111000Y+193000
Y+190000
Y+187000
X+119000Y+194000
Y+195000
Y+191000
Y+192000
Y+188000
Y+189000
Y+186000
X+116000Y+194000
Y+195000
Y+191000
Y+192000
Y+188000
Y+189000
Y+186000
X+119000Y+193000
Y+190000
Y+187000
X+116000Y+193000
Y+190000
Y+187000
X+120000Y+169000
Y+171000
X+113000Y+184500
X+112000
X+115000
X+116000
X+112000Y+181500
X+113000
X+116000
X+115000
X+114000Y+184500
X+111000
X+117000
X+111000Y+181500
X+114000
X+117000
X+138000Y+193000
Y+195000
X+153000Y+133500
Y+135500
X+150000Y+147000
X+149000
X+152000
X+153000
X+149000Y+144000
X+150000
X+153000
X+152000
X+151000Y+147000
X+148000
X+154000
X+148000Y+144000
X+151000
X+154000
X+155500Y+146000
Y+144000
X+149000Y+154000
Y+157000
Y+156000
Y+159000
Y+160000
X+152000Y+154000
Y+156000
Y+157000
Y+160000
Y+159000
X+149000Y+158000
Y+155000
Y+161000
X+152000Y+155000
Y+158000
Y+161000
X+150000Y+196000
X+149000
X+152000
X+153000
X+149000Y+193000
X+150000
X+153000
X+152000
X+151000Y+196000
X+148000
X+154000
X+148000Y+193000
X+151000
X+154000
X+150000Y+171000
X+149000
X+152000
X+153000
X+149000Y+168000
X+150000
X+153000
X+152000
X+151000Y+171000
X+148000
X+154000
X+148000Y+168000
X+151000
X+154000
X+150000Y+181000
X+149000
X+152000
X+153000
X+149000Y+178000
X+150000
X+153000
X+152000
X+151000Y+181000
X+148000
X+154000
X+148000Y+178000
X+151000
X+154000
X+150000Y+217000
X+149000
X+152000
X+153000
X+149000Y+214000
X+150000
X+153000
X+152000
X+151000Y+217000
X+148000
X+154000
X+148000Y+214000
X+151000
X+154000
X+150000Y+207000
X+149000
X+152000
X+153000
X+149000Y+204000
X+150000
X+153000
X+152000
X+151000Y+207000
X+148000
X+154000
X+148000Y+204000
X+151000
X+154000
X+171000Y+193000
Y+195000
X+176000Y+192000
X+177000
X+174000
X+173000
X+177000Y+195000
X+176000
X+173000
X+174000
X+175000Y+192000
X+178000
X+172000
X+178000Y+195000
X+175000
X+172000
X+176000Y+203000
X+177000
X+174000
X+173000
X+177000Y+206000
X+176000
X+173000
X+174000
X+175000Y+203000
X+178000
X+172000
X+178000Y+206000
X+175000
X+172000
X+186500Y+111000
X+185500
X+188500
X+186500Y+108000
X+185500
X+188500
X+187500Y+111000
Y+108000
X+182000Y+168500
X+185000
X+106000Y+197000
Y+196000
Y+200000
Y+199000
Y+203000
Y+202000
Y+205000
X+109000Y+197000
Y+196000
Y+200000
Y+199000
Y+203000
Y+202000
Y+205000
X+106000Y+198000
Y+201000
Y+204000
X+109000Y+198000
Y+201000
Y+204000
X+111000Y+198000
Y+197000
Y+201000
Y+200000
Y+204000
Y+203000
Y+206000
X+114000Y+198000
Y+197000
Y+201000
Y+200000
Y+204000
Y+203000
Y+206000
X+111000Y+199000
Y+202000
Y+205000
X+114000Y+199000
Y+202000
Y+205000
X+116000Y+198000
Y+197000
Y+201000
Y+200000
Y+204000
Y+203000
Y+206000
X+119000Y+198000
Y+197000
Y+201000
Y+200000
Y+204000
Y+203000
Y+206000
X+116000Y+199000
Y+202000
Y+205000
X+119000Y+199000
Y+202000
Y+205000
X+127000Y+214000
Y+213000
Y+211000
Y+210000
Y+208000
Y+207000
Y+205000
Y+204000
Y+202000
Y+201000
Y+199000
Y+198000
Y+196000
Y+195000
Y+193000
Y+192000
Y+190000
Y+189000
Y+187000
Y+186000
Y+212000
Y+209000
Y+206000
Y+203000
Y+200000
Y+197000
Y+194000
Y+191000
Y+188000
Y+185000
X+123500Y+119000
X+121500
X+123500Y+127000
X+121500
X+123000Y+161000
X+126000
X+123000Y+164000
X+120000
X+181500Y+109000
X+184500
X+167500Y+119000
X+169500
X+184000Y+151000
X+181000
X+193000Y+172000
X+190000
X+131000Y+105000
X+133000
X+134000
X+136000
X+137000
X+132000
X+135000
X+138000
X+112500Y+117500
X+113500
X+110500
X+109500
X+113500Y+120500
X+112500
X+109500
X+110500
X+111500Y+117500
X+114500
X+108500
X+114500Y+120500
X+111500
X+108500
X+123500Y+111000
X+121500
X+112500Y+122500
X+113500
X+110500
X+109500
X+113500Y+125500
X+112500
X+109500
X+110500
X+111500Y+122500
X+114500
X+108500
X+114500Y+125500
X+111500
X+108500
X+112500Y+128500
X+113500
X+110500
X+109500
X+113500Y+131500
X+112500
X+109500
X+110500
X+111500Y+128500
X+114500
X+108500
X+114500Y+131500
X+111500
X+108500
X+130000Y+142500
X+133000
X+132000
X+135000
X+136000
X+130000Y+139500
X+132000
X+133000
X+136000
X+135000
X+134000Y+142500
X+131000
X+137000
X+131000Y+139500
X+134000
X+137000
X+144000Y+142000
X+145000
X+142000
X+141000
X+145000Y+145000
X+144000
X+141000
X+142000
X+143000Y+142000
X+146000
X+140000
X+146000Y+145000
X+143000
X+140000
X+144000Y+137000
X+145000
X+142000
X+141000
X+145000Y+140000
X+144000
X+141000
X+142000
X+143000Y+137000
X+146000
X+140000
X+146000Y+140000
X+143000
X+140000
X+125500Y+139500
X+126500
X+123500
X+122500
X+126500Y+142500
X+125500
X+122500
X+123500
X+124500Y+139500
X+127500
X+121500
X+127500Y+142500
X+124500
X+121500
X+110500Y+135500
X+111500
X+108500
X+107500
X+111500Y+138500
X+110500
X+107500
X+108500
X+109500Y+135500
X+112500
X+106500
X+112500Y+138500
X+109500
X+106500
X+123500Y+135000
X+121500
X+130000Y+152500
X+133000
X+132000
X+135000
X+136000
X+130000Y+149500
X+132000
X+133000
X+135000
X+136000
X+134000Y+152500
X+131000
X+137000
X+131000Y+149500
X+134000
X+137000
X+144000Y+147000
X+145000
X+142000
X+141000
X+145000Y+150000
X+144000
X+141000
X+142000
X+143000Y+147000
X+146000
X+140000
X+146000Y+150000
X+143000
X+140000
X+144000Y+152000
X+145000
X+142000
X+141000
X+145000Y+155000
X+144000
X+141000
X+142000
X+143000Y+152000
X+146000
X+140000
X+146000Y+155000
X+143000
X+140000
X+127500Y+149500
X+124500
X+125500
X+122500
X+121500
X+127500Y+152500
X+125500
X+124500
X+122500
X+121500
X+123500Y+149500
X+126500
X+120500
X+126500Y+152500
X+123500
X+120500
X+133000Y+153500
X+132000
X+118000Y+158000
X+116000
X+115000
X+113000
X+112000
X+110000
X+109000
X+107000
X+106000
X+118000Y+164000
X+116000
X+115000
X+113000
X+112000
X+110000
X+109000
X+107000
X+106000
X+117000Y+158000
X+114000
X+111000
X+108000
X+105000
X+117000Y+164000
X+114000
X+111000
X+105000
X+108000
X+144000Y+162000
X+145000
X+142000
X+141000
X+145000Y+165000
X+144000
X+141000
X+142000
X+143000Y+162000
X+146000
X+140000
X+146000Y+165000
X+143000
X+140000
X+130000Y+168000
X+133000
X+132000
X+135000
X+136000
X+130000Y+165000
X+132000
X+133000
X+135000
X+136000
X+134000Y+168000
X+131000
X+137000
X+131000Y+165000
X+134000
X+137000
X+130000Y+163000
X+133000
X+132000
X+135000
X+136000
X+130000Y+160000
X+132000
X+133000
X+135000
X+136000
X+134000Y+163000
X+131000
X+137000
X+131000Y+160000
X+134000
X+137000
X+125000
X+126000
X+123000
X+122000
X+126000Y+163000
X+125000
X+122000
X+123000
X+124000Y+160000
X+127000
X+121000
X+127000Y+163000
X+124000
X+121000
X+131000Y+159000
X+132000
X+110000Y+180000
X+111000
X+113000
X+114000
X+116000
X+117000
X+109000
X+112000
X+115000
X+130000Y+178000
X+133000
X+132000
X+135000
X+136000
X+130000Y+175000
X+132000
X+133000
X+135000
X+136000
X+134000Y+178000
X+131000
X+137000
X+131000Y+175000
X+134000
X+137000
X+130000Y+173000
X+133000
X+132000
X+135000
X+136000
X+130000Y+170000
X+132000
X+133000
X+135000
X+136000
X+134000Y+173000
X+131000
X+137000
X+131000Y+170000
X+134000
X+137000
X+116000Y+174500
X+117000
X+113000
X+114000
X+110000
X+111000
X+108000
X+116000Y+177500
X+117000
X+113000
X+114000
X+110000
X+111000
X+108000
X+115000Y+174500
X+112000
X+109000
X+115000Y+177500
X+112000
X+109000
X+146000Y+177000
X+143000
X+144000
X+141000
X+140000
X+146000Y+180000
X+144000
X+143000
X+141000
X+140000
X+142000Y+177000
X+145000
X+139000
X+145000Y+180000
X+142000
X+139000
X+144000Y+172000
X+145000
X+142000
X+141000
X+145000Y+175000
X+144000
X+141000
X+142000
X+143000Y+172000
X+146000
X+140000
X+146000Y+175000
X+143000
X+140000
X+130000Y+188000
X+133000
X+132000
X+135000
X+136000
X+130000Y+185000
X+132000
X+133000
X+135000
X+136000
X+134000Y+188000
X+131000
X+137000
X+131000Y+185000
X+134000
X+137000
X+146000Y+182000
X+143000
X+144000
X+141000
X+140000
X+146000Y+185000
X+144000
X+143000
X+141000
X+140000
X+142000Y+182000
X+145000
X+139000
X+145000Y+185000
X+142000
X+139000
X+144000Y+187000
X+145000
X+142000
X+141000
X+145000Y+190000
X+144000
X+141000
X+142000
X+143000Y+187000
X+146000
X+140000
X+146000Y+190000
X+143000
X+140000
X+130000Y+198000
X+133000
X+132000
X+135000
X+136000
X+130000Y+195000
X+132000
X+133000
X+135000
X+136000
X+134000Y+198000
X+131000
X+137000
X+131000Y+195000
X+134000
X+137000
X+130000Y+203000
X+133000
X+132000
X+135000
X+136000
X+130000Y+200000
X+132000
X+133000
X+135000
X+136000
X+134000Y+203000
X+131000
X+137000
X+131000Y+200000
X+134000
X+137000
X+143000Y+197000
X+144000
X+141000
X+140000
X+144000Y+200000
X+143000
X+140000
X+141000
X+142000Y+197000
X+145000
X+139000
X+145000Y+200000
X+142000
X+139000
X+130000Y+213000
X+133000
X+132000
X+135000
X+136000
X+130000Y+210000
X+132000
X+133000
X+135000
X+136000
X+134000Y+213000
X+131000
X+137000
X+131000Y+210000
X+134000
X+137000
X+109000Y+215000
Y+212000
Y+213000
Y+210000
Y+209000
X+106000Y+215000
Y+213000
Y+212000
Y+209000
Y+210000
X+109000Y+211000
Y+214000
Y+208000
X+106000Y+214000
Y+211000
Y+208000
X+124000Y+215000
Y+212000
Y+213000
Y+210000
Y+209000
X+121000Y+215000
Y+213000
Y+212000
Y+209000
Y+210000
X+124000Y+211000
Y+214000
Y+208000
X+121000Y+214000
Y+211000
Y+208000
X+144000Y+214000
X+145000
X+142000
X+141000
X+145000Y+217000
X+144000
X+141000
X+142000
X+143000Y+214000
X+146000
X+140000
X+146000Y+217000
X+143000
X+140000
X+146000Y+209000
X+143000
X+144000
X+141000
X+140000
X+146000Y+212000
X+144000
X+143000
X+141000
X+140000
X+142000Y+209000
X+145000
X+139000
X+145000Y+212000
X+142000
X+139000
X+192500Y+117000
Y+118000
X+162000Y+113000
X+163000
X+159000
X+160000
X+156000
X+157000
X+154000
X+162000Y+116000
X+163000
X+159000
X+160000
X+156000
X+157000
X+154000
X+161000Y+113000
X+158000
X+155000
X+161000Y+116000
X+158000
X+155000
X+162000Y+118000
X+163000
X+159000
X+160000
X+156000
X+157000
X+154000
X+162000Y+121000
X+163000
X+159000
X+160000
X+156000
X+157000
X+154000
X+161000Y+118000
X+158000
X+155000
X+161000Y+121000
X+158000
X+155000
X+191000Y+111000
X+194000
X+180000Y+132500
X+179000
X+182000
X+183000
X+179000Y+129500
X+180000
X+183000
X+182000
X+181000Y+132500
X+178000
X+184000
X+178000Y+129500
X+181000
X+184000
X+180000Y+127500
X+179000
X+182000
X+183000
X+179000Y+124500
X+180000
X+183000
X+182000
X+181000Y+127500
X+178000
X+184000
X+178000Y+124500
X+181000
X+184000
X+175000Y+129500
X+172000
X+173000
X+170000
X+169000
X+175000Y+132500
X+173000
X+172000
X+170000
X+169000
X+171000Y+129500
X+174000
X+168000
X+174000Y+132500
X+171000
X+168000
X+175000Y+124500
X+172000
X+173000
X+170000
X+169000
X+175000Y+127500
X+173000
X+172000
X+170000
X+169000
X+171000Y+124500
X+174000
X+168000
X+174000Y+127500
X+171000
X+168000
X+162000Y+128000
X+159000
X+160000
X+157000
X+156000
X+162000Y+131000
X+160000
X+159000
X+157000
X+156000
X+158000Y+128000
X+161000
X+155000
X+161000Y+131000
X+158000
X+155000
X+162000Y+123000
X+159000
X+160000
X+157000
X+156000
X+162000Y+126000
X+160000
X+159000
X+157000
X+156000
X+158000Y+123000
X+161000
X+155000
X+161000Y+126000
X+158000
X+155000
X+180000Y+143000
X+179000
X+182000
X+183000
X+179000Y+140000
X+180000
X+183000
X+182000
X+181000Y+143000
X+178000
X+184000
X+178000Y+140000
X+181000
X+184000
X+177000Y+138000
X+180000
X+179000
X+182000
X+183000
X+177000Y+135000
X+179000
X+180000
X+183000
X+182000
X+181000Y+138000
X+178000
X+184000
X+178000Y+135000
X+181000
X+184000
X+165000Y+138000
X+166000
X+162000
X+163000
X+159000
X+160000
X+157000
X+165000Y+141000
X+166000
X+162000
X+163000
X+159000
X+160000
X+157000
X+164000Y+138000
X+161000
X+158000
X+164000Y+141000
X+161000
X+158000
X+180000Y+149000
X+179000
X+182000
X+183000
X+179000Y+146000
X+180000
X+183000
X+182000
X+181000Y+149000
X+178000
X+184000
X+178000Y+146000
X+181000
X+184000
X+180000Y+155000
X+179000
X+182000
X+183000
X+179000Y+152000
X+180000
X+183000
X+182000
X+181000Y+155000
X+178000
X+184000
X+178000Y+152000
X+181000
X+184000
X+165000Y+148000
X+166000
X+162000
X+163000
X+159000
X+160000
X+157000
X+165000Y+151000
X+166000
X+162000
X+163000
X+159000
X+160000
X+157000
X+164000Y+148000
X+161000
X+158000
X+164000Y+151000
X+161000
X+158000
X+160000Y+153000
X+161000
X+158000
X+157000
X+161000Y+156000
X+160000
X+157000
X+158000
X+159000Y+153000
X+162000
X+156000
X+162000Y+156000
X+159000
X+156000
X+184000Y+150000
X+181000
X+166000Y+165000
X+165000
X+168000
X+169000
X+165000Y+162000
X+166000
X+169000
X+168000
X+167000Y+165000
X+164000
X+170000
X+164000Y+162000
X+167000
X+170000
X+180000
X+181000
X+177000
X+178000
X+174000
X+175000
X+172000
X+180000Y+165000
X+181000
X+177000
X+178000
X+174000
X+175000
X+172000
X+179000Y+162000
X+176000
X+173000
X+179000Y+165000
X+176000
X+173000
X+163000Y+158000
X+160000
X+161000
X+158000
X+157000
X+163000Y+161000
X+161000
X+160000
X+157000
X+158000
X+159000Y+158000
X+162000
X+156000
X+162000Y+161000
X+159000
X+156000
X+160000Y+163000
X+161000
X+158000
X+157000
X+161000Y+166000
X+160000
X+157000
X+158000
X+159000Y+163000
X+162000
X+156000
X+162000Y+166000
X+159000
X+156000
X+166000Y+180000
X+165000
X+168000
X+169000
X+165000Y+177000
X+166000
X+169000
X+168000
X+167000Y+180000
X+164000
X+170000
X+164000Y+177000
X+167000
X+170000
X+166000Y+175000
X+165000
X+168000
X+169000
X+165000Y+172000
X+166000
X+169000
X+168000
X+167000Y+175000
X+164000
X+170000
X+164000Y+172000
X+167000
X+170000
X+183000Y+176000
X+184000
X+186000
X+187000
X+189000
X+190000
X+192000
X+193000
X+183000Y+170000
X+184000
X+186000
X+187000
X+190000
X+189000
X+192000
X+193000
X+182000Y+176000
X+185000
X+188000
X+191000
X+182000Y+170000
X+185000
X+188000
X+191000
X+160000Y+173000
X+161000
X+158000
X+157000
X+161000Y+176000
X+160000
X+157000
X+158000
X+159000Y+173000
X+162000
X+156000
X+162000Y+176000
X+159000
X+156000
X+160000Y+178000
X+161000
X+158000
X+157000
X+161000Y+181000
X+160000
X+157000
X+158000
X+159000Y+178000
X+162000
X+156000
X+162000Y+181000
X+159000
X+156000
X+166000Y+190000
X+165000
X+168000
X+169000
X+165000Y+187000
X+166000
X+169000
X+168000
X+167000Y+190000
X+164000
X+170000
X+164000Y+187000
X+167000
X+170000
X+180000Y+191000
X+183000
X+182000
X+185000
X+186000
X+180000Y+188000
X+182000
X+183000
X+186000
X+185000
X+184000Y+191000
X+181000
X+187000
X+181000Y+188000
X+184000
X+187000
X+181000Y+186000
X+184000
X+183000
X+186000
X+187000
X+181000Y+183000
X+183000
X+184000
X+187000
X+186000
X+185000Y+186000
X+182000
X+188000
X+182000Y+183000
X+185000
X+188000
X+160000
X+161000
X+158000
X+157000
X+161000Y+186000
X+160000
X+157000
X+158000
X+159000Y+183000
X+162000
X+156000
X+162000Y+186000
X+159000
X+156000
X+160000Y+188000
X+161000
X+158000
X+157000
X+161000Y+191000
X+160000
X+157000
X+158000
X+159000Y+188000
X+162000
X+156000
X+162000Y+191000
X+159000
X+156000
X+166000Y+185000
X+165000
X+168000
X+169000
X+165000Y+182000
X+166000
X+169000
X+168000
X+167000Y+185000
X+164000
X+170000
X+164000Y+182000
X+167000
X+170000
X+191000Y+186000
X+194000
X+165000Y+200000
X+164000
X+167000
X+168000
X+164000Y+197000
X+165000
X+168000
X+167000
X+166000Y+200000
X+163000
X+169000
X+163000Y+197000
X+166000
X+169000
X+179000Y+201000
X+182000
X+181000
X+184000
X+185000
X+179000Y+198000
X+181000
X+182000
X+185000
X+184000
X+183000Y+201000
X+180000
X+186000
X+180000Y+198000
X+183000
X+186000
X+159000Y+199000
X+160000
X+157000
X+156000
X+160000Y+202000
X+159000
X+156000
X+157000
X+158000Y+199000
X+161000
X+155000
X+161000Y+202000
X+158000
X+155000
X+192000
X+193000
X+190000
X+189000
X+193000Y+205000
X+192000
X+189000
X+190000
X+191000Y+202000
X+194000
X+188000
X+194000Y+205000
X+191000
X+188000
X+192000Y+197000
X+193000
X+190000
X+189000
X+193000Y+200000
X+192000
X+189000
X+190000
X+191000Y+197000
X+194000
X+188000
X+194000Y+200000
X+191000
X+188000
X+166000Y+210000
X+165000
X+168000
X+169000
X+165000Y+207000
X+166000
X+169000
X+168000
X+167000Y+210000
X+164000
X+170000
X+164000Y+207000
X+167000
X+170000
X+182000Y+216000
X+181000
X+184000
X+185000
X+181000Y+213000
X+182000
X+185000
X+184000
X+183000Y+216000
X+180000
X+186000
X+180000Y+213000
X+183000
X+186000
X+182000Y+211000
X+181000
X+184000
X+185000
X+181000Y+208000
X+182000
X+185000
X+184000
X+183000Y+211000
X+180000
X+186000
X+180000Y+208000
X+183000
X+186000
X+160000Y+214000
X+161000
X+158000
X+157000
X+161000Y+217000
X+160000
X+157000
X+158000
X+159000Y+214000
X+162000
X+156000
X+162000Y+217000
X+159000
X+156000
X+160000Y+209000
X+161000
X+158000
X+157000
X+161000Y+212000
X+160000
X+157000
X+158000
X+159000Y+209000
X+162000
X+156000
X+162000Y+212000
X+159000
X+156000
X+192000
X+193000
X+190000
X+189000
X+193000Y+215000
X+192000
X+189000
X+190000
X+191000Y+212000
X+194000
X+188000
X+194000Y+215000
X+191000
X+188000
X+192000Y+207000
X+193000
X+190000
X+189000
X+193000Y+210000
X+192000
X+189000
X+190000
X+191000Y+207000
X+194000
X+188000
X+194000Y+210000
X+191000
X+188000
X+166000Y+215000
X+165000
X+168000
X+169000
X+165000Y+212000
X+166000
X+169000
X+168000
X+167000Y+215000
X+164000
X+170000
X+164000Y+212000
X+167000
X+170000
X+130000Y+147500
X+133000
X+132000
X+135000
X+136000
X+130000Y+144500
X+132000
X+133000
X+135000
X+136000
X+134000Y+147500
X+131000
X+137000
X+131000Y+144500
X+134000
X+137000
X+127500
X+124500
X+125500
X+122500
X+121500
X+127500Y+147500
X+125500
X+124500
X+122500
X+121500
X+123500Y+144500
X+126500
X+120500
X+126500Y+147500
X+123500
X+120500
X+130000Y+183000
X+133000
X+132000
X+135000
X+136000
X+130000Y+180000
X+132000
X+133000
X+135000
X+136000
X+134000Y+183000
X+131000
X+137000
X+131000Y+180000
X+134000
X+137000
X+130000Y+193000
X+133000
X+132000
X+135000
X+136000
X+130000Y+190000
X+132000
X+133000
X+135000
X+136000
X+134000Y+193000
X+131000
X+137000
X+131000Y+190000
X+134000
X+137000
X+109000Y+191000
Y+192000
Y+189000
Y+188000
X+106000Y+192000
Y+191000
Y+188000
Y+189000
X+109000Y+190000
Y+193000
Y+187000
X+106000Y+193000
Y+190000
Y+187000
X+124000Y+194000
Y+195000
Y+191000
Y+192000
Y+188000
Y+189000
Y+186000
X+121000Y+194000
Y+195000
Y+191000
Y+192000
Y+188000
Y+189000
Y+186000
X+124000Y+193000
Y+190000
Y+187000
X+121000Y+193000
Y+190000
Y+187000
X+123000Y+181500
X+124000
X+121000
X+120000
X+124000Y+184500
X+123000
X+120000
X+121000
X+122000Y+181500
X+125000
X+119000
X+125000Y+184500
X+122000
X+119000
X+144000Y+167000
X+145000
X+142000
X+141000
X+145000Y+170000
X+144000
X+141000
X+142000
X+143000Y+167000
X+146000
X+140000
X+146000Y+170000
X+143000
X+140000
X+125000Y+168000
X+126000
X+123000
X+122000
X+126000Y+171000
X+125000
X+122000
X+123000
X+124000Y+168000
X+127000
X+121000
X+127000Y+171000
X+124000
X+121000
X+125000Y+155000
X+126000
X+123000
X+122000
X+126000Y+158000
X+125000
X+122000
X+123000
X+124000Y+155000
X+127000
X+121000
X+127000Y+158000
X+124000
X+121000
X+130000
X+133000
X+132000
X+135000
X+136000
X+130000Y+155000
X+132000
X+133000
X+135000
X+136000
X+134000Y+158000
X+131000
X+137000
X+131000Y+155000
X+134000
X+137000
X+144000Y+157000
X+145000
X+142000
X+141000
X+145000Y+160000
X+144000
X+141000
X+142000
X+143000Y+157000
X+146000
X+140000
X+146000Y+160000
X+143000
X+140000
X+146000Y+192000
X+143000
X+144000
X+141000
X+140000
X+146000Y+195000
X+144000
X+143000
X+141000
X+140000
X+142000Y+192000
X+145000
X+139000
X+145000Y+195000
X+142000
X+139000
X+130000Y+208000
X+133000
X+132000
X+135000
X+136000
X+130000Y+205000
X+132000
X+133000
X+135000
X+136000
X+134000Y+208000
X+131000
X+137000
X+131000Y+205000
X+134000
X+137000
X+144000Y+204000
X+145000
X+142000
X+141000
X+145000Y+207000
X+144000
X+141000
X+142000
X+143000Y+204000
X+146000
X+140000
X+146000Y+207000
X+143000
X+140000
X+133000Y+218000
X+132000
X+135000
X+136000
X+132000Y+215000
X+133000
X+136000
X+135000
X+134000Y+218000
X+131000
X+137000
X+131000Y+215000
X+134000
X+137000
X+167000Y+110000
Y+109000
Y+113000
Y+112000
Y+116000
Y+115000
Y+118000
X+170000Y+110000
Y+109000
Y+113000
Y+112000
Y+116000
Y+115000
Y+118000
X+167000Y+111000
Y+114000
Y+117000
X+170000Y+111000
Y+114000
Y+117000
X+162000Y+108000
X+163000
X+159000
X+160000
X+156000
X+157000
X+154000
X+162000Y+111000
X+163000
X+159000
X+160000
X+156000
X+157000
X+154000
X+161000Y+108000
X+158000
X+155000
X+161000Y+111000
X+158000
X+155000
X+162000Y+133000
X+163000
X+159000
X+160000
X+156000
X+157000
X+154000
X+162000Y+136000
X+163000
X+159000
X+160000
X+156000
X+157000
X+154000
X+161000Y+133000
X+158000
X+155000
X+161000Y+136000
X+158000
X+155000
X+165000Y+143000
X+166000
X+162000
X+163000
X+159000
X+160000
X+157000
X+165000Y+146000
X+166000
X+162000
X+163000
X+159000
X+160000
X+157000
X+164000Y+143000
X+161000
X+158000
X+164000Y+146000
X+161000
X+158000
X+166000Y+195000
X+165000
X+168000
X+169000
X+165000Y+192000
X+166000
X+169000
X+168000
X+167000Y+195000
X+164000
X+170000
X+164000Y+192000
X+167000
X+170000
X+166000Y+170000
X+165000
X+168000
X+169000
X+165000Y+167000
X+166000
X+169000
X+168000
X+167000Y+170000
X+164000
X+170000
X+164000Y+167000
X+167000
X+170000
X+180000Y+196000
X+183000
X+182000
X+185000
X+186000
X+180000Y+193000
X+182000
X+183000
X+186000
X+185000
X+184000Y+196000
X+181000
X+187000
X+181000Y+193000
X+184000
X+187000
X+181000Y+181000
X+184000
X+183000
X+186000
X+187000
X+181000Y+178000
X+183000
X+184000
X+187000
X+186000
X+185000Y+181000
X+182000
X+188000
X+182000Y+178000
X+185000
X+188000
X+175500Y+157000
X+176500
X+172500
X+173500
X+169500
X+170500
X+167500
X+175500Y+160000
X+176500
X+172500
X+173500
X+169500
X+170500
X+167500
X+174500Y+157000
X+171500
X+168500
X+174500Y+160000
X+171500
X+168500
X+193000Y+195000
Y+192000
Y+193000
Y+190000
Y+189000
X+190000Y+195000
Y+193000
Y+192000
Y+189000
Y+190000
X+193000Y+191000
Y+194000
Y+188000
X+190000Y+194000
Y+191000
Y+188000
X+191000Y+181000
Y+180000
Y+183000
Y+184000
X+194000Y+180000
Y+181000
Y+184000
Y+183000
X+191000Y+182000
Y+179000
Y+185000
X+194000Y+179000
Y+182000
Y+185000
X+160000Y+193000
X+161000
X+158000
X+157000
X+161000Y+196000
X+160000
X+157000
X+158000
X+159000Y+193000
X+162000
X+156000
X+162000Y+196000
X+159000
X+156000
X+160000Y+168000
X+161000
X+158000
X+157000
X+161000Y+171000
X+160000
X+157000
X+158000
X+159000Y+168000
X+162000
X+156000
X+162000Y+171000
X+159000
X+156000
X+166000Y+205000
X+165000
X+168000
X+169000
X+165000Y+202000
X+166000
X+169000
X+168000
X+167000Y+205000
X+164000
X+170000
X+164000Y+202000
X+167000
X+170000
X+160000Y+204000
X+161000
X+158000
X+157000
X+161000Y+207000
X+160000
X+157000
X+158000
X+159000Y+204000
X+162000
X+156000
X+162000Y+207000
X+159000
X+156000
X+182000Y+206000
X+181000
X+184000
X+185000
X+181000Y+203000
X+182000
X+185000
X+184000
X+183000Y+206000
X+180000
X+186000
X+180000Y+203000
X+183000
X+186000
X+121000Y+198000
Y+197000
Y+201000
Y+200000
Y+204000
Y+203000
Y+206000
X+124000Y+198000
Y+197000
Y+201000
Y+200000
Y+204000
Y+203000
Y+206000
X+121000Y+199000
Y+202000
Y+205000
X+124000Y+199000
Y+202000
Y+205000
X+169000Y+136000
Y+139000
Y+138000
Y+142000
Y+141000
Y+145000
Y+144000
Y+148000
Y+147000
Y+151000
Y+150000
Y+153000
Y+154000
X+175000Y+136000
Y+138000
Y+139000
Y+141000
Y+142000
Y+144000
Y+145000
Y+147000
Y+148000
Y+151000
Y+150000
Y+153000
Y+154000
X+169000Y+146000
Y+143000
Y+140000
Y+137000
Y+152000
Y+149000
Y+155000
X+175000Y+137000
Y+140000
Y+143000
Y+146000
Y+149000
Y+152000
Y+155000
X+109000Y+142000
X+106000
X+107000
X+104000
X+103000
X+109000Y+145000
X+107000
X+106000
X+104000
X+103000
X+105000Y+142000
X+108000
X+102000
X+108000Y+145000
X+105000
X+102000
X+117000Y+147000
X+118000
X+114000
X+115000
X+111000
X+112000
X+108000
X+109000
X+105000
X+106000
X+103000
X+117000Y+153000
X+118000
X+114000
X+115000
X+111000
X+112000
X+109000
X+108000
X+105000
X+106000
X+103000
X+116000Y+147000
X+113000
X+110000
X+107000
X+104000
X+116000Y+153000
X+113000
X+110000
X+107000
X+104000
X+122000Y+173000
X+119000
X+120000
X+116000
X+117000
X+113000
X+114000
X+110000
X+111000
X+107000
X+108000
X+105000
X+104000
X+122000Y+179000
X+120000
X+119000
X+117000
X+116000
X+114000
X+113000
X+111000
X+110000
X+107000
X+108000
X+105000
X+104000
X+112000Y+173000
X+115000
X+118000
X+121000
X+106000
X+109000
X+103000
X+121000Y+179000
X+118000
X+115000
X+112000
X+109000
X+106000
X+103000
X+117000Y+167000
X+118000
X+114000
X+115000
X+111000
X+112000
X+108000
X+109000
X+105000
X+106000
X+103000
X+117000Y+170000
X+118000
X+114000
X+115000
X+111000
X+112000
X+109000
X+108000
X+105000
X+106000
X+103000
X+116000Y+167000
X+113000
X+110000
X+107000
X+104000
X+110000Y+170000
X+113000
X+116000
X+104000
X+107000
X+109000Y+181500
X+106000
X+107000
X+104000
X+103000
X+109000Y+184500
X+107000
X+106000
X+104000
X+103000
X+105000Y+181500
X+108000
X+102000
X+108000Y+184500
X+105000
X+102000
T03
X+110000Y+101500
X+111000
X+113000
X+114000
X+116000
X+117000
X+119000
X+120000
X+122000
X+123000
X+125000
X+126000
X+128000
X+129000
X+131000
X+132000
X+134000
X+135000
X+137000
X+138000
X+140000
X+144000
X+146000
X+147000
X+149000
X+150000
X+152000
X+153000
X+155000
X+156000
X+158000
X+159000
X+161000
X+110000Y+103500
X+111000
X+113000
X+114000
X+116000
X+117000
X+119000
X+120000
X+122000
X+123000
X+125000
X+126000
X+128000
X+129000
X+131000
X+132000
X+134000
X+135000
X+137000
X+138000
X+140000
X+144000
X+146000
X+147000
X+149000
X+150000
X+152000
X+153000
X+155000
X+156000
X+158000
X+159000
X+161000
X+112000Y+101500
X+124000
X+121000
X+118000
X+115000
X+136000
X+133000
X+130000
X+127000
X+139000
X+148000
X+145000
X+160000
X+157000
X+154000
X+151000
X+112000Y+103500
X+124000
X+121000
X+118000
X+115000
X+136000
X+133000
X+130000
X+127000
X+139000
X+148000
X+145000
X+160000
X+157000
X+154000
X+151000
X+119750Y+115500
X+121750
X+120750
X+122750
X+124750
X+123750
X+125750
X+127750
X+126750
X+128750
X+130750
X+129750
X+131750
X+133750
X+132750
X+134750
X+136750
X+135750
X+137750
X+139750
X+138750
X+140750
X+142750
X+141750
X+143750
X+145750
X+144750
X+146750
X+148750
X+147750
X+149750
X+119750Y+117500
X+121750
X+122750
X+120750
X+124750
X+123750
X+125750
X+127750
X+126750
X+128750
X+130750
X+129750
X+131750
X+133750
X+132750
X+134750
X+136750
X+135750
X+137750
X+139750
X+138750
X+140750
X+142750
X+141750
X+143750
X+145750
X+144750
X+146750
X+148750
X+147750
X+149750
X+119750Y+123500
X+121750
X+120750
X+122750
X+124750
X+123750
X+125750
X+127750
X+126750
X+128750
X+130750
X+129750
X+131750
X+133750
X+132750
X+134750
X+136750
X+135750
X+137750
X+139750
X+138750
X+140750
X+142750
X+141750
X+143750
X+145750
X+144750
X+146750
X+148750
X+147750
X+149750
X+119750Y+125500
X+121750
X+122750
X+120750
X+124750
X+123750
X+125750
X+127750
X+126750
X+128750
X+130750
X+129750
X+131750
X+133750
X+132750
X+134750
X+136750
X+135750
X+137750
X+139750
X+138750
X+140750
X+142750
X+141750
X+143750
X+145750
X+144750
X+146750
X+148750
X+147750
X+149750
X+119750Y+131500
X+121750
X+120750
X+122750
X+124750
X+123750
X+125750
X+127750
X+126750
X+128750
X+130750
X+129750
X+131750
X+133750
X+132750
X+134750
X+136750
X+135750
X+137750
X+139750
X+138750
X+140750
X+142750
X+141750
X+143750
X+145750
X+144750
X+146750
X+148750
X+147750
X+149750
X+119750Y+133500
X+121750
X+122750
X+120750
X+124750
X+123750
X+125750
X+127750
X+126750
X+128750
X+130750
X+129750
X+131750
X+133750
X+132750
X+134750
X+136750
X+135750
X+137750
X+139750
X+138750
X+140750
X+142750
X+141750
X+143750
X+145750
X+144750
X+146750
X+148750
X+147750
X+149750
X+119750Y+107500
X+121750
X+120750
X+122750
X+124750
X+123750
X+125750
X+127750
X+126750
X+128750
X+130750
X+129750
X+131750
X+133750
X+132750
X+134750
X+136750
X+135750
X+137750
X+139750
X+138750
X+140750
X+142750
X+141750
X+143750
X+145750
X+144750
X+146750
X+148750
X+147750
X+149750
X+119750Y+109500
X+121750
X+122750
X+120750
X+124750
X+123750
X+125750
X+127750
X+126750
X+128750
X+130750
X+129750
X+131750
X+133750
X+132750
X+134750
X+136750
X+135750
X+137750
X+139750
X+138750
X+140750
X+142750
X+141750
X+143750
X+145750
X+144750
X+146750
X+148750
X+147750
X+149750
T04
X+193500Y+128500
Y+127500
Y+119500
Y+120500
X+102500Y+212000
Y+213000
Y+209000
Y+210000
Y+206000
Y+207000
Y+203000
Y+204000
Y+200000
Y+201000
Y+197000
Y+198000
Y+194000
Y+195000
Y+191000
Y+192000
Y+189000
Y+211000
Y+208000
Y+205000
Y+202000
Y+199000
Y+196000
Y+193000
Y+190000
X+103500Y+212000
Y+213000
Y+209000
Y+210000
Y+206000
Y+207000
Y+203000
Y+204000
Y+200000
Y+201000
Y+197000
Y+198000
Y+194000
Y+195000
Y+191000
Y+192000
Y+189000
Y+211000
Y+208000
Y+205000
Y+202000
Y+199000
Y+196000
Y+193000
Y+190000
X+194000Y+110000
X+193000
X+191000
X+192000
X+174000Y+217500
X+172000
X+173000
X+169500Y+103500
Y+104500
X+171500Y+102500
X+174500
X+173500
X+177500
X+176500
X+180500
X+179500
X+183500
X+182500
X+186500
X+185500
X+189500
X+188500
X+172500
X+175500
X+178500
X+181500
X+184500
X+187500
X+190500
X+171500Y+103500
X+174500
X+173500
X+177500
X+176500
X+180500
X+179500
X+183500
X+182500
X+186500
X+185500
X+189500
X+188500
X+172500
X+175500
X+178500
X+181500
X+184500
X+187500
X+190500
X+193500Y+125000
Y+126000
X+169000Y+121000
X+168000
X+172000
X+171000
X+175000
X+174000
X+178000
X+177000
X+181000
X+180000
X+183000
X+184000
X+170000
X+173000
X+176000
X+179000
X+182000
X+169000Y+122000
X+168000
X+172000
X+171000
X+175000
X+174000
X+178000
X+177000
X+181000
X+180000
X+183000
X+184000
X+170000
X+173000
X+176000
X+179000
X+182000
X+193000Y+167500
Y+168500
X+181000Y+158000
X+180000
X+184000
X+183000
X+187000
X+186000
X+190000
X+189000
X+188000
X+185000
X+182000
X+179000
X+191000
X+181000Y+159000
X+180000
X+184000
X+183000
X+187000
X+186000
X+190000
X+189000
X+188000
X+185000
X+182000
X+179000
X+191000
T05
X+150000Y+119000
X+148000
X+149000
X+150000Y+122000
X+148000
X+149000
X+150000Y+127000
X+148000
X+149000
X+150000Y+130000
X+148000
X+149000
X+126000Y+167000
X+127000
X+126000Y+165000
X+127000
X+150000Y+135000
X+148000
X+149000
X+180500Y+174000
Y+175000
Y+173000
X+189500Y+105500
X+190500
X+188000Y+167500
X+186000
X+187000
X+150000Y+192000
X+151000
X+180250Y+170500
X+172375
X+192000Y+119500
Y+121500
Y+120500
X+150000Y+106000
X+148000
X+149000
X+136000Y+209000
X+137000
X+150000Y+114000
X+148000
X+149000
X+150000Y+111000
X+148000
X+149000
X+182500Y+110500
X+181500
X+183500
T06
X+179000Y+110500
X+177000
X+178000
T07
X+187000Y+122000
X+189000
X+141000Y+201500
X+143000
X+190000Y+183000
Y+182000
T08
X+127000Y+181250
T09
X+177059Y+113417
Y+115583
X+180366Y+113417
Y+115583
X+183673Y+113417
Y+115583
X+185327Y+113417
Y+115583
X+188634Y+113417
Y+115583
X+191941Y+113417
Y+115583
X+178713Y+113417
X+182020
Y+115583
X+178713
X+190287Y+113417
X+186980
X+190287Y+115583
X+186980
T10
X+127000Y+217750
T11
X+175209Y+113575
X+193791
T12
X+193500Y+106500
Y+217500
Y+155500
X+104000Y+106500
X+113000Y+217500
X+165000Y+106500
Y+217500
X+104000Y+137500
Y+155500
X+165000
T00
M30
