M48
;FILE_FORMAT=2:4
INCH
;TYPE=PLATED
T01C0.020
T02C0.031
T03C0.032
T04C0.036
T05C0.038
T06C0.040
T07C0.043
T08C0.047
T09C0.060
T10C0.079
T11C0.080
T12C0.087
T13C0.126
T14C0.150
%
T01
X+101450Y+205300
X+102550Y+181950
X+104450Y+215000
X+107250Y+200550
X+106950Y+200250
X+107550Y+199950
X+107200Y+203200
X+107250Y+202350
X+105900Y+201700
X+106900Y+202650
X+107250Y+205500
X+105700Y+205600
X+106500Y+208800
X+109850Y+163600
X+110600Y+165500
X+111600Y+164600
X+111900Y+174450
X+112500Y+193700
X+113450Y+199950
X+112300Y+202450
X+114300Y+192500
X+114450Y+206050
X+116600Y+204250
X+115400Y+208200
X+115450Y+212700
X+115750Y+213550
Y+214500
Y+214950
X+115450Y+214100
Y+217100
X+115750Y+216500
X+114400Y+216600
X+118100Y+170500
X+118300Y+171600
X+118600Y+180450
X+119100Y+190300
X+118500Y+189500
X+118600Y+199600
X+119300Y+207900
X+119500Y+211900
X+122050Y+157250
X+121700Y+156650
X+121100Y+162950
X+120600Y+172700
X+122500Y+182500
X+122450Y+181900
X+120600Y+180450
X+122500Y+185100
X+122450Y+183950
X+122500Y+187950
Y+187050
X+121100Y+191550
X+122000Y+192250
X+122400Y+195500
X+120500Y+203000
X+122550Y+201400
Y+205900
X+122450Y+205400
X+120500Y+207400
X+120400Y+210700
X+124000Y+160250
X+124450Y+166500
X+124150Y+169850
X+123650Y+170150
X+124000Y+179600
X+123850Y+189700
X+124550Y+189950
X+123400Y+196000
X+124600Y+198600
X+125700
X+124700Y+201800
X+124400Y+201400
X+123450Y+204400
X+123900Y+209400
X+123550Y+211000
X+125600Y+214050
X+126600Y+194450
X+128600Y+198800
X+127600
X+128300Y+201700
X+128600Y+202100
Y+204850
X+127750Y+214050
X+127800Y+213450
X+127000Y+214950
X+127750Y+216800
X+127450Y+217400
X+126950Y+217900
X+127150Y+216500
X+129400Y+166050
X+130750Y+179600
X+129500Y+185100
Y+188200
X+129900Y+191200
X+130600Y+193500
X+130800Y+199100
X+129300Y+199900
X+129600Y+203000
X+131000Y+204250
X+130000Y+204550
X+131700Y+209200
X+130100Y+209400
X+134550Y+188550
Y+188100
X+133650Y+190900
X+132400Y+189450
X+133950Y+190500
X+133250Y+191500
X+134100Y+190050
X+132800Y+194600
X+133350Y+194300
X+133000Y+193250
X+133350Y+192350
X+133650Y+194600
X+132600Y+197100
X+132400Y+200000
X+132450Y+198500
X+132250Y+202800
X+134600Y+204550
X+136400Y+172550
X+135500Y+180300
X+137500Y+183400
X+136700Y+189900
X+136000Y+190400
Y+191300
X+135850Y+189600
X+136300Y+193250
X+135500Y+193850
X+136300Y+195950
X+137300Y+198900
X+136500
X+137600Y+199450
X+135350Y+198500
X+137300Y+202900
Y+203600
X+137100Y+214900
X+140500Y+173700
X+139500Y+178500
X+140500Y+179000
X+139850Y+185600
X+140350Y+188550
X+140600Y+193400
X+138550Y+197500
X+139450Y+195550
X+139700Y+200300
X+140350Y+203100
X+140000Y+202000
X+140550Y+204450
X+138300Y+204950
X+138450Y+208600
X+138750Y+209500
X+139700Y+212500
X+139900Y+214500
X+142000Y+173400
X+143550Y+174600
X+143050Y+180450
X+143000Y+185600
X+142700Y+186600
X+141500Y+186300
X+143000Y+187400
X+141400Y+189600
X+141700Y+190300
X+142100Y+199450
X+142200Y+202700
X+141900Y+203100
X+141500Y+210600
X+141650Y+214800
X+143450Y+213650
X+146000Y+174900
X+145400Y+176300
X+144800Y+178300
X+145900Y+182400
X+145100Y+182300
X+145500Y+180950
X+144750Y+182000
X+145900Y+185600
X+146550Y+188450
Y+187550
X+145900Y+189800
X+146500Y+191000
X+146400Y+190150
X+144350Y+189500
X+145600Y+197500
X+146650Y+200550
X+145900Y+198500
X+145850Y+199150
X+146150Y+199800
X+145250Y+199550
X+145550Y+200150
X+144950Y+199000
X+146050Y+210450
X+144950Y+212000
X+145450Y+215100
X+149100Y+176300
X+148500Y+178000
X+148900Y+185200
X+149200Y+183700
X+148900Y+183400
X+148000Y+187400
X+147950Y+188100
X+148600Y+191350
X+149300Y+196550
X+148900Y+203750
X+148300Y+203000
X+149300Y+205500
X+151600Y+171550
Y+174450
X+150500Y+188450
X+151500Y+189850
Y+198500
X+150500Y+203750
X+150950Y+203250
X+153400Y+172300
X+153850Y+179000
X+153900Y+180650
X+154200Y+182000
X+155500Y+186500
X+157000Y+171500
X+160350Y+171450
Y+178250
X+160150Y+189500
X+101450Y+197950
X+110500Y+210000
X+113700Y+180050
X+111900Y+203950
X+111400Y+201200
X+116300Y+203950
X+114250Y+195000
X+116400Y+201200
X+115750Y+213100
X+115450Y+215900
X+114450Y+207200
X+119550Y+171100
X+117600Y+180150
X+118900Y+170800
X+117300Y+203950
X+117400Y+216200
X+122050Y+156000
X+122600Y+203950
X+120400Y+215900
X+125100Y+206950
X+127400Y+185800
X+127300Y+198200
X+127100Y+201200
X+126800Y+213050
X+127450Y+215900
X+130600Y+209900
X+131400Y+210200
X+134300Y+189150
X+133900Y+188850
X+132300Y+194900
X+132250Y+203950
X+134350Y+206950
X+135650Y+164950
X+137300Y+201100
X+139850Y+192000
X+140300Y+186000
X+142400Y+174000
X+143500Y+174150
X+141250Y+177000
X+142700Y+186100
X+141950Y+210000
X+146100Y+189200
X+146200Y+198000
X+145550Y+207000
X+148600Y+188850
X+148900Y+189200
X+148000Y+192050
Y+204050
X+152050Y+195000
X+154600Y+180000
X+154700Y+183000
X+108000Y+201450
X+113900Y+165500
X+117200Y+166550
X+114000Y+179450
X+114200Y+189800
X+113900Y+190700
X+114000Y+194550
X+114100Y+197000
X+114000Y+200600
Y+202600
X+117000Y+204550
X+111150Y+205750
X+122800Y+170450
Y+172700
Y+180900
X+131950Y+199900
Y+199400
X+129050Y+199300
X+131950Y+201700
X+126100Y+204250
X+129000
X+132100Y+211900
X+123200Y+210700
X+126000Y+213750
X+129000Y+217400
X+144200Y+177600
X+144100Y+182100
Y+185600
X+138000Y+185100
X+143950Y+187400
X+135000Y+204950
X+153200Y+171650
X+153050Y+175700
X+150000Y+182500
X+146900Y+185600
X+149900Y+185200
X+152900Y+189300
X+146800Y+191450
X+149900Y+190700
X+150050Y+190100
X+152900Y+199900
X+150200Y+203000
X+146850Y+204450
Y+205000
X+147050Y+206450
X+132150Y+198200
X+135000Y+204100
X+137950Y+206950
T02
X+110000Y+175000
Y+176000
X+108500Y+188500
Y+186500
X+118000Y+198500
Y+200500
X+129500Y+182000
X+131500
X+131000Y+209500
Y+207500
X+151500Y+192500
Y+194500
Y+197500
Y+195500
X+110000Y+171500
Y+170500
Y+177000
Y+178000
X+109000Y+180500
X+110000
Y+188500
Y+185500
X+109500Y+216500
Y+213500
X+108500Y+216500
Y+213500
X+112500Y+162000
Y+163000
Y+164000
Y+165000
X+111500Y+216500
Y+213500
X+115000Y+167500
Y+168500
Y+174000
Y+175000
Y+210500
Y+207500
X+119000Y+193000
Y+191000
X+118000Y+193000
Y+191000
X+119000Y+200500
Y+197500
X+121000Y+170500
Y+173500
X+122000Y+187500
Y+190500
Y+200500
Y+197500
X+121000
Y+200500
Y+194000
Y+196000
X+122000Y+194000
Y+196000
X+127000Y+158500
Y+160500
X+128000Y+158500
Y+160500
X+127000Y+177000
Y+176000
X+130000Y+158500
Y+159500
X+130500Y+186000
Y+184000
X+134000Y+158500
Y+160500
X+133000Y+167500
Y+166500
Y+179000
Y+180000
X+137000Y+164500
Y+166500
X+136000
Y+167500
X+137000Y+163500
Y+162500
X+139000Y+163500
Y+162500
X+142000Y+178000
Y+181000
X+143000Y+172000
Y+175000
X+142000Y+184000
Y+187000
X+152000Y+171000
Y+173000
X+157500Y+196500
Y+198500
X+106500Y+190000
Y+191000
Y+193000
Y+194000
Y+196000
Y+197000
Y+189000
Y+192000
Y+195000
X+107000Y+180500
Y+183500
X+106500Y+203000
Y+202000
Y+205000
Y+206000
Y+201000
Y+204000
X+110000Y+168500
Y+169500
Y+181500
Y+184500
X+115000Y+169500
Y+170500
X+131000Y+166500
Y+169500
Y+215500
Y+217500
X+109000Y+169500
X+107000
X+117500Y+160000
X+118500
X+117500Y+164000
X+118500
X+117500Y+166000
X+118500
X+114500
X+113500
X+111000Y+171500
X+113000
X+116000Y+176000
Y+175000
X+114000Y+178000
X+115000
X+113000
X+111000
X+112000Y+181500
X+113000
X+112000Y+184500
X+113000
X+112000Y+187500
X+113000
X+120000Y+194000
X+117000
Y+196500
X+120000
X+111000Y+199500
X+113000
X+117000Y+201500
X+120000
X+113000Y+211500
X+114000
X+118000Y+215500
Y+214500
X+113000
X+114000
X+133000Y+160500
X+130000
X+123500Y+161500
Y+159500
X+125000Y+169500
X+123000
X+125000Y+176000
X+126000
X+124000Y+175000
Y+176000
X+130000
X+129000
X+127000Y+182000
X+125000
X+142000Y+157500
X+144000
X+140000Y+159500
X+142000
X+143000Y+160500
X+140000
X+136000
X+137000
X+143000Y+165500
X+140000
X+142000Y+168500
X+144000
X+143000Y+170000
X+140000
X+139000
X+136000
X+142000Y+176000
X+139000
X+138000
X+135000
X+142000Y+182000
X+139000
X+138000
X+135000
X+141000Y+196000
X+139000
Y+205000
X+141000
X+138000Y+217500
X+140000
X+148000Y+170000
X+151000
X+148000Y+175000
X+151000
X+147500Y+176000
X+150500
X+156000Y+175000
X+154000
X+147500Y+182000
X+150500
X+147500Y+181000
X+150500
X+147500Y+187000
X+150500
X+163500Y+172000
X+161500
X+109000Y+167500
X+107000
X+109000Y+174000
X+107000
X+109000Y+176000
X+107000
X+117500Y+162000
X+118500
X+117500Y+165000
X+118500
X+115500
X+113500
X+116500Y+163000
Y+164000
Y+161000
X+113500Y+163000
Y+164000
Y+161000
X+116500Y+162000
X+113500
X+116000Y+178000
Y+177000
Y+174000
Y+173000
Y+172000
Y+171000
X+114000Y+171500
X+115000
Y+176000
Y+177000
X+112000Y+179000
X+111000
X+113000Y+180500
X+112000
X+114000Y+176000
Y+177000
Y+174000
X+111000Y+176000
Y+177000
Y+174000
X+114000Y+175000
X+111000
X+119000Y+178000
X+117000
X+119000Y+176000
X+117000
X+119000Y+174000
X+117000
X+119000Y+172000
X+117000
X+114500Y+185500
Y+183500
X+115500Y+184500
X+114500Y+188500
Y+186500
X+115500Y+187500
X+113000Y+183500
X+112000
Y+185500
X+113000
Y+186500
X+112000
Y+188500
X+113000
X+111000
Y+185500
X+116500Y+182500
X+117500
X+116500Y+185500
X+117500
X+116500Y+189000
X+117500
X+110000Y+189500
X+113000
X+117000Y+197500
Y+200500
X+120000Y+197500
Y+200500
X+110500Y+216500
Y+213500
X+120000Y+206500
X+117000
X+116000
X+114000
X+113000Y+212500
X+114000
X+113000Y+213500
X+114000
X+113000Y+215500
X+114000
X+132000Y+158500
X+133000Y+159500
X+131000
X+126000Y+158500
Y+160500
X+128000Y+167500
X+130000
X+132000Y+168500
Y+166500
X+129000Y+159500
Y+160500
X+128000Y+166500
X+129000
X+126250Y+168500
Y+166500
X+123750Y+167750
Y+165750
X+128000Y+174000
Y+173000
Y+175500
Y+176500
X+127000Y+174000
Y+173000
X+126000Y+177000
X+124000
Y+174000
Y+172000
X+129000Y+177000
X+131000
Y+174000
Y+172000
X+128000Y+170500
X+130000
X+123500Y+179000
Y+180000
X+128500Y+178000
X+129500
X+126500
X+125500
X+129500Y+181000
X+128500
X+125500
X+126500
X+127500Y+178000
X+130500
X+124500
X+130500Y+181000
X+127500
X+124500
X+126000Y+170250
X+127000
X+132000Y+175000
Y+178000
X+131000Y+175000
Y+176000
X+126000Y+186500
Y+184500
X+128500Y+186000
Y+184000
X+131000Y+187500
X+132000
X+128000
X+129000
X+125000
X+126000
X+123000
X+131000Y+190500
X+132000
X+128000
X+129000
X+125000
X+126000
X+123000
X+130000Y+187500
X+127000
X+124000
X+130000Y+190500
X+127000
X+124000
X+128000Y+197500
X+129000
X+126000
X+125000
X+129000Y+200500
X+128000
X+125000
X+126000
X+127000Y+197500
X+130000
X+124000
X+130000Y+200500
X+127000
X+124000
X+123000Y+213500
X+124000
X+125000Y+212500
X+123000
X+126500
Y+214500
X+138000Y+159000
X+139000Y+158000
Y+160000
X+141000Y+169000
Y+167000
X+136000Y+159500
X+137000
X+138000Y+160500
Y+161500
Y+162500
Y+163500
X+143000Y+171000
X+140000
X+139000
X+136000
X+142000Y+177000
X+139000
X+138000
X+135000
Y+173000
Y+174000
X+140000Y+172000
X+141000
X+138000
X+137000
X+141000Y+175000
X+140000
X+137000
X+138000
X+139000Y+172000
X+142000
X+136000
X+142000Y+175000
X+139000
X+136000
X+139000Y+178000
X+140000
X+137000
X+136000
X+140000Y+181000
X+139000
X+136000
X+137000
X+138000Y+178000
X+141000
X+135000
X+141000Y+181000
X+138000
X+135000
X+142000Y+183000
X+139000
X+138000
X+135000
X+139000Y+184000
X+140000
X+137000
X+136000
X+140000Y+187000
X+139000
X+136000
X+137000
X+138000Y+184000
X+141000
X+135000
X+141000Y+187000
X+138000
X+135000
X+134000Y+203500
X+136000
X+138000Y+197000
Y+200000
Y+199000
Y+202000
Y+203000
X+141000Y+197000
Y+199000
Y+200000
Y+203000
Y+202000
X+138000Y+201000
Y+198000
Y+204000
X+141000Y+198000
Y+201000
Y+204000
X+137500Y+208500
Y+207500
Y+211500
Y+210500
Y+214500
Y+213500
Y+216500
X+140500Y+208500
Y+207500
Y+211500
Y+210500
Y+214500
Y+213500
Y+216500
X+137500Y+209500
Y+212500
Y+215500
X+140500Y+209500
Y+212500
Y+215500
X+152500Y+196500
Y+198500
X+149500Y+209500
X+151500
X+114500Y+182500
Y+180500
X+115500Y+181500
X+112000Y+182500
X+113000
X+111000Y+184500
Y+181500
X+119500Y+183500
Y+181500
X+113000Y+191000
Y+194000
Y+193000
Y+196000
Y+197000
X+116000Y+191000
Y+193000
Y+194000
Y+197000
Y+196000
X+113000Y+195000
Y+192000
Y+198000
X+116000Y+192000
Y+195000
Y+198000
X+114000Y+169500
Y+170500
Y+167500
X+111000Y+169500
Y+170500
Y+167500
X+114000Y+168500
X+111000
X+118500Y+169000
X+116500
X+113000Y+209500
Y+210500
Y+206500
Y+207500
Y+203500
Y+204500
Y+201500
X+110000Y+209500
Y+210500
Y+206500
Y+207500
Y+203500
Y+204500
Y+201500
X+113000Y+208500
Y+205500
Y+202500
X+110000Y+208500
Y+205500
Y+202500
X+131000Y+192500
X+132000
X+128000
X+129000
X+125000
X+126000
X+123000
X+131000Y+195500
X+132000
X+128000
X+129000
X+125000
X+126000
X+123000
X+130000Y+192500
X+127000
X+124000
X+130000Y+195500
X+127000
X+124000
X+126000Y+169250
X+127000
X+131500Y+179000
Y+180000
X+130000Y+169000
X+128000
X+123000Y+203500
Y+205500
X+131000Y+202500
X+128000
X+129000
X+126000
X+125000
X+131000Y+205500
X+129000
X+128000
X+125000
X+126000
X+127000Y+202500
X+130000
X+124000
X+130000Y+205500
X+127000
X+124000
X+138500Y+169000
Y+167000
X+140500Y+158000
Y+156000
X+141000Y+193000
Y+194000
Y+191000
Y+190000
X+138000Y+194000
Y+193000
Y+190000
Y+191000
X+141000Y+192000
Y+195000
Y+189000
X+138000Y+195000
Y+192000
Y+189000
X+137000Y+158000
X+135000
X+152500Y+193500
Y+195500
X+153500Y+191500
Y+194500
Y+193500
Y+196500
Y+197500
X+156500Y+191500
Y+193500
Y+194500
Y+197500
Y+196500
X+153500Y+195500
Y+192500
Y+198500
X+156500Y+192500
Y+195500
Y+198500
X+165500Y+192000
Y+189000
Y+190000
Y+186000
Y+187000
Y+183000
Y+184000
Y+180000
Y+181000
Y+177000
Y+178000
Y+175000
Y+174000
X+159500Y+192000
Y+190000
Y+189000
Y+187000
Y+186000
Y+184000
Y+183000
Y+181000
Y+180000
Y+177000
Y+178000
Y+175000
Y+174000
X+165500Y+182000
Y+185000
Y+188000
Y+191000
Y+176000
Y+179000
Y+173000
X+159500Y+191000
Y+188000
Y+185000
Y+182000
Y+179000
Y+176000
Y+173000
X+147000Y+157500
X+145000
X+117500Y+161000
X+118500
X+145000Y+160500
X+144000
X+117500Y+163000
X+118500
X+133000Y+168500
X+134000Y+169500
X+132000
X+147000Y+168500
X+145000
X+144000Y+170000
X+147000
X+111000Y+172500
X+110000
X+144000Y+175000
X+147000
X+143500Y+176000
X+146500
X+143500Y+182000
X+146500
X+143500Y+181000
X+146500
X+108000Y+184500
X+109000
X+143500Y+187000
X+146500
X+108000Y+202500
X+109000
X+108000Y+205500
X+109000
X+108000Y+208500
X+109000
X+132500Y+217500
X+135500
X+146000Y+165500
X+145000
X+135000Y+161500
X+134000
X+132000
X+131000
X+129000
X+128000
X+126000
X+125000
X+135000Y+165500
X+134000
X+132000
X+131000
X+129000
X+128000
X+126000
X+125000
X+136000Y+161500
X+133000
X+130000
X+127000
X+136000Y+165500
X+133000
X+130000
X+127000
X+144000Y+161500
X+145000
X+142000
X+141000
X+145000Y+164500
X+144000
X+142000
X+141000
X+143000Y+161500
X+146000
X+140000
X+146000Y+164500
X+143000
X+140000
X+121500Y+166000
X+119500
X+121500Y+160000
X+119500
X+121500Y+162000
X+119500
X+121500Y+164000
X+119500
X+111500Y+161000
X+109500
X+111500Y+163000
X+109500
X+134500Y+166500
Y+168500
X+134000Y+173000
Y+174000
X+150500Y+177000
X+148500
X+147500
X+145500
X+144500
X+150500Y+180000
X+148500
X+147500
X+144500
X+145500
X+149500Y+177000
X+146500
X+143500
X+149500Y+180000
X+143500
X+146500
X+134000Y+170500
X+131000
X+134000Y+179000
Y+180000
X+121000Y+183500
Y+182500
Y+185500
X+124000Y+183500
Y+182500
Y+185500
X+121000Y+184500
X+124000
X+150500Y+183000
X+148500
X+147500
X+145500
X+144500
X+150500Y+186000
X+148500
X+147500
X+144500
X+145500
X+149500Y+183000
X+146500
X+143500
X+149500Y+186000
X+143500
X+146500
X+133000Y+185000
Y+186000
X+134000Y+185000
Y+186000
X+108000Y+203500
X+109000
X+108000Y+204500
X+109000
X+121000Y+201500
X+122000
X+133000Y+198500
Y+197500
Y+200500
Y+201500
X+136000Y+197500
Y+198500
Y+201500
Y+200500
X+133000Y+199500
Y+196500
Y+202500
X+136000Y+196500
Y+199500
Y+202500
X+108000Y+207500
X+109000
X+108000Y+209500
X+109000
X+108000Y+206500
X+109000
X+129000Y+208500
Y+211500
X+127000Y+208500
X+126000
X+127000Y+211500
X+126000
X+124000Y+208500
X+123000
X+124000Y+211500
X+123000
X+121000Y+208500
X+120000
Y+211500
X+121000
X+118000Y+208500
X+117000
X+118000Y+211500
X+117000
X+128000Y+208500
X+125000
X+122000
X+128000Y+211500
X+125000
X+122000
X+119000Y+208500
X+116000
X+119000Y+211500
X+116000
X+132500Y+208500
Y+207500
Y+211500
Y+210500
Y+214500
Y+213500
Y+216500
X+135500Y+208500
Y+207500
Y+211500
Y+210500
Y+214500
Y+213500
Y+216500
X+132500Y+209500
Y+212500
Y+215500
X+135500Y+209500
Y+212500
Y+215500
X+108000Y+183500
Y+181500
X+109000Y+182500
X+122000Y+168500
X+120000
X+108000Y+191000
Y+194000
Y+193000
Y+196000
Y+197000
X+111000Y+191000
Y+193000
Y+194000
Y+197000
Y+196000
X+108000Y+195000
Y+192000
Y+198000
X+111000Y+192000
Y+195000
Y+198000
X+123000Y+214500
X+124000
X+121000
X+120000
X+124000Y+217500
X+123000
X+120000
X+121000
X+122000Y+214500
X+125000
X+119000
X+125000Y+217500
X+122000
X+119000
X+122000Y+202500
Y+203500
X+119000Y+202500
X+120000
X+117000
X+116000
X+120000Y+205500
X+119000
X+116000
X+117000
X+118000Y+202500
X+121000
X+115000
X+121000Y+205500
X+118000
X+115000
X+158000Y+189000
Y+187000
Y+186000
Y+184000
Y+183000
Y+181000
Y+180000
Y+178000
Y+177000
X+152000Y+189000
Y+187000
Y+186000
Y+184000
Y+183000
Y+180000
Y+181000
Y+178000
Y+177000
X+158000Y+188000
Y+185000
Y+182000
Y+179000
Y+176000
X+152000Y+188000
Y+185000
Y+182000
Y+179000
Y+176000
X+151000Y+171000
X+149000
X+148000
X+146000
X+145000
X+151000Y+174000
X+149000
X+148000
X+145000
X+146000
X+150000Y+171000
X+147000
X+144000
X+150000Y+174000
X+144000
X+147000
T03
X+104500Y+166750
X+103688
Y+169250
X+104500
T04
X+107280Y+216339
X+104484
X+107280Y+213661
X+104484
X+103500Y+216339
Y+215512
X+106295Y+216339
Y+215512
X+103500Y+214488
Y+213661
X+106295Y+214488
Y+213661
T05
X+110000Y+165500
X+109000
X+107000
X+108000
X+120000Y+180000
Y+179000
Y+177000
Y+178000
Y+175500
Y+174500
Y+172500
Y+173500
Y+192000
Y+193000
Y+190000
X+144000Y+212000
Y+213000
Y+209000
Y+210000
Y+206000
Y+207000
Y+203000
Y+204000
Y+200000
Y+201000
Y+197000
Y+198000
Y+194000
Y+195000
Y+191000
Y+192000
Y+189000
Y+211000
Y+208000
Y+205000
Y+202000
Y+199000
Y+196000
Y+193000
Y+190000
X+143000Y+212000
Y+213000
Y+209000
Y+210000
Y+206000
Y+207000
Y+203000
Y+204000
Y+200000
Y+201000
Y+197000
Y+198000
Y+194000
Y+195000
Y+191000
Y+192000
Y+189000
Y+211000
Y+208000
Y+205000
Y+202000
Y+199000
Y+196000
Y+193000
Y+190000
T06
X+107000Y+186500
Y+184500
Y+185500
X+134000Y+176000
Y+178000
Y+177000
X+147000Y+162500
Y+163500
X+155500Y+201500
X+156500Y+200500
X+155500
X+156500Y+201500
X+153500
X+152500
X+153500Y+200500
X+154500Y+201500
Y+200500
X+103500Y+179300
Y+178400
X+104500Y+178850
Y+177950
X+103500Y+176600
Y+175700
X+104500Y+177050
Y+176150
Y+175250
X+105500Y+178400
Y+179300
Y+176600
Y+175700
X+103500Y+177500
X+105500Y+177500
X+130000Y+155500
X+132000
X+131000Y+157500
X+126000Y+155500
X+128000
X+127000Y+157500
X+123000Y+155500
X+125000
X+124000Y+157500
X+129000
Y+158500
X+133000Y+155500
X+135000
X+134000Y+157500
Y+182000
Y+184000
Y+183000
X+135000Y+170000
Y+172000
Y+171000
T07
X+103381Y+190545
Y+191635
Y+188365
Y+189455
X+104501Y+191090
Y+192180
Y+188910
Y+187820
Y+190000
X+103380Y+205090
Y+206180
Y+202910
Y+201820
X+104500Y+207815
Y+204545
Y+205635
X+104500Y+202365
X+104500Y+203455
X+104500Y+200185
X+103380Y+204000
Y+207270
Y+200730
X+104500Y+206725
X+104500Y+201275
T08
X+131000Y+211500
Y+213500
X+144000Y+167000
X+146000
X+144000Y+159000
X+146000
X+119000Y+213000
X+121000
T09
X+105000Y+162976
X+108150Y+159728
X+105000Y+160024
X+149500Y+214500
X+151500
X+147500
X+153500
T10
X+102125Y+168000
Y+170437
Y+165562
T11
X+102047Y+162976
X+106575Y+158862
T12
X+102004Y+215000
X+102319Y+217677
Y+212323
X+106295Y+217677
Y+212323
T13
X+103944Y+194912
Y+185075
X+104500Y+182412
Y+172575
X+103943Y+210547
Y+197440
T14
X+113000Y+217500
X+165000
X+104000Y+155500
X+165000
T00
M30
