M48
;FILE_FORMAT=2:4
INCH
;TYPE=PLATED
T01C0.020
T02C0.031
T03C0.040
;TYPE=NON_PLATED
T04C0.118
%
T01
X+049950Y+042550
X+050100Y+052700
X+052300Y+040350
X+051550Y+041500
X+052300
X+053000
X+051400Y+044000
Y+043000
X+052000Y+050550
X+051800Y+052700
X+055000Y+047000
X+055750Y+050500
X+055000
X+056450Y+049850
X+055400Y+052050
X+055050Y+051450
X+055150Y+053000
X+054500Y+053250
X+056500Y+052700
X+059750Y+041750
X+058050Y+050550
X+057400
X+059100Y+050200
X+058500Y+053050
X+059500
X+057500Y+052750
X+060550Y+041500
X+061000Y+040400
X+060550Y+043000
X+062250Y+044000
X+060350Y+043900
X+062600Y+047600
X+062100Y+046900
X+062650Y+045600
X+061400Y+050550
X+062500Y+048500
Y+050550
X+060300
X+060850
X+061950
X+061000Y+053000
X+062450Y+053100
X+065600Y+040450
X+064450
X+063750
X+065600Y+042500
X+065100Y+044000
X+065700Y+043400
X+063700Y+042900
X+065500Y+045500
X+063500Y+047000
X+063300Y+050400
X+065250Y+050000
X+064000Y+053000
X+065300Y+051900
X+067900Y+040450
X+067150
X+066450
X+067550Y+043200
X+066550Y+044200
Y+045500
X+066500Y+053000
X+068600Y+051500
X+067500Y+052350
X+070650Y+040450
X+069900
X+070700Y+044500
X+070900Y+049000
X+070350Y+049550
X+071000Y+050500
X+069950Y+050250
X+071500Y+052250
X+069700Y+052700
X+070600
X+072500Y+040450
X+073250Y+041500
X+072800Y+047550
X+072700Y+049950
X+072300Y+049350
X+074000Y+051950
X+075650Y+040450
X+076300
X+077000
X+075650Y+043500
X+076700Y+043000
X+076000Y+042800
X+075250
X+075550Y+044500
X+077000Y+050300
X+076150Y+050100
X+075450Y+050050
X+075650Y+049250
X+076000Y+053150
X+075300
X+076700
X+079000Y+047000
X+080550
X+078500Y+051950
X+081350Y+043500
X+083600Y+044000
X+082100Y+047000
X+082300Y+051650
X+083500Y+053000
Y+051350
X+062250Y+045000
X+065250Y+048000
X+075500Y+042150
X+079400Y+048050
X+056950Y+043000
X+059800Y+047000
Y+050200
X+057150Y+049850
X+069050Y+040450
X+063000
X+072000Y+047000
Y+050550
X+066100
Y+049750
X+068900Y+052500
X+063200Y+052800
X+075000Y+040450
X+075100Y+043900
X+078050Y+042800
X+083800Y+043300
X+074950Y+050550
X+078000Y+050050
X+074950Y+051650
T02
X+049500Y+051500
X+058500Y+041000
X+058000Y+052150
X+061500Y+041000
X+065000
Y+052550
X+068500Y+041000
X+074500
X+079000Y+040375
X+073500Y+045500
Y+048500
X+078500Y+043500
Y+046500
X+076000Y+045500
Y+048500
X+078500Y+047500
Y+050500
X+053875Y+040375
X+058500Y+042500
X+055500
X+057000Y+052150
X+081000Y+040250
X+078125Y+041000
X+060000Y+042500
Y+045500
X+053900Y+051000
X+080000Y+050500
X+083000
X+050500Y+045500
Y+044500
Y+047500
Y+048500
X+053500Y+044500
Y+045500
Y+048500
Y+047500
X+050500Y+046500
Y+043500
Y+049500
X+053500Y+043500
Y+046500
Y+049500
X+055500Y+045500
Y+044500
Y+047500
Y+048500
X+058500Y+044500
Y+045500
Y+048500
Y+047500
X+055500Y+046500
Y+043500
Y+049500
X+058500Y+043500
Y+046500
Y+049500
X+054500Y+049000
Y+052000
X+068500Y+042500
Y+045500
Y+044500
Y+047500
Y+048500
X+071500Y+042500
Y+044500
Y+045500
Y+048500
Y+047500
X+068500Y+046500
Y+043500
Y+049500
X+071500Y+043500
Y+046500
Y+049500
X+066000Y+049000
Y+052000
X+081500Y+048500
Y+045500
X+074500
Y+044500
Y+047500
Y+048500
X+077500Y+044500
Y+045500
Y+048500
Y+047500
X+074500Y+046500
Y+043500
Y+049500
X+077500Y+043500
Y+046500
Y+049500
X+080000Y+045500
Y+044500
Y+047500
Y+048500
X+083000Y+044500
Y+045500
Y+048500
Y+047500
X+080000Y+046500
Y+043500
Y+049500
X+083000Y+043500
Y+046500
Y+049500
X+061500Y+045500
Y+044500
Y+047500
Y+048500
X+064500Y+044500
Y+045500
Y+048500
Y+047500
X+061500Y+046500
Y+043500
Y+049500
X+064500Y+043500
Y+046500
Y+049500
T03
X+081000Y+042500
X+082000
T04
X+034375Y+038375
T00
M30
