M48
;FILE_FORMAT=2:4
INCH
;TYPE=PLATED
T01C0.012
T02C0.031
T03C0.035
T04C0.038
T05C0.040
T06C0.044
T07C0.047
T08C0.055
T09C0.059
T10C0.087
T11C0.118
T12C0.150
%
T01
X+101760Y+155480
X+101640Y+172760
X+101800Y+173560
X+101600Y+174520
Y+202200
X+101280Y+202440
Y+203000
X+101800Y+209360
X+101480Y+207240
X+101800Y+208600
X+102600Y+135800
X+104560Y+146560
X+103040Y+157760
X+103360Y+158320
X+102560Y+158080
X+103600Y+157280
X+104560Y+157240
X+103440Y+159680
X+102800Y+162440
X+104800Y+163280
X+103200Y+165400
X+103600Y+167480
X+103160Y+169080
X+103600Y+168360
X+103840Y+169400
X+103520Y+168800
X+103080Y+173800
X+104160Y+176720
X+102480Y+176680
X+102840Y+174440
X+103360Y+176320
X+103920Y+175080
X+103360Y+176760
X+103760Y+176080
X+102720Y+174920
X+103640Y+177800
X+104480Y+179480
X+103880Y+177280
X+102680Y+180600
X+104280Y+182200
X+103720Y+181000
X+104200Y+185680
X+104040Y+183400
X+104680Y+183640
X+104360Y+184000
X+103080Y+187800
X+102320Y+187280
X+103320
X+103960Y+186280
X+103040Y+186560
X+103280Y+186920
X+104640Y+186280
Y+192320
X+104320Y+197000
X+104720Y+198440
X+104400Y+202760
X+104320Y+206560
X+102920Y+209440
X+104320
X+104440Y+209000
X+102960Y+216560
X+106400Y+127920
X+106120Y+126360
X+106880Y+129200
X+106080Y+136040
X+106640Y+147400
X+105640Y+149320
X+107640Y+147880
X+105640Y+154840
X+106000Y+161600
X+105640Y+166040
Y+168840
X+107360
X+105560Y+169480
X+107000Y+171320
X+106640Y+172520
X+106120Y+174200
X+105640Y+182440
X+107160Y+182200
X+105720Y+180600
X+106400Y+180440
X+106800Y+182160
X+105640Y+183760
X+107640Y+183560
X+105960
X+107360Y+185680
X+107200Y+188240
X+106400Y+188520
X+107200Y+190720
X+106400Y+193400
X+105840Y+194000
X+105200Y+193000
X+107200Y+196240
X+107600Y+195600
X+107200Y+196720
X+105600Y+200520
X+106480Y+198480
X+105520
X+107200Y+202000
Y+201600
X+107440Y+202440
X+107600Y+202760
X+105840Y+206560
X+106800Y+204640
X+107200Y+206040
X+106800Y+205560
X+107440Y+207680
X+107120Y+210560
X+107160Y+213240
X+105440Y+215160
X+107800Y+213480
X+110120Y+123600
X+108240Y+126840
X+108880Y+137200
X+110120Y+139240
X+109640Y+139000
X+109000Y+142600
X+108600Y+146280
X+109640Y+146040
X+109400Y+145400
X+108360Y+145640
X+109400Y+147400
X+110320Y+148320
X+108360Y+152280
X+108720Y+154720
X+108360Y+153800
X+108640Y+160320
X+108320Y+161440
X+108960Y+167720
X+110640Y+167520
Y+168360
Y+173640
X+110800Y+172400
X+109360Y+176720
X+110000
Y+175000
X+109000Y+175080
X+109520Y+177840
Y+179440
X+110760Y+182520
X+109400Y+181920
X+109560Y+182280
X+109840Y+182560
X+109560Y+180480
X+109960Y+180960
X+109600Y+183560
X+109360Y+183800
X+110000Y+183560
X+108560Y+188400
X+108320Y+187640
Y+186760
X+110120Y+187400
X+108600Y+191640
X+108280Y+189240
X+108520Y+190480
Y+194000
X+109400Y+194200
X+110440Y+194240
X+108280Y+192560
Y+194320
X+110520Y+193520
X+110440Y+196560
X+109840Y+197640
X+109080Y+195200
X+109800Y+196560
X+110120Y+199960
X+108360Y+199400
X+108440Y+200400
X+110480Y+200640
X+109880Y+210600
X+112680Y+108800
X+111880Y+124160
X+113400Y+130200
X+112800Y+130800
X+113080Y+133080
X+112720Y+132760
X+111840Y+134720
X+113320Y+138280
X+112080Y+141480
X+111600Y+149600
X+112640
X+111840Y+151960
Y+150320
X+112840Y+152280
Y+151480
X+112640Y+155800
X+112360Y+153920
X+113720Y+154840
X+112640Y+157040
X+111320Y+157320
X+113760Y+159840
X+113040Y+169360
X+113320Y+173640
X+113000Y+176080
X+113400Y+175040
X+111480Y+177840
X+113800Y+182160
X+111400Y+182520
X+112600Y+182120
X+113800Y+183760
X+112400Y+185680
X+113240
X+112040Y+183920
X+112600Y+188400
X+112400Y+187600
X+113480Y+187000
X+113000Y+187760
X+111480Y+187520
X+112600Y+191560
X+111640
X+111880Y+193920
X+113320
X+112840Y+193000
X+111640Y+192440
X+111520Y+194520
X+111960Y+192720
X+112840Y+192400
X+112600Y+197600
X+111400Y+196560
X+113600Y+195400
X+111520Y+197440
X+113240Y+195720
X+112280Y+201200
X+111640Y+202560
X+113360Y+201680
X+112280Y+206560
X+113600Y+207400
X+111960Y+215400
X+112200Y+214360
X+111520Y+216520
X+114560Y+115920
X+115760Y+121360
X+116520Y+128080
X+116120Y+127560
X+115280Y+130960
X+116520Y+133920
X+115400Y+140600
X+114360Y+140080
X+115680
X+115000Y+143520
X+116400Y+141480
X+115640Y+144200
Y+149320
Y+154920
X+114640Y+155080
X+116640Y+154680
X+115640Y+159960
X+114640Y+160240
X+116640Y+160160
X+114360Y+169040
X+115600Y+170480
X+114400Y+172320
X+114560Y+173400
X+115400Y+174840
X+116560Y+176080
X+114600
X+115440Y+178080
X+116360
X+116600Y+182120
X+116520Y+180400
X+115520Y+180440
Y+181080
X+114800Y+182720
X+115520Y+181960
X+115640Y+182520
X+115120Y+182400
Y+185680
X+115600
X+116480Y+183960
X+115120Y+183760
X+114800Y+187800
X+114640Y+187000
X+114880Y+187320
X+115280Y+191640
X+115360Y+190760
X+116680Y+191000
X+115440Y+189520
X+114560Y+193520
X+116800Y+193200
X+115440Y+192520
X+116800Y+192200
Y+196760
Y+197640
X+115600Y+196640
X+114800Y+198280
X+116800Y+198440
X+114800Y+199360
X+115600Y+199520
X+114800Y+201400
X+116720Y+201640
Y+205320
X+115200Y+211760
X+116480Y+212000
X+114560Y+216440
Y+216960
X+116440Y+218120
X+117760Y+118600
X+117960Y+124640
X+118200Y+128560
X+117360Y+137240
X+119680Y+136720
X+117560Y+139880
X+119640Y+140120
X+117520Y+145400
X+118480Y+144840
X+119200Y+147200
X+117360Y+153800
X+118800Y+153560
X+119040Y+154000
X+119680Y+158640
X+118840
X+118400Y+156520
X+119680Y+161800
X+117760Y+161400
X+119040Y+163880
X+119600Y+163640
X+117320Y+162520
X+118600
X+117360Y+168960
X+119640Y+169960
X+118080Y+168200
X+117600Y+168480
X+118680Y+171400
X+119040Y+173800
X+119640Y+176760
X+119600Y+176120
X+118080
X+119640Y+178280
X+117960Y+180880
X+117240Y+182400
X+118800Y+182560
X+119480Y+182400
X+118800Y+182080
X+118000Y+184840
X+117240Y+183840
X+117600Y+185720
X+119400Y+183600
X+119640Y+187000
X+118480Y+187360
X+117640
X+118480Y+188480
X+117280Y+188040
X+119720Y+190000
Y+189400
X+117640Y+194000
X+118360Y+194360
X+118000Y+192800
X+118360Y+193760
X+118320Y+199400
X+118360Y+199000
X+118320Y+203000
X+118360Y+206000
X+119400Y+205520
X+119080Y+207920
X+119560Y+212680
X+118360Y+215640
X+118040Y+217480
X+117640Y+217720
X+117400Y+216760
X+118360Y+216400
X+120200Y+134080
X+120960Y+135640
X+122160Y+135920
X+122280Y+137480
X+120520Y+140600
Y+142920
X+121520Y+142040
Y+145640
X+120880Y+146760
X+122040Y+150720
X+120640Y+151920
X+120800Y+153200
X+120320Y+158400
Y+157000
X+122360Y+156760
X+121800Y+156720
X+121640Y+158560
X+122360Y+159280
X+121640Y+161400
X+120200Y+160400
X+120360Y+161600
X+122400Y+164560
X+121640Y+163640
X+120600Y+162280
X+121480Y+167480
X+122640Y+165720
X+121880Y+169800
X+120680Y+169640
X+120440Y+169400
X+121080Y+170400
X+121640
X+121880Y+172400
X+122040Y+173720
X+120520Y+173480
X+122480
Y+176120
X+121880Y+175160
X+122440Y+174880
X+122120Y+177560
X+122320Y+177240
X+121240Y+177800
X+120360Y+182440
X+122440Y+180320
X+122200Y+182560
X+121960Y+180560
X+120920Y+182280
X+122200Y+180960
X+120360Y+183360
X+121640Y+183760
X+122360Y+185680
X+121160Y+183360
X+122200Y+183800
X+120520Y+184000
X+121960Y+187800
X+120200Y+188160
X+121440Y+186520
X+120560
X+122280Y+194120
X+120520Y+192520
X+122320Y+195400
X+122800Y+198680
X+122120Y+200360
X+120520Y+203400
X+122360Y+206400
Y+207600
X+121880Y+215400
X+122360Y+214120
X+122600Y+214600
X+121760Y+218360
X+122200Y+217240
X+124280Y+120600
X+125520Y+129800
Y+136960
X+123640Y+135920
X+123880Y+137240
X+125120Y+139880
X+125640Y+140760
X+123640Y+140120
X+124800Y+143800
X+123880Y+141560
X+124280Y+143560
X+124640Y+145800
X+125320Y+145640
X+124800Y+148000
X+124640Y+151440
Y+150920
X+125560Y+155800
X+124320Y+157000
X+125000
X+125440Y+161240
X+124800Y+160800
X+124760Y+163800
X+125400Y+170160
X+124360Y+169920
X+125400Y+169600
X+123600Y+169640
X+124880
X+123360Y+170400
X+124560Y+168480
X+124800Y+172440
X+125160Y+171640
X+123520Y+176800
X+123360Y+174640
X+123600Y+179560
X+124080
X+124600Y+180320
X+124400Y+180800
X+124920Y+182280
X+123800Y+182320
X+124400Y+182280
X+124040Y+183840
X+123560Y+183600
X+124920Y+183520
X+124400Y+183360
X+124600Y+183880
X+123200Y+187800
X+125200Y+186200
X+125040Y+190800
X+124480Y+191480
X+125200Y+192560
X+124480
X+123200Y+196560
X+124480Y+196360
X+124960Y+195400
X+125120Y+197640
X+124520Y+197600
X+123200Y+197120
X+124000Y+196160
X+124800Y+199320
X+123280Y+199400
X+124800Y+201760
X+124480Y+202520
X+124560Y+206800
X+124640Y+207640
X+124800Y+209000
X+125200Y+208240
Y+211880
Y+215400
X+123360Y+213960
X+124640Y+215400
X+124400Y+217480
X+128760Y+119000
X+127750Y+128000
X+126760Y+127480
X+127400Y+134680
X+127920Y+135680
X+128160Y+135400
X+126640Y+140000
X+127840Y+143800
X+126880Y+142880
X+127040Y+142040
X+127920Y+147960
X+126800Y+149000
X+128320Y+151080
X+127920Y+150600
X+128200Y+151800
X+127560Y+155400
X+127000Y+155640
X+128600Y+158640
X+128560Y+156760
Y+156200
X+127480Y+156280
X+127560Y+161120
X+128600Y+159600
X+128360Y+159280
X+128560Y+162360
X+126520Y+163800
X+126440Y+165840
X+127840Y+170720
X+127520Y+170240
X+128560Y+172920
Y+172440
X+127840Y+171240
X+127360Y+171880
X+126960Y+171640
X+128320Y+173800
X+126280Y+173080
X+128400Y+175320
X+128160Y+174640
X+127600Y+176280
X+128400Y+179040
X+128160Y+178560
X+128120Y+179520
X+127400Y+179480
X+126280Y+182280
X+127880Y+182400
X+127840Y+181680
X+127960Y+180920
X+126600Y+182680
X+128680Y+183640
X+126600Y+184120
X+127400Y+183280
X+128040Y+188400
X+126320Y+187560
X+126520Y+188440
X+127640Y+190000
X+127440Y+189520
X+127400Y+193480
X+126600Y+193520
X+126200Y+192400
X+128120Y+196720
Y+197160
X+126600Y+197640
X+127640Y+199560
Y+200400
X+127880Y+200720
X+126320Y+203600
X+127640Y+203000
X+126600Y+202480
X+127880Y+204640
X+126320
X+127880Y+205120
X+127400Y+205520
X+126520Y+208680
X+126280Y+208400
X+127440Y+207480
Y+209520
X+126200Y+211640
X+128560Y+212520
X+126600Y+215400
X+126200Y+215000
X+127600Y+215800
X+126200Y+218360
X+131520Y+129800
X+130320Y+132760
X+131080Y+135680
X+130000Y+137600
X+131520Y+138760
X+130560Y+140000
X+129360Y+143040
X+130400Y+145240
X+130560Y+149000
X+130680Y+151560
X+131000Y+150320
X+130440Y+150800
X+129520Y+151080
X+129600Y+150520
X+130520Y+155560
X+131440Y+154520
X+131320Y+157360
X+130000Y+156760
X+129920Y+158640
X+129520Y+157000
X+131320Y+156520
X+130560Y+156200
X+130120Y+157320
X+131400Y+160480
X+130480Y+160600
X+131520Y+159520
X+131560Y+163800
X+130320Y+164120
X+130000Y+162360
X+131240Y+164360
X+129520Y+163560
X+130480Y+162360
X+130840Y+164120
X+131640Y+165880
X+129520Y+167440
X+129640Y+166960
X+129400Y+166480
X+131560Y+169040
X+130320Y+170800
X+129520Y+169280
X+131640Y+170640
X+129520Y+170480
X+130960Y+169360
X+130000Y+171720
X+130560Y+172280
X+129520Y+171480
X+131640
X+130920Y+176040
X+131800Y+177360
X+129680Y+179520
X+131800Y+179440
X+131040Y+177360
X+129400Y+181480
X+129480Y+182320
X+129520Y+180480
X+131760Y+182280
X+130360Y+185800
X+130600Y+184360
X+131000Y+185600
X+129720Y+184360
Y+183600
X+130240Y+184120
X+130080Y+186840
X+129840Y+187320
X+131680Y+187080
X+130800Y+187320
X+130600Y+190640
Y+191360
X+131800Y+189320
X+129600Y+190840
X+131680Y+194480
X+131160Y+193800
X+131000Y+192360
X+129880Y+193560
X+130240Y+194480
X+129600
X+129440Y+195800
X+130400Y+196400
X+130640Y+197160
X+131040Y+196160
X+131400Y+199520
X+130440
Y+199000
X+131520Y+198400
X+131800Y+199000
X+131000Y+201200
X+130000Y+202000
X+129360Y+203400
X+129840Y+203560
X+130400Y+201680
X+131600Y+202480
X+129600Y+207600
X+130520
X+130000Y+211680
X+130400Y+213960
Y+215800
X+131440Y+214400
X+130440Y+216800
X+133200Y+132600
X+133000Y+132280
X+134000Y+137320
Y+135920
X+133360Y+137600
X+134000Y+140200
X+133080Y+139000
X+133360Y+139880
X+134000Y+141800
X+134360Y+141320
X+134560Y+145080
X+132400Y+146600
X+133360Y+145480
X+134800Y+146280
Y+145480
X+132520Y+145000
X+134400Y+151600
X+134720Y+150320
X+133640Y+151560
X+134640Y+153800
X+132440Y+154520
X+132360Y+155480
X+132600Y+156360
X+134320Y+157520
X+133520
X+132280
X+134000Y+161520
X+134560Y+161800
X+133320
X+132600Y+161360
X+134480Y+160480
Y+159520
X+132600Y+165760
X+134520Y+166480
X+132400Y+169320
X+134000Y+170640
X+132520Y+168520
X+133640
X+134400
X+133640Y+172560
X+132400Y+173800
X+134000Y+171960
X+133160Y+172200
X+134080Y+176240
X+133600Y+176280
X+133360Y+174400
X+134800Y+175560
X+134560Y+177360
X+133000Y+177240
X+132400Y+181120
X+133000Y+180640
X+133440Y+184280
X+132800Y+185600
X+134400Y+185640
Y+188360
Y+187160
X+133760Y+187240
X+132800Y+186840
X+134520Y+186600
X+134000Y+191120
X+132840Y+190640
X+134800Y+195640
X+133160Y+197320
X+133920Y+195640
X+134520Y+196000
Y+196640
X+133000Y+195680
X+132400Y+196160
Y+198960
X+133800Y+199360
Y+198640
X+133640Y+202120
X+134000Y+206280
X+134800Y+205640
Y+206440
X+133560Y+205480
X+133320Y+209120
X+133000Y+210960
X+132360
X+134520Y+215440
X+133000Y+213920
X+133520Y+218160
X+134360Y+218400
X+133760Y+218720
X+136320Y+134680
X+136400Y+137560
X+137400Y+137200
X+136320Y+136960
X+137160Y+137800
X+137520Y+139960
X+135760Y+141840
X+136520Y+142960
X+136400Y+143680
X+135560Y+141440
X+137160Y+148680
X+137320Y+151320
X+136520Y+155400
X+137160Y+156360
X+136560Y+157520
X+137640Y+157840
Y+159600
X+136600Y+159360
X+137000Y+162360
X+136000Y+164120
X+135360Y+164440
X+136000Y+167160
X+137040Y+167000
X+137400Y+166280
X+137240Y+165760
X+136400Y+165720
X+137000Y+169320
X+137520Y+169280
X+137640Y+170800
X+135760
X+137720Y+173320
X+137400Y+172280
X+136400Y+171480
X+136040Y+173600
X+137560Y+172920
X+136960Y+175640
X+137480Y+176520
X+136120Y+177400
X+136560Y+178840
X+137400Y+179440
X+136480Y+179480
X+136200Y+181880
X+136400Y+180720
X+137040Y+182400
X+135960Y+182320
X+135640Y+181880
X+137040Y+180640
X+135320Y+185640
X+137000
X+135960Y+188480
X+136360Y+187400
X+135320Y+186840
X+137320Y+190840
X+135960Y+189320
X+136840Y+190640
X+137000Y+192200
X+136000Y+192280
X+136240Y+193600
X+137000Y+197080
X+135360Y+195480
X+136360Y+198800
X+137000Y+200640
X+135400Y+204200
X+136800Y+204400
Y+206680
X+136880Y+207200
X+136400Y+207480
X+137400Y+210560
X+135480Y+212560
X+136560Y+215800
X+135600Y+218480
X+137640Y+218000
X+139280Y+120200
X+140750Y+128280
X+139200Y+134680
X+138200Y+132960
X+138920Y+137800
X+139400Y+139320
X+140000Y+144360
X+139160Y+146480
X+139000Y+149120
X+140040Y+149360
X+139640Y+149120
X+140120Y+148800
X+140640Y+150800
X+139560Y+151320
X+140080
X+139320Y+155400
X+139960Y+157480
X+139560Y+159600
X+139680Y+161200
X+140800
X+138800Y+160480
X+139680
Y+164360
X+139920Y+163320
X+138320Y+165760
X+140320Y+166160
X+138440Y+170400
X+140240Y+168640
X+138320Y+169560
X+138440Y+171280
X+139200Y+176240
X+138720Y+176360
X+139680Y+176480
X+138960Y+175600
X+138400Y+178920
X+140680Y+182560
X+138320Y+184200
X+138440Y+186840
X+138680Y+189360
X+139000Y+190400
X+139920Y+191320
X+139200
X+140680Y+192600
X+139960Y+193600
X+139880Y+194120
X+139600Y+192560
X+139400Y+193600
X+140400Y+200480
X+138480Y+199600
X+140000Y+201440
X+140240Y+201920
X+138400Y+202680
X+139160Y+202120
X+139400Y+203520
X+138560Y+206440
X+138640Y+204320
X+140520Y+204560
X+140480Y+206440
X+138920Y+208360
X+138640Y+209480
X+139560Y+208480
X+138800Y+207600
X+139080Y+212640
X+140360Y+210480
X+139920Y+210240
X+140400Y+213360
X+139320Y+213440
X+140320Y+217400
X+140640
X+139560Y+217880
X+141240Y+134680
X+142000
X+143000
X+142200Y+132960
X+142360Y+137560
X+142600Y+138360
X+142000Y+143560
X+141360Y+142400
Y+144480
X+143000Y+148840
X+142560Y+150880
X+141640Y+151360
X+142640Y+157680
X+141360Y+157920
X+142000Y+159360
X+143640Y+159600
X+141400Y+161200
X+141560Y+159520
X+143000Y+163280
X+141560Y+164360
X+143360Y+167800
X+142640Y+165920
X+141400Y+165800
X+142000Y+168360
X+142600Y+170640
X+141960
X+142320Y+171440
X+141560
X+143360Y+176480
X+142520Y+175480
X+143000Y+178000
X+141600Y+178960
X+142200Y+179200
X+143760Y+177560
X+142680Y+180480
X+142640Y+185480
X+141800Y+183800
X+143360Y+184240
X+141320Y+186280
X+142000Y+191440
X+143160Y+191240
X+142520Y+189200
X+142000Y+189360
X+143240Y+193400
X+141280Y+192520
X+143520Y+192480
X+141600Y+193560
X+143560Y+193720
X+142000Y+193000
X+142800Y+196440
Y+195720
X+141760Y+197480
X+143800Y+195800
X+143320Y+195600
X+141760Y+198560
X+141600Y+200480
X+143600Y+206400
X+143320Y+204560
X+142600
X+141600Y+207720
X+143000Y+210480
X+143400Y+210360
X+141240Y+215400
X+141600Y+214400
X+141720Y+215440
X+143640Y+217400
X+146000Y+128560
Y+126600
X+144720Y+127240
X+145200Y+130040
X+146640Y+135680
X+145440Y+137800
X+145600Y+135440
X+144400Y+135680
X+146480Y+137480
X+145440Y+142360
X+144480Y+145320
X+146560Y+147400
X+144680Y+148840
X+144240Y+149360
X+145480Y+151640
X+145640Y+153560
X+146000Y+154280
X+145000Y+153400
X+146400Y+154040
Y+153360
Y+155600
X+144600Y+156320
X+144440Y+161440
X+146600
X+145320
X+144440Y+163320
X+146600Y+167400
X+146480Y+166400
Y+165560
Y+170160
X+145800Y+168200
X+146000Y+169320
X+146480Y+171200
X+146320Y+173520
X+145840
X+146360Y+175960
X+145640
X+146600Y+176400
X+145960
X+146400Y+178240
X+144800Y+179400
X+145600Y+178920
X+144680Y+177560
X+145680Y+180640
X+146600Y+181080
X+144640Y+181400
X+145640Y+184160
X+146480Y+183680
X+144800
X+146320Y+185520
X+146480Y+188360
X+144640Y+187400
X+145000Y+188440
X+146600Y+191560
X+145040Y+189440
X+146200Y+191440
X+145640Y+190800
X+146600
X+145160Y+193400
X+146400Y+194040
X+146600Y+193320
X+144600Y+192520
X+144440Y+195600
X+145200Y+195800
X+145400Y+200440
X+145240Y+203200
X+145640Y+202400
X+144840Y+202600
X+144560Y+206480
X+145560Y+209720
X+146400Y+209400
X+145480Y+211520
X+144520Y+211600
X+146560Y+213360
X+144560Y+214600
X+144200Y+216200
X+148240Y+131200
X+149240Y+134280
X+148520Y+134240
Y+137680
X+148440Y+140520
X+147440Y+139320
X+148440Y+141480
X+148760
X+147600Y+142560
X+148080Y+142480
X+149400Y+142880
X+149000Y+141240
X+148120Y+145600
X+149000Y+145080
X+148600Y+145560
X+149480Y+144520
X+148840Y+148360
X+147680Y+147400
X+149640Y+150280
X+149400Y+151120
X+149640Y+154600
X+147280Y+156600
X+148200Y+158400
X+147400Y+157920
X+147720Y+158400
X+149520Y+158440
X+147400Y+159440
X+148360Y+159960
X+149440Y+163880
X+147520Y+163320
X+147600Y+164680
X+149000Y+163720
X+149560Y+166400
X+147600
X+148200Y+166880
X+147600Y+165560
X+148440Y+167360
X+147400Y+169760
X+147600Y+168440
X+149440Y+170000
X+148400Y+169120
X+148640Y+170600
X+148160Y+168640
X+147640Y+173520
X+148480Y+173800
X+147640Y+175240
X+149600Y+176800
X+148000Y+174760
X+148160Y+175280
X+149000Y+175400
X+147760Y+178560
X+148800Y+178640
X+149360Y+177400
X+147520Y+179440
X+148000Y+179080
X+149640Y+178800
X+147400Y+177200
X+147600Y+177600
X+149560Y+182280
X+148320Y+180360
X+149640Y+180200
X+148080Y+185280
X+147600Y+184240
X+148080Y+183640
X+148640
X+147840Y+184880
X+149080Y+188800
X+149560Y+186640
X+148640Y+186480
X+147440Y+190160
X+149320Y+190400
X+147600Y+189600
X+149480Y+189880
X+147400Y+194280
X+148640Y+194520
X+147520Y+193320
X+148360Y+193640
X+148400Y+197480
X+147840
X+147360Y+198360
X+148880Y+199640
X+149320Y+200600
X+148400Y+200800
X+148000Y+199640
X+149360Y+203480
X+148800Y+202640
X+149360Y+206040
X+148960Y+205120
X+147400Y+205160
X+147960Y+205400
X+147600Y+208480
X+147560Y+209480
X+148480Y+211240
X+149680Y+210200
X+149640Y+212560
X+148000Y+211000
X+147520Y+211520
X+148560Y+210200
X+147400Y+214960
X+148400
X+152360Y+116400
X+152600Y+118400
X+152520Y+118880
X+152120Y+117640
X+152520Y+121000
X+151160Y+121520
X+152160Y+126880
X+151240Y+128800
X+152160Y+130920
X+151240Y+131440
X+151720Y+134680
X+151320Y+132800
X+151720Y+136880
X+151320Y+136640
X+150680
X+152400Y+138400
X+151360Y+142800
X+151120Y+142560
X+151000Y+145480
X+150640Y+149400
X+152600Y+147880
X+151600Y+149480
X+150400Y+148360
X+150640Y+151120
X+150840Y+153600
X+152760Y+154040
X+152800Y+153360
X+150840Y+157000
X+151360Y+156480
X+150640Y+160000
X+150880Y+159400
X+151360Y+159920
Y+160800
X+151280Y+162440
X+150880Y+162200
X+150400Y+164680
X+152000Y+163600
X+152640Y+167520
X+150880Y+169520
X+151360Y+170240
X+151520Y+169560
X+152560Y+170480
X+151440Y+168480
X+152040Y+169600
X+152640Y+171560
X+150400Y+175240
X+152000Y+174840
X+150840Y+175240
X+151520Y+175480
X+151600Y+174600
X+152800Y+175320
X+150800Y+176800
X+150600Y+178640
X+150560Y+182520
X+152360Y+181640
X+151880
X+151920Y+180440
X+151640Y+182280
X+152160
X+150320Y+180200
X+151000Y+181640
Y+184080
X+152000Y+185360
X+151000Y+185120
X+152800Y+186480
X+152240Y+187120
X+152560Y+187520
X+152400Y+190360
X+151120Y+189840
X+151840Y+190080
X+152400Y+193880
X+152000Y+193640
X+150320Y+192520
X+151440Y+193640
X+150840
X+151680Y+195200
X+150840Y+195440
X+152160Y+199640
X+151000Y+203120
Y+201360
X+150480Y+206480
X+152480Y+209520
X+152520Y+208400
X+150400Y+212720
X+151600Y+211080
X+152080Y+210280
X+150520Y+211480
X+151960Y+214800
X+151560Y+217400
X+150480Y+217320
X+154400Y+102960
X+154520Y+110440
X+154000Y+119120
Y+124200
X+155480Y+126560
X+153480Y+131440
X+155800Y+130400
X+155200Y+133760
X+154480Y+133600
X+155520Y+137680
X+153360Y+136720
X+155000
X+155520Y+136560
X+153400Y+139640
X+155680Y+138800
X+154440Y+139560
X+153960Y+143400
X+155480Y+141400
X+154480Y+142800
X+155480Y+142400
X+153800Y+146400
X+154240Y+149480
X+153400
X+154480Y+151120
X+153920Y+151360
X+155800Y+152000
X+153640Y+154880
X+154680Y+154400
X+153800
X+154600Y+158120
X+153640Y+156640
X+154280Y+158360
X+155440Y+157120
X+153400
X+154480Y+160320
X+153520Y+160600
X+154240Y+159960
X+155400Y+164760
X+154480Y+162720
X+153560Y+163880
X+153400Y+163440
X+155640Y+167520
X+153920Y+165200
X+154600Y+168640
X+154000Y+168600
X+154360Y+171480
X+155280Y+174800
X+153840Y+175480
X+154360Y+176480
X+155640Y+175160
X+153400Y+175240
X+155400Y+178400
X+155480Y+182560
X+155440Y+181720
X+154560Y+187160
X+153960
X+154360Y+186480
X+155400Y+186800
X+154320Y+187520
X+153800Y+191600
X+155400Y+190160
X+153400Y+194280
Y+192480
X+153480Y+196640
X+154400Y+198600
X+154480Y+199880
X+153600Y+203120
X+154720Y+203680
X+155440Y+202480
X+154480Y+203280
X+155400Y+208600
X+154560Y+207560
X+154320Y+208360
X+153880Y+209600
X+153600Y+208360
X+154120Y+211000
X+153560Y+213600
X+155040Y+213880
X+155480Y+216280
X+158480Y+108320
X+156560Y+111800
X+157240Y+120200
X+156520Y+125360
X+158600Y+126640
X+157000Y+130160
X+158480Y+132440
X+157400Y+136640
X+156400Y+135600
X+156560Y+140520
X+156240Y+139520
X+158520Y+140480
X+156960Y+139400
X+156480Y+141800
X+158000Y+141720
Y+146480
X+158280Y+149200
X+156480Y+149000
X+157800
X+158360Y+151880
X+157640Y+152200
X+156560Y+152280
X+156960Y+155320
X+157600Y+154400
X+157680Y+153560
X+156720
X+157480Y+155480
X+156640Y+156880
X+157520Y+157520
Y+159800
X+157000Y+161800
X+158400Y+160280
X+158120Y+161800
X+157000Y+160320
X+156400Y+160480
X+158640Y+162280
X+156240Y+163600
X+156600Y+164640
X+158000Y+165200
X+156440Y+170360
X+158000Y+169600
X+158640
X+158400Y+170040
X+156920Y+170120
X+156600Y+168480
X+156320Y+172360
X+157000Y+171640
X+157640Y+171400
X+157000Y+173520
X+158720
X+157400Y+174640
X+158360Y+175280
X+157400Y+177480
X+158360Y+179680
X+157680Y+178640
X+157000Y+182080
X+158600Y+180360
X+156320Y+184760
X+157720Y+184680
X+157240Y+184840
X+156560Y+185480
X+158600Y+183640
X+156800Y+187200
X+157800Y+187360
X+157640Y+188560
X+156400Y+189760
X+157880Y+190240
X+157240
X+158680Y+189680
X+157640Y+193560
X+157160Y+192480
X+158400Y+195320
X+156400Y+197160
X+156480Y+196440
X+158360Y+199640
X+158600Y+203280
X+157440Y+206000
X+158520Y+206520
X+158400Y+205680
X+156240Y+208280
X+157440Y+208040
X+158000Y+208400
X+158480
X+156400Y+210960
X+158560Y+212800
X+157960Y+210680
Y+211360
X+157400Y+212480
X+157000Y+210440
X+157320Y+215680
X+158400Y+213440
X+158000Y+215640
X+158120Y+217640
X+159840Y+106600
X+160360Y+118400
X+160000Y+119120
X+159400Y+121640
X+161400
X+160000Y+120480
X+159640Y+123560
X+160560Y+128800
X+159400Y+136640
X+160440Y+136880
X+161440Y+135240
X+161400Y+136640
X+160640Y+142520
X+161360Y+143640
X+161160Y+141720
X+160640Y+141480
X+160480Y+148520
X+159520Y+152480
X+159480Y+151840
X+160560Y+153400
X+161120Y+154400
X+159680Y+154600
X+160000Y+155000
X+160560Y+154400
X+161520Y+153360
X+160520Y+155480
X+161160Y+158800
X+160560Y+157520
X+160600Y+158520
X+159520Y+161520
X+161560Y+160360
X+161120Y+164480
X+161600
X+160000Y+163560
X+159400
X+160320Y+165280
X+159400Y+167280
X+159800Y+166800
X+159840Y+165200
X+160800Y+165400
X+159400Y+168640
X+160240Y+168560
X+161000Y+172360
X+161480Y+172480
X+159640Y+175520
X+160360Y+174880
X+161640Y+175040
X+160920
X+161160Y+174400
X+159480Y+178480
X+161800Y+178640
X+161320Y+177440
X+161000Y+180400
X+161800Y+180240
X+160000
X+159640Y+184680
X+159760Y+185240
X+160200Y+187200
X+160000Y+189680
X+161080Y+190160
X+161600Y+194800
X+160000Y+193600
X+160120Y+197720
X+160800Y+197280
X+160640Y+196640
X+161400Y+197360
X+160000Y+195360
X+160960Y+195400
X+161120Y+196920
X+159360
X+160640Y+199640
X+161760Y+200120
X+160800Y+198280
X+159360Y+198360
X+161320Y+203440
X+160440Y+203280
X+159560Y+203520
X+160400Y+202640
X+159840
X+160400Y+208480
X+159640Y+207560
X+159600Y+210680
X+161240Y+212640
X+159320Y+212600
X+159560Y+215400
X+160800
X+159480Y+217320
X+161360Y+216360
X+160480Y+216680
X+160240Y+217560
X+163800Y+103960
X+162560Y+108560
X+163440Y+111800
X+163400Y+113720
X+162640Y+116400
X+164440Y+115640
X+164800Y+119360
X+163440Y+124280
Y+127600
X+164560Y+129600
X+163000Y+130480
X+162640Y+129760
X+162520Y+133520
X+163000Y+136880
X+164000
X+164800Y+136400
X+164240
X+162480Y+138480
Y+142520
X+164040Y+145000
X+163360Y+148720
X+162520Y+148760
X+163480Y+155400
X+164560Y+153960
X+163480Y+153400
Y+154800
X+162560Y+156480
X+164160Y+157440
X+164560Y+156960
X+163400Y+160280
X+162360
Y+159320
X+163520Y+162480
Y+163440
X+164120
X+162400Y+164280
X+164720Y+164400
X+163400Y+165840
X+162400Y+167280
X+164640Y+166520
X+163640Y+165400
X+164040Y+168560
X+164000Y+170800
X+163640Y+169040
X+162480Y+170480
X+164520Y+169600
X+163600Y+171640
X+162400Y+173400
X+163960Y+176280
X+162480Y+176480
X+163440
X+164280Y+175960
X+164000Y+177640
X+162600Y+178720
X+163440
X+162360Y+179440
X+164080Y+179360
X+163680Y+178080
Y+179600
X+163880Y+181200
X+164520Y+182000
X+163640Y+182400
X+164760Y+180720
X+163640Y+180880
X+163400Y+180640
X+163520Y+183440
X+164080Y+184400
X+164320Y+190800
X+164000Y+189520
Y+193360
X+163560Y+195920
X+162600Y+195400
X+163560Y+196400
X+162600Y+197400
X+164200Y+199520
X+163800Y+198960
X+163120
X+164200Y+202480
X+164440Y+203640
X+163680Y+202640
X+164680
X+162240Y+202000
X+164400Y+205400
X+164680Y+204520
X+162360Y+209400
X+163400Y+209360
Y+208160
X+164400Y+209200
X+163400Y+211640
Y+210920
X+162480Y+212480
X+162400Y+211440
X+164000Y+213800
X+162560Y+214400
X+164520Y+215400
X+163400Y+218000
X+163600Y+216600
X+163400Y+217520
X+163560Y+217080
X+166480Y+107560
X+166320Y+115400
X+166080Y+118640
X+165840Y+124600
X+165600Y+127680
X+165360Y+127280
X+167480Y+126400
X+167640Y+130240
X+166600Y+131800
X+166800Y+137280
X+167040Y+136640
X+165520Y+137520
X+166800Y+140560
X+166120Y+141480
X+165320Y+142280
X+166800Y+141600
Y+149200
Y+148720
X+165320Y+152320
X+166800Y+151320
X+165560Y+152000
X+166800Y+150560
X+165880Y+154000
X+167280Y+158400
X+166600Y+160640
X+165840Y+160400
X+167160Y+159440
X+166920Y+161440
X+167000Y+162600
X+167640Y+164320
X+166480Y+164520
X+166000Y+164320
Y+162560
X+166720Y+166440
X+166440Y+167520
X+166360Y+168680
X+165360
X+167560
X+167240Y+173360
X+166000Y+171280
X+165840Y+172680
X+166440Y+175640
X+167560Y+174240
X+166600Y+176200
X+165320Y+175560
X+167400Y+175800
X+167620Y+178520
X+166000Y+177880
X+166360Y+177400
Y+178200
X+166160Y+184360
X+165640Y+184560
X+166960Y+183760
X+167400Y+184120
X+165840Y+188720
X+165600Y+188280
X+166080Y+188040
X+167320Y+191040
X+166000Y+194320
X+166640Y+192880
X+167400Y+193120
X+165200Y+192640
Y+194080
X+165760Y+196280
X+166000Y+197480
X+166640Y+200400
X+165360Y+200480
X+166880Y+201520
X+166000Y+201280
X+167640Y+202880
X+166560Y+202840
X+167520Y+205800
X+167040Y+205840
X+167000Y+204280
Y+208960
X+166600
X+165560Y+207880
X+165480Y+215320
X+165560Y+214040
X+167560Y+213440
X+167480Y+214000
Y+215560
X+166880Y+217000
X+167440Y+218120
X+166560Y+218360
X+169400Y+108560
X+170640Y+116360
X+169360Y+117400
X+169320Y+123880
X+169800
X+170640Y+126480
X+168560Y+128000
X+169600Y+131720
X+168880Y+130200
Y+131240
X+170600Y+133160
X+168560Y+136640
X+169400Y+143400
X+169600Y+142240
X+168560Y+143640
X+170000Y+145560
X+168320Y+146400
X+168560Y+147640
X+169880
X+169640Y+147400
Y+151360
X+170760Y+151600
X+170120Y+154240
X+170640Y+155560
X+168320Y+154480
X+170800Y+154000
X+170400Y+155000
X+169320Y+158800
X+169960Y+156480
X+170120Y+159280
X+168880Y+161400
X+168360Y+159440
X+169120Y+162600
X+168560Y+162480
X+170480Y+166080
X+169600Y+168680
X+169640Y+171200
X+169000Y+173120
Y+171280
X+168560Y+171520
X+168360Y+174400
X+170000Y+175640
Y+176280
X+170480Y+176440
X+170600Y+174480
X+170000Y+174360
X+170040Y+177880
X+169640Y+179200
X+170320Y+177640
Y+178840
X+168880Y+179520
X+168640Y+177640
X+170160Y+180480
X+168920Y+181280
X+168640Y+184600
X+169640Y+185800
X+168640Y+184120
X+169240Y+187800
X+170400Y+188280
X+169120Y+186360
X+168840Y+188040
X+169600Y+188600
X+169960Y+187920
X+169640Y+186520
X+169320Y+190480
X+170160Y+189240
X+169240Y+189360
X+169160Y+194080
X+168800Y+194400
X+170040Y+195600
X+169400Y+195960
X+168800Y+197640
X+170640Y+198920
X+169360Y+200480
X+169400Y+199320
X+170400Y+198360
X+168200Y+199200
X+170400Y+200480
X+168600Y+203200
X+169600Y+201600
X+168360Y+204600
X+170480Y+208400
X+169640Y+207880
X+169960Y+210800
X+168400Y+213400
X+170000Y+215680
X+169360Y+216360
X+168240Y+217520
X+169920Y+217760
X+172320Y+123200
X+172840Y+137240
X+173640Y+137000
X+171880Y+139560
X+173640Y+139680
X+171880Y+142320
X+172840Y+142000
X+171880Y+142640
X+172600
X+172840Y+146000
Y+145320
X+172120Y+149000
X+173640Y+147680
X+172600Y+149240
X+171640Y+152800
X+173600Y+152720
X+172360Y+151040
X+173360Y+152200
X+172400Y+151840
X+171640Y+153960
X+171520Y+158720
X+173120Y+157560
X+173520Y+158720
X+172040Y+159520
X+171640Y+161240
X+173640Y+160960
X+173000Y+162640
X+171640Y+164600
X+172200Y+166440
X+172720Y+166680
X+171400Y+167000
X+171640Y+165920
X+172040Y+167080
X+171400Y+166520
X+172280Y+169520
X+172720Y+169280
X+172440Y+168680
X+173240Y+171600
X+172320Y+173280
X+171640Y+171680
X+173240Y+176360
Y+174280
Y+174960
X+171440Y+176360
X+171880Y+176120
X+172960Y+179440
X+173800Y+179000
X+172840Y+178120
Y+178760
X+173080Y+177800
X+171760Y+177640
Y+179240
X+171600Y+180400
X+171800Y+181040
X+172440Y+182560
X+173760
X+171400Y+185640
X+172600
X+173360Y+187720
Y+187400
X+171760Y+187480
X+172360Y+188200
X+171400Y+191280
X+172360Y+190720
X+171400Y+190960
X+172360Y+189320
X+172000Y+194480
X+173600Y+197640
X+172080Y+195920
X+173040Y+196160
X+173360Y+195560
X+172520Y+196520
X+173600Y+199400
X+172000Y+199360
X+173000Y+201920
Y+205200
X+171560Y+204280
X+173400Y+204680
X+172280Y+204920
X+171400Y+205560
X+172040Y+204440
X+171400Y+208240
X+172720Y+209400
X+171880Y+209600
X+171400
X+172480Y+210480
X+173400Y+210440
X+176600Y+111800
X+176160Y+122640
X+174960Y+125640
X+175400Y+124080
X+174640Y+128640
X+175520Y+130360
X+176800Y+136560
X+176480Y+138440
Y+140400
X+176240Y+140000
Y+138880
X+175520Y+138560
X+174520Y+143640
Y+143160
X+176240Y+141840
X+174520Y+144880
X+176480Y+150800
X+176440Y+152480
X+175840Y+154240
Y+155320
X+175120Y+157640
X+176720Y+158040
X+174800Y+158720
X+174640Y+157800
X+176720Y+159360
X+175880Y+160960
X+174400
X+174880Y+161440
X+176280Y+161320
X+174640Y+162960
X+176800Y+164480
X+174240Y+162960
X+175280Y+162640
X+176560Y+166680
X+174960Y+165960
X+175680Y+165560
X+176640Y+169520
X+174320Y+169280
X+175840Y+169040
X+176400Y+168200
X+174320Y+172560
X+175080Y+175760
X+175840Y+176320
X+175200Y+175200
X+174880Y+179000
X+175360Y+178400
X+175640Y+181280
X+174960Y+184120
X+175320Y+184400
X+175520Y+185560
X+174800Y+188200
X+174320
X+176000Y+187960
X+175840Y+191040
X+175920Y+190560
X+176320Y+191320
X+174240Y+189280
X+174840Y+193400
X+174200Y+194240
X+176600Y+196280
X+175600Y+198440
X+175560Y+199120
X+175000Y+200640
X+176040Y+199400
X+174400Y+203440
X+174560Y+201920
X+176400Y+206800
X+175000Y+204920
X+174520Y+206520
X+174400Y+204920
X+174520Y+207520
X+176560Y+211840
X+174400Y+214400
X+175040Y+214880
X+174760Y+213600
X+174960Y+217280
X+175120Y+218600
X+179800Y+118200
X+177920Y+122680
X+179640Y+125120
X+178440Y+126720
X+178400Y+131080
X+179240Y+134040
X+177560Y+134440
X+177320Y+135760
X+178800Y+140720
X+179400Y+145400
X+178640Y+144600
X+177600Y+149480
X+178560Y+150800
X+179600Y+151280
X+178000Y+155640
X+179200Y+157080
X+178480Y+157720
X+178000Y+158280
X+179600Y+156440
X+178640Y+156840
X+177240
X+178480Y+160520
X+178000Y+163800
X+179560
X+178640Y+166680
Y+165720
X+178800Y+166200
X+177840
X+178080Y+165760
X+179280Y+170040
X+179320Y+168960
X+177200Y+168440
X+179280Y+173480
X+178040Y+176200
X+178800Y+175800
X+177840Y+175720
X+179040Y+176400
X+179280Y+176000
X+177200Y+174960
X+178000Y+178120
X+179480Y+178240
X+178320Y+181280
X+178000Y+180640
X+179480Y+184120
X+179560Y+185400
X+179240Y+183880
X+179600Y+184840
X+178960Y+184360
Y+183400
X+178400Y+186360
X+178240Y+188680
X+179600Y+187640
Y+189560
X+178320Y+191600
X+179400Y+192320
X+179600Y+194120
Y+197280
Y+195600
X+177360Y+199440
X+177800Y+200400
X+179000Y+198640
X+177600
X+177280Y+201360
Y+202480
X+179400Y+201720
X+179480Y+204680
X+178000Y+204440
X+178120Y+207520
X+179480Y+207280
X+178560Y+211520
Y+213800
X+179400Y+217760
X+179480Y+217280
X+180560Y+120400
X+182400Y+131720
X+181000Y+134040
X+182560Y+134200
X+180600Y+135600
X+182000Y+141520
X+180320Y+151280
X+180560Y+154240
Y+156480
X+182440Y+157400
X+180320Y+157320
X+182520Y+156800
X+181400Y+160000
X+180800Y+160520
X+182680Y+161200
X+180640Y+164320
X+182400Y+165480
X+180240Y+166680
X+181000Y+165920
X+180520Y+165480
X+181600Y+168960
X+180480Y+168240
X+180640Y+172240
X+181120Y+171840
X+181360Y+175480
X+182560Y+174480
X+182400Y+176480
X+180920
X+182360Y+179640
X+181623Y+181800
X+182380Y+182160
X+182600Y+188600
X+180400Y+187120
X+180680Y+186640
X+180640Y+188800
X+181400Y+188560
X+182360Y+190240
X+182000Y+191640
X+180960Y+193640
X+181400Y+197440
Y+198560
X+182040Y+202240
X+181000Y+203640
X+182640Y+202360
X+182400Y+203640
X+181560Y+202000
X+182600Y+204280
X+180640Y+206800
X+180560Y+204440
X+181800Y+209440
X+180360Y+211560
Y+210440
X+182320Y+211840
X+182520Y+210480
X+180360Y+214680
X+181640Y+214440
X+181160Y+218120
X+181400Y+217880
X+183200Y+109600
X+184600Y+128160
X+185640Y+136320
X+184840Y+135640
X+185200Y+136080
X+184000Y+145000
X+183800Y+146560
X+183560Y+148000
X+185680Y+152400
X+184640Y+151400
X+185000Y+151000
X+183400Y+153400
X+185440Y+156720
X+184320Y+157400
X+185440Y+159680
X+185000Y+161040
X+183240Y+160240
X+184440Y+161200
X+184960Y+162800
X+184400Y+164040
X+185760Y+163560
X+183680Y+163800
X+185360Y+166200
X+185000Y+166920
X+185600
X+185000Y+169200
X+185600Y+169040
X+183960Y+173040
X+185360Y+174360
Y+181560
X+184000Y+181800
X+185000Y+183640
X+184320Y+184120
Y+186640
X+184960Y+190160
X+183520Y+192480
X+185320Y+196480
X+184360Y+196760
X+183360Y+196600
X+184600Y+198560
X+183960Y+200360
X+184600Y+202000
X+185360Y+205200
X+183320Y+208880
X+185640Y+207600
X+185600Y+212600
X+183640Y+214920
X+184160Y+218400
X+186960Y+101800
X+187480Y+116360
X+188240
X+187560Y+133560
X+188000Y+136800
X+188560Y+137120
X+186560
X+188000Y+142080
X+186560Y+141400
X+187600Y+146640
X+188560Y+144600
X+187160Y+148000
X+188640Y+148440
X+186600Y+154480
X+187440Y+156480
X+188520Y+157560
X+187680Y+159920
X+188000Y+160400
X+186600Y+164320
X+188080Y+164160
X+187040Y+165720
X+186400Y+165960
X+187400Y+166880
X+188640Y+165600
X+186320Y+168360
X+188080Y+170800
X+186320Y+172400
X+187000Y+171480
X+187440Y+175080
Y+175560
X+188080Y+174800
X+188560Y+176640
X+186640Y+182280
X+187040Y+181640
X+187200Y+183640
Y+184360
X+186640Y+184520
X+186840Y+188560
X+187200Y+186480
X+186840Y+187520
X+186640Y+190160
X+188440Y+191800
Y+191160
X+187560Y+193800
X+187960Y+192320
X+187160Y+194120
X+186360Y+196640
X+188640Y+198560
X+187960Y+199040
X+186600Y+199600
X+186400Y+200240
X+187320Y+202080
X+187000Y+203440
X+187680Y+205760
X+188000Y+209320
X+187840Y+212480
X+186560Y+215400
X+188560Y+213560
X+190400Y+125600
X+191200Y+125360
X+190560Y+125040
X+191480Y+132960
X+190000Y+142360
X+189640Y+143600
X+191000Y+141520
Y+145000
Y+149640
X+190520Y+154560
X+190000Y+161040
X+189440Y+159600
X+191000Y+162640
X+190000Y+162880
Y+164320
X+189360Y+167080
X+191000Y+166160
X+191640Y+165600
X+190360Y+168360
X+190440Y+170800
X+191000Y+169360
X+190480Y+169480
X+190680Y+171440
X+189400Y+180800
X+189920Y+185320
X+190400Y+183560
X+189440Y+183720
X+190000Y+186640
X+190880Y+187520
X+189400Y+189600
X+191120
X+190560Y+194400
X+189440Y+192520
X+191120Y+196480
X+191640Y+197640
X+190880Y+196160
X+191160Y+200800
X+190000Y+199280
X+191640Y+199600
X+191000Y+199520
X+191160Y+201280
X+190400Y+203280
X+191320Y+205760
X+190320Y+206400
X+191600Y+204560
X+191320Y+207960
X+192560Y+123600
X+192880Y+126400
X+194400Y+126640
X+193360Y+130840
X+193600Y+133080
X+193120Y+133440
X+194760Y+141840
X+194520Y+143000
X+192880Y+149400
Y+147440
X+193120Y+152040
X+193600Y+153560
X+193840Y+154080
X+192840Y+157560
X+192320
X+192600Y+158000
X+193720Y+157560
X+194600Y+160480
X+192600Y+161600
X+192320Y+160800
X+194760Y+161640
X+194280Y+163480
X+193440Y+165480
X+194480Y+167400
X+194720Y+166360
X+194800Y+165880
X+194560Y+165480
X+192800Y+165600
X+192400Y+166440
X+194280Y+169640
X+192560Y+172560
X+192320Y+173520
X+194120Y+173600
X+194320Y+171360
X+193640Y+171840
X+192800Y+174880
X+192720Y+177720
X+192800Y+177280
X+193360Y+179080
X+193480Y+183480
X+194400Y+187520
X+192720Y+187120
X+193720
X+192520Y+188800
X+193360Y+186880
X+194120Y+186640
X+194400Y+188400
X+193480Y+191520
X+192600Y+194520
X+194400Y+195720
Y+199640
X+192840Y+203280
X+194400Y+209240
X+194600Y+210800
X+101160Y+171160
X+103040Y+164920
X+102320Y+162160
X+104480Y+173960
X+103720Y+185840
X+102560Y+186080
X+105600Y+176960
X+107520Y+189040
X+106080Y+207080
X+109840Y+167880
X+110400Y+167960
X+110560Y+171120
X+110520Y+177040
X+111560Y+107880
X+112120Y+132160
X+111560Y+156040
X+113800Y+167960
X+112600Y+192000
X+113080Y+189000
X+112840Y+204000
X+111650Y+195000
X+115080Y+108160
X+116200Y+174000
X+116800Y+174040
X+115000Y+176880
X+116520Y+177000
X+116400Y+216040
X+118640Y+156040
X+118880Y+153080
X+118080Y+177000
X+117440Y+204000
X+121320Y+131920
X+122160Y+135160
X+122280Y+143920
X+121120
X+120880Y+147080
X+122000Y+156040
X+121960Y+150000
X+122000Y+161880
X+121480Y+177000
X+120600Y+174160
X+121000Y+173960
X+120320Y+173880
X+121880Y+174160
X+122440Y+174120
X+122200Y+186000
X+125125Y+152920
X+124360Y+147000
X+124000Y+150080
X+125040Y+162080
X+124480Y+179840
X+125200Y+185880
X+125040Y+192000
Y+198120
X+124400Y+215880
X+124080Y+206920
X+127480Y+135160
X+128160Y+147080
X+126520Y+150120
X+128040Y+192000
X+126320Y+195160
X+127640Y+203880
X+131560Y+132160
X+129600Y+137840
X+131000Y+153120
X+129280Y+147080
X+131600Y+155920
X+129520Y+158880
X+131120Y+171120
X+130560Y+177120
X+129600Y+216160
X+129360Y+207080
X+132400Y+132040
X+133080Y+134920
Y+156120
X+132680Y+155880
X+132800Y+161920
X+133000Y+173880
X+133160Y+170880
X+132680Y+206920
X+137720Y+156120
X+135880Y+153120
X+136520Y+153160
X+136000Y+150080
X+137000
X+136000Y+161840
X+135400Y+162120
X+135320Y+158960
X+135800Y+159120
X+136960Y+176960
X+137320Y+204160
X+136160Y+203960
X+135560Y+207160
X+138720Y+135000
X+140800Y+137920
X+139600Y+135000
X+139960Y+159120
X+140360Y+186040
X+139680Y+188960
X+138920Y+201160
X+139840Y+198000
X+140040Y+213120
X+142120Y+104960
X+141960Y+138120
X+141440Y+138160
X+142840Y+174160
X+143400Y+173920
X+141560Y+188960
X+142480Y+201000
X+143560Y+215880
X+145560Y+144120
X+146320Y+138120
X+144600Y+155840
X+145400Y+156080
X+145960Y+155840
X+145320Y+167960
X+146360Y+167840
X+146000Y+170960
X+146240Y+189040
X+145000Y+183000
X+146480Y+183160
X+145400Y+198000
X+144960Y+200880
X+144440Y+201160
X+145160Y+216120
X+148000Y+141000
X+147440Y+144120
X+149000Y+150120
X+147400Y+150160
X+148040
X+147400Y+155840
Y+174080
X+147760Y+180000
X+147920Y+176840
X+148600Y+188880
X+148880Y+200840
X+147840Y+198120
X+152160Y+122840
X+151160Y+126120
X+151120Y+156080
X+150400Y+159000
X+151120
X+152000Y+165040
X+151440Y+180160
X+152160Y+173960
X+151400Y+215880
X+155120Y+132080
X+154480
X+154240Y+150120
X+153640Y+176880
X+154600Y+173840
X+154320Y+180160
X+155400Y+179920
X+154480Y+177120
X+153400Y+195160
X+153480Y+210080
X+155520
X+156360Y+119960
X+157720Y+120080
X+157560Y+132080
X+157400Y+150160
X+158360Y+177120
X+157480Y+191840
X+156800Y+192000
X+158600Y+201160
X+158040Y+201080
X+159360Y+132120
X+160360Y+179920
X+159200Y+180160
X+160640Y+177120
X+161800
X+159640Y+194840
X+161600Y+216120
X+160560Y+215880
X+162600Y+143920
X+164560Y+150120
X+163600Y+149880
X+163480Y+156000
X+163400Y+167960
X+164000
X+162600Y+179840
X+164080Y+182880
X+163680Y+183120
X+164200Y+198120
X+163800
X+162600Y+201160
X+162560Y+216120
X+166040Y+102040
X+166320Y+116840
X+166440Y+174040
X+167560Y+171040
X+166920Y+174040
X+167000Y+189120
X+166800Y+186040
X+167400Y+183120
X+165600Y+201040
X+167480Y+201120
X+170520Y+144000
X+168280Y+147120
X+169480Y+150160
X+168320Y+153160
X+170000Y+173840
X+168600
X+168320Y+188840
X+170640Y+200880
X+168320Y+212960
X+170560Y+215960
X+171680Y+122960
X+171880Y+146880
X+172600Y+149920
X+172520Y+158960
X+172120Y+174080
X+171760Y+188840
X+173000
X+173120Y+185920
X+172600Y+207000
X+172480Y+209920
X+175800Y+150000
X+174280Y+146880
X+175200Y+167960
X+174560Y+170960
Y+189040
X+175400Y+207040
X+179000Y+131880
X+178320Y+141000
X+178000Y+158960
X+178400Y+174040
X+179280
X+177360Y+188920
X+178480
X+178600Y+209920
X+182560Y+140960
X+181320Y+147000
X+181480Y+168000
X+181640Y+179920
X+182400Y+176960
X+181400Y+189160
X+185680Y+150040
X+185440Y+180080
X+184360Y+174000
X+184440Y+179840
X+184640Y+191960
X+183640Y+188840
X+184960Y+188960
X+185000Y+203880
X+185560Y+194920
X+183400Y+218840
X+188600Y+131960
X+187960Y+197880
X+190000Y+156040
Y+198120
X+189360Y+204080
X+193840Y+131960
X+192640Y+140880
X+193120Y+153000
X+194080Y+149880
X+193640Y+158920
X+194280Y+162040
X+194520Y+164920
X+192320Y+170960
X+192360Y+197880
X+108080Y+124880
X+108000Y+127440
X+107880Y+132280
X+108120Y+133000
X+105160Y+133040
X+102080Y+141200
X+101880Y+146600
X+102040Y+153720
X+105120Y+156880
X+102040Y+162440
X+105120Y+174200
X+104960Y+180600
X+108040Y+182080
X+102080Y+180600
X+105040Y+185680
X+108040Y+183880
Y+188640
X+105040Y+188040
X+107960Y+186480
X+105040Y+191000
X+108080Y+196240
X+105120Y+197000
X+107840Y+199400
X+104840Y+199000
X+102080Y+198600
X+105080Y+200120
X+105120Y+199600
X+107840Y+198760
X+104840Y+203560
X+101840Y+201400
X+108080Y+205800
X+104960Y+204560
X+102080Y+206440
X+102040Y+214600
X+111040Y+124400
X+113920Y+130720
X+114000Y+129680
X+111040Y+136560
X+116840Y+137440
X+113920Y+140600
X+120120Y+141480
X+114000Y+142920
X+120120Y+145880
X+120000Y+149040
X+114160Y+152360
X+111000Y+150400
X+119920Y+151040
X+119840Y+160040
Y+159280
X+116840Y+167640
X+117000Y+169280
X+117040Y+173640
X+120000Y+171480
X+117080Y+176760
X+119880Y+175080
Y+177240
Y+177800
X+114000Y+180880
X+114120Y+182640
X+116880Y+188600
X+117120Y+191000
X+116880Y+190000
X+117000Y+191600
X+120120Y+205400
X+120040Y+208160
X+116840Y+212640
X+117040Y+210560
X+120040Y+210320
X+117080Y+214600
Y+216400
X+119960
X+126160Y+135640
X+122880Y+138480
Y+141480
Y+141800
X+123120Y+146440
Y+146760
X+128960Y+144920
X+125880Y+151800
X+123160Y+161480
X+123120Y+166640
X+122880Y+165200
Y+167400
X+131960Y+167360
X+122840Y+170160
X+126040
X+125960Y+172120
X+122880Y+172880
X+132160Y+175800
X+123120Y+176120
Y+177800
X+122880Y+180960
X+123040Y+182240
X+132160Y+185600
X+123120Y+183840
X+128920Y+184040
X+132160Y+186840
X+129040Y+190480
X+126040Y+190800
X+129040Y+189520
X+126040Y+191360
X+132000Y+190640
X+129040Y+194240
X+126160Y+194560
X+132000Y+192320
X+122840Y+195640
X+132160Y+196920
X+131920Y+196400
X+126080Y+198680
X+129160Y+199000
X+129040Y+200360
X+126040Y+201760
X+129120Y+205120
X+126160Y+205560
X+132000Y+204200
X+128880Y+206040
X+122840Y+211000
X+135000Y+118520
X+141000Y+128560
X+138000Y+136960
X+135160
Y+137600
X+141000Y+143240
X+143960Y+143280
X+135000Y+141560
X+143960Y+144200
X+144000Y+147880
X+141000Y+147640
X+137960Y+151320
X+135000Y+161120
X+137920Y+162360
X+135080Y+166080
X+137920Y+168640
X+138120Y+170640
X+134960Y+172200
X+143840Y+176240
X+141000Y+176400
X+140920Y+178000
X+141000Y+178560
X+143960Y+181280
X+144000Y+185800
X+140840Y+184400
X+141080Y+183800
X+143960Y+188440
X+141000
Y+190840
X+144040
X+141160Y+194360
X+143920Y+200720
X+144120Y+206280
X+135160Y+209120
X+143960Y+208120
X+141000Y+210200
X+138040Y+217640
X+153000Y+125080
X+156000Y+129920
X+153000Y+134200
X+150120Y+134120
X+153000Y+143360
X+150000Y+145360
Y+150280
X+153000
X+156040Y+151400
X+152840Y+156640
X+156000Y+159640
X+153000Y+160360
X+150000Y+164680
X+149880Y+163880
X+156000Y+165440
Y+170040
X+153000Y+170480
X+150080Y+170400
Y+169120
X+153000Y+172160
X+149840Y+174600
Y+175400
X+156000Y+179440
X+153040Y+177360
X+152960Y+178480
X+155920Y+183640
X+156160Y+185240
X+153000Y+184280
X+156120Y+188560
X+153000Y+187200
X+150160Y+186640
X+152920Y+190120
X+153080Y+189480
X+152920Y+192240
X+150160Y+196640
X+156080Y+206040
X+150000Y+204720
X+159000Y+107080
X+165040Y+127040
X+167960Y+131720
X+165040Y+137280
X+159000Y+143640
X+165120Y+144320
X+159000Y+145480
X+165000Y+148960
X+167920Y+151000
X+168080Y+152800
X+162120Y+151760
X+162000Y+154440
X+159160Y+155000
X+168080Y+155440
X+165120Y+157200
Y+158800
X+167880Y+158280
X+159000Y+157360
X+165040Y+160640
X+168120Y+161400
X+165120Y+163960
Y+162560
X+168000Y+165840
X+159000Y+167080
X+162000Y+167280
Y+165280
X+168040Y+168680
X+165000Y+173800
X+162160Y+175280
X+165000Y+178080
X+167920Y+180800
X+165160Y+181200
X+168160Y+182640
X+167960Y+183800
X+165000Y+184360
X+159160Y+183640
Y+185240
X+161920Y+188800
X+162160Y+188480
X+165040Y+188520
X+159080Y+188600
X+168000Y+189440
X+164960Y+191360
X+161920Y+190000
X+159080Y+190200
X+164960Y+190720
X+168160Y+194080
X+164840Y+193360
Y+193840
X+161920Y+195320
X+165000Y+197480
X+159000Y+195200
X+158880Y+196600
X+165120Y+201520
X+165000Y+203440
X+162000Y+212600
X+170880Y+115600
X+177160Y+125640
X+176920Y+126960
X+171000Y+131000
X+179960Y+134360
X+171000Y+135320
X+174120Y+137560
X+171120Y+136400
X+173880Y+138400
X+171120Y+139000
X+180000Y+141400
X+171120Y+142240
X+171000Y+146640
X+180000Y+144600
X+171000Y+149480
X+174120Y+150800
X+173880Y+151840
X+180000Y+153560
X+171040Y+154240
X+171120Y+160960
X+174000Y+161200
X+180000Y+163280
X+173840Y+165640
X+174080Y+166200
X+180000Y+168480
X+176960Y+171200
X+174040Y+173360
X+176960Y+173680
Y+174240
Y+175960
X+179920Y+175800
X+177000Y+177960
X+174040Y+178520
Y+179320
X+177000Y+179360
X+170880Y+181880
X+170920Y+183560
X+173840Y+185640
X+177120Y+191280
X+180080Y+192320
X+171160Y+192480
X+180000Y+193880
X+174000Y+195920
X+180000Y+196920
X+177000Y+199440
X+171120Y+199120
X+171040Y+201360
X+174000Y+201600
X+177000Y+208920
X+182880Y+113800
X+183000Y+136800
X+186040Y+137400
X+189000Y+141400
X+183000Y+149800
X+188880Y+147880
X+185920Y+151600
X+191840Y+158680
X+192080Y+158000
X+186000Y+161360
X+192080Y+163680
X+182880Y+162560
X+191840Y+162640
X+183120Y+166440
Y+165960
X+183040Y+172400
X+186000Y+179600
X+183000Y+178800
X+188920Y+184360
X+186000Y+183640
Y+184600
X+183000Y+193800
X+186120Y+195400
Y+199280
X+182880Y+202000
X+188960Y+204320
X+194840Y+135400
Y+146720
X+105040Y+189000
X+116840Y+129040
X+126120Y+144040
X+132160Y+177120
X+126080Y+200840
X+122840Y+201000
X+126080Y+198120
X+126040Y+210000
X+141000Y+132160
Y+135040
Y+168080
X+135000Y+170880
X+138160Y+186120
X+135000Y+200960
X+153080Y+135000
X+149920Y+138080
X+153160Y+159000
X+152880Y+165040
X+155880Y+180160
X+152960Y+179840
X+146920Y+201120
X+168080Y+117000
X+162120Y+144160
X+165000Y+167960
X+168040Y+171040
X+168000Y+173840
X+159000Y+191960
X+159080Y+201160
X+158880Y+198040
X+159000Y+212920
X+171120Y+156040
Y+149920
X+170920Y+192000
X+191960Y+147040
X+183120Y+168000
X+186080Y+171040
X+186160Y+177120
X+192000Y+198120
X+183000Y+204040
X+192120Y+195000
X+194840Y+159160
T02
X+101642Y+164040
X+103250Y+139500
X+107500Y+111875
X+122500
X+123750Y+105500
X+128250Y+106750
X+130375Y+106250
X+129375Y+105625
X+140250Y+106689
X+139250Y+105875
X+141625Y+112625
X+147375
X+150875
X+151750Y+116250
Y+124250
X+154000Y+123500
Y+125500
X+155000Y+153500
Y+155500
Y+183500
Y+185500
Y+204500
Y+206500
X+175250Y+115625
X+176250Y+133409
X+177500Y+123625
X+181125Y+114500
X+182110Y+161500
X+184625Y+114500
X+185250Y+118625
X+185375Y+122125
X+187000Y+114500
X+101524Y+147000
X+104000Y+162000
Y+164000
X+107000Y+175500
Y+177500
X+109500Y+116500
Y+113500
X+108500Y+116500
Y+113500
X+111500Y+116500
Y+113500
X+119000Y+144000
Y+142000
X+118000Y+177500
Y+174500
X+119000Y+172000
Y+171000
Y+177500
Y+174500
X+118000Y+184000
Y+182000
X+121000Y+167000
Y+165000
X+127500Y+153500
X+126500
X+138500Y+141500
Y+139500
Y+152000
Y+150000
Y+162000
Y+160000
Y+188000
Y+190000
Y+215000
Y+217000
X+148000Y+155000
Y+157000
X+152625Y+110875
X+151750Y+132250
X+155000Y+163500
Y+165500
Y+173500
Y+175500
Y+214500
Y+216500
X+164000Y+134846
X+167000Y+125000
Y+127000
X+167125Y+134875
X+166500Y+158000
Y+160000
X+172500Y+105500
Y+106500
X+173000Y+118000
Y+119000
X+172000
Y+118000
X+171500Y+135000
X+173000Y+141000
Y+138000
X+172500Y+155000
Y+153000
X+175000Y+118000
Y+119000
X+176000Y+118000
Y+119000
X+178500Y+105500
Y+106500
X+180375Y+117250
X+184500Y+117000
Y+118000
X+185000Y+131500
Y+129500
Y+141000
Y+143000
Y+135000
Y+138000
Y+152000
Y+154000
X+187000Y+202500
Y+204500
Y+213000
Y+215000
X+191000Y+117000
Y+118000
X+190500Y+120500
Y+119500
X+190000Y+186000
Y+184000
X+193500Y+124000
Y+122000
X+193000Y+164500
Y+162500
X+110000Y+181500
Y+184500
X+138500Y+205000
Y+207000
X+155000Y+193500
Y+195500
X+180500Y+109500
Y+107500
X+188000Y+195000
Y+193000
X+189500Y+109000
Y+112000
X+101750Y+119625
Y+129375
X+104500Y+139500
X+106500
X+101750
X+102000Y+146000
X+101752Y+152000
X+119500Y+150500
Y+152500
X+115000Y+172000
X+113000
X+118500Y+207500
X+116500
X+122750Y+106125
X+131000Y+148500
X+130000
X+124000Y+164000
X+127000
X+122000Y+166000
X+124000
X+122000Y+167000
X+125000
X+141000Y+106250
X+142000Y+203000
X+143000
X+140000
X+141000
X+135000Y+214000
X+138000
X+162000Y+208000
X+159000
X+167000Y+211000
X+164000
X+174500Y+108500
Y+110500
X+173000Y+114500
Y+116500
X+179000Y+119000
Y+118000
X+178000Y+145000
X+179000
X+176846Y+155625
X+171000Y+162500
Y+164500
X+172000Y+212000
X+175000
X+171000Y+213500
Y+215500
X+187500Y+107000
X+190500
X+182875Y+114500
X+182750Y+118625
X+190000Y+134000
X+192000
X+185000Y+139000
X+182000
X+192000Y+145000
X+190000
X+185000
X+182000
X+190000Y+155000
X+187000
Y+169000
X+190000
X+187000Y+172000
X+189000
Y+173000
X+187000
X+182000
X+185000
Y+172000
X+182000
X+187000Y+217000
X+184000
X+107500Y+118500
Y+120500
X+102000Y+151000
Y+153000
X+105000Y+171000
X+103000
X+108000Y+172000
Y+171000
X+108500Y+186000
X+106500
X+104500Y+187000
X+101500
X+108500Y+206500
X+106500
X+110000Y+105000
X+112000
X+113500Y+116500
Y+113500
X+116500Y+138500
X+115500
X+118500
X+119500
X+115500Y+135500
X+116500
X+119500
X+118500
X+117500Y+138500
X+114500
X+120500
X+114500Y+135500
X+117500
X+120500
X+120000Y+161000
Y+163000
X+115000Y+165000
X+114000
X+117000
X+118000
X+116000
X+119000
Y+180000
X+118000
X+114000Y+215000
Y+212000
Y+213000
Y+210000
Y+209000
X+111000Y+215000
Y+213000
Y+212000
Y+209000
Y+210000
X+114000Y+211000
Y+214000
Y+208000
X+111000Y+214000
Y+211000
Y+208000
X+119000Y+213000
Y+214000
Y+211000
Y+210000
X+116000Y+214000
Y+213000
Y+210000
Y+211000
X+119000Y+212000
Y+215000
Y+209000
X+116000Y+215000
Y+212000
Y+209000
X+130000Y+105000
X+127000
Y+135500
Y+137500
X+130000Y+143500
X+129000
X+123500Y+153500
X+122500
X+125500
X+124500
X+130000Y+154000
X+129000
X+122000Y+165000
X+125000
X+124000Y+162000
X+127000
Y+177000
Y+178000
Y+175000
Y+174000
X+124000Y+178000
Y+177000
Y+174000
Y+175000
X+127000Y+176000
Y+179000
Y+173000
X+124000Y+179000
Y+176000
Y+173000
X+129000Y+183000
Y+185000
Y+216000
Y+214000
Y+209000
Y+212000
X+141000Y+105000
X+139000
X+138000Y+178000
Y+180000
Y+172000
Y+170000
Y+183000
Y+185000
Y+198000
Y+200000
X+153000Y+113500
Y+115500
X+148000Y+142000
X+151000
X+150000
X+153000
X+154000
X+148000Y+139000
X+150000
X+151000
X+153000
X+154000
X+152000Y+142000
X+149000
X+155000
X+149000Y+139000
X+152000
X+155000
X+150000Y+152000
X+149000
X+152000
X+153000
X+149000Y+149000
X+150000
X+153000
X+152000
X+151000Y+152000
X+148000
X+154000
X+148000Y+149000
X+151000
X+154000
X+153000Y+155000
Y+156000
X+153500Y+158000
Y+160000
X+154000Y+161000
X+153000
X+150000Y+166000
X+149000
X+152000
X+153000
X+149000Y+163000
X+150000
X+153000
X+152000
X+151000Y+166000
X+148000
X+154000
X+148000Y+163000
X+151000
X+154000
X+150000Y+176000
X+149000
X+152000
X+153000
X+149000Y+173000
X+150000
X+153000
X+152000
X+151000Y+176000
X+148000
X+154000
X+148000Y+173000
X+151000
X+154000
X+152000Y+192000
X+155000
X+150000Y+186000
X+149000
X+152000
X+153000
X+149000Y+183000
X+150000
X+153000
X+152000
X+151000Y+186000
X+148000
X+154000
X+148000Y+183000
X+151000
X+154000
X+150000Y+191000
X+149000
X+152000
X+153000
X+149000Y+188000
X+150000
X+153000
X+152000
X+151000Y+191000
X+148000
X+154000
X+148000Y+188000
X+151000
X+154000
X+149000Y+202000
X+148000
X+151000
X+152000
X+148000Y+199000
X+149000
X+152000
X+151000
X+150000Y+202000
X+147000
X+153000
X+147000Y+199000
X+150000
X+153000
X+150000Y+212000
X+149000
X+152000
X+153000
X+149000Y+209000
X+150000
X+153000
X+152000
X+151000Y+212000
X+148000
X+154000
X+148000Y+209000
X+151000
X+154000
X+164000Y+201000
X+167000
X+176000Y+108000
X+178000
X+170500Y+105500
X+171500
X+173500
Y+106500
X+179500Y+105500
Y+106500
X+174000Y+119000
Y+118000
X+177000
Y+119000
X+173000Y+135000
X+175000
X+177000Y+144125
X+171500Y+155000
Y+152000
X+171000Y+173000
Y+175000
X+179000Y+177000
X+176000
X+177000
X+174000
X+173000
X+179000Y+180000
X+177000
X+176000
X+173000
X+174000
X+175000Y+177000
X+178000
X+172000
X+178000Y+180000
X+175000
X+172000
X+179000Y+182000
X+176000
X+177000
X+174000
X+173000
X+179000Y+185000
X+177000
X+176000
X+173000
X+174000
X+175000Y+182000
X+178000
X+172000
X+178000Y+185000
X+175000
X+172000
X+176000Y+187000
X+177000
X+174000
X+173000
X+177000Y+190000
X+176000
X+173000
X+174000
X+175000Y+187000
X+178000
X+172000
X+178000Y+190000
X+175000
X+172000
X+171000Y+182500
Y+184500
Y+203000
Y+205000
X+175000Y+197000
X+176000
X+173000
X+172000
X+176000Y+200000
X+175000
X+172000
X+173000
X+174000Y+197000
X+177000
X+171000
X+177000Y+200000
X+174000
X+171000
X+176000Y+208000
X+177000
X+174000
X+173000
X+177000Y+211000
X+176000
X+173000
X+174000
X+175000Y+208000
X+178000
X+172000
X+178000Y+211000
X+175000
X+172000
X+176000Y+213000
X+177000
X+174000
X+173000
X+177000Y+216000
X+176000
X+173000
X+174000
X+175000Y+213000
X+178000
X+172000
X+178000Y+216000
X+175000
X+172000
X+171000Y+207000
X+174000
X+191500Y+108000
X+189500
X+187000Y+120000
Y+118000
X+189500Y+117000
Y+118000
X+192500Y+117000
Y+118000
X+190000Y+129500
X+191000
X+188000
X+187000
X+191000Y+132500
X+190000
X+187000
X+188000
X+189000Y+129500
X+192000
X+186000
X+192000Y+132500
X+189000
X+186000
X+190000Y+124500
X+191000
X+188000
X+187000
X+191000Y+127500
X+190000
X+187000
X+188000
X+189000Y+124500
X+192000
X+186000
X+192000Y+127500
X+189000
X+186000
Y+123500
X+187000
X+188000
X+189000
X+191000Y+128500
X+188000
X+187000
X+186000
X+190000Y+140000
X+191000
X+188000
X+187000
X+191000Y+143000
X+190000
X+187000
X+188000
X+189000Y+140000
X+192000
X+186000
X+192000Y+143000
X+189000
X+186000
X+190000Y+135000
X+191000
X+188000
X+187000
X+191000Y+138000
X+190000
X+187000
X+188000
X+189000Y+135000
X+192000
X+186000
X+192000Y+138000
X+189000
X+186000
X+192000Y+144000
X+189000
X+185000
X+182000
X+190000Y+151000
X+191000
X+188000
X+187000
X+191000Y+154000
X+190000
X+187000
X+188000
X+189000Y+151000
X+192000
X+186000
X+192000Y+154000
X+189000
X+186000
X+190000Y+146000
X+191000
X+188000
X+187000
X+191000Y+149000
X+190000
X+187000
X+188000
X+189000Y+146000
X+192000
X+186000
X+192000Y+149000
X+189000
X+186000
X+184000Y+165000
X+183000
X+187000
X+186000
X+190000
X+189000
X+192000
X+184000Y+162000
X+183000
X+187000
X+186000
X+190000
X+189000
X+192000
X+185000Y+165000
X+188000
X+191000
X+185000Y+162000
X+188000
X+191000
X+182000Y+167500
X+185000
X+189000Y+174000
X+187000
X+185000
X+182000
X+189000Y+185000
Y+183000
X+183000Y+192000
X+186000
X+194500Y+125000
Y+128000
X+103500Y+217500
Y+215500
X+111000Y+145000
X+114000
X+113000
X+116000
X+117000
X+111000Y+142000
X+113000
X+114000
X+116000
X+117000
X+115000Y+145000
X+112000
X+118000
X+112000Y+142000
X+115000
X+118000
X+114000Y+194000
Y+195000
Y+191000
Y+192000
Y+188000
Y+189000
Y+186000
X+111000Y+194000
Y+195000
Y+191000
Y+192000
Y+188000
Y+189000
Y+186000
X+114000Y+193000
Y+190000
Y+187000
X+111000Y+193000
Y+190000
Y+187000
X+119000Y+194000
Y+195000
Y+191000
Y+192000
Y+188000
Y+189000
Y+186000
X+116000Y+194000
Y+195000
Y+191000
Y+192000
Y+188000
Y+189000
Y+186000
X+119000Y+193000
Y+190000
Y+187000
X+116000Y+193000
Y+190000
Y+187000
X+120000Y+169000
Y+171000
X+113000Y+184500
X+112000
X+115000
X+116000
X+112000Y+181500
X+113000
X+116000
X+115000
X+114000Y+184500
X+111000
X+117000
X+111000Y+181500
X+114000
X+117000
Y+157000
X+116000
X+118000
X+115000
X+138000Y+193000
Y+195000
X+153000Y+133500
Y+135500
X+150000Y+147000
X+149000
X+152000
X+153000
X+149000Y+144000
X+150000
X+153000
X+152000
X+151000Y+147000
X+148000
X+154000
X+148000Y+144000
X+151000
X+154000
X+155500Y+146000
Y+144000
X+149000Y+154000
Y+157000
Y+156000
Y+159000
Y+160000
X+152000Y+154000
Y+156000
Y+157000
Y+160000
Y+159000
X+149000Y+158000
Y+155000
Y+161000
X+152000Y+155000
Y+158000
Y+161000
X+150000Y+196000
X+149000
X+152000
X+153000
X+149000Y+193000
X+150000
X+153000
X+152000
X+151000Y+196000
X+148000
X+154000
X+148000Y+193000
X+151000
X+154000
X+150000Y+171000
X+149000
X+152000
X+153000
X+149000Y+168000
X+150000
X+153000
X+152000
X+151000Y+171000
X+148000
X+154000
X+148000Y+168000
X+151000
X+154000
X+150000Y+181000
X+149000
X+152000
X+153000
X+149000Y+178000
X+150000
X+153000
X+152000
X+151000Y+181000
X+148000
X+154000
X+148000Y+178000
X+151000
X+154000
X+150000Y+217000
X+149000
X+152000
X+153000
X+149000Y+214000
X+150000
X+153000
X+152000
X+151000Y+217000
X+148000
X+154000
X+148000Y+214000
X+151000
X+154000
X+150000Y+207000
X+149000
X+152000
X+153000
X+149000Y+204000
X+150000
X+153000
X+152000
X+151000Y+207000
X+148000
X+154000
X+148000Y+204000
X+151000
X+154000
X+171000Y+193000
Y+195000
X+176000Y+192000
X+177000
X+174000
X+173000
X+177000Y+195000
X+176000
X+173000
X+174000
X+175000Y+192000
X+178000
X+172000
X+178000Y+195000
X+175000
X+172000
X+176000Y+203000
X+177000
X+174000
X+173000
X+177000Y+206000
X+176000
X+173000
X+174000
X+175000Y+203000
X+178000
X+172000
X+178000Y+206000
X+175000
X+172000
X+186500Y+111000
X+185500
X+188500
X+186500Y+108000
X+185500
X+188500
X+187500Y+111000
Y+108000
X+182000Y+168500
X+185000
X+183000Y+218000
X+186000
X+106000Y+197000
Y+196000
Y+200000
Y+199000
Y+203000
Y+202000
Y+205000
X+109000Y+197000
Y+196000
Y+200000
Y+199000
Y+203000
Y+202000
Y+205000
X+106000Y+198000
Y+201000
Y+204000
X+109000Y+198000
Y+201000
Y+204000
X+111000Y+198000
Y+197000
Y+201000
Y+200000
Y+204000
Y+203000
Y+206000
X+114000Y+198000
Y+197000
Y+201000
Y+200000
Y+204000
Y+203000
Y+206000
X+111000Y+199000
Y+202000
Y+205000
X+114000Y+199000
Y+202000
Y+205000
X+116000Y+198000
Y+197000
Y+201000
Y+200000
Y+204000
Y+203000
Y+206000
X+119000Y+198000
Y+197000
Y+201000
Y+200000
Y+204000
Y+203000
Y+206000
X+116000Y+199000
Y+202000
Y+205000
X+119000Y+199000
Y+202000
Y+205000
X+127000Y+214000
Y+213000
Y+211000
Y+210000
Y+208000
Y+207000
Y+205000
Y+204000
Y+202000
Y+201000
Y+199000
Y+198000
Y+196000
Y+195000
Y+193000
Y+192000
Y+190000
Y+189000
Y+187000
Y+186000
Y+212000
Y+209000
Y+206000
Y+203000
Y+200000
Y+197000
Y+194000
Y+191000
Y+188000
Y+185000
X+123500Y+119000
X+121500
X+120000Y+121000
X+123000
X+123500Y+127000
X+121500
X+123000Y+161000
X+126000
X+123000Y+164000
X+120000
X+181500Y+109000
X+184500
X+167500Y+119000
X+169500
X+184000Y+151000
X+181000
X+193000Y+172000
X+190000
X+183000Y+217000
X+180000
X+131000Y+105000
X+133000
X+134000
X+136000
X+137000
X+132000
X+135000
X+138000
X+112500Y+117500
X+113500
X+110500
X+109500
X+113500Y+120500
X+112500
X+109500
X+110500
X+111500Y+117500
X+114500
X+108500
X+114500Y+120500
X+111500
X+108500
X+123500Y+111000
X+121500
X+112500Y+122500
X+113500
X+110500
X+109500
X+113500Y+125500
X+112500
X+109500
X+110500
X+111500Y+122500
X+114500
X+108500
X+114500Y+125500
X+111500
X+108500
X+112500Y+128500
X+113500
X+110500
X+109500
X+113500Y+131500
X+112500
X+109500
X+110500
X+111500Y+128500
X+114500
X+108500
X+114500Y+131500
X+111500
X+108500
X+130000Y+142500
X+133000
X+132000
X+135000
X+136000
X+130000Y+139500
X+132000
X+133000
X+136000
X+135000
X+134000Y+142500
X+131000
X+137000
X+131000Y+139500
X+134000
X+137000
X+144000Y+142000
X+145000
X+142000
X+141000
X+145000Y+145000
X+144000
X+141000
X+142000
X+143000Y+142000
X+146000
X+140000
X+146000Y+145000
X+143000
X+140000
X+144000Y+137000
X+145000
X+142000
X+141000
X+145000Y+140000
X+144000
X+141000
X+142000
X+143000Y+137000
X+146000
X+140000
X+146000Y+140000
X+143000
X+140000
X+125500Y+139500
X+126500
X+123500
X+122500
X+126500Y+142500
X+125500
X+122500
X+123500
X+124500Y+139500
X+127500
X+121500
X+127500Y+142500
X+124500
X+121500
X+110500Y+135500
X+111500
X+108500
X+107500
X+111500Y+138500
X+110500
X+107500
X+108500
X+109500Y+135500
X+112500
X+106500
X+112500Y+138500
X+109500
X+106500
X+123500Y+135000
X+121500
X+130000Y+152500
X+133000
X+132000
X+135000
X+136000
X+130000Y+149500
X+132000
X+133000
X+135000
X+136000
X+134000Y+152500
X+131000
X+137000
X+131000Y+149500
X+134000
X+137000
X+144000Y+147000
X+145000
X+142000
X+141000
X+145000Y+150000
X+144000
X+141000
X+142000
X+143000Y+147000
X+146000
X+140000
X+146000Y+150000
X+143000
X+140000
X+144000Y+152000
X+145000
X+142000
X+141000
X+145000Y+155000
X+144000
X+141000
X+142000
X+143000Y+152000
X+146000
X+140000
X+146000Y+155000
X+143000
X+140000
X+127500Y+149500
X+124500
X+125500
X+122500
X+121500
X+127500Y+152500
X+125500
X+124500
X+122500
X+121500
X+123500Y+149500
X+126500
X+120500
X+126500Y+152500
X+123500
X+120500
X+133000Y+153500
X+132000
X+118000Y+158000
X+116000
X+115000
X+113000
X+112000
X+110000
X+109000
X+107000
X+106000
X+118000Y+164000
X+116000
X+115000
X+113000
X+112000
X+110000
X+109000
X+107000
X+106000
X+117000Y+158000
X+114000
X+111000
X+108000
X+105000
X+117000Y+164000
X+114000
X+111000
X+105000
X+108000
X+144000Y+162000
X+145000
X+142000
X+141000
X+145000Y+165000
X+144000
X+141000
X+142000
X+143000Y+162000
X+146000
X+140000
X+146000Y+165000
X+143000
X+140000
X+130000Y+168000
X+133000
X+132000
X+135000
X+136000
X+130000Y+165000
X+132000
X+133000
X+135000
X+136000
X+134000Y+168000
X+131000
X+137000
X+131000Y+165000
X+134000
X+137000
X+130000Y+163000
X+133000
X+132000
X+135000
X+136000
X+130000Y+160000
X+132000
X+133000
X+135000
X+136000
X+134000Y+163000
X+131000
X+137000
X+131000Y+160000
X+134000
X+137000
X+125000
X+126000
X+123000
X+122000
X+126000Y+163000
X+125000
X+122000
X+123000
X+124000Y+160000
X+127000
X+121000
X+127000Y+163000
X+124000
X+121000
X+131000Y+159000
X+132000
X+130000Y+178000
X+133000
X+132000
X+135000
X+136000
X+130000Y+175000
X+132000
X+133000
X+135000
X+136000
X+134000Y+178000
X+131000
X+137000
X+131000Y+175000
X+134000
X+137000
X+130000Y+173000
X+133000
X+132000
X+135000
X+136000
X+130000Y+170000
X+132000
X+133000
X+135000
X+136000
X+134000Y+173000
X+131000
X+137000
X+131000Y+170000
X+134000
X+137000
X+116000Y+174500
X+117000
X+113000
X+114000
X+110000
X+111000
X+108000
X+116000Y+177500
X+117000
X+113000
X+114000
X+110000
X+111000
X+108000
X+115000Y+174500
X+112000
X+109000
X+115000Y+177500
X+112000
X+109000
X+146000Y+177000
X+143000
X+144000
X+141000
X+140000
X+146000Y+180000
X+144000
X+143000
X+141000
X+140000
X+142000Y+177000
X+145000
X+139000
X+145000Y+180000
X+142000
X+139000
X+144000Y+172000
X+145000
X+142000
X+141000
X+145000Y+175000
X+144000
X+141000
X+142000
X+143000Y+172000
X+146000
X+140000
X+146000Y+175000
X+143000
X+140000
X+110000Y+180000
X+111000
X+113000
X+114000
X+116000
X+117000
X+109000
X+112000
X+115000
X+130000Y+188000
X+133000
X+132000
X+135000
X+136000
X+130000Y+185000
X+132000
X+133000
X+135000
X+136000
X+134000Y+188000
X+131000
X+137000
X+131000Y+185000
X+134000
X+137000
X+146000Y+182000
X+143000
X+144000
X+141000
X+140000
X+146000Y+185000
X+144000
X+143000
X+141000
X+140000
X+142000Y+182000
X+145000
X+139000
X+145000Y+185000
X+142000
X+139000
X+144000Y+187000
X+145000
X+142000
X+141000
X+145000Y+190000
X+144000
X+141000
X+142000
X+143000Y+187000
X+146000
X+140000
X+146000Y+190000
X+143000
X+140000
X+130000Y+198000
X+133000
X+132000
X+135000
X+136000
X+130000Y+195000
X+132000
X+133000
X+135000
X+136000
X+134000Y+198000
X+131000
X+137000
X+131000Y+195000
X+134000
X+137000
X+130000Y+203000
X+133000
X+132000
X+135000
X+136000
X+130000Y+200000
X+132000
X+133000
X+135000
X+136000
X+134000Y+203000
X+131000
X+137000
X+131000Y+200000
X+134000
X+137000
X+143000Y+197000
X+144000
X+141000
X+140000
X+144000Y+200000
X+143000
X+140000
X+141000
X+142000Y+197000
X+145000
X+139000
X+145000Y+200000
X+142000
X+139000
X+130000Y+213000
X+133000
X+132000
X+135000
X+136000
X+130000Y+210000
X+132000
X+133000
X+135000
X+136000
X+134000Y+213000
X+131000
X+137000
X+131000Y+210000
X+134000
X+137000
X+109000Y+215000
Y+212000
Y+213000
Y+210000
Y+209000
X+106000Y+215000
Y+213000
Y+212000
Y+209000
Y+210000
X+109000Y+211000
Y+214000
Y+208000
X+106000Y+214000
Y+211000
Y+208000
X+124000Y+215000
Y+212000
Y+213000
Y+210000
Y+209000
X+121000Y+215000
Y+213000
Y+212000
Y+209000
Y+210000
X+124000Y+211000
Y+214000
Y+208000
X+121000Y+214000
Y+211000
Y+208000
X+144000Y+214000
X+145000
X+142000
X+141000
X+145000Y+217000
X+144000
X+141000
X+142000
X+143000Y+214000
X+146000
X+140000
X+146000Y+217000
X+143000
X+140000
X+146000Y+209000
X+143000
X+144000
X+141000
X+140000
X+146000Y+212000
X+144000
X+143000
X+141000
X+140000
X+142000Y+209000
X+145000
X+139000
X+145000Y+212000
X+142000
X+139000
X+162000Y+113000
X+163000
X+159000
X+160000
X+156000
X+157000
X+154000
X+162000Y+116000
X+163000
X+159000
X+160000
X+156000
X+157000
X+154000
X+161000Y+113000
X+158000
X+155000
X+161000Y+116000
X+158000
X+155000
X+162000Y+118000
X+163000
X+159000
X+160000
X+156000
X+157000
X+154000
X+162000Y+121000
X+163000
X+159000
X+160000
X+156000
X+157000
X+154000
X+161000Y+118000
X+158000
X+155000
X+161000Y+121000
X+158000
X+155000
X+191000Y+111000
X+194000
X+180000Y+132500
X+179000
X+182000
X+183000
X+179000Y+129500
X+180000
X+183000
X+182000
X+181000Y+132500
X+178000
X+184000
X+178000Y+129500
X+181000
X+184000
X+180000Y+127500
X+179000
X+182000
X+183000
X+179000Y+124500
X+180000
X+183000
X+182000
X+181000Y+127500
X+178000
X+184000
X+178000Y+124500
X+181000
X+184000
X+175000Y+129500
X+172000
X+173000
X+170000
X+169000
X+175000Y+132500
X+173000
X+172000
X+170000
X+169000
X+171000Y+129500
X+174000
X+168000
X+174000Y+132500
X+171000
X+168000
X+175000Y+124500
X+172000
X+173000
X+170000
X+169000
X+175000Y+127500
X+173000
X+172000
X+170000
X+169000
X+171000Y+124500
X+174000
X+168000
X+174000Y+127500
X+171000
X+168000
X+162000Y+128000
X+159000
X+160000
X+157000
X+156000
X+162000Y+131000
X+160000
X+159000
X+157000
X+156000
X+158000Y+128000
X+161000
X+155000
X+161000Y+131000
X+158000
X+155000
X+162000Y+123000
X+159000
X+160000
X+157000
X+156000
X+162000Y+126000
X+160000
X+159000
X+157000
X+156000
X+158000Y+123000
X+161000
X+155000
X+161000Y+126000
X+158000
X+155000
X+180000Y+143000
X+179000
X+182000
X+183000
X+179000Y+140000
X+180000
X+183000
X+182000
X+181000Y+143000
X+178000
X+184000
X+178000Y+140000
X+181000
X+184000
X+177000Y+138000
X+180000
X+179000
X+182000
X+183000
X+177000Y+135000
X+179000
X+180000
X+183000
X+182000
X+181000Y+138000
X+178000
X+184000
X+178000Y+135000
X+181000
X+184000
X+165000Y+138000
X+166000
X+162000
X+163000
X+159000
X+160000
X+157000
X+165000Y+141000
X+166000
X+162000
X+163000
X+159000
X+160000
X+157000
X+164000Y+138000
X+161000
X+158000
X+164000Y+141000
X+161000
X+158000
X+180000Y+149000
X+179000
X+182000
X+183000
X+179000Y+146000
X+180000
X+183000
X+182000
X+181000Y+149000
X+178000
X+184000
X+178000Y+146000
X+181000
X+184000
X+180000Y+155000
X+179000
X+182000
X+183000
X+179000Y+152000
X+180000
X+183000
X+182000
X+181000Y+155000
X+178000
X+184000
X+178000Y+152000
X+181000
X+184000
X+165000Y+148000
X+166000
X+162000
X+163000
X+159000
X+160000
X+157000
X+165000Y+151000
X+166000
X+162000
X+163000
X+159000
X+160000
X+157000
X+164000Y+148000
X+161000
X+158000
X+164000Y+151000
X+161000
X+158000
X+160000Y+153000
X+161000
X+158000
X+157000
X+161000Y+156000
X+160000
X+157000
X+158000
X+159000Y+153000
X+162000
X+156000
X+162000Y+156000
X+159000
X+156000
X+184000Y+150000
X+181000
X+166000Y+165000
X+165000
X+168000
X+169000
X+165000Y+162000
X+166000
X+169000
X+168000
X+167000Y+165000
X+164000
X+170000
X+164000Y+162000
X+167000
X+170000
X+180000
X+181000
X+177000
X+178000
X+174000
X+175000
X+172000
X+180000Y+165000
X+181000
X+177000
X+178000
X+174000
X+175000
X+172000
X+179000Y+162000
X+176000
X+173000
X+179000Y+165000
X+176000
X+173000
X+163000Y+158000
X+160000
X+161000
X+158000
X+157000
X+163000Y+161000
X+161000
X+160000
X+157000
X+158000
X+159000Y+158000
X+162000
X+156000
X+162000Y+161000
X+159000
X+156000
X+160000Y+163000
X+161000
X+158000
X+157000
X+161000Y+166000
X+160000
X+157000
X+158000
X+159000Y+163000
X+162000
X+156000
X+162000Y+166000
X+159000
X+156000
X+166000Y+180000
X+165000
X+168000
X+169000
X+165000Y+177000
X+166000
X+169000
X+168000
X+167000Y+180000
X+164000
X+170000
X+164000Y+177000
X+167000
X+170000
X+166000Y+175000
X+165000
X+168000
X+169000
X+165000Y+172000
X+166000
X+169000
X+168000
X+167000Y+175000
X+164000
X+170000
X+164000Y+172000
X+167000
X+170000
X+183000Y+176000
X+184000
X+186000
X+187000
X+189000
X+190000
X+192000
X+193000
X+183000Y+170000
X+184000
X+186000
X+187000
X+190000
X+189000
X+192000
X+193000
X+182000Y+176000
X+185000
X+188000
X+191000
X+182000Y+170000
X+185000
X+188000
X+191000
X+160000Y+173000
X+161000
X+158000
X+157000
X+161000Y+176000
X+160000
X+157000
X+158000
X+159000Y+173000
X+162000
X+156000
X+162000Y+176000
X+159000
X+156000
X+160000Y+178000
X+161000
X+158000
X+157000
X+161000Y+181000
X+160000
X+157000
X+158000
X+159000Y+178000
X+162000
X+156000
X+162000Y+181000
X+159000
X+156000
X+166000Y+190000
X+165000
X+168000
X+169000
X+165000Y+187000
X+166000
X+169000
X+168000
X+167000Y+190000
X+164000
X+170000
X+164000Y+187000
X+167000
X+170000
X+180000Y+191000
X+183000
X+182000
X+185000
X+186000
X+180000Y+188000
X+182000
X+183000
X+186000
X+185000
X+184000Y+191000
X+181000
X+187000
X+181000Y+188000
X+184000
X+187000
X+181000Y+186000
X+184000
X+183000
X+186000
X+187000
X+181000Y+183000
X+183000
X+184000
X+187000
X+186000
X+185000Y+186000
X+182000
X+188000
X+182000Y+183000
X+185000
X+188000
X+160000
X+161000
X+158000
X+157000
X+161000Y+186000
X+160000
X+157000
X+158000
X+159000Y+183000
X+162000
X+156000
X+162000Y+186000
X+159000
X+156000
X+160000Y+188000
X+161000
X+158000
X+157000
X+161000Y+191000
X+160000
X+157000
X+158000
X+159000Y+188000
X+162000
X+156000
X+162000Y+191000
X+159000
X+156000
X+166000Y+185000
X+165000
X+168000
X+169000
X+165000Y+182000
X+166000
X+169000
X+168000
X+167000Y+185000
X+164000
X+170000
X+164000Y+182000
X+167000
X+170000
X+191000Y+186000
X+194000
X+165000Y+200000
X+164000
X+167000
X+168000
X+164000Y+197000
X+165000
X+168000
X+167000
X+166000Y+200000
X+163000
X+169000
X+163000Y+197000
X+166000
X+169000
X+179000Y+201000
X+182000
X+181000
X+184000
X+185000
X+179000Y+198000
X+181000
X+182000
X+185000
X+184000
X+183000Y+201000
X+180000
X+186000
X+180000Y+198000
X+183000
X+186000
X+159000Y+199000
X+160000
X+157000
X+156000
X+160000Y+202000
X+159000
X+156000
X+157000
X+158000Y+199000
X+161000
X+155000
X+161000Y+202000
X+158000
X+155000
X+192000
X+193000
X+190000
X+189000
X+193000Y+205000
X+192000
X+189000
X+190000
X+191000Y+202000
X+194000
X+188000
X+194000Y+205000
X+191000
X+188000
X+192000Y+197000
X+193000
X+190000
X+189000
X+193000Y+200000
X+192000
X+189000
X+190000
X+191000Y+197000
X+194000
X+188000
X+194000Y+200000
X+191000
X+188000
X+166000Y+210000
X+165000
X+168000
X+169000
X+165000Y+207000
X+166000
X+169000
X+168000
X+167000Y+210000
X+164000
X+170000
X+164000Y+207000
X+167000
X+170000
X+182000Y+216000
X+181000
X+184000
X+185000
X+181000Y+213000
X+182000
X+185000
X+184000
X+183000Y+216000
X+180000
X+186000
X+180000Y+213000
X+183000
X+186000
X+182000Y+211000
X+181000
X+184000
X+185000
X+181000Y+208000
X+182000
X+185000
X+184000
X+183000Y+211000
X+180000
X+186000
X+180000Y+208000
X+183000
X+186000
X+160000Y+214000
X+161000
X+158000
X+157000
X+161000Y+217000
X+160000
X+157000
X+158000
X+159000Y+214000
X+162000
X+156000
X+162000Y+217000
X+159000
X+156000
X+160000Y+209000
X+161000
X+158000
X+157000
X+161000Y+212000
X+160000
X+157000
X+158000
X+159000Y+209000
X+162000
X+156000
X+162000Y+212000
X+159000
X+156000
X+192000
X+193000
X+190000
X+189000
X+193000Y+215000
X+192000
X+189000
X+190000
X+191000Y+212000
X+194000
X+188000
X+194000Y+215000
X+191000
X+188000
X+192000Y+207000
X+193000
X+190000
X+189000
X+193000Y+210000
X+192000
X+189000
X+190000
X+191000Y+207000
X+194000
X+188000
X+194000Y+210000
X+191000
X+188000
X+166000Y+215000
X+165000
X+168000
X+169000
X+165000Y+212000
X+166000
X+169000
X+168000
X+167000Y+215000
X+164000
X+170000
X+164000Y+212000
X+167000
X+170000
X+130000Y+147500
X+133000
X+132000
X+135000
X+136000
X+130000Y+144500
X+132000
X+133000
X+135000
X+136000
X+134000Y+147500
X+131000
X+137000
X+131000Y+144500
X+134000
X+137000
X+127500
X+124500
X+125500
X+122500
X+121500
X+127500Y+147500
X+125500
X+124500
X+122500
X+121500
X+123500Y+144500
X+126500
X+120500
X+126500Y+147500
X+123500
X+120500
X+130000Y+183000
X+133000
X+132000
X+135000
X+136000
X+130000Y+180000
X+132000
X+133000
X+135000
X+136000
X+134000Y+183000
X+131000
X+137000
X+131000Y+180000
X+134000
X+137000
X+130000Y+193000
X+133000
X+132000
X+135000
X+136000
X+130000Y+190000
X+132000
X+133000
X+135000
X+136000
X+134000Y+193000
X+131000
X+137000
X+131000Y+190000
X+134000
X+137000
X+109000Y+191000
Y+192000
Y+189000
Y+188000
X+106000Y+192000
Y+191000
Y+188000
Y+189000
X+109000Y+190000
Y+193000
Y+187000
X+106000Y+193000
Y+190000
Y+187000
X+124000Y+194000
Y+195000
Y+191000
Y+192000
Y+188000
Y+189000
Y+186000
X+121000Y+194000
Y+195000
Y+191000
Y+192000
Y+188000
Y+189000
Y+186000
X+124000Y+193000
Y+190000
Y+187000
X+121000Y+193000
Y+190000
Y+187000
X+123000Y+181500
X+124000
X+121000
X+120000
X+124000Y+184500
X+123000
X+120000
X+121000
X+122000Y+181500
X+125000
X+119000
X+125000Y+184500
X+122000
X+119000
X+144000Y+167000
X+145000
X+142000
X+141000
X+145000Y+170000
X+144000
X+141000
X+142000
X+143000Y+167000
X+146000
X+140000
X+146000Y+170000
X+143000
X+140000
X+125000Y+168000
X+126000
X+123000
X+122000
X+126000Y+171000
X+125000
X+122000
X+123000
X+124000Y+168000
X+127000
X+121000
X+127000Y+171000
X+124000
X+121000
X+125000Y+155000
X+126000
X+123000
X+122000
X+126000Y+158000
X+125000
X+122000
X+123000
X+124000Y+155000
X+127000
X+121000
X+127000Y+158000
X+124000
X+121000
X+130000
X+133000
X+132000
X+135000
X+136000
X+130000Y+155000
X+132000
X+133000
X+135000
X+136000
X+134000Y+158000
X+131000
X+137000
X+131000Y+155000
X+134000
X+137000
X+144000Y+157000
X+145000
X+142000
X+141000
X+145000Y+160000
X+144000
X+141000
X+142000
X+143000Y+157000
X+146000
X+140000
X+146000Y+160000
X+143000
X+140000
X+146000Y+192000
X+143000
X+144000
X+141000
X+140000
X+146000Y+195000
X+144000
X+143000
X+141000
X+140000
X+142000Y+192000
X+145000
X+139000
X+145000Y+195000
X+142000
X+139000
X+130000Y+208000
X+133000
X+132000
X+135000
X+136000
X+130000Y+205000
X+132000
X+133000
X+135000
X+136000
X+134000Y+208000
X+131000
X+137000
X+131000Y+205000
X+134000
X+137000
X+144000Y+204000
X+145000
X+142000
X+141000
X+145000Y+207000
X+144000
X+141000
X+142000
X+143000Y+204000
X+146000
X+140000
X+146000Y+207000
X+143000
X+140000
X+133000Y+218000
X+132000
X+135000
X+136000
X+132000Y+215000
X+133000
X+136000
X+135000
X+134000Y+218000
X+131000
X+137000
X+131000Y+215000
X+134000
X+137000
X+167000Y+110000
Y+109000
Y+113000
Y+112000
Y+116000
Y+115000
Y+118000
X+170000Y+110000
Y+109000
Y+113000
Y+112000
Y+116000
Y+115000
Y+118000
X+167000Y+111000
Y+114000
Y+117000
X+170000Y+111000
Y+114000
Y+117000
X+162000Y+108000
X+163000
X+159000
X+160000
X+156000
X+157000
X+154000
X+162000Y+111000
X+163000
X+159000
X+160000
X+156000
X+157000
X+154000
X+161000Y+108000
X+158000
X+155000
X+161000Y+111000
X+158000
X+155000
X+162000Y+133000
X+163000
X+159000
X+160000
X+156000
X+157000
X+154000
X+162000Y+136000
X+163000
X+159000
X+160000
X+156000
X+157000
X+154000
X+161000Y+133000
X+158000
X+155000
X+161000Y+136000
X+158000
X+155000
X+165000Y+143000
X+166000
X+162000
X+163000
X+159000
X+160000
X+157000
X+165000Y+146000
X+166000
X+162000
X+163000
X+159000
X+160000
X+157000
X+164000Y+143000
X+161000
X+158000
X+164000Y+146000
X+161000
X+158000
X+166000Y+195000
X+165000
X+168000
X+169000
X+165000Y+192000
X+166000
X+169000
X+168000
X+167000Y+195000
X+164000
X+170000
X+164000Y+192000
X+167000
X+170000
X+166000Y+170000
X+165000
X+168000
X+169000
X+165000Y+167000
X+166000
X+169000
X+168000
X+167000Y+170000
X+164000
X+170000
X+164000Y+167000
X+167000
X+170000
X+180000Y+196000
X+183000
X+182000
X+185000
X+186000
X+180000Y+193000
X+182000
X+183000
X+186000
X+185000
X+184000Y+196000
X+181000
X+187000
X+181000Y+193000
X+184000
X+187000
X+181000Y+181000
X+184000
X+183000
X+186000
X+187000
X+181000Y+178000
X+183000
X+184000
X+187000
X+186000
X+185000Y+181000
X+182000
X+188000
X+182000Y+178000
X+185000
X+188000
X+175500Y+157000
X+176500
X+172500
X+173500
X+169500
X+170500
X+167500
X+175500Y+160000
X+176500
X+172500
X+173500
X+169500
X+170500
X+167500
X+174500Y+157000
X+171500
X+168500
X+174500Y+160000
X+171500
X+168500
X+193000Y+195000
Y+192000
Y+193000
Y+190000
Y+189000
X+190000Y+195000
Y+193000
Y+192000
Y+189000
Y+190000
X+193000Y+191000
Y+194000
Y+188000
X+190000Y+194000
Y+191000
Y+188000
X+191000Y+181000
Y+180000
Y+183000
Y+184000
X+194000Y+180000
Y+181000
Y+184000
Y+183000
X+191000Y+182000
Y+179000
Y+185000
X+194000Y+179000
Y+182000
Y+185000
X+160000Y+193000
X+161000
X+158000
X+157000
X+161000Y+196000
X+160000
X+157000
X+158000
X+159000Y+193000
X+162000
X+156000
X+162000Y+196000
X+159000
X+156000
X+160000Y+168000
X+161000
X+158000
X+157000
X+161000Y+171000
X+160000
X+157000
X+158000
X+159000Y+168000
X+162000
X+156000
X+162000Y+171000
X+159000
X+156000
X+166000Y+205000
X+165000
X+168000
X+169000
X+165000Y+202000
X+166000
X+169000
X+168000
X+167000Y+205000
X+164000
X+170000
X+164000Y+202000
X+167000
X+170000
X+160000Y+204000
X+161000
X+158000
X+157000
X+161000Y+207000
X+160000
X+157000
X+158000
X+159000Y+204000
X+162000
X+156000
X+162000Y+207000
X+159000
X+156000
X+182000Y+206000
X+181000
X+184000
X+185000
X+181000Y+203000
X+182000
X+185000
X+184000
X+183000Y+206000
X+180000
X+186000
X+180000Y+203000
X+183000
X+186000
X+121000Y+198000
Y+197000
Y+201000
Y+200000
Y+204000
Y+203000
Y+206000
X+124000Y+198000
Y+197000
Y+201000
Y+200000
Y+204000
Y+203000
Y+206000
X+121000Y+199000
Y+202000
Y+205000
X+124000Y+199000
Y+202000
Y+205000
X+169000Y+136000
Y+139000
Y+138000
Y+142000
Y+141000
Y+145000
Y+144000
Y+148000
Y+147000
Y+151000
Y+150000
Y+153000
Y+154000
X+175000Y+136000
Y+138000
Y+139000
Y+141000
Y+142000
Y+144000
Y+145000
Y+147000
Y+148000
Y+151000
Y+150000
Y+153000
Y+154000
X+169000Y+146000
Y+143000
Y+140000
Y+137000
Y+152000
Y+149000
Y+155000
X+175000Y+137000
Y+140000
Y+143000
Y+146000
Y+149000
Y+152000
Y+155000
X+109000Y+142000
X+106000
X+107000
X+104000
X+103000
X+109000Y+145000
X+107000
X+106000
X+104000
X+103000
X+105000Y+142000
X+108000
X+102000
X+108000Y+145000
X+105000
X+102000
X+117000Y+147000
X+118000
X+114000
X+115000
X+111000
X+112000
X+108000
X+109000
X+105000
X+106000
X+103000
X+117000Y+153000
X+118000
X+114000
X+115000
X+111000
X+112000
X+109000
X+108000
X+105000
X+106000
X+103000
X+116000Y+147000
X+113000
X+110000
X+107000
X+104000
X+116000Y+153000
X+113000
X+110000
X+107000
X+104000
X+122000Y+173000
X+119000
X+120000
X+116000
X+117000
X+113000
X+114000
X+110000
X+111000
X+107000
X+108000
X+105000
X+104000
X+122000Y+179000
X+120000
X+119000
X+117000
X+116000
X+114000
X+113000
X+111000
X+110000
X+107000
X+108000
X+105000
X+104000
X+112000Y+173000
X+115000
X+118000
X+121000
X+106000
X+109000
X+103000
X+121000Y+179000
X+118000
X+115000
X+112000
X+109000
X+106000
X+103000
X+117000Y+167000
X+118000
X+114000
X+115000
X+111000
X+112000
X+108000
X+109000
X+105000
X+106000
X+103000
X+117000Y+170000
X+118000
X+114000
X+115000
X+111000
X+112000
X+109000
X+108000
X+105000
X+106000
X+103000
X+116000Y+167000
X+113000
X+110000
X+107000
X+104000
X+110000Y+170000
X+113000
X+116000
X+104000
X+107000
X+109000Y+181500
X+106000
X+107000
X+104000
X+103000
X+109000Y+184500
X+107000
X+106000
X+104000
X+103000
X+105000Y+181500
X+108000
X+102000
X+108000Y+184500
X+105000
X+102000
T03
X+110000Y+101500
X+111000
X+113000
X+114000
X+116000
X+117000
X+119000
X+120000
X+122000
X+123000
X+125000
X+126000
X+128000
X+129000
X+131000
X+132000
X+134000
X+135000
X+137000
X+138000
X+140000
X+144000
X+146000
X+147000
X+149000
X+150000
X+152000
X+153000
X+155000
X+156000
X+158000
X+159000
X+161000
X+110000Y+103500
X+111000
X+113000
X+114000
X+116000
X+117000
X+119000
X+120000
X+122000
X+123000
X+125000
X+126000
X+128000
X+129000
X+131000
X+132000
X+134000
X+135000
X+137000
X+138000
X+140000
X+144000
X+146000
X+147000
X+149000
X+150000
X+152000
X+153000
X+155000
X+156000
X+158000
X+159000
X+161000
X+112000Y+101500
X+124000
X+121000
X+118000
X+115000
X+136000
X+133000
X+130000
X+127000
X+139000
X+148000
X+145000
X+160000
X+157000
X+154000
X+151000
X+112000Y+103500
X+124000
X+121000
X+118000
X+115000
X+136000
X+133000
X+130000
X+127000
X+139000
X+148000
X+145000
X+160000
X+157000
X+154000
X+151000
X+119750Y+115500
X+121750
X+120750
X+122750
X+124750
X+123750
X+125750
X+127750
X+126750
X+128750
X+130750
X+129750
X+131750
X+133750
X+132750
X+134750
X+136750
X+135750
X+137750
X+139750
X+138750
X+140750
X+142750
X+141750
X+143750
X+145750
X+144750
X+146750
X+148750
X+147750
X+149750
X+119750Y+117500
X+121750
X+122750
X+120750
X+124750
X+123750
X+125750
X+127750
X+126750
X+128750
X+130750
X+129750
X+131750
X+133750
X+132750
X+134750
X+136750
X+135750
X+137750
X+139750
X+138750
X+140750
X+142750
X+141750
X+143750
X+145750
X+144750
X+146750
X+148750
X+147750
X+149750
X+119750Y+123500
X+121750
X+120750
X+122750
X+124750
X+123750
X+125750
X+127750
X+126750
X+128750
X+130750
X+129750
X+131750
X+133750
X+132750
X+134750
X+136750
X+135750
X+137750
X+139750
X+138750
X+140750
X+142750
X+141750
X+143750
X+145750
X+144750
X+146750
X+148750
X+147750
X+149750
X+119750Y+125500
X+121750
X+122750
X+120750
X+124750
X+123750
X+125750
X+127750
X+126750
X+128750
X+130750
X+129750
X+131750
X+133750
X+132750
X+134750
X+136750
X+135750
X+137750
X+139750
X+138750
X+140750
X+142750
X+141750
X+143750
X+145750
X+144750
X+146750
X+148750
X+147750
X+149750
X+119750Y+131500
X+121750
X+120750
X+122750
X+124750
X+123750
X+125750
X+127750
X+126750
X+128750
X+130750
X+129750
X+131750
X+133750
X+132750
X+134750
X+136750
X+135750
X+137750
X+139750
X+138750
X+140750
X+142750
X+141750
X+143750
X+145750
X+144750
X+146750
X+148750
X+147750
X+149750
X+119750Y+133500
X+121750
X+122750
X+120750
X+124750
X+123750
X+125750
X+127750
X+126750
X+128750
X+130750
X+129750
X+131750
X+133750
X+132750
X+134750
X+136750
X+135750
X+137750
X+139750
X+138750
X+140750
X+142750
X+141750
X+143750
X+145750
X+144750
X+146750
X+148750
X+147750
X+149750
X+119750Y+107500
X+121750
X+120750
X+122750
X+124750
X+123750
X+125750
X+127750
X+126750
X+128750
X+130750
X+129750
X+131750
X+133750
X+132750
X+134750
X+136750
X+135750
X+137750
X+139750
X+138750
X+140750
X+142750
X+141750
X+143750
X+145750
X+144750
X+146750
X+148750
X+147750
X+149750
X+119750Y+109500
X+121750
X+122750
X+120750
X+124750
X+123750
X+125750
X+127750
X+126750
X+128750
X+130750
X+129750
X+131750
X+133750
X+132750
X+134750
X+136750
X+135750
X+137750
X+139750
X+138750
X+140750
X+142750
X+141750
X+143750
X+145750
X+144750
X+146750
X+148750
X+147750
X+149750
T04
X+193500Y+128500
Y+127500
Y+119500
Y+120500
X+104500Y+132500
Y+131500
X+103500Y+130500
Y+132500
Y+131500
X+102500Y+212000
Y+213000
Y+209000
Y+210000
Y+206000
Y+207000
Y+203000
Y+204000
Y+200000
Y+201000
Y+197000
Y+198000
Y+194000
Y+195000
Y+191000
Y+192000
Y+189000
Y+211000
Y+208000
Y+205000
Y+202000
Y+199000
Y+196000
Y+193000
Y+190000
X+103500Y+212000
Y+213000
Y+209000
Y+210000
Y+206000
Y+207000
Y+203000
Y+204000
Y+200000
Y+201000
Y+197000
Y+198000
Y+194000
Y+195000
Y+191000
Y+192000
Y+189000
Y+211000
Y+208000
Y+205000
Y+202000
Y+199000
Y+196000
Y+193000
Y+190000
X+194000Y+110000
X+193000
X+191000
X+192000
X+174000Y+217500
X+172000
X+173000
X+169500Y+103500
Y+104500
X+171500Y+102500
X+174500
X+173500
X+177500
X+176500
X+180500
X+179500
X+183500
X+182500
X+186500
X+185500
X+189500
X+188500
X+172500
X+175500
X+178500
X+181500
X+184500
X+187500
X+190500
X+171500Y+103500
X+174500
X+173500
X+177500
X+176500
X+180500
X+179500
X+183500
X+182500
X+186500
X+185500
X+189500
X+188500
X+172500
X+175500
X+178500
X+181500
X+184500
X+187500
X+190500
X+193500Y+125000
Y+126000
X+169000Y+121000
X+168000
X+172000
X+171000
X+175000
X+174000
X+178000
X+177000
X+181000
X+180000
X+183000
X+184000
X+170000
X+173000
X+176000
X+179000
X+182000
X+169000Y+122000
X+168000
X+172000
X+171000
X+175000
X+174000
X+178000
X+177000
X+181000
X+180000
X+183000
X+184000
X+170000
X+173000
X+176000
X+179000
X+182000
X+193000Y+167500
Y+168500
X+181000Y+158000
X+180000
X+184000
X+183000
X+187000
X+186000
X+190000
X+189000
X+188000
X+185000
X+182000
X+179000
X+191000
X+181000Y+159000
X+180000
X+184000
X+183000
X+187000
X+186000
X+190000
X+189000
X+188000
X+185000
X+182000
X+179000
X+191000
T05
X+150000Y+119000
X+148000
X+149000
X+150000Y+122000
X+148000
X+149000
X+150000Y+127000
X+148000
X+149000
X+150000Y+130000
X+148000
X+149000
X+126000Y+167000
X+127000
X+126000Y+165000
X+127000
X+150000Y+135000
X+148000
X+149000
X+180500Y+174000
Y+175000
Y+173000
X+189500Y+105500
X+190500
X+188000Y+167500
X+186000
X+187000
X+150000Y+192000
X+151000
X+180250Y+170500
X+172375
X+192000Y+119500
Y+121500
Y+120500
X+150000Y+106000
X+148000
X+149000
X+136000Y+209000
X+137000
X+150000Y+114000
X+148000
X+149000
X+150000Y+111000
X+148000
X+149000
X+182500Y+110500
X+181500
X+183500
T06
X+179000Y+110500
X+177000
X+178000
T07
X+187000Y+122000
X+189000
X+141000Y+201500
X+143000
X+190000Y+183000
Y+182000
T08
X+127000Y+181250
T09
X+177059Y+113417
Y+115583
X+180366Y+113417
Y+115583
X+183673Y+113417
Y+115583
X+185327Y+113417
Y+115583
X+188634Y+113417
Y+115583
X+191941Y+113417
Y+115583
X+178713Y+113417
X+182020
Y+115583
X+178713
X+190287Y+113417
X+186980
X+190287Y+115583
X+186980
T10
X+127000Y+217750
T11
X+175209Y+113575
X+193791
T12
X+193500Y+106500
Y+217500
Y+155500
X+104000Y+106500
X+113000Y+217500
X+165000Y+106500
Y+217500
X+104000Y+137500
Y+155500
X+165000
T00
M30
