M48
;FILE_FORMAT=2:4
INCH
;TYPE=PLATED
T01C0.012
T02C0.031
T03C0.035
T04C0.038
T05C0.040
T06C0.044
T07C0.047
T08C0.055
T09C0.059
T10C0.087
T11C0.118
T12C0.150
%
T01
X+101760Y+149320
Y+155400
X+101640Y+172280
X+101600Y+173280
X+101760Y+176200
X+101680Y+201240
X+101480Y+203000
X+101440Y+202160
X+101600Y+207400
X+101480Y+212000
X+101720Y+210400
X+102560Y+126360
X+102800Y+136000
X+104600Y+141320
X+103640Y+153760
X+102760Y+154240
X+103000Y+158240
X+104640Y+158800
X+104400Y+157280
X+103440Y+157000
X+102280Y+161520
X+102760Y+165480
X+103000Y+166200
X+102600Y+165960
Y+167640
X+102760Y+168200
X+103160Y+169160
Y+168360
X+102520Y+168600
X+103680Y+172160
X+103440Y+171320
X+104160Y+173640
X+104320Y+172320
X+103040Y+176080
X+103920Y+175080
X+104160Y+176560
X+103400Y+175920
X+103160Y+176400
X+104640Y+177840
X+103400Y+177680
Y+177360
X+104000Y+180840
Y+182440
X+102640Y+180600
X+104360Y+183600
X+103760Y+185680
X+104400
X+103080Y+188280
X+104800
X+103080Y+186560
X+103760Y+186920
X+104640Y+196760
X+104000Y+198560
X+104800Y+199000
X+104320Y+202680
X+104800Y+203560
X+104240Y+208440
X+104080Y+207320
X+103920Y+213600
X+102400Y+214000
X+107080Y+126480
X+106600Y+127600
X+106880Y+130360
X+106200Y+129480
X+106080Y+136040
X+105640Y+141320
X+106000Y+143360
X+105640Y+149160
X+107640Y+148120
X+106640Y+147560
X+105640Y+157040
X+105360Y+160080
X+106320Y+166280
X+105320Y+167640
X+106160Y+169000
X+107360
X+105880Y+169240
X+106200Y+173640
X+106640Y+172600
X+107000Y+172320
X+105680Y+179480
X+105480Y+177360
X+105840Y+182000
X+107160
X+106160Y+180560
X+105840Y+180800
X+106840Y+182240
X+106200Y+183800
X+107640Y+183560
X+105800
X+107360Y+185680
X+107200Y+188040
X+106400Y+189320
X+107200Y+190720
X+106480Y+191120
X+106400Y+190640
X+106480Y+193400
X+105400Y+194000
X+105200Y+193000
X+107200Y+196240
X+107600Y+195600
X+107200Y+196880
X+106560Y+195200
X+107600Y+198560
X+106560Y+198320
X+106480Y+199400
X+107200Y+202000
Y+201600
X+107440Y+202360
X+107680Y+201360
X+106800Y+204440
X+107440Y+207680
X+107680Y+209360
X+105600Y+213560
X+110120Y+123440
X+108880Y+137200
X+110120Y+139400
X+109640Y+139080
X+109000Y+142600
X+109400Y+145400
X+109200Y+145960
X+108600Y+146280
X+110320Y+148320
X+109400Y+147560
X+108720Y+154720
X+108640Y+160080
X+108320Y+161440
X+108640Y+167720
Y+167400
X+110800Y+168360
X+110400Y+169520
X+109320Y+176800
X+110640Y+175000
X+109000Y+175080
X+109560Y+177840
X+109440Y+182640
X+108200Y+182000
X+109320Y+180480
X+110360
X+109680Y+180960
Y+182400
X+109000Y+180720
X+109640Y+183560
X+108200Y+184040
X+110000Y+183560
X+108840Y+186400
X+109000Y+188480
X+108200Y+187400
Y+186640
X+109800Y+187000
X+110120Y+187640
X+108520Y+191600
Y+190000
X+108280Y+189240
X+108520Y+194000
X+109400Y+194200
X+110360Y+194240
X+110720Y+193520
X+109320Y+192480
X+108480Y+194320
X+108280Y+192400
X+110520Y+196560
X+109640Y+197640
X+109080Y+195200
X+110400
X+110120Y+199960
X+109640Y+198400
Y+199400
X+108320Y+201800
X+109880Y+210560
X+112680Y+108640
X+112880Y+121080
X+111880Y+124080
X+113000Y+124960
X+112880Y+129600
X+113080Y+133080
X+112720Y+132760
X+112120Y+134640
X+113120Y+132240
X+113320Y+138280
X+112120Y+141480
X+111600Y+149600
X+112640Y+149320
X+111840Y+152440
Y+150320
X+112360Y+153920
X+113640Y+155120
X+111640Y+156200
X+111400Y+157320
X+112640Y+159280
X+113760Y+160080
X+113160Y+169520
X+113000Y+175920
X+113600Y+174880
X+111400Y+177840
X+113160Y+182120
X+112800
X+111920Y+182000
X+112880Y+182600
X+113800Y+182360
X+113160Y+183720
Y+185680
X+111920Y+183560
X+113800Y+183600
X+111720Y+184000
X+112840Y+188640
X+111400Y+188400
X+112600Y+186320
X+113280Y+187000
X+113600Y+188480
X+112600Y+191640
X+113560
X+112840Y+192400
X+111880Y+193240
X+113320
X+112840Y+193000
X+111960Y+192640
X+111400Y+194600
X+111640Y+192400
X+111400Y+197360
X+113360Y+195640
X+112960Y+197600
X+111400Y+196560
X+113600Y+195400
X+113240Y+201560
X+113480Y+201200
X+111960
Y+201680
X+112200Y+201440
X+111400Y+202600
X+113240Y+205560
X+111800Y+206560
X+113520Y+207640
X+115880Y+121280
X+116520Y+128080
X+116120Y+127480
X+115200Y+131160
X+114880Y+130920
X+116520Y+134000
X+114640Y+136080
X+115280
X+115400Y+140600
X+114360Y+140080
X+115520
X+115000Y+143600
X+116400Y+141480
X+115640Y+144360
Y+149520
Y+154920
X+114640Y+154880
X+116640Y+154680
X+115640Y+160080
X+114640Y+160320
X+116640Y+160080
X+115640Y+166040
X+114360Y+168880
X+115600Y+170600
X+114400Y+171640
X+116000Y+171400
X+115360Y+172520
X+114600Y+173400
X+116360Y+176600
X+115880
X+114360Y+175080
X+116600Y+176120
X+115400Y+182400
X+116360Y+182120
X+115080Y+182640
X+115520Y+181880
X+116520Y+181000
X+114640Y+180920
X+115360Y+185680
X+114360Y+183840
X+114840
X+116000Y+183800
X+116800
X+116400Y+183960
X+116640Y+187000
X+114960Y+187200
X+114640Y+188520
X+116680Y+191000
X+115360Y+191640
X+114560Y+193520
X+116800Y+192240
X+115280Y+192960
X+115520Y+192400
X+116800Y+196760
Y+197640
X+115600Y+196640
X+114800Y+198280
Y+199400
X+116320Y+199520
X+114800Y+201320
X+116640Y+202120
X+115200Y+212160
X+116480Y+212000
X+116400Y+216280
X+114440Y+218080
X+115720Y+218120
X+114360Y+217280
X+117680Y+118600
X+117960Y+124440
X+118200Y+128560
X+118840Y+131520
X+117360Y+137240
X+119680Y+136720
X+117560Y+139880
X+119640Y+140120
X+118480Y+145160
X+117520Y+145400
X+119200Y+146720
X+119080Y+147400
X+119280Y+150960
X+117360Y+153440
X+118840Y+155160
Y+154120
Y+153640
X+118640Y+156200
X+118160Y+156520
X+118640Y+156600
X+118840Y+158360
X+119680Y+158400
X+119120Y+163920
X+118600Y+162880
X+119600Y+163680
X+118880Y+163360
X+117400Y+169360
X+117640Y+169600
Y+168880
X+118240
X+118800Y+171480
X+119800
Y+172440
X+118240Y+172000
X+119640Y+176760
X+117240
X+119240Y+175880
X+119560Y+176120
X+119640Y+178360
X+117840Y+180760
X+118080Y+181000
X+117960Y+184840
X+119720Y+185680
X+119400Y+183600
X+117360Y+188040
X+118520
Y+186840
X+117320
X+119720Y+187000
Y+190000
Y+189400
X+118000Y+192240
X+118360Y+194000
X+117640
X+118360Y+194360
X+118320Y+199400
X+118360Y+199000
X+118240Y+203640
X+118320Y+203000
X+118080Y+202120
X+118560Y+205640
X+118320Y+206000
X+119400Y+205400
X+119560Y+212800
X+117360Y+210600
X+118360Y+215480
X+117600Y+218240
X+117280Y+216800
X+122750Y+130680
X+120320Y+133760
X+120960Y+135680
X+121080Y+137480
X+120360Y+139000
X+121480Y+138680
X+120600Y+140600
X+122640Y+141560
X+120600Y+142920
X+121520Y+142040
Y+145640
X+121920Y+146760
X+120880Y+148880
X+122120Y+148000
X+122000Y+150720
X+121440Y+150960
X+120920Y+153320
X+121720Y+153960
X+121640Y+154600
X+122000Y+156520
X+120320Y+158640
X+122000Y+156200
X+120600Y+158400
X+122600Y+161800
X+121240Y+161040
X+122160Y+159280
X+121640Y+160560
X+122000Y+161560
X+120600Y+159280
X+121640
X+120320Y+160080
X+122360Y+161560
X+122440Y+164640
X+121240Y+162440
X+122800Y+169520
X+121800Y+169400
X+121040Y+170440
X+122280Y+170320
X+121160Y+168480
X+120200Y+170440
X+122800Y+169920
X+122040Y+169680
X+120800Y+169560
X+121880Y+172400
X+122040Y+173720
X+120320Y+172520
X+122280Y+173480
X+122760Y+172960
X+121000Y+173800
X+120760Y+174680
Y+176760
X+122120Y+175880
X+122520Y+175000
Y+174520
X+121880Y+175160
X+122320Y+177880
X+121240Y+177640
X+122120Y+181000
X+120320Y+182480
X+122200Y+182560
X+121880Y+180680
X+120920Y+182280
X+120320Y+183360
X+121640Y+183840
X+122320Y+185680
X+122200Y+183880
X+121160Y+183360
X+120600Y+183960
X+120200Y+188160
X+120440Y+186320
X+121960Y+188040
X+120520Y+192800
X+122280Y+194280
X+122360Y+195400
X+121480Y+200120
X+122120Y+200360
X+120520Y+203400
X+122120Y+202120
X+122360Y+206400
X+122600Y+214640
X+121880Y+214800
X+124280Y+120600
X+125520Y+129800
Y+136960
X+123640Y+135920
X+123880Y+137240
X+125120Y+139880
X+125640Y+140760
X+124480Y+138680
X+123640Y+140120
X+123880Y+141560
X+124640Y+145800
X+125320Y+145640
X+124800Y+148240
X+123640Y+148000
Y+148880
X+124880
X+123280Y+148000
X+124880Y+151920
X+124520Y+151440
Y+150840
X+124320Y+155800
X+125560
X+125000Y+157000
X+124320Y+161520
X+125000Y+160960
X+125480Y+162200
X+125240Y+162440
X+125320Y+164520
X+124000Y+166480
X+125320Y+166600
X+125360Y+169520
X+124360Y+170000
X+124640Y+168400
X+123800Y+170520
X+125000
X+125200Y+171640
X+124800Y+172600
X+123400Y+176520
X+123560Y+179560
X+124320Y+179640
X+124240Y+180280
X+123720Y+180400
X+125160Y+182160
X+124920Y+182520
X+124120Y+182240
X+124560Y+183760
X+124920Y+183520
X+124200Y+183360
X+123560Y+183600
X+125160Y+183920
X+125040Y+188360
X+125200Y+186280
X+123200Y+188040
X+124400Y+191360
X+124480Y+192600
X+125200Y+192480
X+124800Y+197560
X+123200Y+196560
X+123960Y+196280
X+124400Y+196360
X+124960Y+195400
X+125120Y+197640
X+123200Y+197080
X+124800Y+199320
X+123320Y+199400
Y+200120
X+124400Y+202400
X+123320Y+202120
X+124560Y+206800
X+124640Y+207640
X+124800Y+209000
X+125200Y+208240
Y+212040
X+123440Y+217280
X+128760Y+119000
X+127750Y+128000
X+126760Y+127480
X+127400Y+134680
X+127760Y+135680
X+128000Y+135440
X+126640Y+140000
X+127080Y+142880
X+127040Y+142040
X+128000Y+148840
X+126840Y+149080
X+127920Y+151560
X+128320Y+151080
X+128160Y+150600
X+128200Y+151800
X+126600Y+155400
Y+154680
X+127000Y+155640
X+127640Y+156280
X+128440Y+158280
X+128080Y+161200
X+128600Y+159600
X+127320Y+159200
X+127640Y+161760
X+128560Y+162320
X+127400Y+162640
X+126440Y+166000
X+127640Y+170720
X+126200Y+170480
X+128560Y+173080
X+126400Y+172080
X+128560Y+172600
X+127640Y+171640
X+126320Y+173160
X+128400Y+175320
X+128160Y+174640
X+127640Y+176280
X+128400Y+179120
X+128160Y+178560
X+127920Y+179720
X+128200Y+179480
X+126760Y+182800
X+126800Y+182320
X+128040Y+182240
X+126280Y+182080
X+127640Y+181840
X+128680Y+183400
X+127160Y+183360
Y+184480
X+126400Y+183920
X+126200Y+188360
X+128040Y+188400
X+127320Y+187520
X+127640Y+190000
X+126320Y+194560
X+126560Y+193560
X+127560Y+193520
X+128200Y+196600
X+128120Y+197120
X+126600Y+197640
X+127880Y+200120
X+127640Y+199520
Y+200360
X+126320Y+203600
X+126600Y+202440
X+127880Y+204680
X+126320
X+127640Y+204920
X+127400Y+205600
X+126520Y+208640
X+126280Y+208400
X+128520Y+212360
X+126280Y+211640
X+126200Y+214960
X+127640Y+215520
X+128520Y+215640
X+126200Y+217000
X+131520Y+129800
X+131560Y+132240
X+130320Y+132760
X+131080Y+135680
X+130000Y+137560
X+129480Y+137800
X+131760Y+138760
X+131400Y+140000
X+131040Y+143720
X+129480Y+143800
X+130160Y+145000
X+129520Y+144800
X+129480Y+144440
X+129520Y+148840
X+131000Y+151560
X+130600Y+150800
X+129520Y+151080
X+129280Y+150840
X+131360Y+155400
X+130000Y+156760
X+131480Y+158680
X+129400Y+156640
X+129440Y+158800
X+130320Y+160640
X+131640Y+160400
X+130560Y+159600
X+131000Y+160640
X+130320Y+162320
X+131640Y+163720
X+130000Y+162320
X+130560Y+164200
X+129520Y+163400
X+131560Y+166080
X+129520Y+167520
X+129800Y+167040
X+129400Y+166560
X+131800Y+167360
X+130960Y+169520
X+131560Y+169040
X+129520Y+169600
X+130240Y+170480
X+129520Y+170160
Y+169280
X+131400Y+169520
Y+170320
X+130000Y+172480
X+130560Y+171520
X+129520Y+171760
X+130560Y+172240
X+130240
X+131640Y+171400
X+130920Y+176040
X+131800Y+177360
X+130800
X+129680Y+179480
X+131800Y+179360
X+131640Y+182320
X+129400Y+181760
X+129640Y+182000
X+129520Y+180680
X+130160Y+183880
X+130480Y+185560
X+130600Y+186800
X+130000Y+187440
X+131760Y+187280
X+131360Y+186800
X+130000Y+190720
X+129520
X+131200Y+193480
X+130960Y+192440
X+129320Y+194280
X+130840Y+193720
X+129800Y+193840
Y+194400
X+129440Y+195880
X+131040
X+130800Y+196360
X+130200Y+197120
X+131280Y+196120
X+131520Y+198320
X+131320Y+199520
X+130400
X+130440Y+198960
X+131560
X+131000Y+201200
X+130000Y+202000
X+129360Y+203640
X+129600Y+203400
X+130400Y+201680
X+131640Y+201200
X+130400Y+202680
Y+208920
X+129360Y+207320
X+130640Y+209160
X+130600Y+207560
X+129600Y+209640
X+129800Y+211800
X+130400Y+212040
Y+214040
X+129960Y+215800
X+131240Y+216800
X+133200Y+132600
X+133840Y+134680
X+134320
X+133000Y+132280
X+134000Y+137240
Y+135920
X+133200Y+137560
X+133600
X+133560Y+140360
X+134000Y+140120
X+132960Y+138920
X+133560Y+139880
X+134000Y+141800
X+134120Y+143480
X+134360Y+141320
X+134560Y+145160
X+132400Y+146600
Y+144840
X+133360Y+144920
X+134240Y+145400
X+134800Y+146280
Y+145480
X+134400Y+151600
X+134720Y+150320
X+133000
Y+151560
X+133640
X+134640Y+153800
X+132360Y+154600
Y+155400
X+132640Y+156360
X+134320Y+157520
X+133400
X+134000Y+161520
X+134240Y+159200
X+133840Y+159520
X+132360Y+161520
X+133640Y+167600
X+134560Y+166320
X+132360Y+165840
X+132320Y+167040
X+133400Y+166080
X+134040Y+165560
X+132400Y+169360
X+134480Y+168480
X+133400Y+169120
X+134400Y+172640
X+133560Y+171880
X+134080Y+176240
X+133600Y+176280
X+133400Y+174400
X+134560Y+177600
X+133800Y+178800
Y+179440
X+133000Y+177240
X+133600Y+177360
X+133320Y+178960
X+134800Y+178880
X+133800Y+180480
Y+181600
X+134160Y+182480
Y+181840
X+133000Y+180480
X+132400Y+180960
X+133920Y+185720
X+133080
X+133000Y+183800
X+133560Y+184600
X+132840Y+185480
X+133920Y+186920
X+133080Y+187280
X+134400Y+186680
X+134160Y+187160
X+134400Y+188440
X+134000Y+191200
Y+191680
X+133000Y+190600
Y+192440
X+133160Y+197280
X+132520Y+196880
X+133840Y+195800
X+132360Y+196120
X+134640Y+195560
X+133000Y+195840
X+133960Y+199440
X+132400Y+198960
X+133160Y+198800
X+133960Y+198520
X+133560Y+202200
X+133000
X+132320Y+203640
X+134160Y+202200
X+132360Y+201200
Y+202200
X+134000Y+206280
X+133640Y+205400
X+132680Y+211160
X+133560Y+212200
X+132360Y+211000
X+132480Y+215320
X+133160Y+218720
X+136200Y+116760
Y+118760
X+136640Y+137560
X+137400Y+137280
X+135400Y+137560
X+136160Y+136960
X+135880Y+137440
X+137160Y+137800
X+137520Y+139080
X+136520Y+142840
X+136000Y+143480
X+136400Y+143560
X+136320Y+141840
X+137320Y+145160
X+135800
Y+146280
X+135320
Y+145120
X+136160Y+146280
X+137000
X+136800Y+148720
X+137000Y+152000
X+136640Y+151320
X+136600Y+155400
X+137160Y+156360
X+137480Y+158160
X+136560Y+157520
X+137600Y+159600
X+136000Y+161200
X+135360Y+160400
X+136600Y+159360
X+137000Y+162320
X+135400Y+164600
Y+164120
X+136000
Y+167080
X+137360Y+166080
X+137040Y+166800
Y+165600
X+136400Y+166320
X+137000Y+169360
X+137520Y+169280
X+136640Y+170640
X+136400Y+171400
X+136320Y+173560
X+137520Y+172720
X+136600Y+175400
X+136840Y+175640
X+137520Y+176520
X+136120Y+177400
X+137200Y+179440
X+135360Y+178480
X+136200
X+136600Y+179440
X+135960
X+136200Y+178880
X+135400Y+182320
X+136000Y+181840
X+136360Y+180720
X+137000Y+182320
Y+180560
Y+185480
X+136440Y+187480
X+137320Y+191560
X+135320Y+191080
X+136000Y+192360
Y+193600
X+137360Y+197040
X+135320Y+195560
X+137360Y+200520
X+137000Y+200720
X+137240Y+203800
X+135640Y+203520
X+135760Y+206440
Y+205640
X+136360Y+205400
X+136000Y+204360
X+137320Y+206680
Y+205400
X+135395Y+207600
X+135240Y+208920
X+136240Y+209520
X+136560Y+214600
X+137280Y+214080
X+137120Y+215800
X+136120Y+217440
X+137560Y+217040
X+140600Y+104480
X+139280Y+120200
X+140750Y+128280
X+138320Y+133080
X+139560Y+134680
X+138920Y+137800
X+139400Y+139320
X+140640Y+142400
X+140000Y+144360
X+139160Y+146480
X+139560Y+148880
X+140000Y+147880
X+140040Y+149120
X+138920
X+139560Y+152520
X+140640Y+150800
X+139960Y+151360
X+139240Y+155400
X+139960Y+157480
X+139560Y+159600
X+138520Y+161200
X+138840Y+160400
X+139680Y+161200
X+139800Y+160480
X+139680Y+164360
X+138320Y+165840
X+140320Y+166080
X+138440Y+170440
X+139680Y+168640
X+138320Y+169520
X+138200Y+170680
X+138440Y+173400
X+139200Y+176240
X+139680Y+176520
X+138720
X+138960Y+175640
X+138400Y+178960
X+138320Y+184320
X+138600Y+186680
X+139680Y+188400
Y+191320
X+139000Y+190480
X+139200Y+191320
X+139880Y+193960
Y+193400
X+139640Y+194200
X+139400Y+193960
X+140000Y+197480
Y+196440
Y+195760
X+138360Y+199600
X+140480Y+200320
X+140000Y+201440
X+140480Y+202120
X+138400Y+202840
X+138640Y+203800
X+139160Y+202200
X+139400Y+204560
X+140320Y+206600
X+139160Y+206280
X+139760Y+209480
X+139160Y+207720
X+138400Y+209720
X+139480Y+208760
X+138560Y+207800
X+139720Y+207480
X+140400Y+213200
X+140440Y+215640
X+139080Y+213200
X+139320Y+213440
X+140400Y+217320
X+139520Y+217960
X+140160Y+218200
X+139040
X+142120Y+133080
X+141240Y+134680
X+143000
X+142360Y+137400
X+142600Y+138360
X+142000Y+143560
X+141560Y+144440
X+142560Y+150880
X+141640Y+151360
X+142640Y+157680
X+141360Y+157920
X+142000Y+159360
X+141600Y+159600
X+141560Y+161200
X+143000Y+163280
X+143320Y+167800
X+142640Y+165840
X+142000Y+168360
X+142560Y+170440
X+142520Y+169680
X+143640Y+170800
X+141640Y+170680
X+142320Y+171440
X+141400Y+171560
X+143000Y+173160
X+142560Y+175400
X+143600Y+176240
X+143360Y+176480
X+142680Y+179440
X+143000Y+178000
X+141600Y+178960
X+142200Y+179200
X+143600Y+183960
X+141560Y+183600
X+142640Y+185480
X+141320Y+186280
X+143320Y+187400
X+143640Y+188440
X+142000Y+191320
X+143000Y+191240
X+141560Y+189280
X+142640Y+190840
X+142160Y+189320
X+143240Y+193400
X+143560Y+193720
X+143600Y+192480
X+141600Y+193400
Y+197480
X+143640Y+195760
X+142000Y+197480
X+143160Y+195480
X+141600Y+199120
X+143640Y+199600
X+141760Y+201920
X+143520Y+206280
X+142600
X+141600Y+207720
X+143400Y+210360
X+142400Y+214360
X+141600Y+217480
X+145480Y+128400
Y+126480
X+144720Y+127240
X+145200Y+130040
X+146560Y+135680
X+144400
X+146320Y+137400
X+145520Y+141920
X+145440Y+142400
X+146320Y+145480
Y+144360
X+144560
X+144480Y+145320
X+146560Y+147400
X+144240Y+149360
X+145400Y+151640
X+145640Y+153560
X+146000Y+154280
X+145000Y+153400
X+146160Y+155600
X+146400Y+154040
Y+153360
X+144600Y+156320
X+145240Y+157640
X+144440Y+161440
Y+163320
X+146360Y+167640
X+146600Y+167400
X+145680Y+166520
X+144680
X+146480Y+166280
Y+165240
Y+170160
X+145800Y+168200
Y+169520
X+146480Y+171200
X+145920Y+173400
X+146160Y+173640
X+146280Y+175920
X+146600Y+176240
X+144200Y+176480
X+145640Y+176240
X+146400Y+177720
X+144200Y+177480
X+144680Y+178960
X+145400Y+178920
X+146560Y+182400
X+146600Y+181160
X+145000Y+181440
X+145800Y+183960
X+146320Y+183400
X+145120
X+146320Y+185600
X+145800Y+188400
X+146480Y+188560
X+145000Y+188440
X+144800Y+189520
X+146400Y+190880
X+144200Y+189320
X+144360Y+190840
X+146560Y+192800
X+146000Y+194040
X+145160
X+144800Y+192480
X+146400Y+194040
X+146360Y+193400
X+145000Y+195760
X+145400Y+200360
X+145000Y+199400
Y+198560
X+144600Y+201680
X+145240Y+203120
X+145720Y+202520
X+144360Y+201440
X+145000Y+204560
X+144360Y+206520
X+145560Y+209720
X+146400Y+209400
X+146360Y+212640
X+146600Y+211560
X+144400Y+214600
X+146560Y+216280
X+144280
X+148440Y+134280
X+148000Y+137720
X+149520Y+135440
X+149640Y+140560
Y+139760
X+147440Y+139320
X+149000Y+141400
X+148760Y+145480
X+147560Y+144960
X+149480Y+144320
X+149000Y+145000
X+147560Y+145640
X+149240Y+149480
X+149360Y+151600
X+149640Y+150280
X+149400Y+151120
X+149720Y+154600
X+147880Y+158400
X+147280Y+156600
X+147640Y+157920
X+148280Y+157640
X+147400Y+159440
X+149440Y+163880
X+147520Y+163320
X+147600Y+164680
X+149760Y+163880
X+147400Y+162200
X+148800
X+149000Y+163720
X+149560Y+166400
X+147600
Y+167640
X+148160Y+166880
X+147600Y+165560
X+148400Y+167360
X+147400Y+169760
X+147560Y+168640
X+149440Y+170000
X+148040Y+169120
X+148640Y+170560
X+147440Y+173640
X+147680Y+175240
X+148200Y+175520
X+149600Y+176800
X+149000Y+175480
X+148000Y+174760
X+147400Y+177840
X+147760Y+178560
Y+179440
X+147640Y+177440
X+147520Y+178320
X+149360Y+177600
X+149640Y+178640
Y+179680
X+148800Y+178760
X+147680Y+182200
X+149400Y+180640
X+148080Y+185240
X+147600Y+184200
X+148640Y+183400
X+147840Y+185000
X+148640Y+186880
Y+187600
Y+186400
X+148000Y+187120
X+149080Y+188800
X+147440Y+189600
X+148000Y+189840
X+149400Y+190080
X+147680Y+189840
X+149000Y+190320
X+149520Y+191280
X+149000Y+193640
X+147440Y+194280
X+148560Y+194520
X+147520Y+193400
X+148800Y+192440
X+148320Y+193640
X+149000Y+195480
X+148320Y+197000
X+148560Y+197360
X+147440Y+198360
X+148000Y+199480
X+147640Y+199400
X+149400Y+200600
X+149360Y+203120
X+147680Y+203520
X+149360Y+201600
X+147640Y+205400
X+149360Y+206040
X+149000Y+205120
X+147400
Y+208520
X+148360
X+149800
X+147400Y+209000
X+148720Y+210200
X+148000Y+211000
X+148400Y+210200
X+148840Y+211440
X+148120Y+214960
X+147640
X+152360Y+116400
X+152600Y+118400
X+152120Y+117600
X+151160Y+121520
X+151240Y+128800
X+152160Y+131080
X+151240Y+131440
X+151680Y+134760
X+151200Y+132600
X+151680Y+136640
X+151200Y+136880
X+150720Y+136640
X+152400Y+138400
X+151360Y+142880
X+151120Y+142640
X+151000Y+145480
X+151600Y+149320
X+152600Y+147880
X+150560Y+148360
X+150640Y+151120
X+150840Y+153600
X+152640Y+156400
X+151360Y+156320
X+150840Y+157000
X+150640Y+160000
X+150880Y+159400
X+151360Y+159920
Y+160600
X+151280Y+162440
X+150880Y+162200
X+150400Y+164680
X+152000Y+165280
X+152800Y+167520
X+152040Y+169600
X+151120Y+170240
Y+168480
X+152640Y+170480
X+151400Y+169520
X+151720Y+169440
X+151360Y+173400
X+152160Y+173640
X+152640Y+172440
Y+171520
X+151120Y+175480
X+151360Y+174600
X+150280Y+175240
X+150600Y+175560
X+152000Y+174840
X+150600Y+175240
X+151200Y+178480
X+150560Y+182600
X+152360Y+181800
X+151960Y+181640
X+151440Y+180240
X+151960Y+182440
X+151640Y+181800
X+151000Y+181480
X+150840Y+183920
Y+185240
X+152000Y+185520
X+152320Y+187360
X+152560Y+187600
X+152080Y+190520
X+152720Y+189520
X+151840Y+190280
X+151000Y+189600
X+152400
X+151440Y+193360
X+152400Y+193880
X+152000Y+193640
X+150320Y+192520
X+151680Y+199640
X+151000Y+203280
Y+201360
X+150320Y+206520
X+152480Y+209240
X+150400Y+208280
X+152000
X+152400Y+208520
X+150800Y+212720
X+152000Y+210200
X+151560Y+211000
X+152320Y+214720
X+152600Y+216520
X+150520Y+217440
X+154000Y+110480
Y+119040
X+154560Y+124600
X+153320Y+126960
X+155400Y+126400
X+155320Y+131440
X+153600Y+129760
X+154640Y+133720
X+154400Y+133480
X+155600Y+136400
X+153360Y+136720
X+155480Y+138880
X+153400Y+139640
X+154240Y+139480
X+154320Y+143360
X+155480Y+141600
X+154560Y+142880
X+155480Y+142400
X+154120Y+146400
X+154240Y+149480
X+153480Y+149320
X+154800Y+148600
Y+147880
X+154480Y+151120
X+154800Y+151360
X+155800Y+152000
X+153320Y+154440
X+153800Y+154640
X+153560Y+153360
X+153840Y+155160
X+154680Y+154400
X+154320Y+157840
X+153400Y+156640
X+154560Y+158240
X+155400Y+157120
X+153640
X+154480Y+159920
X+153320Y+160600
X+154240Y+160160
X+154480Y+160400
X+153360Y+163400
X+155320Y+163000
X+154480Y+162520
X+153600Y+163720
X+154600
Y+166040
X+153400Y+165280
X+155680Y+167520
X+154000Y+168640
X+154600
X+154400Y+171880
X+154360Y+175440
X+153640Y+175200
Y+176720
X+155200Y+174720
X+154040Y+175520
X+154160Y+176480
X+155800Y+175280
X+155400Y+178400
X+155160Y+182760
X+154360Y+180200
X+155600Y+182520
X+154560Y+187160
X+154200Y+186480
X+154440Y+186720
X+155400Y+190240
X+153320Y+192400
X+153600Y+195360
X+153400Y+196800
X+154400Y+198600
X+154600Y+199880
X+153600Y+203280
X+155080
X+155440Y+202480
X+155640Y+203520
X+154600Y+203040
X+155640Y+206360
X+155560Y+208440
X+153600
X+154400Y+207560
X+153240Y+209480
X+153800Y+209720
X+153600Y+210840
X+153360Y+214960
X+155040Y+213800
X+153400Y+213520
X+154360Y+216440
X+158320Y+102960
X+157880Y+120200
X+157240
X+156400Y+125480
X+158600Y+126640
X+157000Y+130480
X+158360Y+132600
X+157400Y+136640
X+156400Y+135600
X+156280Y+136720
X+156520Y+140560
X+158400Y+140520
X+156200Y+139560
X+157000Y+139400
X+158000Y+141480
Y+149440
X+158240Y+152440
X+156280Y+152200
X+156960Y+155320
Y+153480
X+157600Y+154400
X+158000Y+153480
X+157520Y+157680
X+156640Y+156880
X+157520Y+159680
X+156400Y+160560
X+158400Y+160320
X+156640
X+158160Y+161640
X+158560Y+162280
X+156640Y+164640
X+156400Y+170360
X+158000Y+169520
X+158640Y+169600
X+156640Y+168400
Y+170120
X+158400Y+170040
X+157400Y+171640
X+157640Y+171400
X+157000Y+173520
X+157560Y+173560
X+156960Y+172520
X+158320Y+172120
X+158120Y+173480
X+157400Y+174640
X+158360Y+175320
X+157160Y+177280
X+157400Y+178480
X+158360Y+179680
X+156800Y+178480
X+157000Y+182040
X+158600Y+180600
X+157640Y+181800
X+156800Y+180440
X+158000Y+181480
X+156320Y+184760
X+158800Y+183480
X+156560Y+185000
X+157240Y+184680
X+156800Y+187160
X+156640Y+188560
X+157960Y+188480
X+156400Y+189760
X+157160Y+190240
X+157640Y+193400
X+156400Y+196960
X+158360Y+199640
Y+203280
X+157000Y+203520
X+158360Y+205800
X+157720
X+156400Y+206040
X+157400
X+157960Y+208400
X+157400Y+208040
X+157000Y+210560
X+156240Y+212600
X+157480Y+211600
X+158000Y+215640
X+156480Y+217320
X+159840Y+106600
X+160360Y+118400
X+160000Y+119040
X+161400Y+121640
X+160000Y+120480
X+159640Y+123400
X+160560Y+128800
X+160240Y+130000
X+159400Y+136640
X+160440Y+136880
X+161440Y+135240
X+161600Y+136640
X+161200Y+138880
X+161360Y+142440
X+161000Y+141640
X+160640Y+141400
Y+142440
X+161600Y+143640
X+160360Y+147240
X+159360Y+148560
X+160400Y+151920
X+160640Y+152560
X+159600Y+151800
X+160400Y+150640
X+161800Y+151760
X+160840Y+154400
X+159240Y+154600
X+160600Y+155560
X+160360Y+153400
Y+154400
X+160000Y+155080
X+160640Y+157600
X+161360
X+161000Y+158800
X+159400Y+161400
X+160000Y+163480
X+159600Y+163520
X+160720Y+164400
X+161600
X+160000Y+165200
X+160280Y+166800
X+159400Y+167280
X+160320Y+168560
X+159480Y+168520
X+161480Y+173080
X+161000Y+172520
X+159640Y+175360
X+160360Y+174880
X+161160Y+174400
X+160120Y+178640
X+160640Y+177600
X+160160Y+177360
X+159560Y+182360
X+160360Y+180240
X+161000Y+180480
X+161160Y+181800
X+161640
X+159320Y+180200
X+159640Y+185080
X+160800Y+188480
X+160200Y+186880
X+159960Y+186640
Y+187400
X+159320Y+188560
X+160800Y+190320
X+160000Y+189840
X+159320Y+189600
X+161040Y+190080
X+160560Y+194400
X+161640Y+195560
X+161280Y+196880
X+161040Y+197200
X+160240Y+195320
X+161520Y+196640
X+160840Y+199640
X+161760Y+200120
X+161040Y+198280
X+161320Y+203440
X+160400Y+203320
X+159600Y+203520
X+160600Y+202640
X+160400Y+208480
X+159480Y+211520
X+159240Y+215400
X+161160Y+213400
X+161640
X+160520Y+217400
X+159480
X+163800Y+104000
X+162520Y+108480
X+162760Y+111800
X+163400Y+113720
X+162640Y+116400
X+164800Y+119320
X+163440Y+124120
Y+127600
X+164560Y+129600
X+163000Y+130480
X+162640Y+129760
X+162600Y+133400
X+163440Y+132600
X+163000Y+136880
X+164800Y+136000
X+164320Y+136640
X+164040Y+145000
X+164320Y+149160
X+162560Y+148800
X+163760Y+151920
X+163040Y+151640
X+163600Y+155400
X+164560Y+153960
X+163760Y+153400
X+163600Y+154640
X+162400Y+156480
X+164000Y+157600
X+164560Y+156880
X+163440Y+156480
X+163920Y+156800
X+162760Y+159280
X+163400Y+160320
X+162440
X+164000Y+163400
Y+162480
X+162400Y+164400
X+164320Y+164360
X+162400Y+167280
X+163400Y+165920
X+163640Y+165480
X+163920Y+170800
X+163640Y+169040
X+164440Y+168440
X+164520Y+169600
X+163600Y+171640
X+163920Y+171440
X+162400Y+171360
X+164000Y+175640
X+162240Y+174880
Y+175360
X+164440Y+176120
X+163440Y+176280
X+162480
X+164000Y+177640
X+164360Y+178720
X+163440
X+162600
X+162560Y+179680
X+164080Y+179360
X+162600
X+163680Y+177960
Y+179600
X+163880Y+181360
X+164600Y+182360
X+163960Y+182800
X+163640Y+180880
X+163400Y+180640
X+163840Y+185520
X+164080Y+185760
X+164200Y+184480
X+164080Y+186240
X+163520Y+190800
X+164000Y+189520
Y+191280
X+163880Y+194320
X+163640Y+194600
X+162320
X+162600Y+195560
Y+197400
X+164160Y+199520
X+163800Y+198920
X+163080
X+164160Y+202480
X+164400Y+203640
X+163800Y+202640
X+164640
X+162240Y+202000
X+164400Y+205400
X+164640Y+204560
X+163400Y+208240
X+162360Y+209480
X+163400Y+209280
X+164440Y+209040
X+163400Y+212160
Y+210800
Y+213880
X+164000Y+213640
X+162560Y+213560
X+162600Y+215040
X+163520Y+215720
X+162560Y+218200
X+162320Y+216520
X+163520Y+216440
Y+217960
X+165960Y+101800
X+166360Y+107240
X+166120Y+115680
X+166080Y+118640
X+165840Y+124600
X+165360Y+127200
X+167480Y+126400
X+166960Y+137120
X+167080Y+136640
X+165360Y+137600
X+167520Y+136000
X+166720Y+136480
X+166960Y+140560
X+165640Y+141400
X+165400Y+142280
X+166800Y+141600
X+165640Y+144320
X+166960Y+148960
X+166800Y+147240
X+165560Y+152360
X+166800Y+151320
X+165240Y+152120
X+166800Y+150800
X+165560Y+153960
X+166040Y+154120
X+165200Y+157120
X+167320Y+158320
X+166400Y+160480
X+166360Y+164600
X+167000Y+162600
X+166000Y+164000
Y+162480
X+165360Y+165480
X+166480Y+167520
X+165840Y+168680
X+165360
X+166600
X+167240Y+173120
X+165880Y+172640
X+166000Y+171360
X+167720Y+173120
X+166600Y+175640
X+167560Y+174280
X+167320Y+175840
X+165320Y+175480
X+166840Y+174520
X+167000Y+175640
X+166600Y+177720
Y+179200
X+167800Y+177880
X+167720Y+179440
X+166000Y+178000
X+166360Y+177400
Y+178240
X+166160Y+182800
X+167360Y+180960
X+167640Y+184200
X+165840Y+184320
X+166160Y+184160
X+167240Y+183280
X+167000Y+183920
X+166240Y+188800
X+166640Y+186280
X+165600Y+188280
X+166000Y+187800
X+167640Y+190400
X+167160Y+190800
X+166000Y+193600
X+167400Y+192800
Y+193120
X+165720Y+196120
X+166000Y+197480
X+166800Y+200480
X+166880Y+201480
X+165360Y+201240
X+167640Y+202880
X+166560Y+202840
X+167400Y+206080
X+166640Y+206040
Y+205400
X+167000Y+204280
X+167040Y+208880
X+165960
X+166320Y+213400
X+166960Y+214120
X+167560Y+213640
X+166880Y+216760
X+166480Y+218360
X+169600Y+117400
X+169360Y+127920
X+169600Y+127160
Y+131720
X+170600Y+132920
X+169400Y+137360
X+168560Y+136640
X+169600Y+136400
X+168600Y+139400
X+168360Y+138800
X+168600Y+142360
X+169400Y+143400
X+168480Y+143640
X+170000Y+145560
X+168240Y+147760
X+169880Y+147240
X+169640Y+147480
Y+148400
X+168520Y+149160
X+169640Y+151360
X+168240Y+150800
X+170760Y+151600
X+170400Y+154840
X+170120Y+154120
X+170800Y+155080
X+168400Y+155560
X+169880Y+156560
X+170280Y+159240
X+168880Y+161400
X+169640Y+164520
X+169000Y+164160
Y+162600
X+168360Y+164360
X+168600Y+162360
X+170480Y+166120
X+169600Y+168680
X+168840
X+168640Y+171600
X+169000Y+172880
X+170000Y+171360
X+169000Y+171280
X+169600Y+173120
X+168640Y+172640
X+170400Y+176360
X+170000Y+174440
X+170400Y+179160
X+170160Y+177800
X+168880Y+179440
X+168640Y+177640
X+168600Y+181120
X+170160
X+168360Y+182440
X+168640Y+185800
X+168840Y+183200
Y+184440
X+170160Y+185480
X+169840Y+185640
X+168360Y+183280
X+168320Y+188760
X+169400Y+187880
X+170280Y+187640
X+169000Y+188120
X+170040
X+169720Y+187880
X+169400Y+186520
X+170040Y+189440
X+168600Y+193280
Y+194280
X+169600Y+193640
X+169640Y+196120
X+169160Y+197480
X+169320Y+200640
X+168400
X+169400Y+199200
X+170600Y+198360
Y+200640
X+168360Y+199480
X+169320Y+201360
X+168800Y+202840
X+169560Y+201600
X+170560Y+208480
X+168560Y+207400
X+170280Y+208240
X+170040Y+211080
X+169800Y+210840
X+168640Y+213320
X+170400
X+170600Y+217000
X+169400Y+218080
X+169200Y+216400
X+172840Y+105920
X+173400Y+115240
X+172400Y+116360
X+171320Y+130840
X+173640Y+137360
Y+137000
X+172920Y+142040
X+171880Y+142880
X+172680Y+142640
X+172920Y+146000
Y+145320
X+172120Y+149000
X+172680Y+149400
X+172520Y+152080
X+172880Y+152600
X+172400Y+151040
X+171280Y+154120
X+171920Y+154040
X+173120Y+157400
X+171880Y+156320
X+171520Y+158720
X+173640Y+160960
X+173000Y+162640
X+171400Y+166680
X+172320Y+166280
X+171400Y+167000
X+171640Y+166160
X+172080Y+167080
X+172720Y+168680
X+172320
X+173240Y+171600
X+172400Y+172920
X+172120Y+173400
X+171640Y+171520
X+173080Y+174680
X+171400Y+174520
Y+175960
X+173240Y+176520
X+173800Y+179520
X+172880Y+177880
Y+179280
X+172000Y+179440
X+171640Y+179040
X+173120Y+178120
Y+178760
X+172640Y+177640
Y+178800
X+171600Y+180800
X+171840Y+181040
X+172800Y+184200
X+171440Y+185480
X+171840Y+184280
Y+183400
X+173200Y+186440
X+171680Y+187720
X+172360Y+188200
X+171640Y+191280
X+172080Y+189240
X+172800Y+190560
Y+191040
X+171400
X+171960Y+191280
X+172400Y+190320
X+171680Y+194560
X+171960Y+192600
Y+193400
X+171680Y+195720
X+173360Y+196600
Y+195960
X+172640Y+196280
X+173600Y+197640
X+172080Y+196440
X+171800Y+199200
X+172040Y+198840
X+173640Y+198960
X+173000Y+202040
Y+205200
X+171560Y+204280
X+173400Y+204680
X+172600Y+206560
X+171640Y+204920
X+171400Y+209440
X+172360Y+209200
X+171880Y+209440
X+173240Y+210440
X+172480Y+210600
X+176160Y+122640
X+175400Y+124080
X+174480Y+128640
X+175520Y+130360
X+176560Y+140400
X+174560Y+138640
X+176240Y+138600
Y+140400
X+175520Y+139000
X+176240Y+141840
X+174480Y+144880
X+176080Y+149320
X+175840Y+154240
Y+155320
X+175000Y+157640
X+174720Y+158720
X+174680Y+157720
X+176480Y+158040
X+176720Y+159240
X+175880Y+160960
X+174400
X+176560Y+160480
Y+162960
X+174320Y+162800
X+174560Y+163040
X+176240Y+163440
X+175240
X+176800Y+164480
X+176640Y+165480
X+175200Y+165640
X+175840Y+165880
X+176080Y+166840
Y+165640
X+176720Y+168680
X+174560Y+170040
X+175840Y+169040
X+174320Y+169800
X+174560Y+171200
X+174320Y+172240
X+176320Y+174200
X+175120Y+176000
Y+176480
X+175840Y+176280
X+175200Y+175280
X+174560Y+179040
X+175360Y+179080
X+174800Y+179360
X+175800Y+181280
X+175320Y+184440
X+175200Y+184120
X+174640Y+185640
X+174400Y+183400
X+176000Y+184400
Y+187960
X+175840Y+191040
X+175920Y+190560
X+174400
X+176320Y+191520
X+174520Y+193400
Y+195240
X+174280Y+195480
X+176600Y+196280
X+175600Y+198440
X+175560Y+199520
X+175000Y+200640
X+176360Y+198960
X+174400Y+203440
X+174560Y+202040
X+176440Y+206800
X+174560Y+204920
X+175000
X+176560Y+211960
X+174320Y+214400
X+174960Y+213480
X+175560Y+218640
X+178600Y+117600
X+179640Y+125080
X+177440Y+128640
X+178440Y+126800
X+179240Y+134040
X+178400Y+136560
X+177320Y+135600
X+178720Y+136560
Y+137360
X+178800Y+140720
X+179400Y+145400
X+178640Y+144600
X+177600Y+149560
X+179560Y+151120
X+178000Y+155560
X+179200Y+156920
X+178560Y+157520
X+178000Y+158280
X+179600Y+156640
X+178800Y+160200
X+178560Y+160520
X+179480
X+178000Y+162640
X+179480Y+162400
X+179560Y+163800
X+178160Y+165480
X+178640Y+165720
X+178800Y+166200
X+177840
X+179320Y+168960
X+177200Y+168440
X+179320Y+175960
X+177840Y+175720
X+177200Y+174920
X+179080Y+176360
X+178000Y+177800
X+179560Y+177400
X+178000Y+181280
X+178800Y+180640
X+178000Y+183400
X+178680Y+185600
X+179560Y+185000
X+179320Y+183880
X+179600Y+185320
X+177360Y+187400
X+178320
X+179680Y+189600
X+178320Y+191600
X+179400Y+192320
X+179600Y+194120
Y+197280
Y+195600
X+178680Y+198640
X+177600
X+179560Y+201720
X+177800Y+201480
X+179520Y+204680
X+178000Y+204440
X+178320Y+207600
X+179520Y+207360
X+179400Y+214520
X+179520Y+214040
X+181960Y+111640
X+180560Y+120400
X+182000Y+130840
X+182400Y+131720
X+181000Y+134040
X+181400Y+134080
X+180600Y+135360
X+182000Y+141520
X+180760Y+152800
X+180400Y+153560
X+180640Y+154240
X+180600Y+156440
X+182200Y+157320
X+182440Y+156680
X+181400Y+160160
X+180800Y+160480
X+182600Y+161240
X+181080Y+164320
X+182400Y+165400
X+181080Y+165960
X+180320Y+166440
X+181680Y+168960
X+182440Y+169120
X+180800Y+172440
X+181040Y+174840
X+181520Y+175480
X+182800Y+174440
X+182560Y+176640
X+180920
X+181640Y+179600
X+182360Y+179320
X+182400Y+177240
X+181623Y+181800
X+182380Y+182160
X+182600Y+188600
X+180880Y+186760
X+180400Y+187520
X+180280Y+187200
X+180640Y+188800
X+182360Y+190240
X+182000Y+191480
X+180960Y+193640
X+181400Y+197600
Y+198400
X+182640Y+202320
X+182040Y+202240
X+181000Y+203640
X+181800Y+202000
X+182400Y+203640
Y+204280
X+180640Y+206800
X+180560Y+204440
X+182600Y+208960
X+181800Y+209440
X+180320Y+210440
X+181640Y+214600
X+180560Y+218080
X+181800Y+218600
X+182040Y+218280
X+181400Y+218360
X+183280Y+109920
X+184600Y+128160
X+185640Y+136320
X+185400Y+136040
X+184840Y+135640
X+184000Y+145000
X+183800Y+146640
X+183560Y+148000
X+184640Y+151400
X+183400Y+153560
X+184000Y+157160
X+184240Y+156680
X+185320Y+159680
X+184560Y+161240
X+185000
X+183240Y+160440
X+185040Y+162800
X+184400Y+164040
X+185760Y+163560
X+185520Y+163800
X+185360Y+166200
X+185000Y+166920
X+185600
X+185080Y+169160
X+185320Y+168920
X+183640Y+175560
X+185360Y+174360
X+184640Y+179440
X+185320Y+181560
X+184000Y+181800
X+185000Y+183640
X+184320Y+184120
Y+186640
X+184960Y+190160
X+183400Y+192280
X+185000
X+183400Y+196600
X+185320Y+196480
X+184360Y+196760
X+184600Y+198560
X+185800Y+199600
X+185600Y+200360
X+183960Y+200440
X+184560Y+202320
X+184000Y+201520
X+185360Y+205600
X+185600Y+212560
X+184960Y+210400
X+183640Y+214840
X+186400Y+126400
X+188200Y+130480
X+187160
X+187560Y+133560
X+188000Y+136800
X+188560Y+136280
X+186560
X+188000Y+142080
X+186560Y+141400
X+187600Y+146800
X+188600Y+144600
X+187160Y+147840
X+188640Y+148040
Y+148520
X+186600Y+154480
X+187440Y+156440
X+188440Y+157560
X+187680Y+159960
X+188000Y+160600
X+187080Y+163520
Y+163040
X+188320Y+164520
X+186680Y+164000
X+186720Y+166200
Y+166920
X+188720Y+167000
X+186440Y+165960
X+186320Y+168360
Y+172400
X+187000Y+171480
X+188000Y+172680
X+187360Y+174800
X+187400Y+175440
X+188360Y+174800
X+188000Y+181960
Y+182440
X+188320Y+180360
X+186960Y+181720
Y+182440
X+186520Y+184600
X+187000Y+183640
Y+184560
X+187320Y+187600
X+186840Y+187360
X+186640Y+190160
X+188440Y+191360
X+187560Y+193800
X+187960Y+192480
X+187400Y+194120
X+186720Y+196480
X+188640Y+198560
X+186480Y+199320
X+186360Y+205200
X+188000Y+209520
X+188560Y+213560
X+186400Y+213800
X+191560Y+125320
X+190400Y+125560
X+190640Y+124920
X+191440Y+132840
X+190320Y+143600
X+191000Y+141520
Y+145000
X+189640Y+148280
X+191000Y+149600
X+191080Y+155800
X+190000Y+161240
X+191680Y+163120
X+190160Y+162640
Y+164080
X+191000Y+162480
X+189360Y+166440
X+191200Y+165480
X+191680Y+167000
X+190960Y+165840
Y+166760
X+190360Y+168360
Y+170800
X+191200Y+169520
X+190600Y+169640
X+191160Y+170800
X+190560Y+173040
X+189360Y+173400
X+189600Y+179280
X+189280Y+177520
X+189520Y+184120
X+190400Y+183600
X+191120Y+188560
X+189560
X+190880Y+187360
X+189400Y+192480
X+190400Y+194600
X+191120Y+196400
X+189640Y+196160
X+190880
X+190400Y+203280
X+191640Y+201400
X+191560Y+204600
X+190320Y+206440
X+189960Y+204320
X+191640Y+208120
X+191480Y+215160
X+192480Y+124560
X+192920Y+124240
X+194800Y+126640
X+193960Y+126400
X+193400Y+131160
X+193160Y+133320
X+192400Y+133080
X+192880Y+142320
X+194760Y+142560
X+194520Y+143000
X+192920Y+141760
X+194800Y+143600
X+192400Y+146400
X+194200Y+149000
X+192520Y+147200
X+194200Y+150600
X+193160Y+153520
X+193400Y+153840
X+193800Y+158240
X+193320Y+158480
X+194120Y+157600
X+192680Y+157720
X+194360Y+160360
X+192440Y+160760
X+194800Y+160040
X+193560Y+159640
X+192680Y+160280
X+194280Y+163520
X+193160Y+163320
X+194720Y+166080
X+193080Y+165360
Y+165840
X+192640Y+166760
Y+170800
X+194520Y+169640
X+194320Y+171360
X+193560Y+172640
X+192320Y+174360
X+193160Y+176640
X+193360Y+178760
X+193600Y+183400
X+194400Y+187600
X+192720Y+186880
X+193720
X+192560Y+188640
X+193360Y+187120
X+194400Y+188080
X+194160Y+188400
X+192760Y+193480
X+193480Y+192400
X+192320Y+197640
X+194160Y+196360
X+194400Y+199640
X+193560Y+203360
X+194480Y+209760
X+101760Y+174080
X+101160Y+171160
X+102520Y+158880
X+104160Y+176880
X+102680Y+173880
X+103640Y+174120
X+104320Y+171000
X+103920Y+177120
X+102640Y+186080
X+104640Y+192000
X+103520Y+186160
X+105600Y+131920
X+105720Y+177040
X+105240Y+174120
X+107520Y+189040
X+107720Y+213160
X+105360
X+107200Y+206840
X+109840Y+167880
X+110640Y+177040
X+112120Y+132000
X+112640Y+155960
X+113800Y+168120
X+113360Y+176840
X+113080Y+189000
X+112600Y+192040
X+111640Y+194840
X+115080Y+108160
X+115000Y+176840
X+114360Y+177080
X+115800Y+177000
X+116560Y+192000
X+117520Y+186000
X+117480Y+204000
X+117840Y+215960
X+121320Y+131920
X+120360Y+144000
X+121880Y+149880
X+120880Y+147000
X+120600Y+162120
X+122360Y+177000
X+121400
X+122440Y+180000
X+120360Y+173840
X+122520Y+173960
X+121880Y+174040
X+121720Y+185840
X+122200Y+186000
X+122120Y+210000
X+124120Y+153160
X+123360Y+156040
X+125125Y+152920
X+125200Y+185840
X+125120Y+189000
X+124880Y+192000
X+125040Y+198120
X+124800Y+201160
X+124240Y+206920
X+127480Y+135160
X+127920Y+149920
X+126880Y+153160
X+126680Y+150120
X+126360
X+128320Y+174120
X+127400Y+179960
Y+183040
X+128040Y+192000
X+126320Y+195160
X+127640Y+203880
X+130800Y+143960
X+130560Y+156040
X+131000Y+152960
X+131600Y+156120
X+129680Y+159040
X+130560Y+177120
X+130240Y+185880
X+129560Y+216160
X+132400Y+132040
X+132960Y+134920
X+132600Y+155880
X+132960Y+156120
X+133000Y+161920
X+132400Y+174120
X+133000Y+173880
X+132680Y+206920
X+136600Y+153160
X+136000Y+149960
X+137000
X+137640Y+156120
X+135880Y+153120
X+135600Y+158960
X+135400Y+162040
X+137560Y+170880
X+135920
X+136840Y+176960
X+135360Y+170880
X+137320Y+204160
X+136640
X+135400Y+204120
X+137080Y+207160
X+136600
X+139320Y+134920
X+138800
X+139960Y+159120
X+139440Y+171160
X+140680
X+138840Y+189000
X+140360Y+186040
X+138920Y+201160
X+140400Y+198000
X+139960Y+212960
X+141600Y+138120
X+141240Y+137920
X+143560Y+174120
X+143640Y+185960
X+142640
X+141920Y+188960
X+142480Y+201000
X+145520Y+137960
X+144600Y+155840
X+145400Y+156080
X+146400Y+155840
X+145560Y+167960
X+146600Y+188960
X+145400Y+198000
X+145000Y+216040
X+148000Y+141120
X+149400
X+148440Y+137960
X+147520Y+149960
X+147400Y+155840
Y+176960
X+148160Y+180160
X+148480Y+174120
X+147680Y+188960
X+148600Y+188880
X+147680Y+198120
X+151160Y+126120
X+151120Y+156080
Y+159160
X+150400Y+159000
X+150320Y+179920
X+151200Y+180000
X+151680Y+195160
X+151400Y+216040
X+152600Y+215880
X+155320Y+132080
X+154400
X+153640Y+141120
X+155600Y+137960
X+153520Y+159000
X+154560Y+174120
X+155400Y+179920
X+153840Y+177040
X+156360Y+119960
X+157560Y+132080
Y+150160
X+157000Y+161880
X+156400Y+177120
X+158200
X+157640Y+192080
X+156640
X+157400Y+191840
X+158120Y+201160
X+158600
X+157400Y+215840
X+156480Y+213160
X+159360Y+132120
X+160240Y+128960
X+160120Y+180000
X+161640Y+176960
X+159800Y+179920
X+160560Y+197880
X+160000Y+194840
X+161400
X+159240Y+216120
X+160560Y+215880
X+162600Y+143920
X+162360Y+144160
X+163320Y+135000
X+164560Y+150120
X+163480Y+149880
X+163400Y+155960
Y+168000
X+163920Y+168160
X+164400Y+171040
X+163800Y+183120
X+164160Y+198120
X+163800
X+162600Y+201160
X+162200Y+195080
X+166320Y+117080
X+166600Y+131840
X+166360Y+156120
X+165200Y+158840
X+166600Y+174120
X+167360Y+171040
X+167000Y+189120
X+167240Y+182960
X+166720
X+165600Y+201000
X+167480Y+201120
X+170480Y+144000
X+169480Y+150120
X+168400Y+153160
X+169120Y+158840
X+169640Y+171120
X+170280Y+174120
X+170600Y+186040
X+168320Y+212960
X+171800Y+123160
X+171640Y+156080
X+171880Y+149880
X+172520Y+158960
X+171880
X+173440Y+185880
X+173000Y+188880
X+172640Y+200880
X+173120
X+172480Y+209960
X+175800Y+150000
X+176320Y+153000
X+176560Y+168120
X+175200Y+167960
X+175400Y+207040
X+178880Y+102040
X+179000Y+131960
X+178560Y+141000
X+178000Y+158960
X+178400Y+174040
X+179320
X+178600Y+189080
X+177560Y+200840
X+178600Y+209960
X+182560Y+140960
X+181320Y+147000
X+181040Y+167920
X+181360Y+168120
X+180560Y+168160
X+181400Y+188840
Y+189160
X+182440Y+218840
X+185640Y+149960
X+185440Y+180160
X+184360Y+174160
X+184640Y+191960
X+183640Y+188840
X+184960Y+188960
X+185000Y+203880
X+184960Y+209920
X+188600Y+131960
X+188000Y+170840
X+188440Y+191840
X+187000Y+195160
X+190440Y+156040
X+190640Y+149960
X+190800Y+173840
X+189320Y+204080
X+194520Y+131960
X+193640Y+153000
X+194520Y+162080
Y+164920
X+192840Y+165120
X+194280Y+171040
X+194040Y+174160
X+192800Y+177040
X+108080Y+127520
X+107880Y+132280
X+108120Y+133000
X+101840Y+141200
X+108040Y+145640
X+102040Y+162440
X+105000Y+177840
X+108120Y+179480
X+104920Y+182320
X+102160Y+181000
X+105160Y+182000
X+107880Y+182320
X+108120Y+180800
X+104920Y+183280
X+107880Y+184040
X+108040Y+188600
X+104960Y+191000
X+102080Y+193440
X+108080Y+196240
X+105120Y+196760
Y+196440
X+107840Y+199000
X+105120Y+199640
X+105160Y+200120
X+102040Y+199600
X+108080Y+203320
X+102080Y+206440
X+105160Y+205320
X+114040Y+115920
X+111040Y+124680
X+113920Y+130840
X+111120Y+136640
X+116840Y+137440
X+113920Y+140600
X+120120Y+141560
X+114000Y+142920
X+120120Y+145880
X+114160Y+152360
X+111000Y+150400
X+119920Y+150960
X+120080Y+160400
X+119960Y+161640
X+120120Y+173480
X+119880Y+175080
X+116840Y+178440
X+119880Y+177880
X+114000Y+180920
X+117080Y+182160
X+114120Y+182640
X+117080Y+191000
X+116840Y+198440
X+120120Y+205400
X+116960Y+207400
X+120120Y+214320
X+117040Y+214640
X+126160Y+135680
X+122880Y+138440
Y+141800
X+123120Y+146440
X+125880Y+151800
X+129160Y+154960
X+131840Y+157360
X+132160Y+157520
X+128840Y+156760
X+129080Y+157280
X+123160Y+161480
X+123000Y+159520
X+122920Y+165360
X+123160Y+167440
X+126000Y+169520
X+125840Y+170160
X+131920Y+169120
X+126160Y+171840
Y+172360
X+132160Y+175800
X+123000Y+175840
X+123160Y+176760
Y+174280
X+132120Y+178800
Y+179520
X+123120Y+177640
X+122880Y+180920
X+128920Y+183640
X+128840Y+185800
X+131840Y+185480
X+132160
X+126120Y+183680
X+123000Y+183880
X+128840Y+187040
X+126160Y+187800
X+129040Y+190960
Y+191440
X+132080Y+189280
X+126040Y+189320
Y+191360
X+129040Y+190480
Y+194040
X+132000Y+194400
X+122840Y+195640
X+132000Y+196400
X+122840Y+198680
X+126160
X+129160Y+199000
X+129040Y+200320
X+129080Y+204920
X+126160Y+205560
X+128840Y+206280
X+129080Y+205400
X+129000Y+212600
X+122840Y+211000
X+132000Y+213800
X+135000Y+118520
X+141000Y+128560
X+138000Y+136960
X+135160
X+141000Y+143240
X+143960Y+143320
X+135000Y+141560
X+143960Y+144200
X+144000Y+147880
X+138080Y+147400
X+141000Y+147640
X+138120Y+151360
X+135000Y+161200
X+140960
X+135000Y+164360
X+141000Y+163480
Y+165840
X+138080Y+168640
X+135040Y+172240
X+141000Y+176480
X+140920Y+178000
X+141000Y+178560
X+143840Y+177480
X+143960Y+181280
X+140840Y+182560
X+144000Y+185720
X+141080Y+183560
X+140840Y+184400
X+141000Y+188440
Y+192480
X+134880Y+196640
Y+196000
X+144000Y+195480
X+144080Y+200760
X+140960Y+207720
Y+208520
X+134960Y+209520
X+141000Y+210200
X+141080Y+215400
X+156000Y+111800
X+152920Y+125080
X+156000Y+130160
X+155880Y+137720
X+150160Y+138360
X+149960Y+142800
X+150000Y+145240
X+156080Y+149440
X+150000Y+150280
X+153000
X+156040Y+151400
X+153000Y+158320
X+156000Y+159640
X+153080Y+160360
X+150000Y+164680
X+152960Y+163720
X+156000Y+170040
X+153000Y+170480
X+150080Y+170400
Y+169120
X+156040Y+171640
X+153160Y+173480
X+153000Y+172160
X+149840Y+174600
Y+175480
X+153160Y+175360
X+156000Y+179440
X+153000Y+177320
Y+178480
X+156000Y+181480
X+156080Y+183800
X+153000Y+184280
X+150000Y+186640
X+153000Y+187200
X+153040Y+193880
Y+194520
X+150000Y+193640
X+153120Y+195360
X+147120Y+201480
X+150000Y+204720
X+155960Y+209720
X+152880Y+209480
Y+210200
X+159000Y+107080
X+165120Y+119480
X+159000Y+121640
X+165040Y+126960
Y+137120
X+159000Y+143640
X+168120Y+146360
X+159000Y+145480
X+165000Y+148800
X+159040Y+152000
X+167920Y+153960
X+159000Y+155080
X+162000Y+154440
X+168160Y+154200
X+159000Y+157360
X+167880Y+158280
X+165160Y+159480
X+168000Y+165840
X+159000Y+167080
X+162000Y+167280
X+164880Y+166440
X+168120Y+169520
X+158960Y+173480
X+168000Y+173360
X+165000Y+173720
X+168000Y+175800
X+162000Y+174400
X+164840Y+179520
X+165080Y+177960
X+162080Y+178480
X+159080
X+168120Y+182680
X+165160Y+180960
X+167840Y+181400
X+162080Y+180320
X+167880Y+184440
Y+183520
X+165000Y+184080
X+159040Y+183720
Y+185480
X+161920Y+188800
X+162160Y+188480
X+165040Y+188520
X+168000Y+189440
X+165000Y+190480
Y+191440
X+161920Y+190000
X+159000Y+189520
Y+191520
X+165080Y+192640
Y+193840
X+162160Y+192280
X+164840Y+192880
Y+193600
X+159160Y+196720
X+165000Y+197480
X+158920Y+196480
X+159160Y+198200
X+164840Y+200760
X+165120Y+201520
X+165000Y+203440
X+159000Y+210680
X+162120
X+168160Y+218040
X+174040Y+112560
X+176840Y+122680
X+171000Y+123800
X+170840Y+126560
X+177080Y+127040
X+171000Y+131000
X+179960Y+134520
X+171000Y+135360
X+173840Y+138400
X+171120Y+139000
X+180000Y+141400
X+170960Y+146640
X+180000Y+144600
X+174120Y+147680
X+170960Y+149640
X+174120Y+150800
X+173880Y+154400
X+170960Y+153800
X+180160Y+157280
X+173880Y+158720
X+171120Y+156320
X+173880Y+161200
X+180000Y+160480
X+171120Y+160960
X+180000Y+163280
X+177040Y+165960
X+180000Y+166680
X+174080Y+166360
X+173840Y+165800
X+180000Y+168400
X+180120Y+171840
X+176960Y+171200
X+174040Y+173200
X+171120Y+172520
X+176960Y+174200
Y+175880
X+179960Y+175720
X+173960Y+182480
Y+184440
X+171000Y+183880
X+177120Y+191280
X+174160Y+190800
X+174000Y+194240
X+180080Y+192320
X+171160Y+192240
X+180000Y+193880
X+179840Y+197000
X+177000Y+199440
X+171000Y+199520
X+177000Y+201360
Y+202480
X+174000Y+201600
X+177000Y+209680
X+174000Y+214640
X+183000Y+136800
X+186040Y+137120
X+189000Y+141400
X+192040Y+156600
X+191960Y+159400
Y+161320
X+186000Y+161480
X+182880Y+162560
Y+165480
X+183120Y+165960
X+192160Y+167000
X+183120Y+169120
X+183040Y+172400
X+186000Y+179200
X+183000Y+178800
X+188960Y+178360
Y+177280
X+188920Y+183640
X+183000Y+193800
X+185880Y+194400
X+186120Y+195400
X+188960Y+204400
X+194840Y+135560
Y+163920
Y+165600
Y+210720
X+105160Y+164960
X+104960Y+189000
X+105120Y+194840
X+116840Y+129040
X+110880Y+141080
X+120160Y+152920
X+116840Y+167920
X+111000Y+170960
X+116960Y+210120
X+126120Y+144040
X+131840Y+155880
X+132160Y+177120
X+131840Y+189000
X+129040Y+189160
X+126040Y+188840
X+126160Y+200840
Y+198120
X+129040Y+194920
X+126040Y+201160
X+122840Y+201000
X+132000Y+204120
X+126040Y+210000
X+141000Y+132000
Y+134920
X+138000Y+162040
X+141000Y+168080
X+137960Y+170920
X+138160Y+186040
X+144160Y+183000
X+135000Y+200960
X+153080Y+135000
X+153000Y+179840
X+156000Y+191840
X+168080Y+117000
X+168120Y+147000
X+167920Y+152880
X+165000Y+167960
X+159080Y+201160
X+159000Y+195160
X+158920Y+197880
X+159000Y+212920
X+162080Y+216040
X+171000Y+123000
X+173960Y+128880
X+176960Y+173880
X+170920Y+192000
X+182960Y+114040
X+186080Y+171080
X+186160Y+176960
X+185880Y+194920
X+183000Y+204040
X+192120Y+195000
X+192040Y+197880
T02
X+101642Y+164040
X+103250Y+139500
X+107500Y+111875
X+122500
X+123750Y+105500
X+128250Y+106750
X+130375Y+106250
X+129375Y+105625
X+140250Y+106689
X+139250Y+105875
X+141625Y+112625
X+142000Y+193000
X+147375Y+112625
X+150875
X+151750Y+116250
Y+124250
X+154000Y+123500
Y+125500
X+155000Y+153500
Y+155500
Y+183500
Y+185500
Y+204500
Y+206500
X+175250Y+115625
X+176250Y+133409
X+177500Y+123625
X+181125Y+114500
X+182110Y+161500
X+184625Y+114500
X+185250Y+118625
X+185375Y+122125
X+187000Y+114500
X+101524Y+147000
X+104000Y+162000
Y+164000
X+107000Y+175500
Y+177500
X+109500Y+116500
Y+113500
X+108500Y+116500
Y+113500
X+111500Y+116500
Y+113500
X+119000Y+144000
Y+142000
X+118000Y+177500
Y+174500
X+119000Y+172000
Y+171000
Y+177500
Y+174500
X+118000Y+184000
Y+182000
X+121000Y+167000
Y+165000
X+127500Y+153500
X+126500
X+138500Y+141500
Y+139500
Y+152000
Y+150000
Y+162000
Y+160000
Y+188000
Y+190000
Y+215000
Y+217000
X+148000Y+155000
Y+157000
X+152625Y+110875
X+151750Y+132250
X+155000Y+163500
Y+165500
Y+173500
Y+175500
Y+214500
Y+216500
X+164000Y+134846
X+167000Y+125000
Y+127000
X+167125Y+134875
X+166500Y+158000
Y+160000
X+172500Y+105500
Y+106500
X+173000Y+118000
Y+119000
X+172000
Y+118000
X+173000Y+141000
Y+138000
X+171500Y+135000
X+172500Y+155000
Y+153000
X+175000Y+118000
Y+119000
X+176000Y+118000
Y+119000
X+178500Y+105500
Y+106500
X+180375Y+117250
X+184500Y+117000
Y+118000
X+185000Y+131500
Y+129500
Y+141000
Y+143000
Y+135000
Y+138000
Y+152000
Y+154000
X+187000Y+202500
Y+204500
Y+213000
Y+215000
X+190500Y+120500
Y+119500
X+190000Y+186000
Y+184000
X+193500Y+124000
Y+122000
X+193000Y+164500
Y+162500
X+110000Y+181500
Y+184500
X+138500Y+205000
Y+207000
X+155000Y+193500
Y+195500
X+180500Y+109500
Y+107500
X+188000Y+195000
Y+193000
X+189500Y+109000
Y+112000
X+101750Y+119625
Y+129375
X+104500Y+139500
X+106500
X+101750
X+102000Y+146000
X+101752Y+152000
X+119500Y+150500
Y+152500
X+117000Y+157000
X+116000
X+118000
X+115000
Y+172000
X+113000
X+118500Y+207500
X+116500
X+122750Y+106125
X+131000Y+148500
X+130000
X+124000Y+164000
X+127000
X+122000Y+166000
X+124000
X+122000Y+167000
X+125000
X+141000Y+106250
X+142000Y+203000
X+143000
X+140000
X+141000
X+135000Y+214000
X+138000
X+162000Y+208000
X+159000
X+167000Y+211000
X+164000
X+174500Y+108500
Y+110500
X+173000Y+114500
Y+116500
X+179000Y+119000
Y+118000
X+178000Y+145000
X+179000
X+176846Y+155625
X+171000Y+162500
Y+164500
X+172000Y+212000
X+175000
X+171000Y+213500
Y+215500
X+187500Y+107000
X+190500
X+182875Y+114500
X+182750Y+118625
X+186248Y+131500
X+190000Y+134000
X+192000
X+185000Y+139000
X+182000
X+192000Y+145000
X+190000
X+185000
X+182000
X+190000Y+155000
X+187000
Y+169000
X+190000
X+187000Y+172000
X+189000
Y+173000
X+187000
X+182000
X+185000
Y+172000
X+182000
X+107500Y+118500
Y+120500
X+102000Y+151000
Y+153000
X+105000Y+171000
X+103000
X+108000Y+172000
Y+171000
X+104500Y+187000
X+101500
X+108500Y+186000
X+106500
X+108500Y+206500
X+106500
X+110000Y+105000
X+112000
X+113500Y+116500
Y+113500
X+116500Y+138500
X+115500
X+118500
X+119500
X+115500Y+135500
X+116500
X+119500
X+118500
X+117500Y+138500
X+114500
X+120500
X+114500Y+135500
X+117500
X+120500
X+115000Y+165000
X+114000
X+117000
X+118000
X+116000
X+119000
X+120000Y+161000
Y+163000
X+119000Y+180000
X+118000
X+114000Y+215000
Y+212000
Y+213000
Y+210000
Y+209000
X+111000Y+215000
Y+213000
Y+212000
Y+209000
Y+210000
X+114000Y+211000
Y+214000
Y+208000
X+111000Y+214000
Y+211000
Y+208000
X+119000Y+213000
Y+214000
Y+211000
Y+210000
X+116000Y+214000
Y+213000
Y+210000
Y+211000
X+119000Y+212000
Y+215000
Y+209000
X+116000Y+215000
Y+212000
Y+209000
X+130000Y+105000
X+127000
Y+135500
Y+137500
X+130000Y+143500
X+129000
X+123500Y+153500
X+122500
X+125500
X+124500
X+130000Y+154000
X+129000
X+124000Y+162000
X+127000
X+122000Y+165000
X+125000
X+127000Y+177000
Y+178000
Y+175000
Y+174000
X+124000Y+178000
Y+177000
Y+174000
Y+175000
X+127000Y+176000
Y+179000
Y+173000
X+124000Y+179000
Y+176000
Y+173000
X+129000Y+183000
Y+185000
Y+209000
Y+212000
Y+216000
Y+214000
X+141000Y+105000
X+139000
X+138000Y+178000
Y+180000
Y+172000
Y+170000
Y+183000
Y+185000
Y+198000
Y+200000
X+153000Y+113500
Y+115500
X+148000Y+142000
X+151000
X+150000
X+153000
X+154000
X+148000Y+139000
X+150000
X+151000
X+153000
X+154000
X+152000Y+142000
X+149000
X+155000
X+149000Y+139000
X+152000
X+155000
X+150000Y+152000
X+149000
X+152000
X+153000
X+149000Y+149000
X+150000
X+153000
X+152000
X+151000Y+152000
X+148000
X+154000
X+148000Y+149000
X+151000
X+154000
X+153000Y+155000
Y+156000
X+153500Y+158000
Y+160000
X+150000Y+166000
X+149000
X+152000
X+153000
X+149000Y+163000
X+150000
X+153000
X+152000
X+151000Y+166000
X+148000
X+154000
X+148000Y+163000
X+151000
X+154000
Y+161000
X+153000
X+150000Y+176000
X+149000
X+152000
X+153000
X+149000Y+173000
X+150000
X+153000
X+152000
X+151000Y+176000
X+148000
X+154000
X+148000Y+173000
X+151000
X+154000
X+152000Y+192000
X+155000
X+150000Y+186000
X+149000
X+152000
X+153000
X+149000Y+183000
X+150000
X+153000
X+152000
X+151000Y+186000
X+148000
X+154000
X+148000Y+183000
X+151000
X+154000
X+150000Y+191000
X+149000
X+152000
X+153000
X+149000Y+188000
X+150000
X+153000
X+152000
X+151000Y+191000
X+148000
X+154000
X+148000Y+188000
X+151000
X+154000
X+149000Y+202000
X+148000
X+151000
X+152000
X+148000Y+199000
X+149000
X+152000
X+151000
X+150000Y+202000
X+147000
X+153000
X+147000Y+199000
X+150000
X+153000
X+150000Y+212000
X+149000
X+152000
X+153000
X+149000Y+209000
X+150000
X+153000
X+152000
X+151000Y+212000
X+148000
X+154000
X+148000Y+209000
X+151000
X+154000
X+164000Y+201000
X+167000
X+176000Y+108000
X+178000
X+170500Y+105500
X+171500
X+173500
Y+106500
X+179500Y+105500
Y+106500
X+177000Y+118000
Y+119000
X+174000
Y+118000
X+173000Y+135000
X+175000
X+177000Y+144125
X+171500Y+155000
Y+152000
X+171000Y+173000
Y+175000
X+179000Y+177000
X+176000
X+177000
X+174000
X+173000
X+179000Y+180000
X+177000
X+176000
X+173000
X+174000
X+175000Y+177000
X+178000
X+172000
X+178000Y+180000
X+175000
X+172000
X+179000Y+182000
X+176000
X+177000
X+174000
X+173000
X+179000Y+185000
X+177000
X+176000
X+173000
X+174000
X+175000Y+182000
X+178000
X+172000
X+178000Y+185000
X+175000
X+172000
X+176000Y+187000
X+177000
X+174000
X+173000
X+177000Y+190000
X+176000
X+173000
X+174000
X+175000Y+187000
X+178000
X+172000
X+178000Y+190000
X+175000
X+172000
X+171000Y+182500
Y+184500
Y+203000
Y+205000
X+175000Y+197000
X+176000
X+173000
X+172000
X+176000Y+200000
X+175000
X+172000
X+173000
X+174000Y+197000
X+177000
X+171000
X+177000Y+200000
X+174000
X+171000
X+176000Y+208000
X+177000
X+174000
X+173000
X+177000Y+211000
X+176000
X+173000
X+174000
X+175000Y+208000
X+178000
X+172000
X+178000Y+211000
X+175000
X+172000
X+176000Y+213000
X+177000
X+174000
X+173000
X+177000Y+216000
X+176000
X+173000
X+174000
X+175000Y+213000
X+178000
X+172000
X+178000Y+216000
X+175000
X+172000
X+171000Y+207000
X+174000
X+191500Y+108000
X+189500
X+187000Y+120000
Y+118000
X+189500Y+117000
Y+118000
X+191000Y+117000
Y+118000
X+190000Y+129500
X+191000
X+188000
X+187000
X+191000Y+132500
X+190000
X+187000
X+188000
X+189000Y+129500
X+192000
X+186000
X+192000Y+132500
X+189000
X+186000
X+190000Y+124500
X+191000
X+188000
X+187000
X+191000Y+127500
X+190000
X+187000
X+188000
X+189000Y+124500
X+192000
X+186000
X+192000Y+127500
X+189000
X+186000
Y+123500
X+187000
X+188000
X+189000
X+191000Y+128500
X+188000
X+187000
X+186000
X+190000Y+140000
X+191000
X+188000
X+187000
X+191000Y+143000
X+190000
X+187000
X+188000
X+189000Y+140000
X+192000
X+186000
X+192000Y+143000
X+189000
X+186000
X+190000Y+135000
X+191000
X+188000
X+187000
X+191000Y+138000
X+190000
X+187000
X+188000
X+189000Y+135000
X+192000
X+186000
X+192000Y+138000
X+189000
X+186000
X+192000Y+144000
X+189000
X+185000
X+182000
X+190000Y+151000
X+191000
X+188000
X+187000
X+191000Y+154000
X+190000
X+187000
X+188000
X+189000Y+151000
X+192000
X+186000
X+192000Y+154000
X+189000
X+186000
X+190000Y+146000
X+191000
X+188000
X+187000
X+191000Y+149000
X+190000
X+187000
X+188000
X+189000Y+146000
X+192000
X+186000
X+192000Y+149000
X+189000
X+186000
X+184000Y+165000
X+183000
X+187000
X+186000
X+190000
X+189000
X+192000
X+184000Y+162000
X+183000
X+187000
X+186000
X+190000
X+189000
X+192000
X+185000Y+165000
X+188000
X+191000
X+185000Y+162000
X+188000
X+191000
X+182000Y+167500
X+185000
X+189000Y+174000
X+187000
X+185000
X+182000
X+183000Y+192000
X+186000
X+189000Y+185000
Y+183000
X+188000Y+201000
X+191000
X+194500Y+125000
Y+128000
X+103500Y+217500
Y+215500
X+111000Y+145000
X+114000
X+113000
X+116000
X+117000
X+111000Y+142000
X+113000
X+114000
X+116000
X+117000
X+115000Y+145000
X+112000
X+118000
X+112000Y+142000
X+115000
X+118000
X+114000Y+194000
Y+195000
Y+191000
Y+192000
Y+188000
Y+189000
Y+186000
X+111000Y+194000
Y+195000
Y+191000
Y+192000
Y+188000
Y+189000
Y+186000
X+114000Y+193000
Y+190000
Y+187000
X+111000Y+193000
Y+190000
Y+187000
X+119000Y+194000
Y+195000
Y+191000
Y+192000
Y+188000
Y+189000
Y+186000
X+116000Y+194000
Y+195000
Y+191000
Y+192000
Y+188000
Y+189000
Y+186000
X+119000Y+193000
Y+190000
Y+187000
X+116000Y+193000
Y+190000
Y+187000
X+120000Y+169000
Y+171000
X+113000Y+184500
X+112000
X+115000
X+116000
X+112000Y+181500
X+113000
X+116000
X+115000
X+114000Y+184500
X+111000
X+117000
X+111000Y+181500
X+114000
X+117000
X+138000Y+193000
Y+195000
X+153000Y+133500
Y+135500
X+150000Y+147000
X+149000
X+152000
X+153000
X+149000Y+144000
X+150000
X+153000
X+152000
X+151000Y+147000
X+148000
X+154000
X+148000Y+144000
X+151000
X+154000
X+155500Y+146000
Y+144000
X+149000Y+154000
Y+157000
Y+156000
Y+159000
Y+160000
X+152000Y+154000
Y+156000
Y+157000
Y+160000
Y+159000
X+149000Y+158000
Y+155000
Y+161000
X+152000Y+155000
Y+158000
Y+161000
X+150000Y+196000
X+149000
X+152000
X+153000
X+149000Y+193000
X+150000
X+153000
X+152000
X+151000Y+196000
X+148000
X+154000
X+148000Y+193000
X+151000
X+154000
X+150000Y+171000
X+149000
X+152000
X+153000
X+149000Y+168000
X+150000
X+153000
X+152000
X+151000Y+171000
X+148000
X+154000
X+148000Y+168000
X+151000
X+154000
X+150000Y+181000
X+149000
X+152000
X+153000
X+149000Y+178000
X+150000
X+153000
X+152000
X+151000Y+181000
X+148000
X+154000
X+148000Y+178000
X+151000
X+154000
X+150000Y+217000
X+149000
X+152000
X+153000
X+149000Y+214000
X+150000
X+153000
X+152000
X+151000Y+217000
X+148000
X+154000
X+148000Y+214000
X+151000
X+154000
X+150000Y+207000
X+149000
X+152000
X+153000
X+149000Y+204000
X+150000
X+153000
X+152000
X+151000Y+207000
X+148000
X+154000
X+148000Y+204000
X+151000
X+154000
X+171000Y+193000
Y+195000
X+176000Y+192000
X+177000
X+174000
X+173000
X+177000Y+195000
X+176000
X+173000
X+174000
X+175000Y+192000
X+178000
X+172000
X+178000Y+195000
X+175000
X+172000
X+176000Y+203000
X+177000
X+174000
X+173000
X+177000Y+206000
X+176000
X+173000
X+174000
X+175000Y+203000
X+178000
X+172000
X+178000Y+206000
X+175000
X+172000
X+186500Y+111000
X+185500
X+188500
X+186500Y+108000
X+185500
X+188500
X+187500Y+111000
Y+108000
X+182000Y+168500
X+185000
X+106000Y+197000
Y+196000
Y+200000
Y+199000
Y+203000
Y+202000
Y+205000
X+109000Y+197000
Y+196000
Y+200000
Y+199000
Y+203000
Y+202000
Y+205000
X+106000Y+198000
Y+201000
Y+204000
X+109000Y+198000
Y+201000
Y+204000
X+111000Y+198000
Y+197000
Y+201000
Y+200000
Y+204000
Y+203000
Y+206000
X+114000Y+198000
Y+197000
Y+201000
Y+200000
Y+204000
Y+203000
Y+206000
X+111000Y+199000
Y+202000
Y+205000
X+114000Y+199000
Y+202000
Y+205000
X+116000Y+198000
Y+197000
Y+201000
Y+200000
Y+204000
Y+203000
Y+206000
X+119000Y+198000
Y+197000
Y+201000
Y+200000
Y+204000
Y+203000
Y+206000
X+116000Y+199000
Y+202000
Y+205000
X+119000Y+199000
Y+202000
Y+205000
X+127000Y+214000
Y+213000
Y+211000
Y+210000
Y+208000
Y+207000
Y+205000
Y+204000
Y+202000
Y+201000
Y+199000
Y+198000
Y+196000
Y+195000
Y+193000
Y+192000
Y+190000
Y+189000
Y+187000
Y+186000
Y+212000
Y+209000
Y+206000
Y+203000
Y+200000
Y+197000
Y+194000
Y+191000
Y+188000
Y+185000
X+123500Y+119000
X+121500
X+123500Y+127000
X+121500
X+123000Y+161000
X+126000
X+123000Y+164000
X+120000
X+181500Y+109000
X+184500
X+167500Y+119000
X+169500
X+184000Y+151000
X+181000
X+193000Y+172000
X+190000
X+131000Y+105000
X+133000
X+134000
X+136000
X+137000
X+132000
X+135000
X+138000
X+112500Y+117500
X+113500
X+110500
X+109500
X+113500Y+120500
X+112500
X+109500
X+110500
X+111500Y+117500
X+114500
X+108500
X+114500Y+120500
X+111500
X+108500
X+123500Y+111000
X+121500
X+112500Y+122500
X+113500
X+110500
X+109500
X+113500Y+125500
X+112500
X+109500
X+110500
X+111500Y+122500
X+114500
X+108500
X+114500Y+125500
X+111500
X+108500
X+112500Y+128500
X+113500
X+110500
X+109500
X+113500Y+131500
X+112500
X+109500
X+110500
X+111500Y+128500
X+114500
X+108500
X+114500Y+131500
X+111500
X+108500
X+130000Y+142500
X+133000
X+132000
X+135000
X+136000
X+130000Y+139500
X+132000
X+133000
X+136000
X+135000
X+134000Y+142500
X+131000
X+137000
X+131000Y+139500
X+134000
X+137000
X+144000Y+142000
X+145000
X+142000
X+141000
X+145000Y+145000
X+144000
X+141000
X+142000
X+143000Y+142000
X+146000
X+140000
X+146000Y+145000
X+143000
X+140000
X+144000Y+137000
X+145000
X+142000
X+141000
X+145000Y+140000
X+144000
X+141000
X+142000
X+143000Y+137000
X+146000
X+140000
X+146000Y+140000
X+143000
X+140000
X+125500Y+139500
X+126500
X+123500
X+122500
X+126500Y+142500
X+125500
X+122500
X+123500
X+124500Y+139500
X+127500
X+121500
X+127500Y+142500
X+124500
X+121500
X+110500Y+135500
X+111500
X+108500
X+107500
X+111500Y+138500
X+110500
X+107500
X+108500
X+109500Y+135500
X+112500
X+106500
X+112500Y+138500
X+109500
X+106500
X+123500Y+135000
X+121500
X+130000Y+152500
X+133000
X+132000
X+135000
X+136000
X+130000Y+149500
X+132000
X+133000
X+135000
X+136000
X+134000Y+152500
X+131000
X+137000
X+131000Y+149500
X+134000
X+137000
X+144000Y+147000
X+145000
X+142000
X+141000
X+145000Y+150000
X+144000
X+141000
X+142000
X+143000Y+147000
X+146000
X+140000
X+146000Y+150000
X+143000
X+140000
X+144000Y+152000
X+145000
X+142000
X+141000
X+145000Y+155000
X+144000
X+141000
X+142000
X+143000Y+152000
X+146000
X+140000
X+146000Y+155000
X+143000
X+140000
X+127500Y+149500
X+124500
X+125500
X+122500
X+121500
X+127500Y+152500
X+125500
X+124500
X+122500
X+121500
X+123500Y+149500
X+126500
X+120500
X+126500Y+152500
X+123500
X+120500
X+133000Y+153500
X+132000
X+118000Y+158000
X+116000
X+115000
X+113000
X+112000
X+110000
X+109000
X+107000
X+106000
X+118000Y+164000
X+116000
X+115000
X+113000
X+112000
X+110000
X+109000
X+107000
X+106000
X+117000Y+158000
X+114000
X+111000
X+108000
X+105000
X+117000Y+164000
X+114000
X+111000
X+105000
X+108000
X+144000Y+162000
X+145000
X+142000
X+141000
X+145000Y+165000
X+144000
X+141000
X+142000
X+143000Y+162000
X+146000
X+140000
X+146000Y+165000
X+143000
X+140000
X+130000Y+168000
X+133000
X+132000
X+135000
X+136000
X+130000Y+165000
X+132000
X+133000
X+135000
X+136000
X+134000Y+168000
X+131000
X+137000
X+131000Y+165000
X+134000
X+137000
X+130000Y+163000
X+133000
X+132000
X+135000
X+136000
X+130000Y+160000
X+132000
X+133000
X+135000
X+136000
X+134000Y+163000
X+131000
X+137000
X+131000Y+160000
X+134000
X+137000
X+125000
X+126000
X+123000
X+122000
X+126000Y+163000
X+125000
X+122000
X+123000
X+124000Y+160000
X+127000
X+121000
X+127000Y+163000
X+124000
X+121000
X+131000Y+159000
X+132000
X+110000Y+180000
X+111000
X+113000
X+114000
X+116000
X+117000
X+109000
X+112000
X+115000
X+130000Y+178000
X+133000
X+132000
X+135000
X+136000
X+130000Y+175000
X+132000
X+133000
X+135000
X+136000
X+134000Y+178000
X+131000
X+137000
X+131000Y+175000
X+134000
X+137000
X+130000Y+173000
X+133000
X+132000
X+135000
X+136000
X+130000Y+170000
X+132000
X+133000
X+135000
X+136000
X+134000Y+173000
X+131000
X+137000
X+131000Y+170000
X+134000
X+137000
X+116000Y+174500
X+117000
X+113000
X+114000
X+110000
X+111000
X+108000
X+116000Y+177500
X+117000
X+113000
X+114000
X+110000
X+111000
X+108000
X+115000Y+174500
X+112000
X+109000
X+115000Y+177500
X+112000
X+109000
X+146000Y+177000
X+143000
X+144000
X+141000
X+140000
X+146000Y+180000
X+144000
X+143000
X+141000
X+140000
X+142000Y+177000
X+145000
X+139000
X+145000Y+180000
X+142000
X+139000
X+144000Y+172000
X+145000
X+142000
X+141000
X+145000Y+175000
X+144000
X+141000
X+142000
X+143000Y+172000
X+146000
X+140000
X+146000Y+175000
X+143000
X+140000
X+130000Y+188000
X+133000
X+132000
X+135000
X+136000
X+130000Y+185000
X+132000
X+133000
X+135000
X+136000
X+134000Y+188000
X+131000
X+137000
X+131000Y+185000
X+134000
X+137000
X+146000Y+182000
X+143000
X+144000
X+141000
X+140000
X+146000Y+185000
X+144000
X+143000
X+141000
X+140000
X+142000Y+182000
X+145000
X+139000
X+145000Y+185000
X+142000
X+139000
X+144000Y+187000
X+145000
X+142000
X+141000
X+145000Y+190000
X+144000
X+141000
X+142000
X+143000Y+187000
X+146000
X+140000
X+146000Y+190000
X+143000
X+140000
X+130000Y+198000
X+133000
X+132000
X+135000
X+136000
X+130000Y+195000
X+132000
X+133000
X+135000
X+136000
X+134000Y+198000
X+131000
X+137000
X+131000Y+195000
X+134000
X+137000
X+130000Y+203000
X+133000
X+132000
X+135000
X+136000
X+130000Y+200000
X+132000
X+133000
X+135000
X+136000
X+134000Y+203000
X+131000
X+137000
X+131000Y+200000
X+134000
X+137000
X+143000Y+197000
X+144000
X+141000
X+140000
X+144000Y+200000
X+143000
X+140000
X+141000
X+142000Y+197000
X+145000
X+139000
X+145000Y+200000
X+142000
X+139000
X+130000Y+213000
X+133000
X+132000
X+135000
X+136000
X+130000Y+210000
X+132000
X+133000
X+135000
X+136000
X+134000Y+213000
X+131000
X+137000
X+131000Y+210000
X+134000
X+137000
X+109000Y+215000
Y+212000
Y+213000
Y+210000
Y+209000
X+106000Y+215000
Y+213000
Y+212000
Y+209000
Y+210000
X+109000Y+211000
Y+214000
Y+208000
X+106000Y+214000
Y+211000
Y+208000
X+124000Y+215000
Y+212000
Y+213000
Y+210000
Y+209000
X+121000Y+215000
Y+213000
Y+212000
Y+209000
Y+210000
X+124000Y+211000
Y+214000
Y+208000
X+121000Y+214000
Y+211000
Y+208000
X+144000Y+214000
X+145000
X+142000
X+141000
X+145000Y+217000
X+144000
X+141000
X+142000
X+143000Y+214000
X+146000
X+140000
X+146000Y+217000
X+143000
X+140000
X+146000Y+209000
X+143000
X+144000
X+141000
X+140000
X+146000Y+212000
X+144000
X+143000
X+141000
X+140000
X+142000Y+209000
X+145000
X+139000
X+145000Y+212000
X+142000
X+139000
X+192500Y+117000
Y+118000
X+162000Y+113000
X+163000
X+159000
X+160000
X+156000
X+157000
X+154000
X+162000Y+116000
X+163000
X+159000
X+160000
X+156000
X+157000
X+154000
X+161000Y+113000
X+158000
X+155000
X+161000Y+116000
X+158000
X+155000
X+162000Y+118000
X+163000
X+159000
X+160000
X+156000
X+157000
X+154000
X+162000Y+121000
X+163000
X+159000
X+160000
X+156000
X+157000
X+154000
X+161000Y+118000
X+158000
X+155000
X+161000Y+121000
X+158000
X+155000
X+191000Y+111000
X+194000
X+180000Y+132500
X+179000
X+182000
X+183000
X+179000Y+129500
X+180000
X+183000
X+182000
X+181000Y+132500
X+178000
X+184000
X+178000Y+129500
X+181000
X+184000
X+180000Y+127500
X+179000
X+182000
X+183000
X+179000Y+124500
X+180000
X+183000
X+182000
X+181000Y+127500
X+178000
X+184000
X+178000Y+124500
X+181000
X+184000
X+175000Y+129500
X+172000
X+173000
X+170000
X+169000
X+175000Y+132500
X+173000
X+172000
X+170000
X+169000
X+171000Y+129500
X+174000
X+168000
X+174000Y+132500
X+171000
X+168000
X+175000Y+124500
X+172000
X+173000
X+170000
X+169000
X+175000Y+127500
X+173000
X+172000
X+170000
X+169000
X+171000Y+124500
X+174000
X+168000
X+174000Y+127500
X+171000
X+168000
X+162000Y+128000
X+159000
X+160000
X+157000
X+156000
X+162000Y+131000
X+160000
X+159000
X+157000
X+156000
X+158000Y+128000
X+161000
X+155000
X+161000Y+131000
X+158000
X+155000
X+162000Y+123000
X+159000
X+160000
X+157000
X+156000
X+162000Y+126000
X+160000
X+159000
X+157000
X+156000
X+158000Y+123000
X+161000
X+155000
X+161000Y+126000
X+158000
X+155000
X+180000Y+143000
X+179000
X+182000
X+183000
X+179000Y+140000
X+180000
X+183000
X+182000
X+181000Y+143000
X+178000
X+184000
X+178000Y+140000
X+181000
X+184000
X+177000Y+138000
X+180000
X+179000
X+182000
X+183000
X+177000Y+135000
X+179000
X+180000
X+183000
X+182000
X+181000Y+138000
X+178000
X+184000
X+178000Y+135000
X+181000
X+184000
X+165000Y+138000
X+166000
X+162000
X+163000
X+159000
X+160000
X+157000
X+165000Y+141000
X+166000
X+162000
X+163000
X+159000
X+160000
X+157000
X+164000Y+138000
X+161000
X+158000
X+164000Y+141000
X+161000
X+158000
X+180000Y+149000
X+179000
X+182000
X+183000
X+179000Y+146000
X+180000
X+183000
X+182000
X+181000Y+149000
X+178000
X+184000
X+178000Y+146000
X+181000
X+184000
X+180000Y+155000
X+179000
X+182000
X+183000
X+179000Y+152000
X+180000
X+183000
X+182000
X+181000Y+155000
X+178000
X+184000
X+178000Y+152000
X+181000
X+184000
X+165000Y+148000
X+166000
X+162000
X+163000
X+159000
X+160000
X+157000
X+165000Y+151000
X+166000
X+162000
X+163000
X+159000
X+160000
X+157000
X+164000Y+148000
X+161000
X+158000
X+164000Y+151000
X+161000
X+158000
X+160000Y+153000
X+161000
X+158000
X+157000
X+161000Y+156000
X+160000
X+157000
X+158000
X+159000Y+153000
X+162000
X+156000
X+162000Y+156000
X+159000
X+156000
X+184000Y+150000
X+181000
X+166000Y+165000
X+165000
X+168000
X+169000
X+165000Y+162000
X+166000
X+169000
X+168000
X+167000Y+165000
X+164000
X+170000
X+164000Y+162000
X+167000
X+170000
X+180000
X+181000
X+177000
X+178000
X+174000
X+175000
X+172000
X+180000Y+165000
X+181000
X+177000
X+178000
X+174000
X+175000
X+172000
X+179000Y+162000
X+176000
X+173000
X+179000Y+165000
X+176000
X+173000
X+163000Y+158000
X+160000
X+161000
X+158000
X+157000
X+163000Y+161000
X+161000
X+160000
X+157000
X+158000
X+159000Y+158000
X+162000
X+156000
X+162000Y+161000
X+159000
X+156000
X+160000Y+163000
X+161000
X+158000
X+157000
X+161000Y+166000
X+160000
X+157000
X+158000
X+159000Y+163000
X+162000
X+156000
X+162000Y+166000
X+159000
X+156000
X+166000Y+180000
X+165000
X+168000
X+169000
X+165000Y+177000
X+166000
X+169000
X+168000
X+167000Y+180000
X+164000
X+170000
X+164000Y+177000
X+167000
X+170000
X+166000Y+175000
X+165000
X+168000
X+169000
X+165000Y+172000
X+166000
X+169000
X+168000
X+167000Y+175000
X+164000
X+170000
X+164000Y+172000
X+167000
X+170000
X+183000Y+176000
X+184000
X+186000
X+187000
X+189000
X+190000
X+192000
X+193000
X+183000Y+170000
X+184000
X+186000
X+187000
X+190000
X+189000
X+192000
X+193000
X+182000Y+176000
X+185000
X+188000
X+191000
X+182000Y+170000
X+185000
X+188000
X+191000
X+160000Y+173000
X+161000
X+158000
X+157000
X+161000Y+176000
X+160000
X+157000
X+158000
X+159000Y+173000
X+162000
X+156000
X+162000Y+176000
X+159000
X+156000
X+160000Y+178000
X+161000
X+158000
X+157000
X+161000Y+181000
X+160000
X+157000
X+158000
X+159000Y+178000
X+162000
X+156000
X+162000Y+181000
X+159000
X+156000
X+166000Y+190000
X+165000
X+168000
X+169000
X+165000Y+187000
X+166000
X+169000
X+168000
X+167000Y+190000
X+164000
X+170000
X+164000Y+187000
X+167000
X+170000
X+180000Y+191000
X+183000
X+182000
X+185000
X+186000
X+180000Y+188000
X+182000
X+183000
X+186000
X+185000
X+184000Y+191000
X+181000
X+187000
X+181000Y+188000
X+184000
X+187000
X+181000Y+186000
X+184000
X+183000
X+186000
X+187000
X+181000Y+183000
X+183000
X+184000
X+187000
X+186000
X+185000Y+186000
X+182000
X+188000
X+182000Y+183000
X+185000
X+188000
X+160000
X+161000
X+158000
X+157000
X+161000Y+186000
X+160000
X+157000
X+158000
X+159000Y+183000
X+162000
X+156000
X+162000Y+186000
X+159000
X+156000
X+160000Y+188000
X+161000
X+158000
X+157000
X+161000Y+191000
X+160000
X+157000
X+158000
X+159000Y+188000
X+162000
X+156000
X+162000Y+191000
X+159000
X+156000
X+166000Y+185000
X+165000
X+168000
X+169000
X+165000Y+182000
X+166000
X+169000
X+168000
X+167000Y+185000
X+164000
X+170000
X+164000Y+182000
X+167000
X+170000
X+191000Y+186000
X+194000
X+165000Y+200000
X+164000
X+167000
X+168000
X+164000Y+197000
X+165000
X+168000
X+167000
X+166000Y+200000
X+163000
X+169000
X+163000Y+197000
X+166000
X+169000
X+179000Y+201000
X+182000
X+181000
X+184000
X+185000
X+179000Y+198000
X+181000
X+182000
X+185000
X+184000
X+183000Y+201000
X+180000
X+186000
X+180000Y+198000
X+183000
X+186000
X+159000Y+199000
X+160000
X+157000
X+156000
X+160000Y+202000
X+159000
X+156000
X+157000
X+158000Y+199000
X+161000
X+155000
X+161000Y+202000
X+158000
X+155000
X+192000
X+193000
X+190000
X+189000
X+193000Y+205000
X+192000
X+189000
X+190000
X+191000Y+202000
X+194000
X+188000
X+194000Y+205000
X+191000
X+188000
X+192000Y+197000
X+193000
X+190000
X+189000
X+193000Y+200000
X+192000
X+189000
X+190000
X+191000Y+197000
X+194000
X+188000
X+194000Y+200000
X+191000
X+188000
X+166000Y+210000
X+165000
X+168000
X+169000
X+165000Y+207000
X+166000
X+169000
X+168000
X+167000Y+210000
X+164000
X+170000
X+164000Y+207000
X+167000
X+170000
X+182000Y+216000
X+181000
X+184000
X+185000
X+181000Y+213000
X+182000
X+185000
X+184000
X+183000Y+216000
X+180000
X+186000
X+180000Y+213000
X+183000
X+186000
X+182000Y+211000
X+181000
X+184000
X+185000
X+181000Y+208000
X+182000
X+185000
X+184000
X+183000Y+211000
X+180000
X+186000
X+180000Y+208000
X+183000
X+186000
X+160000Y+214000
X+161000
X+158000
X+157000
X+161000Y+217000
X+160000
X+157000
X+158000
X+159000Y+214000
X+162000
X+156000
X+162000Y+217000
X+159000
X+156000
X+160000Y+209000
X+161000
X+158000
X+157000
X+161000Y+212000
X+160000
X+157000
X+158000
X+159000Y+209000
X+162000
X+156000
X+162000Y+212000
X+159000
X+156000
X+192000
X+193000
X+190000
X+189000
X+193000Y+215000
X+192000
X+189000
X+190000
X+191000Y+212000
X+194000
X+188000
X+194000Y+215000
X+191000
X+188000
X+192000Y+207000
X+193000
X+190000
X+189000
X+193000Y+210000
X+192000
X+189000
X+190000
X+191000Y+207000
X+194000
X+188000
X+194000Y+210000
X+191000
X+188000
X+166000Y+215000
X+165000
X+168000
X+169000
X+165000Y+212000
X+166000
X+169000
X+168000
X+167000Y+215000
X+164000
X+170000
X+164000Y+212000
X+167000
X+170000
X+130000Y+147500
X+133000
X+132000
X+135000
X+136000
X+130000Y+144500
X+132000
X+133000
X+135000
X+136000
X+134000Y+147500
X+131000
X+137000
X+131000Y+144500
X+134000
X+137000
X+127500
X+124500
X+125500
X+122500
X+121500
X+127500Y+147500
X+125500
X+124500
X+122500
X+121500
X+123500Y+144500
X+126500
X+120500
X+126500Y+147500
X+123500
X+120500
X+130000Y+183000
X+133000
X+132000
X+135000
X+136000
X+130000Y+180000
X+132000
X+133000
X+135000
X+136000
X+134000Y+183000
X+131000
X+137000
X+131000Y+180000
X+134000
X+137000
X+130000Y+193000
X+133000
X+132000
X+135000
X+136000
X+130000Y+190000
X+132000
X+133000
X+135000
X+136000
X+134000Y+193000
X+131000
X+137000
X+131000Y+190000
X+134000
X+137000
X+109000Y+191000
Y+192000
Y+189000
Y+188000
X+106000Y+192000
Y+191000
Y+188000
Y+189000
X+109000Y+190000
Y+193000
Y+187000
X+106000Y+193000
Y+190000
Y+187000
X+124000Y+194000
Y+195000
Y+191000
Y+192000
Y+188000
Y+189000
Y+186000
X+121000Y+194000
Y+195000
Y+191000
Y+192000
Y+188000
Y+189000
Y+186000
X+124000Y+193000
Y+190000
Y+187000
X+121000Y+193000
Y+190000
Y+187000
X+123000Y+181500
X+124000
X+121000
X+120000
X+124000Y+184500
X+123000
X+120000
X+121000
X+122000Y+181500
X+125000
X+119000
X+125000Y+184500
X+122000
X+119000
X+144000Y+167000
X+145000
X+142000
X+141000
X+145000Y+170000
X+144000
X+141000
X+142000
X+143000Y+167000
X+146000
X+140000
X+146000Y+170000
X+143000
X+140000
X+125000Y+168000
X+126000
X+123000
X+122000
X+126000Y+171000
X+125000
X+122000
X+123000
X+124000Y+168000
X+127000
X+121000
X+127000Y+171000
X+124000
X+121000
X+125000Y+155000
X+126000
X+123000
X+122000
X+126000Y+158000
X+125000
X+122000
X+123000
X+124000Y+155000
X+127000
X+121000
X+127000Y+158000
X+124000
X+121000
X+130000
X+133000
X+132000
X+135000
X+136000
X+130000Y+155000
X+132000
X+133000
X+135000
X+136000
X+134000Y+158000
X+131000
X+137000
X+131000Y+155000
X+134000
X+137000
X+144000Y+157000
X+145000
X+142000
X+141000
X+145000Y+160000
X+144000
X+141000
X+142000
X+143000Y+157000
X+146000
X+140000
X+146000Y+160000
X+143000
X+140000
X+146000Y+192000
X+143000
X+144000
X+141000
X+140000
X+146000Y+195000
X+144000
X+143000
X+141000
X+140000
X+142000Y+192000
X+145000
X+139000
X+145000Y+195000
X+142000
X+139000
X+130000Y+208000
X+133000
X+132000
X+135000
X+136000
X+130000Y+205000
X+132000
X+133000
X+135000
X+136000
X+134000Y+208000
X+131000
X+137000
X+131000Y+205000
X+134000
X+137000
X+144000Y+204000
X+145000
X+142000
X+141000
X+145000Y+207000
X+144000
X+141000
X+142000
X+143000Y+204000
X+146000
X+140000
X+146000Y+207000
X+143000
X+140000
X+133000Y+218000
X+132000
X+135000
X+136000
X+132000Y+215000
X+133000
X+136000
X+135000
X+134000Y+218000
X+131000
X+137000
X+131000Y+215000
X+134000
X+137000
X+167000Y+110000
Y+109000
Y+113000
Y+112000
Y+116000
Y+115000
Y+118000
X+170000Y+110000
Y+109000
Y+113000
Y+112000
Y+116000
Y+115000
Y+118000
X+167000Y+111000
Y+114000
Y+117000
X+170000Y+111000
Y+114000
Y+117000
X+162000Y+108000
X+163000
X+159000
X+160000
X+156000
X+157000
X+154000
X+162000Y+111000
X+163000
X+159000
X+160000
X+156000
X+157000
X+154000
X+161000Y+108000
X+158000
X+155000
X+161000Y+111000
X+158000
X+155000
X+162000Y+133000
X+163000
X+159000
X+160000
X+156000
X+157000
X+154000
X+162000Y+136000
X+163000
X+159000
X+160000
X+156000
X+157000
X+154000
X+161000Y+133000
X+158000
X+155000
X+161000Y+136000
X+158000
X+155000
X+165000Y+143000
X+166000
X+162000
X+163000
X+159000
X+160000
X+157000
X+165000Y+146000
X+166000
X+162000
X+163000
X+159000
X+160000
X+157000
X+164000Y+143000
X+161000
X+158000
X+164000Y+146000
X+161000
X+158000
X+166000Y+195000
X+165000
X+168000
X+169000
X+165000Y+192000
X+166000
X+169000
X+168000
X+167000Y+195000
X+164000
X+170000
X+164000Y+192000
X+167000
X+170000
X+166000Y+170000
X+165000
X+168000
X+169000
X+165000Y+167000
X+166000
X+169000
X+168000
X+167000Y+170000
X+164000
X+170000
X+164000Y+167000
X+167000
X+170000
X+180000Y+196000
X+183000
X+182000
X+185000
X+186000
X+180000Y+193000
X+182000
X+183000
X+186000
X+185000
X+184000Y+196000
X+181000
X+187000
X+181000Y+193000
X+184000
X+187000
X+181000Y+181000
X+184000
X+183000
X+186000
X+187000
X+181000Y+178000
X+183000
X+184000
X+187000
X+186000
X+185000Y+181000
X+182000
X+188000
X+182000Y+178000
X+185000
X+188000
X+175500Y+157000
X+176500
X+172500
X+173500
X+169500
X+170500
X+167500
X+175500Y+160000
X+176500
X+172500
X+173500
X+169500
X+170500
X+167500
X+174500Y+157000
X+171500
X+168500
X+174500Y+160000
X+171500
X+168500
X+193000Y+195000
Y+192000
Y+193000
Y+190000
Y+189000
X+190000Y+195000
Y+193000
Y+192000
Y+189000
Y+190000
X+193000Y+191000
Y+194000
Y+188000
X+190000Y+194000
Y+191000
Y+188000
X+191000Y+181000
Y+180000
Y+183000
Y+184000
X+194000Y+180000
Y+181000
Y+184000
Y+183000
X+191000Y+182000
Y+179000
Y+185000
X+194000Y+179000
Y+182000
Y+185000
X+160000Y+193000
X+161000
X+158000
X+157000
X+161000Y+196000
X+160000
X+157000
X+158000
X+159000Y+193000
X+162000
X+156000
X+162000Y+196000
X+159000
X+156000
X+160000Y+168000
X+161000
X+158000
X+157000
X+161000Y+171000
X+160000
X+157000
X+158000
X+159000Y+168000
X+162000
X+156000
X+162000Y+171000
X+159000
X+156000
X+166000Y+205000
X+165000
X+168000
X+169000
X+165000Y+202000
X+166000
X+169000
X+168000
X+167000Y+205000
X+164000
X+170000
X+164000Y+202000
X+167000
X+170000
X+160000Y+204000
X+161000
X+158000
X+157000
X+161000Y+207000
X+160000
X+157000
X+158000
X+159000Y+204000
X+162000
X+156000
X+162000Y+207000
X+159000
X+156000
X+182000Y+206000
X+181000
X+184000
X+185000
X+181000Y+203000
X+182000
X+185000
X+184000
X+183000Y+206000
X+180000
X+186000
X+180000Y+203000
X+183000
X+186000
X+121000Y+198000
Y+197000
Y+201000
Y+200000
Y+204000
Y+203000
Y+206000
X+124000Y+198000
Y+197000
Y+201000
Y+200000
Y+204000
Y+203000
Y+206000
X+121000Y+199000
Y+202000
Y+205000
X+124000Y+199000
Y+202000
Y+205000
X+169000Y+136000
Y+139000
Y+138000
Y+142000
Y+141000
Y+145000
Y+144000
Y+148000
Y+147000
Y+151000
Y+150000
Y+153000
Y+154000
X+175000Y+136000
Y+138000
Y+139000
Y+141000
Y+142000
Y+144000
Y+145000
Y+147000
Y+148000
Y+151000
Y+150000
Y+153000
Y+154000
X+169000Y+146000
Y+143000
Y+140000
Y+137000
Y+152000
Y+149000
Y+155000
X+175000Y+137000
Y+140000
Y+143000
Y+146000
Y+149000
Y+152000
Y+155000
X+109000Y+142000
X+106000
X+107000
X+104000
X+103000
X+109000Y+145000
X+107000
X+106000
X+104000
X+103000
X+105000Y+142000
X+108000
X+102000
X+108000Y+145000
X+105000
X+102000
X+117000Y+147000
X+118000
X+114000
X+115000
X+111000
X+112000
X+108000
X+109000
X+105000
X+106000
X+103000
X+117000Y+153000
X+118000
X+114000
X+115000
X+111000
X+112000
X+109000
X+108000
X+105000
X+106000
X+103000
X+116000Y+147000
X+113000
X+110000
X+107000
X+104000
X+116000Y+153000
X+113000
X+110000
X+107000
X+104000
X+122000Y+173000
X+119000
X+120000
X+116000
X+117000
X+113000
X+114000
X+110000
X+111000
X+107000
X+108000
X+105000
X+104000
X+122000Y+179000
X+120000
X+119000
X+117000
X+116000
X+114000
X+113000
X+111000
X+110000
X+107000
X+108000
X+105000
X+104000
X+112000Y+173000
X+115000
X+118000
X+121000
X+106000
X+109000
X+103000
X+121000Y+179000
X+118000
X+115000
X+112000
X+109000
X+106000
X+103000
X+117000Y+167000
X+118000
X+114000
X+115000
X+111000
X+112000
X+108000
X+109000
X+105000
X+106000
X+103000
X+117000Y+170000
X+118000
X+114000
X+115000
X+111000
X+112000
X+109000
X+108000
X+105000
X+106000
X+103000
X+116000Y+167000
X+113000
X+110000
X+107000
X+104000
X+110000Y+170000
X+113000
X+116000
X+104000
X+107000
X+109000Y+181500
X+106000
X+107000
X+104000
X+103000
X+109000Y+184500
X+107000
X+106000
X+104000
X+103000
X+105000Y+181500
X+108000
X+102000
X+108000Y+184500
X+105000
X+102000
T03
X+110000Y+101500
X+111000
X+113000
X+114000
X+116000
X+117000
X+119000
X+120000
X+122000
X+123000
X+125000
X+126000
X+128000
X+129000
X+131000
X+132000
X+134000
X+135000
X+137000
X+138000
X+140000
X+144000
X+146000
X+147000
X+149000
X+150000
X+152000
X+153000
X+155000
X+156000
X+158000
X+159000
X+161000
X+110000Y+103500
X+111000
X+113000
X+114000
X+116000
X+117000
X+119000
X+120000
X+122000
X+123000
X+125000
X+126000
X+128000
X+129000
X+131000
X+132000
X+134000
X+135000
X+137000
X+138000
X+140000
X+144000
X+146000
X+147000
X+149000
X+150000
X+152000
X+153000
X+155000
X+156000
X+158000
X+159000
X+161000
X+112000Y+101500
X+124000
X+121000
X+118000
X+115000
X+136000
X+133000
X+130000
X+127000
X+139000
X+148000
X+145000
X+160000
X+157000
X+154000
X+151000
X+112000Y+103500
X+124000
X+121000
X+118000
X+115000
X+136000
X+133000
X+130000
X+127000
X+139000
X+148000
X+145000
X+160000
X+157000
X+154000
X+151000
X+119750Y+115500
X+121750
X+120750
X+122750
X+124750
X+123750
X+125750
X+127750
X+126750
X+128750
X+130750
X+129750
X+131750
X+133750
X+132750
X+134750
X+136750
X+135750
X+137750
X+139750
X+138750
X+140750
X+142750
X+141750
X+143750
X+145750
X+144750
X+146750
X+148750
X+147750
X+149750
X+119750Y+117500
X+121750
X+122750
X+120750
X+124750
X+123750
X+125750
X+127750
X+126750
X+128750
X+130750
X+129750
X+131750
X+133750
X+132750
X+134750
X+136750
X+135750
X+137750
X+139750
X+138750
X+140750
X+142750
X+141750
X+143750
X+145750
X+144750
X+146750
X+148750
X+147750
X+149750
X+119750Y+123500
X+121750
X+120750
X+122750
X+124750
X+123750
X+125750
X+127750
X+126750
X+128750
X+130750
X+129750
X+131750
X+133750
X+132750
X+134750
X+136750
X+135750
X+137750
X+139750
X+138750
X+140750
X+142750
X+141750
X+143750
X+145750
X+144750
X+146750
X+148750
X+147750
X+149750
X+119750Y+125500
X+121750
X+122750
X+120750
X+124750
X+123750
X+125750
X+127750
X+126750
X+128750
X+130750
X+129750
X+131750
X+133750
X+132750
X+134750
X+136750
X+135750
X+137750
X+139750
X+138750
X+140750
X+142750
X+141750
X+143750
X+145750
X+144750
X+146750
X+148750
X+147750
X+149750
X+119750Y+131500
X+121750
X+120750
X+122750
X+124750
X+123750
X+125750
X+127750
X+126750
X+128750
X+130750
X+129750
X+131750
X+133750
X+132750
X+134750
X+136750
X+135750
X+137750
X+139750
X+138750
X+140750
X+142750
X+141750
X+143750
X+145750
X+144750
X+146750
X+148750
X+147750
X+149750
X+119750Y+133500
X+121750
X+122750
X+120750
X+124750
X+123750
X+125750
X+127750
X+126750
X+128750
X+130750
X+129750
X+131750
X+133750
X+132750
X+134750
X+136750
X+135750
X+137750
X+139750
X+138750
X+140750
X+142750
X+141750
X+143750
X+145750
X+144750
X+146750
X+148750
X+147750
X+149750
X+119750Y+107500
X+121750
X+120750
X+122750
X+124750
X+123750
X+125750
X+127750
X+126750
X+128750
X+130750
X+129750
X+131750
X+133750
X+132750
X+134750
X+136750
X+135750
X+137750
X+139750
X+138750
X+140750
X+142750
X+141750
X+143750
X+145750
X+144750
X+146750
X+148750
X+147750
X+149750
X+119750Y+109500
X+121750
X+122750
X+120750
X+124750
X+123750
X+125750
X+127750
X+126750
X+128750
X+130750
X+129750
X+131750
X+133750
X+132750
X+134750
X+136750
X+135750
X+137750
X+139750
X+138750
X+140750
X+142750
X+141750
X+143750
X+145750
X+144750
X+146750
X+148750
X+147750
X+149750
T04
X+193500Y+128500
Y+127500
Y+119500
Y+120500
X+104500Y+132500
Y+131500
X+103500Y+130500
Y+132500
Y+131500
X+102500Y+212000
Y+213000
Y+209000
Y+210000
Y+206000
Y+207000
Y+203000
Y+204000
Y+200000
Y+201000
Y+197000
Y+198000
Y+194000
Y+195000
Y+191000
Y+192000
Y+189000
Y+211000
Y+208000
Y+205000
Y+202000
Y+199000
Y+196000
Y+193000
Y+190000
X+103500Y+212000
Y+213000
Y+209000
Y+210000
Y+206000
Y+207000
Y+203000
Y+204000
Y+200000
Y+201000
Y+197000
Y+198000
Y+194000
Y+195000
Y+191000
Y+192000
Y+189000
Y+211000
Y+208000
Y+205000
Y+202000
Y+199000
Y+196000
Y+193000
Y+190000
X+194000Y+110000
X+193000
X+191000
X+192000
X+174000Y+217500
X+172000
X+173000
X+169500Y+103500
Y+104500
X+171500Y+102500
X+174500
X+173500
X+177500
X+176500
X+180500
X+179500
X+183500
X+182500
X+186500
X+185500
X+189500
X+188500
X+172500
X+175500
X+178500
X+181500
X+184500
X+187500
X+190500
X+171500Y+103500
X+174500
X+173500
X+177500
X+176500
X+180500
X+179500
X+183500
X+182500
X+186500
X+185500
X+189500
X+188500
X+172500
X+175500
X+178500
X+181500
X+184500
X+187500
X+190500
X+193500Y+125000
Y+126000
X+169000Y+121000
X+168000
X+172000
X+171000
X+175000
X+174000
X+178000
X+177000
X+181000
X+180000
X+183000
X+184000
X+170000
X+173000
X+176000
X+179000
X+182000
X+169000Y+122000
X+168000
X+172000
X+171000
X+175000
X+174000
X+178000
X+177000
X+181000
X+180000
X+183000
X+184000
X+170000
X+173000
X+176000
X+179000
X+182000
X+193000Y+167500
Y+168500
X+181000Y+158000
X+180000
X+184000
X+183000
X+187000
X+186000
X+190000
X+189000
X+188000
X+185000
X+182000
X+179000
X+191000
X+181000Y+159000
X+180000
X+184000
X+183000
X+187000
X+186000
X+190000
X+189000
X+188000
X+185000
X+182000
X+179000
X+191000
T05
X+150000Y+119000
X+148000
X+149000
X+150000Y+122000
X+148000
X+149000
X+150000Y+127000
X+148000
X+149000
X+150000Y+130000
X+148000
X+149000
X+126000Y+167000
X+127000
X+126000Y+165000
X+127000
X+150000Y+135000
X+148000
X+149000
X+180500Y+174000
Y+175000
Y+173000
X+189500Y+105500
X+190500
X+188000Y+167500
X+186000
X+187000
X+150000Y+192000
X+151000
X+180250Y+170500
X+172375
X+192000Y+119500
Y+121500
Y+120500
X+150000Y+106000
X+148000
X+149000
X+136000Y+209000
X+137000
X+150000Y+114000
X+148000
X+149000
X+150000Y+111000
X+148000
X+149000
X+182500Y+110500
X+181500
X+183500
T06
X+179000Y+110500
X+177000
X+178000
T07
X+187000Y+122000
X+189000
X+141000Y+201500
X+143000
X+190000Y+183000
Y+182000
T08
X+127000Y+181250
T09
X+177059Y+113417
Y+115583
X+180366Y+113417
Y+115583
X+183673Y+113417
Y+115583
X+185327Y+113417
Y+115583
X+188634Y+113417
Y+115583
X+191941Y+113417
Y+115583
X+178713Y+113417
X+182020
Y+115583
X+178713
X+190287Y+113417
X+186980
X+190287Y+115583
X+186980
T10
X+127000Y+217750
T11
X+175209Y+113575
X+193791
T12
X+193500Y+106500
Y+217500
Y+155500
X+104000Y+106500
X+113000Y+217500
X+165000Y+106500
Y+217500
X+104000Y+137500
Y+155500
X+165000
T00
M30
